<svg width="345" height="62" viewBox="0 0 345 62" fill="none" xmlns="http://www.w3.org/2000/svg">
<g clip-path="url(#clip0_177_8495)">
<path d="M173.029 22.3386H183.439V46.8864H191.953V22.3386H202.372V15.1133H173.029V22.3386Z" fill="#A0A0A0"/>
<path d="M335.731 15.1133V27.9072H322.845V15.1133H314.488V46.8864H322.845V35.3811H335.731V46.8864H344.089V15.1133H335.731Z" fill="#A0A0A0"/>
<path d="M116.745 15.1133L102.617 46.8864H111.278L113.45 41.6216H128.048L130.202 46.8864H138.974L124.845 15.1133H116.745ZM116.175 35.0221L120.777 23.8941L125.379 35.0221H116.175Z" fill="#A0A0A0"/>
<path d="M164.192 29.9966C167.128 28.9013 168.794 26.6002 168.794 23.1578C168.849 17.6352 165.029 15.1133 158.071 15.1133H142.009V46.8864H157.334C164.753 46.8864 169.861 44.6129 169.861 37.3416C169.929 35.6465 169.398 33.9816 168.361 32.6387C167.325 31.2958 165.849 30.3605 164.192 29.9966ZM150.256 21.5655H157.334C159.654 21.5655 160.841 22.7528 160.841 24.6029C160.841 26.4529 159.654 27.6127 157.334 27.6127L150.247 27.5666L150.256 21.5655ZM157.62 40.4342H150.201V33.531H157.565C160.197 33.531 161.541 34.8656 161.541 36.9826C161.541 39.0996 160.271 40.4342 157.638 40.4342H157.62Z" fill="#A0A0A0"/>
<path d="M221.967 14.2942C210.572 14.2942 204.847 21.8233 204.847 30.9539C204.847 40.0845 210.554 47.6596 221.967 47.6596C233.38 47.6596 239.087 40.0753 239.087 30.9539C239.087 21.8325 233.362 14.2942 221.967 14.2942ZM221.967 39.8176C216.702 39.8176 213.352 36.2648 213.352 30.9539C213.352 25.643 216.702 22.0902 221.967 22.0902C227.232 22.0902 230.527 25.597 230.527 30.9171C230.527 36.2372 227.177 39.8176 221.967 39.8176Z" fill="#A0A0A0"/>
<path d="M260.855 26.1032H253.224V22.0257H268.872L271.964 15.1133H244.996V46.8864H259.897C267.325 46.8864 272.535 44.1251 272.535 36.2647C272.507 29.969 268.641 26.1032 260.855 26.1032ZM259.824 40.1765H253.224V32.3621H259.98C262.972 32.3621 264.361 33.8071 264.361 36.2831C264.361 38.759 263.073 40.1765 259.824 40.1765Z" fill="#A0A0A0"/>
<path d="M289.37 15.1133L275.242 46.8864H283.903L286.075 41.6216H300.673L302.836 46.8864H311.599L297.47 15.1133H289.37ZM288.79 35.0221L293.393 23.931L297.995 35.0589L288.79 35.0221Z" fill="#A0A0A0"/>
<path d="M74.6623 51.2955L67.4278 35.0408L85.0724 27.9075L74.6623 51.2955ZM0.696899 62.0001H57.5332L48.872 42.5423L0.696899 62.0001Z" fill="#A0A0A0"/>
<path d="M79.4301 61.9999L51.8266 0H50.1974H28.3005L0.696899 61.9999L27.3985 51.2125L40.0635 22.7713L57.5332 61.9999H79.4301Z" fill="#A0A0A0"/>
</g>
<defs>
<clipPath id="clip0_177_8495">
<rect width="343.393" height="61.9999" fill="white" transform="translate(0.696899)"/>
</clipPath>
</defs>
</svg>
