<svg width="87" height="62" viewBox="0 0 87 62" fill="none" xmlns="http://www.w3.org/2000/svg">
<g id="delo_ru" clip-path="url(#clip0_177_8390)">
<g id="&#208;&#161;&#208;&#187;&#208;&#190;&#208;&#185; 2">
<g id="Layer 1">
<path id="Vector" d="M57.5164 0.000366211V52.5408H55.5056V0.000366211H57.5164Z" fill="#A0A0A0"/>
<path id="Vector_2" d="M29.9734 40.4776C30.1109 43.0674 31.1548 45.5263 32.9226 47.4239C34.6904 49.3215 37.0693 50.5368 39.6428 50.857C42.2164 51.1773 44.8206 50.5821 46.9995 49.1756C49.1785 47.7692 50.7933 45.6411 51.5612 43.164H53.6508C52.8215 46.3816 50.7976 49.1624 47.9908 50.9407C45.184 52.7191 41.8052 53.3615 38.5416 52.7371C35.2781 52.1128 32.3749 50.2687 30.4227 47.58C28.4705 44.8912 27.6159 41.5598 28.0326 38.2633C28.4494 34.9668 30.1063 31.9529 32.6663 29.8346C35.2262 27.7163 38.497 26.6528 41.8132 26.8604C45.1295 27.0679 48.2421 28.531 50.518 30.952C52.7938 33.3729 54.062 36.5699 54.0644 39.8927C54.0644 40.0876 54.0585 40.2826 54.0506 40.4756H29.9734V40.4776ZM41.0066 28.8477C38.3236 28.8478 35.7323 29.8242 33.7163 31.5945C31.7002 33.3648 30.3972 35.8082 30.0503 38.4687H51.963C51.6161 35.8082 50.313 33.3648 48.297 31.5945C46.2809 29.8242 43.6896 28.8478 41.0066 28.8477Z" fill="#A0A0A0"/>
<path id="Vector_3" d="M13.3349 26.8388C15.5412 26.8377 17.7118 27.3961 19.6437 28.4618C21.5757 29.5275 23.2058 31.0656 24.3818 32.9325V0.000366211H26.3907V39.8947C26.3909 42.4771 25.6253 45.0017 24.1906 47.149C22.756 49.2963 20.7168 50.97 18.331 51.9584C15.9451 52.9467 13.3197 53.2054 10.7869 52.7016C8.25398 52.1979 5.92739 50.9543 4.1013 49.1282C2.27521 47.3021 1.03165 44.9755 0.52788 42.4427C0.0241105 39.9098 0.282762 37.2844 1.27112 34.8985C2.25949 32.5127 3.93317 30.4735 6.0805 29.0389C8.22784 27.6042 10.7524 26.8386 13.3349 26.8388ZM13.3349 28.8477C11.15 28.8477 9.01416 29.4956 7.1975 30.7094C5.38084 31.9233 3.96492 33.6486 3.12881 35.6672C2.29269 37.6857 2.07392 39.9069 2.50017 42.0498C2.92642 44.1927 3.97854 46.1611 5.52348 47.706C7.06843 49.251 9.03681 50.3031 11.1797 50.7293C13.3226 51.1556 15.5438 50.9368 17.5623 50.1007C19.5809 49.2646 21.3062 47.8487 22.5201 46.032C23.7339 44.2153 24.3818 42.0795 24.3818 39.8947C24.3815 36.9649 23.2176 34.1552 21.1459 32.0836C19.0743 30.012 16.2646 28.848 13.3349 28.8477Z" fill="#A0A0A0"/>
<path id="Vector_4" d="M71.9502 39.6799H65.8171C65.8469 37.5983 66.1772 35.5319 66.7979 33.5449C68.4831 33.9705 70.2122 34.1978 71.9502 34.2224V39.6799ZM71.9502 45.8247C70.2123 45.8502 68.4833 46.0776 66.7979 46.5022C66.1772 44.5151 65.8469 42.4488 65.8171 40.3672H71.9502V45.8247ZM72.6395 40.3672H78.7745C78.7441 42.4489 78.4131 44.5152 77.7917 46.5022C76.1066 46.0765 74.3774 45.8491 72.6395 45.8247V40.3672ZM72.6395 34.2243C74.3774 34.199 76.1064 33.9716 77.7917 33.5468C78.4131 35.5338 78.7441 37.6002 78.7745 39.6818H72.6395V34.2243ZM61.8269 48.4186C59.9877 46.1318 58.9529 43.3029 58.8825 40.3692H65.1278C65.1574 42.5113 65.4957 44.6379 66.1323 46.6834C64.64 47.1085 63.1969 47.6901 61.8269 48.4186ZM69.3583 53.1198C66.6222 52.5058 64.1474 51.0497 62.2819 48.9562C63.5788 48.2804 64.9408 47.7374 66.3469 47.3353C67.0625 49.4003 68.0771 51.3492 69.3583 53.1198ZM71.9502 53.4388C71.4162 53.4255 70.8834 53.3801 70.3549 53.3029C68.9155 51.4494 67.7874 49.374 67.0146 47.1581C68.6295 46.7539 70.2856 46.5372 71.9502 46.5121V53.4388ZM74.2348 53.3029C73.706 53.3782 73.1734 53.4236 72.6395 53.4388V46.514C74.304 46.5392 75.9601 46.7559 77.5751 47.16C76.8018 49.3751 75.6737 51.4498 74.2348 53.3029ZM82.3078 48.9562C80.4421 51.0496 77.9674 52.5056 75.2314 53.1198C76.5123 51.3493 77.5262 49.4004 78.2408 47.3353C79.6478 47.7367 81.0104 48.2797 82.3078 48.9562ZM85.7091 40.3672C85.638 43.3012 84.6026 46.13 82.7627 48.4166C81.3915 47.6893 79.9479 47.1077 78.4554 46.6815C79.0917 44.6358 79.4306 42.5093 79.4619 40.3672H85.7091ZM82.7627 31.6305C84.6023 33.9172 85.6377 36.746 85.7091 39.6799H79.4638C79.4326 37.5378 79.0936 35.4113 78.4574 33.3656C79.9494 32.9398 81.3925 32.3583 82.7627 31.6305ZM75.2314 26.9293C77.9674 27.5434 80.4421 28.9995 82.3078 31.0928C81.0105 31.7695 79.6478 32.3126 78.2408 32.7137C77.5283 30.6478 76.5142 28.6985 75.2314 26.9293ZM72.6395 26.6102C73.1735 26.6235 73.7062 26.6688 74.2348 26.7461C75.6737 28.5999 76.8019 30.6753 77.5751 32.891C75.96 33.2941 74.304 33.5109 72.6395 33.537V26.6102ZM70.3549 26.7461C70.8837 26.6709 71.4163 26.6255 71.9502 26.6102V33.535C70.2856 33.5109 68.6293 33.2941 67.0146 32.889C67.787 30.6736 68.9152 28.5988 70.3549 26.7461ZM62.2819 31.0909C64.1474 28.9974 66.6222 27.5413 69.3583 26.9273C68.0771 28.6979 67.0625 30.6468 66.3469 32.7118C64.9402 32.3115 63.5781 31.7683 62.2819 31.0909ZM58.8825 39.6799C58.9529 36.7461 59.9877 33.9172 61.8269 31.6305C63.1974 32.3584 64.6404 32.9406 66.1323 33.3676C65.4957 35.4131 65.1574 37.5398 65.1278 39.6818H58.8825V39.6799Z" fill="#A0A0A0"/>
<path id="Vector_5" d="M0.775085 61.8466H2.26403V57.8013H3.96765V56.525H0.775085V61.8466Z" fill="#A0A0A0"/>
<path id="Vector_6" d="M4.90204 61.8467H6.39098V60.0899H7.1453C7.5566 60.105 7.96351 60.0011 8.31716 59.7905C8.58162 59.6223 8.79058 59.3798 8.91786 59.0933C9.0279 58.8453 9.08493 58.5771 9.08527 58.3057C9.0856 58.0344 9.02925 57.766 8.91983 57.5177C8.7926 57.2329 8.58437 56.9918 8.3211 56.8245C7.96694 56.6134 7.55925 56.5094 7.14727 56.5251H4.90204V61.8467ZM6.39295 57.695H6.82034C7.13152 57.7029 7.33241 57.7718 7.42497 57.8998C7.51347 58.016 7.55811 58.1597 7.55102 58.3055C7.55623 58.4463 7.51468 58.5848 7.43285 58.6994C7.34225 58.8373 7.1394 58.9102 6.81837 58.922H6.39098V57.695H6.39295Z" fill="#A0A0A0"/>
<path id="Vector_7" d="M9.64032 56.5253L11.6394 60.3816L10.9166 61.8469H12.5158L14.9107 56.5253H13.2898L12.439 58.7607L11.3971 56.5253H9.64032Z" fill="#A0A0A0"/>
<path id="Vector_8" d="M15.6794 56.5253V61.8469H17.1703V57.8015H18.935V61.8469H20.4259V56.5253H15.6794Z" fill="#A0A0A0"/>
<path id="Vector_9" d="M21.7302 56.5253V61.8469H23.2191V57.8015H24.9838V61.8469H26.4727V56.5253H21.7302Z" fill="#A0A0A0"/>
<path id="Vector_10" d="M27.2419 61.8468H28.8392L29.1365 60.927H30.9465L31.2439 61.8468H32.8412L30.9465 56.5232H29.1365L27.2419 61.8468ZM30.0405 57.7955L30.6491 59.7571H29.432L30.0405 57.7955Z" fill="#A0A0A0"/>
<path id="Vector_11" d="M37.8572 61.8466H39.3461V59.5581L40.8902 61.8466H42.7553L40.6775 59.1031L42.7002 56.525H40.9513L39.3461 58.7604V56.525H37.8572V61.8466Z" fill="#A0A0A0"/>
<path id="Vector_12" d="M46.1465 62.0003C46.7101 62.0129 47.2662 61.8698 47.7536 61.5867C48.1599 61.3368 48.487 60.9769 48.697 60.5488C48.9006 60.1233 49.0062 59.6576 49.0062 59.1859C49.0062 58.7142 48.9006 58.2485 48.697 57.823C48.4869 57.3949 48.1598 57.035 47.7536 56.7851C47.2618 56.5138 46.7092 56.3715 46.1475 56.3715C45.5858 56.3715 45.0332 56.5138 44.5414 56.7851C44.1351 57.0354 43.8075 57.3951 43.596 57.823C43.3925 58.2485 43.2868 58.7142 43.2868 59.1859C43.2868 59.6576 43.3925 60.1233 43.596 60.5488C43.8058 60.9778 44.1338 61.3379 44.5414 61.5867C45.0279 61.8703 45.5835 62.0135 46.1465 62.0003ZM46.1465 60.7241C45.9748 60.7264 45.8044 60.6935 45.6459 60.6275C45.4874 60.5614 45.3441 60.4636 45.2248 60.34C44.9688 60.084 44.8348 59.6993 44.823 59.1859C44.8348 58.6718 44.9688 58.2871 45.2248 58.0318C45.3455 57.9101 45.4891 57.8135 45.6473 57.7476C45.8055 57.6816 45.9751 57.6477 46.1465 57.6477C46.3179 57.6477 46.4876 57.6816 46.6458 57.7476C46.804 57.8135 46.9476 57.9101 47.0683 58.0318C47.3243 58.2878 47.4582 58.6725 47.47 59.1859C47.4582 59.698 47.3243 60.084 47.0683 60.34C46.9488 60.4633 46.8054 60.5609 46.6469 60.627C46.4885 60.693 46.3182 60.726 46.1465 60.7241Z" fill="#A0A0A0"/>
<path id="Vector_13" d="M49.6989 61.8469H51.1268L51.5227 58.7607L52.4208 61.8469H53.3779L54.276 58.7607L54.6739 61.8469H56.1018L55.3278 56.5253H53.8349L52.9013 59.773L51.9658 56.5253H50.4729L49.6989 61.8469Z" fill="#A0A0A0"/>
<path id="Vector_14" d="M57.0309 56.5253V61.8469H58.5219V57.8015H60.2865V61.8469H61.7755V56.5253H57.0309Z" fill="#A0A0A0"/>
<path id="Vector_15" d="M62.5446 61.8468H64.1419L64.4393 60.927H66.2493L66.5447 61.8468H68.1419L66.2473 56.5232H64.4373L62.5446 61.8468ZM65.3453 57.7955L65.9538 59.7571H64.7347L65.3453 57.7955Z" fill="#A0A0A0"/>
<path id="Vector_16" d="M68.9177 61.8467H70.4066V59.7177H72.2186V61.8467H73.7075V56.5251H72.2186V58.4395H70.4066V56.5251H68.9177V61.8467Z" fill="#A0A0A0"/>
<path id="Vector_17" d="M75.0153 56.5251V61.8467H76.4747L78.5368 58.6542V61.8467H79.9726V56.5251H78.5132L76.4511 59.7177V56.5251H75.0153Z" fill="#A0A0A0"/>
<path id="Vector_18" d="M81.2692 56.5251V61.8487H82.7306L84.7907 58.6561V61.8487H86.2284V56.5251H84.769L82.707 59.7177V56.5251H81.2692ZM84.4953 55.0637C84.4402 55.2216 84.3247 55.3512 84.1742 55.4241C84.0416 55.485 83.8967 55.5146 83.7508 55.5108C83.605 55.5137 83.4603 55.4841 83.3274 55.4241C83.1777 55.3501 83.0626 55.2209 83.0063 55.0637L82.1555 55.3828C82.2947 55.6749 82.5325 55.9086 82.8271 56.0426C83.1198 56.1686 83.4351 56.2336 83.7538 56.2336C84.0724 56.2336 84.3877 56.1686 84.6804 56.0426C84.9754 55.9092 85.2134 55.6754 85.352 55.3828L84.4953 55.0637Z" fill="#A0A0A0"/>
</g>
</g>
</g>
<defs>
<clipPath id="clip0_177_8390">
<rect width="85.9511" height="62" fill="white" transform="translate(0.277039)"/>
</clipPath>
</defs>
</svg>
