<svg width="202" height="62" viewBox="0 0 202 62" fill="none" xmlns="http://www.w3.org/2000/svg">
<g id="gtlk_ru" clip-path="url(#clip0_177_8426)">
<g id="&#208;&#161;&#208;&#187;&#208;&#190;&#208;&#185; 2">
<g id="Layer 1">
<path id="Vector" d="M100.047 18.8049L97.1306 21.986H87.5871V49.5562H74.8624V12.4425H100.047V18.8049Z" fill="#A0A0A0"/>
<path id="Vector_2" d="M102.433 12.4425H134.244V18.8049L131.328 21.986H124.701V49.5562H111.976V21.986H102.433V12.4425Z" fill="#A0A0A0"/>
<path id="Vector_3" d="M138.773 12.4425L127.827 44.784V49.556H139.448L148.517 21.9856H150.884V49.556H163.609V12.4425H138.773Z" fill="#A0A0A0"/>
<path id="Vector_4" d="M192.754 30.6062L200.578 17.2144V12.4425H189.329L181.852 26.228H179.466V12.4425H166.741V49.556H179.466V35.7711H181.852L189.701 49.556H201.321V44.7847L192.754 30.6062Z" fill="#A0A0A0"/>
<path id="Vector_5" d="M37.5912 24.599L33.8956 20.9035L38.4943 3.73987L47.2154 14.9748L37.5912 24.599Z" fill="#A0A0A0"/>
<path id="Vector_6" d="M31.1899 18.1985L33.8957 20.9036L38.4943 3.74002L22.8839 0.00012207L26.9731 15.2619L31.1899 18.1985Z" fill="#A0A0A0"/>
<path id="Vector_7" d="M15.1664 14.975L7.13977 6.94832L22.8853 0.00012207L26.9745 15.2619L15.1664 14.975Z" fill="#A0A0A0"/>
<path id="Vector_8" d="M15.1663 14.975L7.13963 6.94836L0.198364 22.696L2.18059 30.9999L3.93133 23.6954L15.1663 14.975Z" fill="#A0A0A0"/>
<path id="Vector_9" d="M43.9936 30.9998L37.5929 24.5992L47.2171 14.975L46.9302 26.7831L43.9936 30.9998Z" fill="#A0A0A0"/>
<path id="Vector_10" d="M24.7899 24.5992L21.0944 28.2947L3.93079 23.6954L15.1657 14.975L24.7899 24.5992Z" fill="#A0A0A0"/>
<path id="Vector_11" d="M18.3889 30.9999L21.0941 28.2948L3.93045 23.6954L0.190552 39.3065L15.4523 35.2173L18.3889 30.9999Z" fill="#A0A0A0"/>
<path id="Vector_12" d="M15.1654 47.0255L7.13875 55.0522L0.190552 39.3066L15.4523 35.2174L15.1654 47.0255Z" fill="#A0A0A0"/>
<path id="Vector_13" d="M15.1664 47.0255L7.13977 55.0522L22.8874 61.9934L31.1913 60.0112L23.8868 58.2605L15.1664 47.0255Z" fill="#A0A0A0"/>
<path id="Vector_14" d="M31.19 18.1985L24.7894 24.5992L15.1652 14.975L26.9733 15.2619L31.19 18.1985Z" fill="#A0A0A0"/>
<path id="Vector_15" d="M24.7894 37.401L28.4849 41.0965L23.8856 58.2602L15.1652 47.0252L24.7894 37.401Z" fill="#A0A0A0"/>
<path id="Vector_16" d="M31.1884 43.8019L28.4832 41.0968L23.8839 58.2604L39.495 62.0003L35.4058 46.7385L31.1884 43.8019Z" fill="#A0A0A0"/>
<path id="Vector_17" d="M47.2174 47.0253L55.2441 55.052L39.4985 62.0002L35.4093 46.7384L47.2174 47.0253Z" fill="#A0A0A0"/>
<path id="Vector_18" d="M47.2159 47.0255L55.2426 55.0521L62.1839 39.3045L60.2016 31.0006L58.4509 38.3044L47.2159 47.0255Z" fill="#A0A0A0"/>
<path id="Vector_19" d="M18.3887 30.9999L24.7894 37.4012L15.1652 47.0254L15.4521 35.2173L18.3887 30.9999Z" fill="#A0A0A0"/>
<path id="Vector_20" d="M37.5929 37.4012L41.2884 33.7057L58.452 38.3043L47.2171 47.0254L37.5929 37.4012Z" fill="#A0A0A0"/>
<path id="Vector_21" d="M43.9933 30.9999L41.2882 33.7057L58.4518 38.3044L62.1917 22.694L46.9299 26.7832L43.9933 30.9999Z" fill="#A0A0A0"/>
<path id="Vector_22" d="M47.2157 14.975L55.2424 6.94836L62.1906 22.6939L46.9288 26.7831L47.2157 14.975Z" fill="#A0A0A0"/>
<path id="Vector_23" d="M47.2154 14.9751L55.2421 6.94847L39.4944 0.00720215L31.1906 1.98943L38.4943 3.74017L47.2154 14.9751Z" fill="#A0A0A0"/>
<path id="Vector_24" d="M31.1906 43.8017L37.5919 37.401L47.2161 47.0252L35.408 46.7383L31.1906 43.8017Z" fill="#A0A0A0"/>
</g>
</g>
</g>
<defs>
<clipPath id="clip0_177_8426">
<rect width="201.128" height="62" fill="white" transform="translate(0.188599)"/>
</clipPath>
</defs>
</svg>
