<svg width="94" height="62" viewBox="0 0 94 62" fill="none" xmlns="http://www.w3.org/2000/svg">
<g id="msu-1" clip-path="url(#clip0_177_8412)">
<g id="&#208;&#161;&#208;&#187;&#208;&#190;&#208;&#185; 1">
<g id="Group">
<g id="Group_2">
<path id="Vector" d="M67.106 33.2305H62.4155L64.4373 30.3434H69.1278L67.106 33.2305Z" fill="#A0A0A0"/>
<path id="Vector_2" d="M73.0387 30.3703V37.0493H76.9525V24.8999L73.0387 30.3703Z" fill="#A0A0A0"/>
<path id="Vector_3" d="M42.5807 34.5245C40.6048 34.5245 39.0039 32.9347 39.0039 30.9746C39.0039 29.0146 40.6048 27.4247 42.5807 27.4247C43.7307 27.4247 44.7543 27.9642 45.4076 28.801L47.1636 26.3458C45.9233 25.2353 44.2417 24.5503 42.3877 24.5503C38.5752 24.5503 35.484 27.4374 35.484 30.9983C35.484 34.5593 38.5752 37.4464 42.3877 37.4464C44.5075 37.4464 46.4043 36.5526 47.6698 35.1478L45.7952 32.5281C45.2146 33.7098 43.9933 34.5229 42.5791 34.5229L42.5807 34.5245Z" fill="#A0A0A0"/>
<path id="Vector_4" d="M52.4211 24.9236H48.3571L52.2708 30.394H56.2083L56.2716 30.3054L52.4211 24.9236Z" fill="#A0A0A0"/>
<path id="Vector_5" d="M60.1222 24.9236L56.2717 30.3054L56.2084 30.394L51.4293 37.073H55.5361L64.2289 24.9236H60.1222Z" fill="#A0A0A0"/>
<path id="Vector_6" d="M27.9309 24.9236L24.6641 29.4907L21.3958 24.9236H16.4664V37.073H19.8249V27.923L24.6641 34.3979L29.5017 27.923V37.073H32.8602V24.9236H27.9309Z" fill="#A0A0A0"/>
</g>
<g id="Group_3">
<path id="Vector_7" d="M49.6753 -0.000488281C31.0588 -0.000488281 15.1807 7.33346 8.96838 17.6447C16.7516 10.2474 30.116 5.36393 45.3043 5.36393C69.3358 5.36393 88.816 17.5798 88.816 32.6495C88.816 36.0444 87.8194 39.2921 86.0128 42.2915C90.5435 37.9854 93.1885 32.8298 93.1885 27.2851C93.1885 12.217 73.7068 -0.000488281 49.6753 -0.000488281Z" fill="#A0A0A0"/>
<path id="Vector_8" d="M43.7398 61.9995C62.3563 61.9995 78.2344 54.6656 84.4483 44.3544C76.6651 51.7516 63.3007 56.6351 48.1124 56.6351C24.0809 56.6351 4.60068 44.4193 4.60068 29.3495C4.60068 25.9547 5.59731 22.7069 7.4039 19.7075C2.87318 24.012 0.228149 29.1676 0.228149 34.7124C0.228149 49.7821 19.7099 61.998 43.7398 61.998" fill="#A0A0A0"/>
</g>
</g>
</g>
</g>
<defs>
<clipPath id="clip0_177_8412">
<rect width="92.9605" height="62" fill="white" transform="translate(0.228149)"/>
</clipPath>
</defs>
</svg>
