<svg width="193" height="62" viewBox="0 0 193 62" fill="none" xmlns="http://www.w3.org/2000/svg">
<g id="Resurs-1-2">
<g id="&#208;&#161;&#208;&#187;&#208;&#190;&#208;&#185; 2">
<g id="Layer 1">
<path id="Vector" d="M178.903 14.4979L171.537 21.6817H174.691V21.8484H171.079L174.725 18.2951V14.342H178.737L170.426 6.21289L162.071 14.3376H166.132V18.2898L169.784 21.8514H166.166V21.6817H169.323L161.959 14.4979L154.592 21.6817H157.748V31.0525H183.112V21.683H186.267L178.903 14.4979ZM180.827 22.9034H181.145L181.586 23.8853L182.027 22.9034H182.345V24.1535H182.129V23.3266L182.146 23.0893L181.691 24.118H181.491L181.027 23.0893L181.043 23.3266V24.1535H180.827V22.9034ZM179.877 22.8643C179.968 22.8557 180.06 22.8668 180.146 22.8968C180.232 22.9268 180.311 22.975 180.377 23.0382C180.443 23.1014 180.495 23.1781 180.529 23.263C180.563 23.3479 180.578 23.4391 180.573 23.5304C180.563 23.7082 180.485 23.8753 180.355 23.9974C180.225 24.1196 180.054 24.1876 179.876 24.1876C179.698 24.1876 179.526 24.1196 179.397 23.9974C179.267 23.8753 179.189 23.7082 179.178 23.5304C179.174 23.439 179.189 23.3478 179.223 23.2628C179.257 23.1779 179.309 23.1013 179.376 23.0381C179.442 22.975 179.521 22.9268 179.607 22.8968C179.694 22.8668 179.786 22.8557 179.877 22.8643ZM177.563 23.9623H177.685C177.818 23.7817 177.88 23.5591 177.86 23.3361V22.9034H178.918V23.9623H179.046V24.5223H178.832V24.1535H177.776V24.5223H177.563V23.9623ZM175.695 22.3902C175.707 22.4519 175.741 22.507 175.792 22.5442C175.842 22.5814 175.905 22.5979 175.968 22.5905C176.031 22.5984 176.094 22.5821 176.146 22.545C176.197 22.5078 176.233 22.4525 176.245 22.3902H176.376C176.361 22.4873 176.312 22.576 176.238 22.6401C176.164 22.7042 176.069 22.7395 175.971 22.7395C175.873 22.7395 175.778 22.7042 175.704 22.6401C175.629 22.576 175.58 22.4873 175.566 22.3902H175.695ZM175.336 22.9034H175.562V23.8764L176.323 22.9034H176.574V24.1535H176.349V23.1826L175.584 24.1535H175.336V22.9034ZM173.764 22.9034H173.989V23.8764L174.751 22.9034H175.003V24.1535H174.777V23.1826L174.013 24.1535H173.764V22.9034ZM172.342 22.9034H172.567V23.4496L173.224 22.9034H173.558L172.966 23.3801L173.603 24.1535H173.298L172.799 23.5169L172.567 23.7028V24.1535H172.342V22.9034ZM171.46 22.8643C171.601 22.8513 171.742 22.8904 171.856 22.9743C171.97 23.0582 172.049 23.181 172.079 23.3195H171.845C171.821 23.2431 171.772 23.1772 171.705 23.1325C171.639 23.0878 171.56 23.067 171.48 23.0737C171.418 23.0685 171.356 23.0768 171.298 23.098C171.24 23.1192 171.187 23.1529 171.144 23.1966C171.1 23.2404 171.066 23.2931 171.045 23.3512C171.024 23.4093 171.015 23.4714 171.021 23.533C171.016 23.5925 171.024 23.6524 171.045 23.7084C171.065 23.7645 171.098 23.8154 171.14 23.8578C171.182 23.9001 171.233 23.9329 171.289 23.9539C171.345 23.9748 171.404 23.9834 171.464 23.9792C171.554 23.988 171.644 23.9627 171.715 23.9084C171.787 23.854 171.836 23.7746 171.852 23.6859H172.088C172.066 23.8344 171.989 23.969 171.871 24.0622C171.753 24.1554 171.605 24.2002 171.455 24.1876C171.366 24.1937 171.277 24.1809 171.194 24.1503C171.111 24.1196 171.035 24.0717 170.971 24.0096C170.908 23.9476 170.858 23.8728 170.826 23.7902C170.793 23.7077 170.778 23.6191 170.782 23.5304C170.778 23.4408 170.793 23.3514 170.826 23.2679C170.858 23.1843 170.908 23.1087 170.972 23.0458C171.036 22.9829 171.113 22.9343 171.197 22.903C171.281 22.8717 171.37 22.8585 171.46 22.8643ZM169.426 22.9034H169.651V23.4031H170.143C170.446 23.4031 170.611 23.514 170.611 23.7769C170.611 24.0231 170.439 24.1535 170.143 24.1535H169.426V22.9034ZM167.666 23.9902C167.697 23.9961 167.728 23.9986 167.759 23.9976C167.884 23.9976 167.933 23.9437 167.933 23.5775V22.9034H169.091V24.1535H168.866V23.0942H168.158V23.6493C168.158 24.0257 168.025 24.1715 167.812 24.1715C167.763 24.1717 167.714 24.1657 167.666 24.1535V23.9902ZM166.893 22.8643C166.983 22.8551 167.075 22.8658 167.161 22.8958C167.246 22.9259 167.324 22.9744 167.389 23.038C167.454 23.1015 167.504 23.1786 167.536 23.2637C167.568 23.3488 167.58 23.4399 167.573 23.5304V23.5749H166.447C166.447 23.6318 166.458 23.6882 166.481 23.7403C166.504 23.7924 166.537 23.8391 166.579 23.8773C166.621 23.9155 166.671 23.9443 166.725 23.9619C166.779 23.9795 166.837 23.9853 166.893 23.9792C166.973 23.9891 167.054 23.9738 167.125 23.9354C167.196 23.897 167.253 23.8374 167.289 23.7649H167.552C167.505 23.8988 167.415 24.0131 167.295 24.0897C167.176 24.1663 167.034 24.2008 166.893 24.1876C166.803 24.1963 166.713 24.1855 166.628 24.156C166.542 24.1264 166.465 24.0788 166.4 24.0164C166.334 23.954 166.284 23.8783 166.251 23.7944C166.217 23.7105 166.203 23.6205 166.208 23.5304C166.203 23.44 166.217 23.3495 166.25 23.265C166.283 23.1806 166.334 23.1042 166.399 23.0411C166.464 22.9779 166.541 22.9295 166.627 22.899C166.712 22.8685 166.803 22.8566 166.893 22.8643ZM164.861 22.9034H166.103V23.0942H165.595V24.1535H165.37V23.0942H164.861V22.9034ZM164.116 23.0548C163.863 23.0548 163.744 23.1272 163.733 23.3057H163.499C163.515 23.0098 163.717 22.8643 164.099 22.8643C164.515 22.8643 164.671 22.9738 164.671 23.2775V23.7838C164.671 23.9137 164.694 23.9766 164.783 23.9766C164.805 23.976 164.828 23.9736 164.85 23.9692V24.1505C164.791 24.1605 164.731 24.1659 164.671 24.1666C164.541 24.1666 164.477 24.0947 164.453 23.9597C164.389 24.0356 164.308 24.0957 164.217 24.1352C164.126 24.1747 164.027 24.1926 163.927 24.1876C163.615 24.1876 163.45 24.0436 163.45 23.8117C163.45 23.522 163.671 23.4606 164.026 23.422C164.302 23.3916 164.446 23.3985 164.446 23.2476C164.446 23.1136 164.341 23.0548 164.116 23.0548ZM161.797 23.9623H161.92C162.052 23.7814 162.114 23.559 162.094 23.3361V22.9034H163.153V23.9623H163.281V24.5223H163.067V24.1535H162.01V24.5223H161.797V23.9623ZM161.093 23.5938H160.942V23.4195H161.08C161.296 23.4195 161.375 23.366 161.375 23.2428C161.375 23.1103 161.207 23.0548 161.07 23.0548C160.857 23.0548 160.757 23.1192 160.725 23.2591H160.488C160.508 23.1036 160.652 22.8643 161.068 22.8643C161.403 22.8643 161.6 23.0267 161.6 23.2356C161.597 23.2998 161.573 23.3612 161.531 23.4095C161.488 23.4578 161.431 23.4899 161.367 23.5005C161.5 23.5378 161.665 23.612 161.665 23.8183C161.665 24.0436 161.409 24.1876 161.082 24.1876C160.591 24.1876 160.467 23.9718 160.44 23.7562H160.683C160.706 23.9252 160.814 23.9976 161.073 23.9976C161.254 23.9976 161.439 23.9367 161.439 23.7948C161.439 23.635 161.275 23.5938 161.093 23.5938ZM158.547 22.4672H158.779V23.9038L159.84 22.4672H160.16V24.1535H159.927V22.716L158.87 24.1535H158.547V22.4672ZM158.002 24.5908H182.871V30.8236H158.002V24.5908Z" fill="#A0A0A0"/>
<path id="Vector_2" d="M166.894 23.0736C166.791 23.0638 166.688 23.0935 166.607 23.1568C166.525 23.2202 166.47 23.3123 166.454 23.4145H167.334C167.318 23.3125 167.263 23.2205 167.182 23.1572C167.1 23.0939 166.997 23.064 166.894 23.0736Z" fill="#A0A0A0"/>
<path id="Vector_3" d="M178.693 23.0942H178.073V23.3517C178.09 23.5657 178.039 23.7795 177.926 23.9623H178.693V23.0942Z" fill="#A0A0A0"/>
<path id="Vector_4" d="M179.877 23.9792C179.967 23.9779 180.053 23.9503 180.127 23.8998C180.201 23.8493 180.258 23.7782 180.291 23.6953C180.324 23.6125 180.332 23.5217 180.314 23.4343C180.296 23.3469 180.252 23.2669 180.189 23.2042C180.125 23.1415 180.045 23.099 179.957 23.082C179.869 23.065 179.779 23.0743 179.696 23.1087C179.614 23.1431 179.544 23.2011 179.494 23.2754C179.445 23.3496 179.418 23.4369 179.418 23.5261C179.413 23.5875 179.421 23.6493 179.442 23.7072C179.464 23.765 179.497 23.8174 179.541 23.8607C179.585 23.9039 179.638 23.937 179.696 23.9575C179.754 23.978 179.816 23.9854 179.877 23.9792Z" fill="#A0A0A0"/>
<path id="Vector_5" d="M170.371 23.7768C170.371 23.6467 170.308 23.5938 170.122 23.5938H169.651V23.9622H170.125C170.294 23.9622 170.371 23.9037 170.371 23.7768Z" fill="#A0A0A0"/>
<path id="Vector_6" d="M163.69 23.8004C163.69 23.9185 163.79 23.9978 163.966 23.9978C164.253 23.9978 164.447 23.8559 164.447 23.6981V23.5127C164.327 23.564 164.199 23.5929 164.068 23.5981C163.824 23.6265 163.69 23.647 163.69 23.8004Z" fill="#A0A0A0"/>
<path id="Vector_7" d="M162.927 23.0942H162.307V23.3517C162.324 23.5657 162.273 23.7796 162.161 23.9623H162.927V23.0942Z" fill="#A0A0A0"/>
<path id="Vector_8" d="M159.544 27.2319C159.403 27.2374 159.262 27.2143 159.13 27.1639C158.997 27.1136 158.877 27.0371 158.775 26.939C158.673 26.8409 158.592 26.7232 158.537 26.593C158.482 26.4628 158.453 26.3229 158.454 26.1815C158.454 26.0401 158.483 25.9002 158.538 25.7702C158.594 25.6401 158.675 25.5227 158.777 25.4249C158.879 25.3271 159 25.2509 159.132 25.201C159.265 25.151 159.406 25.1283 159.547 25.1342C159.78 25.1087 160.014 25.1759 160.198 25.3213C160.383 25.4666 160.502 25.6785 160.532 25.9113H160.239C160.209 25.7541 160.121 25.614 159.992 25.5192C159.863 25.4244 159.703 25.3819 159.544 25.4001C159.44 25.3982 159.336 25.4172 159.24 25.4558C159.143 25.4943 159.055 25.5518 158.981 25.6249C158.907 25.6979 158.848 25.785 158.808 25.8811C158.767 25.9772 158.747 26.0803 158.747 26.1844C158.747 26.2885 158.768 26.3915 158.809 26.4874C158.849 26.5834 158.908 26.6702 158.983 26.743C159.057 26.8157 159.146 26.8729 159.243 26.9111C159.339 26.9493 159.443 26.9678 159.547 26.9655C159.715 26.9808 159.882 26.9317 160.014 26.8282C160.147 26.7247 160.235 26.5746 160.261 26.4084H160.555C160.528 26.6508 160.407 26.8729 160.218 27.027C160.029 27.1811 159.787 27.2547 159.544 27.2319Z" fill="#A0A0A0"/>
<path id="Vector_9" d="M161.794 25.1347C162 25.1432 162.198 25.2119 162.365 25.3323C162.532 25.4527 162.66 25.6195 162.733 25.8119C162.806 26.0044 162.82 26.214 162.775 26.4147C162.73 26.6154 162.626 26.7984 162.478 26.9409C162.329 27.0834 162.142 27.1791 161.94 27.2161C161.738 27.2532 161.529 27.2299 161.339 27.1492C161.15 27.0685 160.989 26.934 160.875 26.7623C160.762 26.5906 160.701 26.3894 160.701 26.1836C160.693 26.0399 160.716 25.8961 160.769 25.7621C160.821 25.6281 160.902 25.5071 161.006 25.4074C161.11 25.3077 161.234 25.2317 161.37 25.1847C161.506 25.1376 161.651 25.1206 161.794 25.1347ZM161.794 26.966C161.948 26.9629 162.098 26.9143 162.225 26.8264C162.351 26.7384 162.449 26.6151 162.506 26.4718C162.563 26.3285 162.576 26.1716 162.544 26.0208C162.512 25.87 162.436 25.732 162.326 25.6241C162.216 25.5162 162.076 25.4433 161.925 25.4144C161.774 25.3855 161.617 25.402 161.475 25.4617C161.333 25.5215 161.211 25.6218 161.126 25.7503C161.041 25.8787 160.995 26.0294 160.995 26.1836C160.986 26.2901 161 26.3975 161.037 26.4978C161.074 26.5982 161.133 26.689 161.21 26.7639C161.286 26.8387 161.378 26.8957 161.479 26.9306C161.58 26.9656 161.688 26.9777 161.794 26.966Z" fill="#A0A0A0"/>
<path id="Vector_10" d="M163.163 25.1865H164.272C164.664 25.1865 164.878 25.3729 164.878 25.6892C164.881 25.7869 164.852 25.883 164.795 25.9624C164.738 26.0418 164.656 26.1002 164.563 26.1285C164.675 26.1419 164.778 26.1982 164.85 26.2857C164.921 26.3731 164.956 26.485 164.947 26.5977C164.947 26.9956 164.719 27.1794 164.245 27.1794H163.163V25.1865ZM163.445 26.0237H164.154C164.456 26.0237 164.596 25.9577 164.596 25.7327C164.596 25.5269 164.475 25.4471 164.215 25.4471H163.445V26.0237ZM163.445 26.9194H164.178C164.497 26.9194 164.654 26.8391 164.654 26.6197C164.654 26.3809 164.516 26.284 164.219 26.284H163.445V26.9194Z" fill="#A0A0A0"/>
<path id="Vector_11" d="M165.521 27.1794H165.239V25.1865H166.16C166.651 25.1865 166.892 25.3729 166.892 25.7739C166.892 26.1779 166.645 26.3589 166.154 26.3589H165.521V27.1794ZM165.521 26.1254H166.046C166.43 26.1254 166.608 26.0347 166.608 25.7818C166.608 25.5023 166.437 25.42 166.065 25.42H165.521V26.1254Z" fill="#A0A0A0"/>
<path id="Vector_12" d="M167.167 25.1865H168.752V25.4473H167.45V26.0296H168.672V26.2904H167.45V26.9194H168.771V27.1797H167.167V25.1865Z" fill="#A0A0A0"/>
<path id="Vector_13" d="M169.487 25.187L170.256 26.9225L171.044 25.187H171.465V27.1801H171.189V25.431L170.398 27.1801H170.113L169.336 25.431V27.1801H169.061V25.187H169.487Z" fill="#A0A0A0"/>
<path id="Vector_14" d="M171.852 25.1868H173.437V25.4476H172.135V26.0299H173.357V26.2907H172.135V26.9196H173.456V27.1799H171.852V25.1868Z" fill="#A0A0A0"/>
<path id="Vector_15" d="M174.03 25.9775H175.243V25.1868H175.526V27.1799H175.243V26.2383H174.03V27.1799H173.747V25.1868H174.03V25.9775Z" fill="#A0A0A0"/>
<path id="Vector_16" d="M176.195 25.9773H177.409V25.1865H177.692V27.1797H177.409V26.2381H176.195V27.1797H175.913V25.1865H176.195V25.9773Z" fill="#A0A0A0"/>
<path id="Vector_17" d="M178.362 25.9771H178.991C179.482 25.9771 179.729 26.1886 179.729 26.5926C179.729 26.9931 179.491 27.1794 178.998 27.1794H178.079V25.1865H178.362V25.9771ZM178.362 26.9194H178.904C179.274 26.9194 179.447 26.8611 179.447 26.5837C179.447 26.307 179.271 26.238 178.886 26.238H178.362V26.9194ZM180.138 25.1865H180.421V27.18H180.138V25.1865Z" fill="#A0A0A0"/>
<path id="Vector_18" d="M180.809 25.1865H182.393V25.4473H181.091V26.0296H182.313V26.2904H181.091V26.9194H182.413V27.1797H180.809V25.1865Z" fill="#A0A0A0"/>
<path id="Vector_19" d="M159.872 30.3197C159.692 30.3266 159.513 30.2971 159.345 30.233C159.177 30.1689 159.023 30.0715 158.894 29.9467C158.764 29.8218 158.661 29.6721 158.591 29.5064C158.521 29.3408 158.485 29.1626 158.485 28.9827C158.485 28.8028 158.522 28.6247 158.592 28.4593C158.663 28.2938 158.767 28.1444 158.896 28.0199C159.026 27.8954 159.18 27.7984 159.348 27.7347C159.517 27.6711 159.696 27.642 159.876 27.6494C160.173 27.6167 160.471 27.7021 160.705 27.8872C160.94 28.0723 161.093 28.3422 161.13 28.6387H160.757C160.718 28.4389 160.606 28.261 160.442 28.1405C160.278 28.0201 160.074 27.9662 159.872 27.9895C159.74 27.9871 159.608 28.0111 159.485 28.0602C159.362 28.1093 159.25 28.1824 159.156 28.2753C159.061 28.3682 158.986 28.479 158.935 28.6012C158.884 28.7234 158.858 28.8546 158.858 28.987C158.859 29.1195 158.885 29.2506 158.937 29.3726C158.988 29.4946 159.064 29.6051 159.158 29.6977C159.253 29.7902 159.365 29.863 159.489 29.9116C159.612 29.9602 159.743 29.9838 159.876 29.9809C160.089 30.0006 160.302 29.9382 160.471 29.8063C160.64 29.6745 160.752 29.4831 160.785 29.2713H161.157C161.123 29.5797 160.97 29.8623 160.729 30.0583C160.489 30.2544 160.181 30.3483 159.872 30.3197Z" fill="#A0A0A0"/>
<path id="Vector_20" d="M163.747 27.7168V28.0488H162.779V30.2535H162.419V28.0488H161.452V27.7168H163.747Z" fill="#A0A0A0"/>
<path id="Vector_21" d="M164.566 30.2534H164.206V27.7166H165.375C166.002 27.7166 166.311 27.9539 166.311 28.464C166.311 28.9777 165.994 29.2086 165.369 29.2086H164.566V30.2534ZM164.566 28.9112H165.233C165.722 28.9112 165.949 28.7966 165.949 28.475C165.949 28.1183 165.729 28.0137 165.258 28.0137H164.566V28.9112Z" fill="#A0A0A0"/>
<path id="Vector_22" d="M167.572 27.7163H167.945L169.075 30.2532H168.701L168.379 29.5295H167.083L166.748 30.2532H166.366L167.572 27.7163ZM168.232 29.1979L167.746 28.118L167.232 29.1979H168.232Z" fill="#A0A0A0"/>
<path id="Vector_23" d="M171.251 27.7168V28.0488H170.284V30.2535H169.923V28.0488H168.956V27.7168H171.251Z" fill="#A0A0A0"/>
<path id="Vector_24" d="M171.708 27.7168H173.724V28.0488H172.068V28.7893H173.623V29.1208H172.068V29.922H173.75V30.2535H171.708V27.7168Z" fill="#A0A0A0"/>
<path id="Vector_25" d="M176.285 27.7168V28.0488H174.734V30.2535H174.374V27.7168H176.285Z" fill="#A0A0A0"/>
<path id="Vector_26" d="M177.143 27.7168V29.8801L178.74 27.7168H179.222V30.2535H178.873V28.0907L177.279 30.2535H176.793V27.7168H177.143Z" fill="#A0A0A0"/>
<path id="Vector_27" d="M180.32 27.7168V29.8801L181.916 27.7168H182.399V30.2535H182.049V28.0907L180.456 30.2535H179.969V27.7168H180.32Z" fill="#A0A0A0"/>
<path id="Vector_28" d="M8.99612 9.00296H6.20752V6.28296H16.4334V9.00296H13.6448V31.0075H8.99612V9.00296Z" fill="#A0A0A0"/>
<path id="Vector_29" d="M8.99612 9.00296H6.20752V6.28296H16.4334V9.00296H13.6448V31.0075H8.99612V9.00296Z" stroke="#A0A0A0" stroke-width="0.474"/>
<path id="Vector_30" d="M17.563 6.2832H24.8672C28.121 6.2832 28.3204 8.96759 28.3204 10.6985V18.1865C28.3204 19.9168 28.121 22.6012 24.8672 22.6012H22.2117V31.0077H17.563V6.2832ZM22.8087 19.882C23.3066 19.882 23.6722 19.4223 23.6722 18.6457V10.2389C23.6722 9.4619 23.3066 9.00316 22.8087 9.00316H22.2117V19.882H22.8087Z" fill="#A0A0A0"/>
<path id="Vector_31" d="M17.563 6.2832H24.8672C28.121 6.2832 28.3204 8.96759 28.3204 10.6985V18.1865C28.3204 19.9168 28.121 22.6012 24.8672 22.6012H22.2117V31.0077H17.563V6.2832ZM22.8087 19.882C23.3066 19.882 23.6722 19.4223 23.6722 18.6457V10.2389C23.6722 9.4619 23.3066 9.00316 22.8087 9.00316H22.2117V19.882H22.8087Z" stroke="#A0A0A0" stroke-width="0.474"/>
<path id="Vector_32" d="M30.9422 6.28296H38.2466L40.6707 31.0074H36.1215L35.6901 24.4384H33.499L33.0673 31.0074H28.5181L30.9422 6.28296ZM35.5239 21.7185L34.7269 9.32021H34.4614L33.6649 21.7185H35.5239Z" fill="#A0A0A0"/>
<path id="Vector_33" d="M30.9422 6.28296H38.2466L40.6707 31.0074H36.1215L35.6901 24.4384H33.499L33.0673 31.0074H28.5181L30.9422 6.28296ZM35.5239 21.7185L34.7269 9.32021H34.4614L33.6649 21.7185H35.5239Z" stroke="#A0A0A0" stroke-width="0.474"/>
<path id="Vector_34" d="M41.7993 6.2832H46.448V16.6673H47.9086V6.2832H52.5573V31.0077H47.9086V19.3873H46.448V31.0077H41.7993V6.2832Z" fill="#A0A0A0"/>
<path id="Vector_35" d="M41.7993 6.2832H46.448V16.6673H47.9086V6.2832H52.5573V31.0077H47.9086V19.3873H46.448V31.0077H41.7993V6.2832Z" stroke="#A0A0A0" stroke-width="0.474"/>
<path id="Vector_36" d="M65.0392 26.5925C65.0392 28.3231 64.8403 31.0074 61.5872 31.0074H57.7358C54.4817 31.0074 54.2818 28.3231 54.2818 26.5925V10.6982C54.2818 8.96734 54.4817 6.28296 57.7358 6.28296H61.5872C64.8403 6.28296 65.0392 8.96734 65.0392 10.6982V14.1947H60.3911V9.81477C60.3966 9.71347 60.3821 9.61206 60.3484 9.51637C60.3147 9.42068 60.2624 9.33259 60.1945 9.25716C60.1267 9.18173 60.0446 9.12044 59.953 9.07681C59.8614 9.03318 59.7621 9.00807 59.6607 9.00291C59.5579 9.00336 59.4563 9.02531 59.3624 9.06736C59.2686 9.10942 59.1846 9.17064 59.1158 9.24711C59.047 9.32357 58.995 9.41357 58.9631 9.51134C58.9312 9.6091 58.92 9.71246 58.9305 9.81477V27.4757C58.9201 27.578 58.9312 27.6814 58.9631 27.7792C58.995 27.877 59.047 27.967 59.1158 28.0435C59.1845 28.12 59.2685 28.1813 59.3624 28.2234C59.4562 28.2655 59.5579 28.2876 59.6607 28.2881C59.7621 28.2829 59.8614 28.2578 59.9531 28.2141C60.0447 28.1704 60.1268 28.1091 60.1946 28.0336C60.2625 27.9581 60.3148 27.87 60.3485 27.7742C60.3822 27.6785 60.3967 27.577 60.3911 27.4757V22.3542H65.0392V26.5925Z" fill="#A0A0A0"/>
<path id="Vector_37" d="M65.0392 26.5925C65.0392 28.3231 64.8403 31.0074 61.5872 31.0074H57.7358C54.4817 31.0074 54.2818 28.3231 54.2818 26.5925V10.6982C54.2818 8.96734 54.4817 6.28296 57.7358 6.28296H61.5872C64.8403 6.28296 65.0392 8.96734 65.0392 10.6982V14.1947H60.3911V9.81477C60.3966 9.71347 60.3821 9.61206 60.3484 9.51637C60.3147 9.42068 60.2624 9.33259 60.1945 9.25716C60.1267 9.18173 60.0446 9.12044 59.953 9.07681C59.8614 9.03318 59.7621 9.00807 59.6607 9.00291C59.5579 9.00336 59.4563 9.02531 59.3624 9.06736C59.2686 9.10942 59.1846 9.17064 59.1158 9.24711C59.047 9.32357 58.995 9.41357 58.9631 9.51134C58.9312 9.6091 58.92 9.71246 58.9305 9.81477V27.4757C58.9201 27.578 58.9312 27.6814 58.9631 27.7792C58.995 27.877 59.047 27.967 59.1158 28.0435C59.1845 28.12 59.2685 28.1813 59.3624 28.2234C59.4562 28.2655 59.5579 28.2876 59.6607 28.2881C59.7621 28.2829 59.8614 28.2578 59.9531 28.2141C60.0447 28.1704 60.1268 28.1091 60.1946 28.0336C60.2625 27.9581 60.3148 27.87 60.3485 27.7742C60.3822 27.6785 60.3967 27.577 60.3911 27.4757V22.3542H65.0392V26.5925Z" stroke="#A0A0A0" stroke-width="0.474"/>
<path id="Vector_38" d="M66.7661 6.2832H77.5241V31.0077H72.8754V9.0032H71.4148V31.0077H66.7661V6.2832Z" fill="#A0A0A0"/>
<path id="Vector_39" d="M66.7661 6.2832H77.5241V31.0077H72.8754V9.0032H71.4148V31.0077H66.7661V6.2832Z" stroke="#A0A0A0" stroke-width="0.474"/>
<path id="Vector_40" d="M79.2505 10.6985C79.2505 8.96759 79.4489 6.2832 82.7035 6.2832H86.5544C89.8085 6.2832 90.0085 8.96759 90.0085 10.6985V26.5927C90.0085 28.3233 89.8085 31.0077 86.5544 31.0077H82.7035C79.4489 31.0077 79.2505 28.3233 79.2505 26.5927V10.6985ZM85.3597 9.81502C85.3652 9.71374 85.3507 9.61237 85.3169 9.51672C85.2831 9.42107 85.2309 9.33301 85.163 9.2576C85.0952 9.18219 85.0131 9.1209 84.9216 9.07724C84.83 9.03358 84.7308 9.0084 84.6295 9.00316C84.5266 9.00352 84.425 9.02542 84.3311 9.06744C84.2372 9.10947 84.1531 9.1707 84.0843 9.24718C84.0155 9.32366 83.9635 9.41369 83.9316 9.5115C83.8998 9.6093 83.8887 9.71269 83.8992 9.81502V27.4759C83.8887 27.5783 83.8998 27.6817 83.9316 27.7795C83.9635 27.8774 84.0155 27.9674 84.0843 28.044C84.1531 28.1205 84.2371 28.1817 84.331 28.2238C84.4249 28.2659 84.5266 28.2879 84.6295 28.2883C84.7308 28.2831 84.8301 28.2578 84.9217 28.2141C85.0133 28.1704 85.0953 28.1091 85.1632 28.0336C85.231 27.9582 85.2833 27.8701 85.317 27.7744C85.3507 27.6787 85.3653 27.5773 85.3597 27.4759V9.81502Z" fill="#A0A0A0"/>
<path id="Vector_41" d="M79.2505 10.6985C79.2505 8.96759 79.4489 6.2832 82.7035 6.2832H86.5544C89.8085 6.2832 90.0085 8.96759 90.0085 10.6985V26.5927C90.0085 28.3233 89.8085 31.0077 86.5544 31.0077H82.7035C79.4489 31.0077 79.2505 28.3233 79.2505 26.5927V10.6985ZM85.3597 9.81502C85.3652 9.71374 85.3507 9.61237 85.3169 9.51672C85.2831 9.42107 85.2309 9.33301 85.163 9.2576C85.0952 9.18219 85.0131 9.1209 84.9216 9.07724C84.83 9.03358 84.7308 9.0084 84.6295 9.00316C84.5266 9.00352 84.425 9.02542 84.3311 9.06744C84.2372 9.10947 84.1531 9.1707 84.0843 9.24718C84.0155 9.32366 83.9635 9.41369 83.9316 9.5115C83.8998 9.6093 83.8887 9.71269 83.8992 9.81502V27.4759C83.8887 27.5783 83.8998 27.6817 83.9316 27.7795C83.9635 27.8774 84.0155 27.9674 84.0843 28.044C84.1531 28.1205 84.2371 28.1817 84.331 28.2238C84.4249 28.2659 84.5266 28.2879 84.6295 28.2883C84.7308 28.2831 84.8301 28.2578 84.9217 28.2141C85.0133 28.1704 85.0953 28.1091 85.1632 28.0336C85.231 27.9582 85.2833 27.8701 85.317 27.7744C85.3507 27.6787 85.3653 27.5773 85.3597 27.4759V9.81502Z" stroke="#A0A0A0" stroke-width="0.474"/>
<path id="Vector_42" d="M91.7329 6.2832H99.0373C102.291 6.2832 102.491 8.96759 102.491 10.6985V18.1865C102.491 19.9168 102.291 22.6012 99.0373 22.6012H96.3811V31.0077H91.7329V6.2832ZM96.9784 19.882C97.477 19.882 97.8422 19.4223 97.8422 18.6457V10.2389C97.8422 9.4619 97.477 9.00316 96.9784 9.00316H96.3811V19.882H96.9784Z" fill="#A0A0A0"/>
<path id="Vector_43" d="M91.7329 6.2832H99.0373C102.291 6.2832 102.491 8.96759 102.491 10.6985V18.1865C102.491 19.9168 102.291 22.6012 99.0373 22.6012H96.3811V31.0077H91.7329V6.2832ZM96.9784 19.882C97.477 19.882 97.8422 19.4223 97.8422 18.6457V10.2389C97.8422 9.4619 97.477 9.00316 96.9784 9.00316H96.3811V19.882H96.9784Z" stroke="#A0A0A0" stroke-width="0.474"/>
<path id="Vector_44" d="M106.21 9.0032H103.42V6.2832H113.647V9.0032H110.857V31.0077H106.21V9.0032Z" fill="#A0A0A0"/>
<path id="Vector_45" d="M106.21 9.0032H103.42V6.2832H113.647V9.0032H110.857V31.0077H106.21V9.0032Z" stroke="#A0A0A0" stroke-width="0.474"/>
<path id="Vector_46" d="M114.774 6.2832H119.422V16.6673H120.883V6.2832H125.532V31.0077H120.883V19.3873H119.422V31.0077H114.774V6.2832Z" fill="#A0A0A0"/>
<path id="Vector_47" d="M114.774 6.2832H119.422V16.6673H120.883V6.2832H125.532V31.0077H120.883V19.3873H119.422V31.0077H114.774V6.2832Z" stroke="#A0A0A0" stroke-width="0.474"/>
<path id="Vector_48" d="M129.085 6.2832H136.389L138.813 31.0077H134.263L133.832 24.4387H131.641L131.209 31.0077H126.661L129.085 6.2832ZM133.665 21.7187L132.869 9.32046H132.604L131.806 21.7187H133.665Z" fill="#A0A0A0"/>
<path id="Vector_49" d="M129.085 6.2832H136.389L138.813 31.0077H134.263L133.832 24.4387H131.641L131.209 31.0077H126.661L129.085 6.2832ZM133.665 21.7187L132.869 9.32046H132.604L131.806 21.7187H133.665Z" stroke="#A0A0A0" stroke-width="0.474"/>
<path id="Vector_50" d="M142.167 21.3651C140.042 21.1532 139.976 19.0339 139.976 18.3629V10.6985C139.976 8.96759 140.175 6.2832 143.428 6.2832H150.734V31.0077H146.085V21.6124H145.919L144.159 31.0077H139.344L142.167 21.3651ZM146.085 9.00316H145.454C145.122 9.00316 144.624 9.21488 144.624 10.2389V17.6569C144.624 18.6808 145.122 18.893 145.454 18.893H146.085V9.00316Z" fill="#A0A0A0"/>
<path id="Vector_51" d="M142.167 21.3651C140.042 21.1532 139.976 19.0339 139.976 18.3629V10.6985C139.976 8.96759 140.175 6.2832 143.428 6.2832H150.734V31.0077H146.085V21.6124H145.919L144.159 31.0077H139.344L142.167 21.3651ZM146.085 9.00316H145.454C145.122 9.00316 144.624 9.21488 144.624 10.2389V17.6569C144.624 18.6808 145.122 18.893 145.454 18.893H146.085V9.00316Z" stroke="#A0A0A0" stroke-width="0.474"/>
<path id="Vector_52" d="M14.5319 50.8636V53.7264C14.5319 55.0546 14.4428 56.6486 11.8093 56.6486H8.99614C7.85975 56.6486 6.24268 56.5602 6.24268 53.7264V43.0403C6.24268 40.2071 7.85975 40.1182 8.99614 40.1182H11.8093C14.4428 40.1182 14.5319 41.7127 14.5319 43.0403V45.2839H11.0014V42.8345C10.9913 42.6824 10.9238 42.5398 10.8126 42.4356C10.7013 42.3314 10.5547 42.2733 10.4022 42.2732C10.246 42.2701 10.0944 42.3263 9.97788 42.4304C9.86137 42.5345 9.78861 42.6789 9.77422 42.8345V53.9622C9.77964 54.0387 9.80031 54.1133 9.83499 54.1817C9.86967 54.2501 9.91768 54.3109 9.97619 54.3605C10.0347 54.41 10.1025 54.4474 10.1757 54.4704C10.2489 54.4934 10.3259 54.5015 10.4022 54.4943C10.4775 54.5035 10.5538 54.4967 10.6262 54.4741C10.6986 54.4516 10.7653 54.4139 10.822 54.3636C10.8787 54.3132 10.924 54.2514 10.9549 54.1822C10.9858 54.113 11.0017 54.038 11.0014 53.9622V50.8636H14.5319Z" fill="#A0A0A0"/>
<path id="Vector_53" d="M16.403 40.1179H19.9345V40.8564C20.7355 40.2739 21.6973 39.9541 22.6876 39.9409C23.0634 39.9408 23.4332 40.0354 23.7627 40.216C24.0922 40.3966 24.3709 40.6574 24.5729 40.9742C25.3923 40.3466 26.3847 39.9859 27.4159 39.9409C29.4801 39.9409 29.4505 41.9183 29.4505 42.509V56.6483H25.9198V42.8636C25.9096 42.7116 25.8422 42.5691 25.7311 42.4649C25.62 42.3607 25.4735 42.3025 25.3211 42.3021C25.1648 42.299 25.013 42.3551 24.8963 42.4593C24.7796 42.5635 24.7067 42.7079 24.6921 42.8636V56.6483H21.1611V42.8636C21.151 42.7117 21.0837 42.5693 20.9727 42.465C20.8617 42.3608 20.7153 42.3026 20.563 42.3021C20.4067 42.2989 20.2549 42.3551 20.1383 42.4592C20.0217 42.5634 19.9489 42.7079 19.9345 42.8636V56.6483H16.403V40.1179Z" fill="#A0A0A0"/>
<path id="Vector_54" d="M31.3208 40.1179H34.852V40.8564C35.6556 40.2787 36.616 39.9594 37.6054 39.9409C39.7002 39.9409 39.6102 41.9183 39.6102 42.509V54.2573C39.6102 54.8474 39.7002 56.8255 37.6054 56.8255C36.6159 56.8076 35.6553 56.4882 34.852 55.9101V61.7527H31.3208V40.1179ZM34.852 53.9328C34.8576 54.0093 34.8783 54.0839 34.9131 54.1523C34.9479 54.2206 34.996 54.2813 35.0546 54.3308C35.1131 54.3803 35.181 54.4176 35.2542 54.4405C35.3274 54.4634 35.4045 54.4714 35.4808 54.4641C35.5559 54.4733 35.6321 54.4664 35.7044 54.4439C35.7766 54.4213 35.8432 54.3837 35.8998 54.3334C35.9563 54.2832 36.0016 54.2215 36.0325 54.1524C36.0633 54.0833 36.0792 54.0084 36.0789 53.9328V42.8636C36.0689 42.7117 36.0016 42.5692 35.8905 42.465C35.7795 42.3608 35.6331 42.3025 35.4808 42.3021C35.3244 42.2989 35.1726 42.355 35.056 42.4592C34.9393 42.5634 34.8665 42.7079 34.852 42.8636V53.9328Z" fill="#A0A0A0"/>
<path id="Vector_55" d="M41.481 43.0403C41.481 40.2071 43.0975 40.1182 44.2341 40.1182H47.0474C49.6811 40.1182 49.7711 41.7127 49.7711 43.0403V56.6486H46.2399V55.9104C45.4561 56.5045 44.4996 56.826 43.5161 56.8258C41.5712 56.8258 41.481 55.2315 41.481 54.2575V50.066C41.481 48.7673 42.3792 48.2656 44.2045 47.4387C45.4017 46.8785 46.2399 46.5238 46.2399 45.1954V42.8345C46.2298 42.6823 46.1623 42.5397 46.051 42.4355C45.9397 42.3312 45.793 42.2732 45.6405 42.2732C45.4843 42.2701 45.3326 42.3263 45.2161 42.4304C45.0996 42.5345 45.0268 42.6789 45.0125 42.8345V45.3729H41.481V43.0403ZM46.2399 48.5605C45.0427 48.9146 45.0125 49.5937 45.0125 50.0954V53.9331C45.0179 54.0095 45.0387 54.0841 45.0734 54.1524C45.1081 54.2207 45.1561 54.2814 45.2146 54.3309C45.2732 54.3804 45.341 54.4177 45.4141 54.4406C45.4872 54.4636 45.5642 54.4716 45.6405 54.4644C45.7157 54.4737 45.792 54.4669 45.8644 54.4444C45.9367 54.4219 46.0035 54.3843 46.0602 54.3341C46.1168 54.2838 46.1622 54.2221 46.1932 54.1529C46.2242 54.0838 46.2401 54.0088 46.2399 53.9331V48.5605Z" fill="#A0A0A0"/>
<path id="Vector_56" d="M51.6392 40.1179H55.1709V40.8564C55.9718 40.2738 56.9336 39.954 57.9238 39.9409C58.2996 39.9409 58.6694 40.0355 58.9989 40.2161C59.3285 40.3967 59.6072 40.6574 59.8094 40.9742C60.6285 40.3465 61.6208 39.9858 62.6518 39.9409C64.7168 39.9409 64.6862 41.9183 64.6862 42.509V56.6483H61.1554V42.8636C61.1454 42.7117 61.078 42.5691 60.967 42.4649C60.8559 42.3607 60.7094 42.3025 60.5571 42.3021C60.4007 42.299 60.249 42.3551 60.1324 42.4593C60.0158 42.5635 59.943 42.7079 59.9286 42.8636V56.6483H56.3973V42.8636C56.3873 42.7117 56.3201 42.5692 56.2091 42.465C56.0981 42.3607 55.9517 42.3025 55.7994 42.3021C55.6431 42.2989 55.4913 42.355 55.3747 42.4592C55.2581 42.5634 55.1853 42.7079 55.1709 42.8636V56.6483H51.6392V40.1179Z" fill="#A0A0A0"/>
<path id="Vector_57" d="M74.846 50.8636V53.7264C74.846 55.0546 74.7565 56.6486 72.1233 56.6486H69.31C68.1732 56.6486 66.5571 56.5602 66.5571 53.7264V43.0403C66.5571 40.2071 68.1732 40.1182 69.31 40.1182H72.1233C74.7565 40.1182 74.846 41.7127 74.846 43.0403V49.181H70.0879V53.9622C70.0934 54.0387 70.1141 54.1134 70.1489 54.1819C70.1837 54.2503 70.2318 54.3111 70.2904 54.3607C70.349 54.4103 70.4169 54.4476 70.4902 54.4706C70.5634 54.4935 70.6405 54.5016 70.7169 54.4943C70.7921 54.5034 70.8684 54.4965 70.9406 54.4739C71.0129 54.4513 71.0796 54.4136 71.1362 54.3632C71.1927 54.3129 71.238 54.2511 71.2689 54.182C71.2997 54.1128 71.3155 54.0379 71.3152 53.9622V50.8636H74.846ZM71.3152 47.0255V42.8345C71.3053 42.6825 71.2379 42.54 71.1269 42.4358C71.0158 42.3316 70.8692 42.2735 70.7169 42.2732C70.5605 42.2699 70.4087 42.326 70.292 42.4301C70.1753 42.5343 70.1023 42.6787 70.0879 42.8345V47.0255H71.3152Z" fill="#A0A0A0"/>
<path id="Vector_58" d="M85.0047 53.7264C85.0047 55.0546 84.9152 56.6486 82.2825 56.6486H79.4687C78.3319 56.6486 76.7153 56.5602 76.7153 53.7264V50.804C76.7153 49.8592 76.7757 48.8259 77.9126 48.0289L80.3668 46.2584C80.756 45.993 81.4745 45.432 81.4745 44.6349V42.8345C81.4643 42.6824 81.3968 42.5398 81.2855 42.4356C81.1742 42.3314 81.0276 42.2734 80.8751 42.2732C80.7188 42.27 80.5671 42.3261 80.4505 42.4302C80.3339 42.5344 80.261 42.6788 80.2466 42.8345V45.0775H76.7153V43.0403C76.7153 40.2071 78.3319 40.1182 79.4687 40.1182H82.2825C84.9152 40.1182 85.0047 41.7127 85.0047 43.0403V45.3135C85.0047 46.3169 85.0349 46.937 83.9876 47.7639L81.3241 49.8592C80.7856 50.3023 80.2466 50.5087 80.2466 51.5126V53.9622C80.2521 54.0387 80.2728 54.1134 80.3075 54.1818C80.3422 54.2502 80.3903 54.311 80.4489 54.3605C80.5074 54.4101 80.5753 54.4475 80.6485 54.4705C80.7217 54.4934 80.7987 54.5015 80.8751 54.4943C80.9504 54.5035 81.0267 54.4966 81.0991 54.4741C81.1715 54.4516 81.2382 54.4139 81.2949 54.3635C81.3516 54.3132 81.397 54.2514 81.4279 54.1822C81.4589 54.113 81.4747 54.038 81.4745 53.9622V51.2763H85.0047V53.7264Z" fill="#A0A0A0"/>
<path id="Vector_59" d="M95.1644 56.6486H91.6337V55.9104C90.8502 56.5046 89.8937 56.8261 88.9104 56.8258C86.9655 56.8258 86.8755 55.2315 86.8755 54.2575V40.1182H90.4068V53.9331C90.4123 54.0095 90.433 54.0841 90.4678 54.1525C90.5026 54.2208 90.5506 54.2815 90.6092 54.331C90.6677 54.3805 90.7356 54.4178 90.8088 54.4407C90.8819 54.4636 90.959 54.4717 91.0353 54.4644C91.1104 54.4736 91.1867 54.4668 91.2589 54.4443C91.3312 54.4218 91.3979 54.3841 91.4545 54.3339C91.5111 54.2836 91.5563 54.2219 91.5872 54.1528C91.6181 54.0837 91.634 54.0088 91.6337 53.9331V40.1182H95.1644V56.6486Z" fill="#A0A0A0"/>
<path id="Vector_60" d="M98.8594 50.2136C97.0639 50.007 97.0342 48.2066 97.0342 47.6455V42.9524C97.0342 41.8899 97.0342 40.1182 99.7871 40.1182H105.353V56.6486H101.822V50.2136H101.672L100.356 56.6486H96.9146L98.8594 50.2136ZM101.822 42.2732H101.403C101.044 42.2732 100.565 42.4801 100.565 43.3656V47.3208C100.552 47.4377 100.563 47.556 100.6 47.6679C100.636 47.7798 100.696 47.8825 100.775 47.9693C100.855 48.056 100.952 48.1247 101.06 48.1707C101.168 48.2166 101.285 48.2388 101.403 48.2357H101.822V42.2732Z" fill="#A0A0A0"/>
<path id="Vector_61" d="M124.64 40.1182H128.26L129.128 46.7008H129.308L130.177 40.1182H133.797L131.971 47.9996L133.797 56.6487H130.177L129.278 49.2983H129.128L128.231 56.6487H124.61L126.435 47.9996L124.64 40.1182Z" fill="#A0A0A0"/>
<path id="Vector_62" d="M134.679 40.1182H138.299L139.168 46.7008H139.347L140.215 40.1182H143.836L142.01 47.9996L143.836 56.6487H140.215L139.318 49.2983H139.168L138.27 56.6487H134.649L136.474 47.9996L134.679 40.1182Z" fill="#A0A0A0"/>
<path id="Vector_63" d="M148.728 40.1177H145.198V56.6481H148.728V40.1177Z" fill="#A0A0A0"/>
<path id="Vector_64" d="M156.973 40.1182H162.24C165.082 40.1182 165.263 41.7127 165.263 42.657V45.8451C165.263 46.9664 164.334 47.8225 162.838 47.8519V48.0588C165.263 48.1179 165.263 49.8001 165.263 50.2729V54.1105C165.263 56.5895 163.168 56.6486 162.24 56.6486H156.973V40.1182ZM160.504 46.937H160.952C161.193 46.937 161.731 46.7895 161.731 45.7561V43.0994C161.745 42.9917 161.735 42.8823 161.701 42.779C161.668 42.6757 161.612 42.5811 161.537 42.5021C161.463 42.423 161.372 42.3615 161.27 42.3219C161.169 42.2824 161.061 42.2657 160.952 42.2732H160.504V46.937ZM160.952 54.4644C161.062 54.4681 161.172 54.4478 161.273 54.405C161.375 54.3622 161.466 54.2978 161.54 54.2164C161.614 54.1349 161.669 54.0384 161.702 53.9334C161.735 53.8284 161.745 53.7174 161.731 53.6083V50.3315C161.731 49.4759 161.342 49.0921 160.952 49.0921H160.504V54.4644H160.952Z" fill="#A0A0A0"/>
<path id="Vector_65" d="M175.422 50.8636V53.7264C175.422 55.0546 175.332 56.6486 172.699 56.6486H169.886C168.749 56.6486 167.133 56.5602 167.133 53.7264V43.0403C167.133 40.2071 168.749 40.1182 169.886 40.1182H172.699C175.332 40.1182 175.422 41.7127 175.422 43.0403V49.181H170.665V53.9622C170.67 54.0387 170.691 54.1133 170.725 54.1817C170.76 54.2502 170.808 54.3109 170.866 54.3605C170.925 54.4101 170.993 54.4475 171.066 54.4704C171.139 54.4934 171.216 54.5015 171.293 54.4943C171.368 54.5035 171.444 54.4966 171.517 54.4741C171.589 54.4516 171.656 54.4139 171.712 54.3635C171.769 54.3132 171.814 54.2514 171.845 54.1822C171.876 54.113 171.892 54.038 171.892 53.9622V50.8636H175.422ZM171.892 47.0255V42.8345C171.882 42.6824 171.814 42.5398 171.703 42.4356C171.592 42.3313 171.445 42.2733 171.293 42.2732C171.136 42.2702 170.985 42.3264 170.868 42.4305C170.752 42.5346 170.679 42.6789 170.665 42.8345V47.0255H171.892Z" fill="#A0A0A0"/>
<path id="Vector_66" d="M177.292 40.1182H180.823V47.2617H180.972L182.259 40.1182H185.88L184.084 48.0886L186.089 56.6487H182.499L180.972 48.8552H180.823V56.6487H177.292V40.1182Z" fill="#A0A0A0"/>
<path id="Vector_67" d="M119.009 48.118C119.009 48.6974 118.838 49.2638 118.516 49.7455C118.194 50.2272 117.736 50.6027 117.201 50.8244C116.666 51.0461 116.077 51.1041 115.509 50.9911C114.94 50.8781 114.418 50.5991 114.009 50.1894C113.599 49.7798 113.32 49.2578 113.207 48.6896C113.094 48.1213 113.152 47.5323 113.374 46.9971C113.595 46.4618 113.971 46.0043 114.453 45.6824C114.934 45.3605 115.501 45.1887 116.08 45.1887C116.857 45.1887 117.602 45.4974 118.151 46.0467C118.701 46.5961 119.009 47.3411 119.009 48.118Z" fill="#A0A0A0"/>
</g>
</g>
</g>
</svg>
