<svg width="112" height="62" viewBox="0 0 112 62" fill="none" xmlns="http://www.w3.org/2000/svg">
<g id="Resurs-1-3" clip-path="url(#clip0_177_8632)">
<g id="&#208;&#161;&#208;&#187;&#208;&#190;&#208;&#185; 2">
<g id="&#208;&#161;&#208;&#187;&#208;&#190;&#208;&#185; 1">
<path id="Vector" fill-rule="evenodd" clip-rule="evenodd" d="M7.96299 7.28418H7.6612V7.78601H7.58954C7.323 7.78195 7.05953 7.84334 6.82224 7.96481C6.60082 8.07809 6.41626 8.25213 6.29019 8.46653C6.16134 8.68454 6.09415 8.93346 6.09579 9.18669C6.09288 9.44006 6.16017 9.68928 6.29019 9.90676C6.41491 10.1222 6.59983 10.2966 6.82224 10.4085C7.05935 10.5304 7.32294 10.5919 7.58954 10.5873L7.6612 10.5871V11.1036H7.96299V10.5871H8.05515C8.31922 10.5879 8.57936 10.5231 8.81219 10.3984C9.03207 10.2849 9.21489 10.1109 9.3391 9.89689C9.46458 9.67953 9.52991 9.43268 9.5284 9.1817C9.52867 8.93088 9.46342 8.68435 9.3391 8.46651C9.21139 8.25468 9.02714 8.08267 8.80706 7.9698C8.57204 7.84664 8.31023 7.78349 8.04491 7.78598H7.96299L7.96299 7.28418ZM8.11645 8.0342C8.41952 8.03753 8.7094 8.15871 8.92469 8.37206C9.12297 8.60309 9.23028 8.89846 9.22653 9.20289C9.22279 9.50732 9.10825 9.79996 8.90434 10.026C8.78702 10.1327 8.64984 10.2153 8.50062 10.269C8.3514 10.3226 8.19307 10.3464 8.03467 10.3389L7.96299 10.3387V8.0342H8.11645ZM7.6612 8.0342V10.3387H7.51286C7.20872 10.3383 6.9168 10.219 6.6995 10.0062C6.59768 9.89622 6.5186 9.76721 6.46679 9.62657C6.41497 9.48594 6.39145 9.33646 6.39758 9.18671C6.39093 9.03217 6.41611 8.87791 6.47155 8.73351C6.52698 8.5891 6.6115 8.45763 6.71985 8.34724C6.83788 8.24006 6.97592 8.15725 7.12604 8.10357C7.27616 8.0499 7.43541 8.02641 7.59464 8.03445L7.6612 8.0342Z" fill="#A0A0A0"/>
<path id="Vector_2" fill-rule="evenodd" clip-rule="evenodd" d="M12.7181 9.01257H11.0195V7.68152H12.9637V7.42822H10.7129V10.9595H12.9741V10.7062H11.0195V9.26542H12.7181V9.01257Z" fill="#A0A0A0"/>
<path id="Vector_3" fill-rule="evenodd" clip-rule="evenodd" d="M16.8569 7.42822H14.8465L14.7799 8.70449C14.7622 9.10565 14.6934 9.50293 14.5754 9.88673C14.4909 10.1911 14.3368 10.4717 14.1251 10.7062L13.8848 10.7061V11.8137H14.1917V10.9595H16.9337V11.8137H17.2406L17.2457 10.7061H16.8569L16.8569 7.42822ZM14.8977 9.85675C15.0069 9.4782 15.0721 9.0883 15.0919 8.69479L15.138 7.68151H16.55V10.7061H14.4832C14.6766 10.4535 14.8175 10.1646 14.8977 9.85675Z" fill="#A0A0A0"/>
<path id="Vector_4" fill-rule="evenodd" clip-rule="evenodd" d="M20.4177 9.01257H18.7191V7.68152H20.6633V7.42822H18.4121V10.9595H20.6733V10.7062H18.7191V9.26542H20.4177V9.01257Z" fill="#A0A0A0"/>
<path id="Vector_5" fill-rule="evenodd" clip-rule="evenodd" d="M23.0981 9.52377C23.4263 9.54635 23.7516 9.44932 24.0137 9.25064C24.1202 9.15505 24.2036 9.03656 24.2577 8.90408C24.3118 8.7716 24.3351 8.62858 24.3259 8.48578C24.3333 8.3403 24.3077 8.19503 24.251 8.06084C24.1943 7.92666 24.108 7.80704 23.9985 7.71094C23.7446 7.51052 23.4262 7.40983 23.1032 7.42784H21.8652V10.9592H22.1722V9.52377H23.0981ZM22.1722 7.68113H23.1237C23.3655 7.67069 23.6025 7.75037 23.7888 7.90474C23.8662 7.97968 23.9268 8.07027 23.9665 8.17046C24.0061 8.27066 24.024 8.37815 24.0189 8.4858C24.0258 8.59336 24.0082 8.70108 23.9675 8.80086C23.9267 8.90065 23.8639 8.98989 23.7837 9.06187C23.5906 9.21343 23.3481 9.28778 23.1033 9.27047H22.1722V7.68113Z" fill="#A0A0A0"/>
<path id="Vector_6" fill-rule="evenodd" clip-rule="evenodd" d="M27.5606 10.9595H27.8778L26.5017 7.42822H26.2101L24.834 10.9595H25.1563L25.5297 9.96596H27.1821L27.5606 10.9595ZM26.3533 7.7907L27.0848 9.71281H25.6269L26.3533 7.7907Z" fill="#A0A0A0"/>
<path id="Vector_7" fill-rule="evenodd" clip-rule="evenodd" d="M29.5249 7.42822L29.4379 9.06724C29.4243 9.40557 29.3867 9.74251 29.3254 10.0755C29.3004 10.2472 29.2317 10.4097 29.1259 10.5472C29.0754 10.599 29.0149 10.6398 28.948 10.6672C28.8811 10.6945 28.8093 10.7078 28.737 10.7062L28.6348 10.7061V10.9595H28.7677C28.9536 10.9653 29.1358 10.9075 29.2844 10.7957C29.4319 10.6564 29.5351 10.4767 29.5811 10.2792C29.6676 9.90564 29.7189 9.52484 29.7346 9.14175L29.8165 7.68153H31.3563V10.9595H31.6632V7.42822H29.5249Z" fill="#A0A0A0"/>
<path id="Vector_8" fill-rule="evenodd" clip-rule="evenodd" d="M33.4261 7.42822H33.1191V10.9595H34.3162C34.6353 10.9783 34.9506 10.8832 35.2062 10.6914C35.313 10.602 35.3976 10.4891 35.4536 10.3616C35.5095 10.2341 35.5351 10.0953 35.5285 9.95623C35.5334 9.76894 35.4836 9.58427 35.3853 9.4248C35.2864 9.27006 35.1415 9.15023 34.971 9.0822C34.7668 8.99786 34.5472 8.95723 34.3263 8.96293L33.4261 8.96279V7.42822ZM34.3468 9.21621C34.5791 9.20495 34.8077 9.27718 34.9913 9.41984C35.0676 9.48507 35.128 9.56686 35.1679 9.65898C35.2078 9.75109 35.2262 9.8511 35.2216 9.95138C35.2258 10.055 35.2068 10.1582 35.1661 10.2536C35.1254 10.3489 35.0639 10.434 34.9862 10.5026C34.7977 10.6473 34.5636 10.7195 34.3263 10.7062L33.4261 10.7061V9.21621L34.3468 9.21621Z" fill="#A0A0A0"/>
<path id="Vector_9" fill-rule="evenodd" clip-rule="evenodd" d="M39.5065 7.42822H39.1945V9.01257H37.1176V7.42822H36.8105V10.9595H37.1176V9.26542H39.1945V10.9595H39.5065V7.42822Z" fill="#A0A0A0"/>
<path id="Vector_10" fill-rule="evenodd" clip-rule="evenodd" d="M41.2874 7.42822H40.9805V10.9595H42.1775C42.4982 10.9782 42.8151 10.8832 43.0727 10.6914C43.1794 10.602 43.2641 10.4891 43.32 10.3616C43.3759 10.2341 43.4016 10.0953 43.3949 9.95623C43.3981 9.76844 43.3466 9.58379 43.2466 9.4248C43.1478 9.27006 43.0029 9.15023 42.8323 9.0822C42.6281 8.99786 42.4085 8.95723 42.1876 8.96293L41.2874 8.96279V7.42822ZM42.2081 9.21621C42.4404 9.20495 42.669 9.27718 42.8527 9.41984C42.929 9.48507 42.9894 9.56687 43.0293 9.65899C43.0692 9.75111 43.0875 9.85112 43.0829 9.95141C43.0883 10.0551 43.0699 10.1587 43.0291 10.2542C42.9883 10.3498 42.9263 10.4347 42.8477 10.5026C42.6591 10.6473 42.4249 10.7195 42.1876 10.7062L41.2874 10.7061V9.21621L42.2081 9.21621ZM44.3005 7.42822H43.9935V10.9595H44.3005V7.42822Z" fill="#A0A0A0"/>
<path id="Vector_11" fill-rule="evenodd" clip-rule="evenodd" d="M46.1077 10.4477V7.42813H45.8008V10.9594H46.1077L48.1796 7.93969V10.9594H48.4865V7.42813H48.1796L46.1077 10.4477ZM47.6322 6.56396C47.635 6.62036 47.6255 6.6767 47.6043 6.72903C47.5831 6.78136 47.5507 6.82843 47.5094 6.86693C47.4128 6.94491 47.2906 6.98389 47.1667 6.97619C47.042 6.98385 46.9187 6.94687 46.8188 6.8719C46.777 6.83271 46.7443 6.78481 46.7231 6.73159C46.7019 6.67838 46.6927 6.62115 46.6961 6.56396H46.4402C46.437 6.64951 46.4534 6.73466 46.4879 6.81298C46.5225 6.89129 46.5744 6.96072 46.6398 7.01603C46.7887 7.13501 46.9763 7.19508 47.1667 7.18482C47.3561 7.19345 47.542 7.13152 47.6885 7.01101C47.7533 6.95639 47.8049 6.8878 47.8395 6.81038C47.8741 6.73295 47.8906 6.64871 47.888 6.56396H47.6322Z" fill="#A0A0A0"/>
<path id="Vector_12" fill-rule="evenodd" clip-rule="evenodd" d="M54.6303 7.42822H52.6199L52.5534 8.70449C52.5357 9.10566 52.467 9.50294 52.3488 9.88673C52.2644 10.1911 52.1102 10.4717 51.8986 10.7062L51.6582 10.7061V11.8137H51.9651V10.9595H54.7071V11.8137H55.014L55.0192 10.7061H54.6303L54.6303 7.42822ZM52.6711 9.85675C52.7804 9.47819 52.8456 9.08829 52.8655 8.69479L52.9115 7.68151H54.3234V10.7061H52.2567C52.4501 10.4535 52.591 10.1646 52.6711 9.85675Z" fill="#A0A0A0"/>
<path id="Vector_13" fill-rule="evenodd" clip-rule="evenodd" d="M58.1907 9.01257H56.4926V7.68152H58.4363V7.42822H56.1855V10.9595H58.4463V10.7062H56.4926V9.26542H58.1907V9.01257Z" fill="#A0A0A0"/>
<path id="Vector_14" fill-rule="evenodd" clip-rule="evenodd" d="M60.1693 7.42822L60.0824 9.06724C60.0689 9.40557 60.0313 9.74251 59.9699 10.0755C59.9449 10.2472 59.8762 10.4097 59.7704 10.5472C59.7199 10.599 59.6594 10.6398 59.5925 10.6671C59.5256 10.6945 59.4538 10.7078 59.3816 10.7062L59.2793 10.7061V10.9595H59.4123C59.5981 10.9653 59.7804 10.9075 59.929 10.7957C60.0764 10.6563 60.1795 10.4767 60.2257 10.2792C60.312 9.90562 60.3634 9.52483 60.3791 9.14175L60.461 7.68153H62.0008V10.9595H62.3077V7.42822H60.1693Z" fill="#A0A0A0"/>
<path id="Vector_15" fill-rule="evenodd" clip-rule="evenodd" d="M66.4632 8.96275C66.4627 8.6752 66.4017 8.39096 66.2841 8.12855C66.1763 7.90014 66.0037 7.70846 65.7879 7.5773C65.5623 7.44717 65.3065 7.37866 65.0461 7.37866C64.7857 7.37866 64.5298 7.44717 64.3043 7.5773C64.0862 7.71683 63.9138 7.91707 63.8081 8.15337C63.6852 8.42115 63.624 8.7131 63.629 9.00767L63.6292 9.37015C63.6074 9.80421 63.7477 10.2309 64.023 10.5672C64.1513 10.712 64.3099 10.8268 64.4877 10.9031C64.6654 10.9795 64.8579 11.0157 65.0512 11.0092C65.3124 11.0152 65.5698 10.9463 65.793 10.8105C66.0108 10.675 66.1835 10.4779 66.2893 10.2443C66.4109 9.97451 66.4703 9.68089 66.4632 9.38508L66.4632 8.96275ZM66.1563 9.37498C66.1777 9.73619 66.0747 10.0938 65.8646 10.3884C65.7672 10.5087 65.6427 10.6042 65.5014 10.6672C65.36 10.7302 65.2058 10.7589 65.0512 10.7508C64.8964 10.7569 64.7424 10.7268 64.6012 10.6631C64.46 10.5993 64.3356 10.5036 64.2379 10.3834C64.0234 10.0962 63.9166 9.74292 63.9361 9.38507V9.01736C63.9152 8.65481 64.022 8.29641 64.2379 8.00438C64.3399 7.8903 64.4648 7.79904 64.6046 7.73655C64.7443 7.67407 64.8956 7.64177 65.0487 7.64177C65.2017 7.64177 65.353 7.67407 65.4927 7.73655C65.6325 7.79904 65.7574 7.8903 65.8594 8.00438C66.0736 8.29144 66.1787 8.64526 66.1561 9.00267L66.1563 9.37498Z" fill="#A0A0A0"/>
<path id="Vector_16" fill-rule="evenodd" clip-rule="evenodd" d="M69.0006 10.9593C69.3109 10.9767 69.6173 10.8834 69.8652 10.696C69.969 10.6059 70.0511 10.4933 70.1051 10.3669C70.1592 10.2404 70.1838 10.1034 70.1772 9.96599C70.1791 9.7681 70.1102 9.57605 69.9828 9.42459C69.8533 9.26649 69.6721 9.1592 69.4712 9.12167C69.6387 9.07122 69.7857 8.96856 69.8908 8.82867C69.9941 8.69148 70.0481 8.52349 70.0442 8.35181C70.0531 8.22095 70.0303 8.08988 69.9778 7.9697C69.9253 7.84953 69.8445 7.74379 69.7424 7.66145C69.4808 7.48905 69.17 7.40706 68.8574 7.42802H67.7832V10.9593H69.0006ZM69.0365 9.26552C69.2556 9.25256 69.4719 9.31969 69.6452 9.45441C69.7192 9.51799 69.7779 9.59747 69.8169 9.68691C69.8558 9.77635 69.8741 9.87344 69.8703 9.97093C69.8754 10.0727 69.8574 10.1743 69.8175 10.2681C69.7776 10.3619 69.717 10.4454 69.6402 10.5124C69.4599 10.6493 69.2369 10.7179 69.0109 10.706L68.0901 10.7059V9.26552H69.0365ZM68.0901 7.6813H68.8574C69.0893 7.66388 69.3206 7.72135 69.5173 7.84523C69.5932 7.90366 69.6531 7.98022 69.6915 8.06788C69.7299 8.15554 69.7457 8.25147 69.7373 8.34682C69.7425 8.43939 69.7262 8.5319 69.6899 8.61717C69.6535 8.70245 69.5979 8.77819 69.5276 8.83854C69.3517 8.95879 69.142 9.0197 68.9291 9.01237H68.0901V7.6813Z" fill="#A0A0A0"/>
<path id="Vector_17" fill-rule="evenodd" clip-rule="evenodd" d="M74.1507 8.963C74.1502 8.67544 74.0892 8.39121 73.9716 8.12879C73.8639 7.90036 73.6913 7.70866 73.4754 7.57754C73.2499 7.44741 72.994 7.37891 72.7336 7.37891C72.4732 7.37891 72.2174 7.44741 71.9918 7.57754C71.7738 7.71707 71.6013 7.91731 71.4956 8.15362C71.3728 8.4214 71.3116 8.71335 71.3167 9.00792V9.37039C71.2949 9.80445 71.4352 10.2311 71.7105 10.5675C71.8388 10.7123 71.9975 10.827 72.1752 10.9034C72.353 10.9798 72.5454 11.016 72.7387 11.0094C72.9999 11.0154 73.2574 10.9465 73.4806 10.8108C73.6984 10.6753 73.871 10.4782 73.9768 10.2445C74.0984 9.97476 74.1578 9.68113 74.1507 9.38533L74.1507 8.963ZM73.8438 9.37523C73.8652 9.73644 73.7622 10.0941 73.5521 10.3886C73.4547 10.5089 73.3302 10.6045 73.1889 10.6675C73.0475 10.7305 72.8933 10.7591 72.7387 10.7511C72.5839 10.7571 72.4299 10.7271 72.2887 10.6633C72.1475 10.5995 72.0231 10.5038 71.9254 10.3837C71.7109 10.0965 71.6041 9.74317 71.6236 9.38531V9.01761C71.6027 8.65506 71.7095 8.29666 71.9254 8.00463C72.0274 7.89055 72.1523 7.79928 72.2921 7.7368C72.4318 7.67432 72.5831 7.64202 72.7362 7.64202C72.8892 7.64202 73.0405 7.67432 73.1802 7.7368C73.32 7.79928 73.4449 7.89055 73.547 8.00463C73.7611 8.29167 73.8663 8.64549 73.8438 9.00292L73.8438 9.37523Z" fill="#A0A0A0"/>
<path id="Vector_18" fill-rule="evenodd" clip-rule="evenodd" d="M75.7874 10.4477V7.42813H75.4805V10.9594H75.7874L77.8593 7.93969V10.9594H78.1662V7.42813H77.8593L75.7874 10.4477ZM77.3119 6.56396C77.3147 6.62037 77.3052 6.67672 77.284 6.72905C77.2628 6.78139 77.2303 6.82845 77.189 6.86693C77.0925 6.94492 76.9702 6.98391 76.8464 6.97619C76.7217 6.98384 76.5984 6.94687 76.4985 6.8719C76.4567 6.83272 76.424 6.78482 76.4028 6.73161C76.3816 6.67839 76.3723 6.62116 76.3756 6.56396H76.1199C76.1167 6.64951 76.133 6.73467 76.1676 6.81299C76.2021 6.89131 76.2541 6.96074 76.3194 7.01603C76.4684 7.13501 76.656 7.19508 76.8464 7.18482C77.0358 7.19345 77.2217 7.13152 77.368 7.01101C77.4329 6.95641 77.4846 6.88782 77.5191 6.81039C77.5537 6.73296 77.5702 6.64871 77.5676 6.56396H77.3119Z" fill="#A0A0A0"/>
<path id="Vector_19" fill-rule="evenodd" clip-rule="evenodd" d="M85.2152 10.9595H85.604L84.2535 9.13177L85.5119 7.42822H85.1434L83.9975 9.02251H83.5677V7.42822H83.2611V9.02251H82.8209L81.6804 7.42822H81.3069L82.5599 9.13177L81.2148 10.9595H81.6036L82.8416 9.27535H83.2611V10.9595H83.5677V9.27535H83.9772L85.2152 10.9595Z" fill="#A0A0A0"/>
<path id="Vector_20" fill-rule="evenodd" clip-rule="evenodd" d="M86.6895 7.42826H86.3418L87.7178 10.0258L87.5592 10.3386L87.4978 10.4479C87.4505 10.5391 87.3794 10.6159 87.292 10.6701C87.2047 10.7243 87.1044 10.754 87.0016 10.7559C86.9314 10.7592 86.861 10.7542 86.7919 10.741L86.7612 10.9842C86.8383 11.0025 86.9173 11.0109 86.9965 11.0092C87.156 11.014 87.3136 10.9737 87.4511 10.8928C87.5887 10.812 87.7007 10.694 87.7741 10.5523L87.8661 10.3833L89.273 7.42822H88.9097L87.8764 9.68784L86.6895 7.42826Z" fill="#A0A0A0"/>
<path id="Vector_21" fill-rule="evenodd" clip-rule="evenodd" d="M91.6527 9.52377C91.9809 9.54632 92.3062 9.4493 92.5684 9.25064C92.6749 9.15504 92.7583 9.03654 92.8123 8.90406C92.8664 8.77158 92.8897 8.62857 92.8805 8.48578C92.8879 8.3403 92.8623 8.19503 92.8056 8.06084C92.7489 7.92666 92.6626 7.80704 92.5531 7.71094C92.2992 7.51052 91.9808 7.40984 91.6578 7.42784H90.4199V10.9592H90.7268V9.52377H91.6527ZM90.7268 7.68113H91.6783C91.92 7.67068 92.157 7.75037 92.3433 7.90474C92.4208 7.97965 92.4814 8.07023 92.5211 8.17043C92.5608 8.27063 92.5787 8.37814 92.5736 8.48579C92.5804 8.59336 92.5628 8.70108 92.522 8.80086C92.4813 8.90064 92.4184 8.98988 92.3382 9.06187C92.1452 9.21343 91.9026 9.28778 91.6578 9.27047H90.7268L90.7268 7.68113Z" fill="#A0A0A0"/>
<path id="Vector_22" fill-rule="evenodd" clip-rule="evenodd" d="M96.8092 7.42822H96.4973V9.01257H94.4199V7.42822H94.1133V10.9595H94.4199V9.26542H96.4973V10.9595H96.8092V7.42822Z" fill="#A0A0A0"/>
<path id="Vector_23" fill-rule="evenodd" clip-rule="evenodd" d="M100.666 10.9595H100.983L99.6071 7.42822H99.3156L97.9395 10.9595H98.2617L98.6352 9.96596H100.288L100.666 10.9595ZM99.4588 7.7907L100.19 9.71281H98.7323L99.4588 7.7907Z" fill="#A0A0A0"/>
<path id="Vector_24" fill-rule="evenodd" clip-rule="evenodd" d="M102.63 7.42822L102.543 9.06724C102.53 9.40558 102.492 9.74252 102.431 10.0755C102.406 10.2473 102.337 10.4097 102.231 10.5472C102.181 10.599 102.12 10.6398 102.054 10.6672C101.987 10.6945 101.915 10.7078 101.843 10.7062L101.74 10.7061V10.9595H101.873C102.059 10.9653 102.241 10.9075 102.39 10.7957C102.537 10.6564 102.641 10.4768 102.687 10.2792C102.773 9.90561 102.824 9.52483 102.84 9.14175L102.922 7.68153H104.462V10.9595H104.769V7.42822H102.63Z" fill="#A0A0A0"/>
<path id="Subtract" fill-rule="evenodd" clip-rule="evenodd" d="M105.182 14.7969V47.4994H5.92188V14.7969H105.182ZM62.0612 19.9336L48.1763 19.9338C46.2634 19.9394 44.4304 20.7018 43.0777 22.0545C41.7251 23.4071 40.9627 25.2401 40.9571 27.1531V35.8769C40.9627 37.7899 41.7251 39.6228 43.0778 40.9755C44.4304 42.3281 46.2634 43.0906 48.1763 43.0962H62.2499C66.2024 43.0962 69.0548 40.0797 69.6432 35.9398L62.6267 35.3103C62.568 35.9603 62.2689 36.565 61.788 37.0061C61.307 37.4472 60.6788 37.6929 60.0262 37.6953L53.6279 37.6952L50.4002 37.6953C49.7086 37.693 49.0459 37.4173 48.5568 36.9282C48.0677 36.4391 47.792 35.7765 47.7897 35.0848V27.9454C47.7919 27.2537 48.0676 26.591 48.5567 26.1019C49.0458 25.6128 49.7085 25.3371 50.4002 25.3349C53.5459 25.3347 56.6916 25.3347 59.8372 25.3349C60.4909 25.3371 61.1202 25.5837 61.6014 26.0261C62.0826 26.4685 62.3811 27.0748 62.4382 27.726L69.4272 26.9685C69.0209 23.0822 65.97 19.9338 62.0612 19.9336ZM38.9806 20.2061H11.7579V25.7362H21.7751V42.699H28.9747V25.7362H38.9806V20.2061ZM78.7627 36.9858C83.0645 36.9852 87.3667 36.985 91.6693 36.985C93.5822 36.9794 95.4152 36.217 96.7679 34.8643C98.1205 33.5116 98.8829 31.6787 98.8886 29.7657V27.4366C98.8829 25.5237 98.1205 23.6907 96.7679 22.3381C95.4152 20.9854 93.5822 20.223 91.6693 20.2174C85.0901 20.2099 78.5025 20.2061 71.9064 20.2061V42.699H78.7627V36.9858ZM91.2887 30.8167C90.7997 31.3057 90.1371 31.5815 89.4455 31.5839C87.6583 31.584 85.8739 31.5813 84.0885 31.5786C82.3154 31.576 80.5414 31.5733 78.7627 31.5733V25.6183C82.3236 25.6182 85.8845 25.6183 89.4454 25.6186C90.137 25.6208 90.7997 25.8966 91.2888 26.3856C91.7779 26.8747 92.0537 27.5374 92.056 28.229V28.9735C92.0535 29.6651 91.7777 30.3276 91.2887 30.8167Z" fill="#A0A0A0"/>
<path id="Vector_25" fill-rule="evenodd" clip-rule="evenodd" d="M9.01718 51.0342H5.97852V51.6898H7.04769V54.5654H7.92227V51.6898H9.01718V51.0342Z" fill="#A0A0A0"/>
<path id="Vector_26" fill-rule="evenodd" clip-rule="evenodd" d="M12.0722 53.3632C12.445 53.3831 12.8134 53.2745 13.1158 53.0555C13.2391 52.9574 13.3376 52.8316 13.4034 52.6884C13.4692 52.5451 13.5003 52.3885 13.4944 52.231C13.5001 52.0093 13.4394 51.7911 13.3199 51.6043C13.2005 51.4175 13.0278 51.2708 12.8242 51.183C12.5909 51.0797 12.3376 51.0288 12.0824 51.0341H10.6348V54.5652H11.5094V53.3632H12.0722ZM11.5094 51.6895H12.0927C12.1628 51.686 12.2328 51.6975 12.2981 51.7232C12.3633 51.7489 12.4224 51.7883 12.4713 51.8386C12.5668 51.9483 12.6163 52.0907 12.6094 52.236C12.6134 52.3005 12.6031 52.3652 12.5792 52.4253C12.5553 52.4853 12.5185 52.5394 12.4713 52.5836C12.3631 52.6747 12.2233 52.7193 12.0824 52.7077H11.5094V51.6895Z" fill="#A0A0A0"/>
<path id="Vector_27" fill-rule="evenodd" clip-rule="evenodd" d="M17.4691 52.4343H16.0875V51.6893H17.7197V51.0337H15.2129V54.565H17.7143V53.9094H16.0875V53.065H17.4691V52.4343Z" fill="#A0A0A0"/>
<path id="Vector_28" fill-rule="evenodd" clip-rule="evenodd" d="M22.3629 51.0337H21.4928V52.4343H20.1988V51.0337H19.3242V54.565H20.1988V53.0899H21.4928V54.565H22.3629V51.0337Z" fill="#A0A0A0"/>
<path id="Vector_29" fill-rule="evenodd" clip-rule="evenodd" d="M27.7149 53.9094H27.3261V51.0339H24.8501L24.7375 52.5436C24.7202 52.8546 24.6618 53.162 24.5636 53.4576C24.5038 53.6385 24.3894 53.7964 24.2362 53.9096L23.9805 53.9094L24.0419 55.4343H24.8553V54.5651H26.835V55.4343H27.6227L27.7149 53.9094ZM25.6123 52.5735L25.6789 51.6893H26.4513V53.9094H25.2286C25.4604 53.5008 25.5919 53.0428 25.6123 52.5735Z" fill="#A0A0A0"/>
<path id="Vector_30" fill-rule="evenodd" clip-rule="evenodd" d="M30.1397 51.0342H29.2598V54.5654H30.5796C30.9625 54.5843 31.3403 54.4702 31.6488 54.2426C31.8571 54.0711 31.9947 53.8287 32.0353 53.562C32.0758 53.2953 32.0165 53.023 31.8687 52.7973C31.7407 52.6165 31.563 52.4767 31.3571 52.395C31.1155 52.2957 30.8562 52.2466 30.5949 52.2509H30.1397V51.0342ZM33.1886 51.0342H32.3138V54.5654H33.1886V51.0342ZM30.5847 52.9065C30.7395 52.897 30.8924 52.9447 31.0143 53.0406C31.0644 53.0833 31.1042 53.1367 31.1308 53.1969C31.1574 53.2571 31.17 53.3226 31.1678 53.3883C31.1701 53.4585 31.1576 53.5283 31.1312 53.5934C31.1048 53.6584 31.065 53.7171 31.0143 53.7658C30.8964 53.8663 30.7445 53.9178 30.5898 53.9098L30.1397 53.9096V52.9065H30.5847Z" fill="#A0A0A0"/>
<path id="Vector_31" fill-rule="evenodd" clip-rule="evenodd" d="M37.8053 50.5825H37.5547V54.7694H37.8053V50.5825Z" fill="#A0A0A0"/>
<path id="Vector_32" fill-rule="evenodd" clip-rule="evenodd" d="M44.2396 53.3682C44.2449 53.4497 44.2326 53.5314 44.2035 53.6077C44.1743 53.684 44.1291 53.7531 44.0708 53.8102C43.9395 53.9115 43.7757 53.961 43.6103 53.9494C43.5116 53.9593 43.4122 53.9419 43.3228 53.8989C43.2335 53.856 43.1577 53.7892 43.1038 53.706C42.9888 53.4524 42.9396 53.174 42.9606 52.8964V52.6479C42.9455 52.3851 43.0002 52.123 43.1192 51.8881C43.1708 51.8091 43.2426 51.7453 43.3272 51.7034C43.4118 51.6615 43.506 51.643 43.6002 51.6498C43.7721 51.6359 43.9431 51.6853 44.081 51.7888C44.1384 51.8516 44.1825 51.9253 44.2106 52.0056C44.2388 52.0858 44.2504 52.1709 44.2447 52.2557L45.1195 52.2556C45.1101 52.0774 45.0649 51.9029 44.9867 51.7426C44.9084 51.5822 44.7988 51.4392 44.6641 51.3221C44.3609 51.0867 43.9837 50.9669 43.6002 50.9843C43.3159 50.9771 43.0355 51.0512 42.7918 51.1978C42.556 51.3391 42.3687 51.5487 42.2547 51.7988C42.1263 52.0842 42.0634 52.3948 42.0706 52.7076V52.8814C42.0396 53.345 42.1859 53.803 42.4798 54.1629C42.6241 54.3158 42.8 54.4354 42.9952 54.5134C43.1905 54.5915 43.4003 54.6261 43.6103 54.6148C43.8759 54.6201 44.1395 54.5676 44.3828 54.4609C44.5956 54.3669 44.778 54.2156 44.9097 54.0239C45.0342 53.827 45.1047 53.6009 45.1143 53.3682L44.2396 53.3682Z" fill="#A0A0A0"/>
<path id="Vector_33" fill-rule="evenodd" clip-rule="evenodd" d="M49.8574 52.7077C49.859 52.3948 49.789 52.0856 49.6527 51.8039C49.5277 51.5517 49.3323 51.3412 49.0901 51.1978C48.8363 51.0578 48.5512 50.9844 48.2613 50.9844C47.9714 50.9844 47.6863 51.0578 47.4325 51.1978C47.1875 51.3421 46.9914 51.5567 46.8699 51.8137C46.7324 52.0985 46.664 52.4116 46.6703 52.7277V52.9261C46.6738 53.2349 46.7473 53.539 46.8852 53.8153C47.0089 54.0629 47.2028 54.2685 47.4427 54.4064C47.6939 54.5479 47.9782 54.6198 48.2665 54.6149C48.5571 54.6212 48.8438 54.5473 49.0952 54.4014C49.34 54.2569 49.536 54.0424 49.6578 53.7855C49.7958 53.501 49.8642 53.1878 49.8574 52.8717V52.7077ZM48.9622 52.8865C48.9778 53.1614 48.9157 53.4351 48.783 53.6762C48.7288 53.7634 48.6524 53.8346 48.5616 53.8826C48.4709 53.9306 48.369 53.9537 48.2665 53.9495C48.162 53.9534 48.0583 53.9297 47.9658 53.8809C47.8733 53.832 47.7953 53.7598 47.7396 53.6713C47.609 53.4258 47.5488 53.1491 47.5656 52.8717V52.6133C47.5912 51.9727 47.8265 51.6499 48.2665 51.6499C48.369 51.6463 48.4706 51.6696 48.5612 51.7175C48.6519 51.7654 48.7284 51.8363 48.783 51.9231C48.9168 52.1675 48.9789 52.4446 48.9621 52.7227L48.9622 52.8865Z" fill="#A0A0A0"/>
<path id="Vector_34" fill-rule="evenodd" clip-rule="evenodd" d="M54.014 51.0342H51.5586V54.5654H52.8784C53.2614 54.5843 53.6391 54.4702 53.9476 54.2426C54.0755 54.1417 54.1782 54.0125 54.2474 53.865C54.3167 53.7176 54.3506 53.5561 54.3465 53.3933C54.3492 53.181 54.2867 52.973 54.1675 52.7974C54.0395 52.6165 53.8618 52.4768 53.6559 52.3951C53.4143 52.2957 53.155 52.2466 52.8938 52.2509H52.4385V51.6896H54.014L54.014 51.0342ZM52.8835 52.9065C53.0383 52.897 53.1913 52.9447 53.3132 53.0406C53.3639 53.083 53.4046 53.1362 53.432 53.1964C53.4595 53.2566 53.473 53.3222 53.4718 53.3883C53.4731 53.4588 53.4597 53.5288 53.4324 53.5938C53.4051 53.6589 53.3645 53.7174 53.3132 53.7658C53.1953 53.8663 53.0434 53.9178 52.8886 53.9098L52.4385 53.9096V52.9065H52.8835Z" fill="#A0A0A0"/>
<path id="Vector_35" fill-rule="evenodd" clip-rule="evenodd" d="M56.8778 51.0342H55.998V54.5654H57.3179C57.7008 54.5843 58.0785 54.4702 58.3871 54.2426C58.5953 54.0711 58.733 53.8287 58.7735 53.562C58.8141 53.2953 58.7548 53.023 58.607 52.7973C58.479 52.6165 58.3013 52.4767 58.0954 52.395C57.8538 52.2957 57.5944 52.2466 57.3332 52.2509H56.8778L56.8778 51.0342ZM59.9267 51.0342H59.0521V54.5654H59.9267V51.0342ZM57.323 52.9065C57.4778 52.897 57.6307 52.9447 57.7526 53.0406C57.8027 53.0833 57.8425 53.1367 57.8691 53.1969C57.8956 53.2571 57.9083 53.3226 57.9061 53.3883C57.9084 53.4585 57.8959 53.5283 57.8695 53.5934C57.843 53.6584 57.8032 53.7171 57.7526 53.7658C57.6347 53.8663 57.4828 53.9178 57.3281 53.9098L56.8778 53.9096V52.9065H57.323Z" fill="#A0A0A0"/>
<path id="Vector_36" fill-rule="evenodd" clip-rule="evenodd" d="M64.4919 51.0339H61.4532V51.6895H62.5224V54.5652H63.3975V51.6895H64.4919V51.0339Z" fill="#A0A0A0"/>
<path id="Vector_37" fill-rule="evenodd" clip-rule="evenodd" d="M66.9351 53.2642V51.0342H66.0605V54.5654H66.9351L68.2445 52.3404V54.5654H69.1195V51.0342H68.2445L66.9351 53.2642Z" fill="#A0A0A0"/>
<path id="Vector_38" fill-rule="evenodd" clip-rule="evenodd" d="M73.3481 54.5652V51.0341H72.0335C71.6693 51.0088 71.3078 51.1106 71.0103 51.3221C70.8923 51.4201 70.7989 51.5444 70.7376 51.685C70.6763 51.8256 70.6488 51.9786 70.6573 52.1317C70.6486 52.3123 70.6892 52.4919 70.7748 52.6511C70.8605 52.8103 70.9878 52.9432 71.1433 53.0355L70.3965 54.5652H71.3481L71.9619 53.3236H72.4683V54.5652H73.3481ZM71.6448 51.8236C71.6943 51.7751 71.7538 51.738 71.8192 51.7148C71.8846 51.6917 71.9542 51.6831 72.0232 51.6896L72.4684 51.6895V52.7176H72.0181C71.951 52.7244 71.8832 52.7174 71.819 52.6969C71.7547 52.6764 71.6954 52.6429 71.6446 52.5984C71.5597 52.4862 71.5196 52.3463 71.5321 52.2061C71.521 52.0691 71.5612 51.9328 71.6448 51.8236Z" fill="#A0A0A0"/>
<path id="Vector_39" fill-rule="evenodd" clip-rule="evenodd" d="M77.9131 50.5825H77.6621V54.7694H77.9131V50.5825Z" fill="#A0A0A0"/>
<path id="Vector_40" fill-rule="evenodd" clip-rule="evenodd" d="M83.7168 53.3632C84.0896 53.3831 84.458 53.2745 84.7603 53.0555C84.8837 52.9574 84.9822 52.8316 85.0479 52.6884C85.1137 52.5451 85.1449 52.3885 85.1389 52.231C85.1447 52.0093 85.0839 51.7911 84.9645 51.6043C84.845 51.4175 84.6724 51.2708 84.4688 51.183C84.2354 51.0796 83.9822 51.0288 83.727 51.0341H82.2793V54.5652H83.1541V53.3632H83.7168ZM83.1541 51.6895H83.7372C83.8073 51.686 83.8773 51.6975 83.9426 51.7232C84.0079 51.7489 84.0669 51.7882 84.1158 51.8386C84.2114 51.9483 84.2609 52.0907 84.2539 52.236C84.2579 52.3005 84.2477 52.3652 84.2238 52.4253C84.1999 52.4854 84.163 52.5395 84.1158 52.5836C84.0077 52.6747 83.8679 52.7193 83.727 52.7077H83.1541L83.1541 51.6895Z" fill="#A0A0A0"/>
<path id="Vector_41" fill-rule="evenodd" clip-rule="evenodd" d="M87.7334 51.0342H86.8535V54.5654H88.1733C88.5563 54.5843 88.934 54.4702 89.2425 54.2426C89.3704 54.1417 89.4731 54.0125 89.5423 53.865C89.6116 53.7176 89.6455 53.5561 89.6414 53.3933C89.6441 53.181 89.5817 52.973 89.4624 52.7974C89.3345 52.6165 89.1567 52.4768 88.9508 52.3951C88.7092 52.2957 88.4499 52.2466 88.1887 52.2509H87.7334L87.7334 51.0342ZM90.7823 51.0342H89.9075V54.5654H90.7823L90.7823 51.0342ZM88.1784 52.9065C88.3332 52.897 88.4862 52.9447 88.6081 53.0406C88.6582 53.0833 88.698 53.1367 88.7246 53.1969C88.7512 53.2571 88.7639 53.3225 88.7617 53.3883C88.7639 53.4585 88.7514 53.5283 88.725 53.5934C88.6985 53.6584 88.6587 53.7171 88.6081 53.7658C88.4902 53.8663 88.3383 53.9178 88.1835 53.9098L87.7334 53.9096V52.9065H88.1784Z" fill="#A0A0A0"/>
<path id="Vector_42" fill-rule="evenodd" clip-rule="evenodd" d="M95.6051 51.0342H94.7355V52.4348H93.441V51.0342H92.5664V54.5654H93.441V53.0904H94.7355V54.5654H95.6051V51.0342Z" fill="#A0A0A0"/>
<path id="Vector_43" fill-rule="evenodd" clip-rule="evenodd" d="M99.4659 54.5654H100.504L99.3788 52.6632L100.377 51.0342H99.3173L98.6166 52.4H98.2793V51.0342H97.4043V54.5654H98.2793V53.1694H98.6934L99.4659 54.5654Z" fill="#A0A0A0"/>
<path id="Vector_44" fill-rule="evenodd" clip-rule="evenodd" d="M102.791 53.2642V51.0342H101.916V54.5654H102.791L104.1 52.3404V54.5654H104.975V51.0342H104.1L102.791 53.2642Z" fill="#A0A0A0"/>
<path id="Vector_45" d="M0.128906 0.126953H110.975V61.8711H0.128906V0.126953Z" stroke="#A0A0A0" stroke-width="0.283465" stroke-miterlimit="22.9256"/>
</g>
</g>
</g>
<defs>
<clipPath id="clip0_177_8632">
<rect width="111.102" height="62" fill="white"/>
</clipPath>
</defs>
</svg>
