<svg width="63" height="62" viewBox="0 0 63 62" fill="none" xmlns="http://www.w3.org/2000/svg">
<g id="Tass" clip-path="url(#clip0_177_8623)">
<g id="&#208;&#161;&#208;&#187;&#208;&#190;&#208;&#185; 2">
<g id="Layer 1">
<path id="Vector" d="M0.900757 0V62H62.9008V0H0.900757ZM13.2262 42.2311V53.1967H9.71717V42.2311H4.78261V38.9019H18.8187L16.8975 42.2311H13.2262ZM31.9468 53.1967H22.9155C21.7522 53.1967 20.6365 52.7346 19.8139 51.912C18.9913 51.0894 18.5292 49.9738 18.5292 48.8105C18.5292 47.6472 18.9913 46.5315 19.8139 45.7089C20.6365 44.8863 21.7522 44.4242 22.9155 44.4242H28.429V42.8978C28.4379 42.808 28.4267 42.7174 28.3964 42.6325C28.366 42.5476 28.3172 42.4704 28.2534 42.4067C28.1896 42.3429 28.1125 42.2941 28.0276 42.2637C27.9427 42.2333 27.8521 42.2222 27.7623 42.2311H19.2617L21.1829 38.9019H27.7623C30.2932 38.9019 31.9468 40.4809 31.9468 42.8978V53.1967ZM38.3113 49.8676H45.5925V53.1967H38.3113C35.7629 53.1967 34.1049 51.6572 34.1049 49.2228V42.8978C34.1049 40.4809 35.7629 38.9019 38.3113 38.9019H46.4654L44.5486 42.2311H38.3113C38.2212 42.2241 38.1306 42.2364 38.0456 42.2672C37.9606 42.298 37.8831 42.3465 37.8184 42.4096C37.7536 42.4727 37.7031 42.5489 37.6701 42.6331C37.6371 42.7172 37.6224 42.8075 37.627 42.8978V49.2359C37.6227 49.3252 37.6378 49.4143 37.6712 49.4972C37.7046 49.58 37.7556 49.6547 37.8206 49.716C37.8857 49.7772 37.9632 49.8237 38.0479 49.8521C38.1326 49.8806 38.2225 49.8903 38.3113 49.8807V49.8676ZM51.3649 49.8676H58.6461V53.1967H51.3649C48.8164 53.1967 47.1628 51.6572 47.1628 49.2228V42.8978C47.1628 40.4809 48.8164 38.9019 51.3649 38.9019H59.5233L57.6021 42.2311H51.3649C51.2747 42.2241 51.1841 42.2364 51.0991 42.2672C51.0141 42.298 50.9367 42.3465 50.8719 42.4096C50.8072 42.4727 50.7566 42.5489 50.7236 42.6331C50.6906 42.7172 50.676 42.8075 50.6806 42.8978V49.2359C50.6763 49.3252 50.6913 49.4143 50.7248 49.4972C50.7582 49.58 50.8092 49.6547 50.8742 49.716C50.9392 49.7772 51.0168 49.8237 51.1015 49.8521C51.1862 49.8806 51.276 49.8903 51.3649 49.8807V49.8676ZM23.3453 47.4376H28.429V50.0035H23.3453C23.0226 49.9845 22.7193 49.8429 22.4975 49.6077C22.2758 49.3725 22.1522 49.0614 22.1522 48.7381C22.1522 48.4148 22.2758 48.1037 22.4975 47.8685C22.7193 47.6333 23.0226 47.4917 23.3453 47.4727V47.4376Z" fill="#A0A0A0"/>
</g>
</g>
</g>
<defs>
<clipPath id="clip0_177_8623">
<rect width="62" height="62" fill="white" transform="translate(0.898804)"/>
</clipPath>
</defs>
</svg>
