<svg width="285" height="62" viewBox="0 0 285 62" fill="none" xmlns="http://www.w3.org/2000/svg">
<g clip-path="url(#clip0_177_8616)">
<path d="M23.0775 50.2364C23.7107 50.7528 24.1492 51.4694 24.3207 52.2683C24.3207 53.0703 23.3448 54.0997 22.7967 54.6076L15.0033 61.7862H12.8511L21.6204 53.8858C22.3422 53.2308 22.9572 52.7495 22.9572 52.3217C22.9572 51.894 22.6764 51.6667 21.9011 50.985L13.8804 43.2985H15.9524L23.0775 50.2364ZM29.2534 52.3217C29.2534 52.0277 29.5475 51.6667 30.3228 50.985L38.3435 43.2985H36.2581L29.0663 50.3032C28.6251 50.7443 27.823 51.64 27.823 52.3351C27.823 52.549 27.823 53.2976 29.3603 54.6745L37.1538 61.853H39.306L30.5233 53.9526C29.8148 53.2976 29.2534 52.8164 29.2534 52.3886M25.3634 61.853H26.7937V43.2316H25.3634V61.853ZM42.5143 60.3424C42.3383 60.1338 42.2476 59.8665 42.2603 59.5939V52.9367H53.9705V51.5999H42.2603V45.7047C42.2325 45.3685 42.3327 45.0343 42.541 44.7689C42.8247 44.6023 43.1478 44.5146 43.4768 44.5149H54.171V43.1782H43.2896C42.9345 43.131 42.5733 43.1695 42.2361 43.2905C41.8989 43.4114 41.5955 43.6112 41.3513 43.8733C40.9491 44.3953 40.754 45.0475 40.8032 45.7047V59.2195C40.7598 59.5752 40.7882 59.936 40.887 60.2805C40.9857 60.625 41.1527 60.9461 41.378 61.2247C41.6426 61.4508 41.9523 61.6178 42.2866 61.7146C42.6209 61.8114 42.9719 61.8358 43.3164 61.7862H53.7834L54.3181 60.5162H43.6238C43.2101 60.5244 42.7995 60.4423 42.4207 60.2756M64.745 43.0177C63.9697 43.0177 63.4082 43.2316 62.8601 44.6352L55.6549 61.7862H57.1922L64.1835 44.9026C64.2905 44.662 64.344 44.3011 64.745 44.3011C65.146 44.3011 65.1861 44.662 65.2931 44.9026L72.2978 61.7862H73.8351L66.6165 44.6352C66.0417 43.2985 65.507 43.0177 64.745 43.0177ZM76.9766 60.2756C76.8846 60.1748 76.8136 60.0567 76.7677 59.9282C76.7218 59.7996 76.7019 59.6633 76.7092 59.527V52.9367H88.4194V51.5999H76.7092V45.7047C76.6922 45.5369 76.7095 45.3674 76.7601 45.2066C76.8106 45.0457 76.8934 44.8968 77.0033 44.7689C77.2898 44.5975 77.6185 44.5095 77.9524 44.5149H88.6467V43.1782H77.7385C77.3854 43.131 77.0262 43.1696 76.6911 43.2905C76.3561 43.4115 76.0551 43.6114 75.8136 43.8733C75.4287 44.383 75.239 45.0137 75.2788 45.6512V59.2195C75.2372 59.5761 75.2679 59.9375 75.3689 60.282C75.47 60.6265 75.6394 60.9471 75.867 61.2247C76.1291 61.4505 76.4366 61.6174 76.7686 61.7142C77.1007 61.8111 77.4496 61.8356 77.792 61.7862H88.7937V60.5162H78.2331C77.8237 60.5246 77.4174 60.4425 77.0434 60.2756M102.135 52.4287V52.3217C102.681 52.176 103.182 51.8956 103.592 51.5063C103.972 51.0431 104.256 50.5093 104.428 49.9357C104.6 49.3621 104.657 48.76 104.595 48.1644C104.734 46.7778 104.347 45.3895 103.512 44.2743C103.108 43.8929 102.627 43.6025 102.101 43.4227C101.575 43.2428 101.017 43.1777 100.464 43.2316H91.1064V44.5684H100.678C101.265 44.5623 101.832 44.777 102.268 45.17C102.846 46.0404 103.102 47.0854 102.99 48.1243C103.1 49.0545 102.898 49.995 102.416 50.7978C102.047 51.1851 101.592 51.4793 101.088 51.6559C100.583 51.8326 100.044 51.8867 99.5147 51.8138H91.3603V53.1506H100.21C101.051 53.0884 101.883 53.3516 102.536 53.8858C103.171 54.7874 103.447 55.8929 103.311 56.9871C103.311 58.1501 103.311 59.4468 102.148 60.1152C101.361 60.4587 100.507 60.6231 99.6484 60.5964H90.986V61.8664H99.996C101.071 61.8961 102.137 61.6572 103.097 61.1713C104.434 60.4093 104.848 59.0324 104.848 56.9604C104.87 55.9194 104.688 54.8841 104.314 53.9125C104.077 53.5178 103.75 53.1848 103.36 52.9409C102.969 52.6969 102.527 52.5489 102.068 52.5089M121.318 51.8004H109.287V43.2316H107.856V61.7862H109.287V52.9901H121.318V61.7862H122.748V43.2316H121.318V51.8004ZM140.434 53.1372C140.968 54.2666 141.207 55.513 141.129 56.7599C141.219 58.0221 140.921 59.2818 140.273 60.3692C139.832 60.8814 139.277 61.2827 138.652 61.5405C138.028 61.7983 137.351 61.9053 136.677 61.853H128.135C127.866 61.8667 127.597 61.8184 127.349 61.7118C127.101 61.6052 126.88 61.4432 126.705 61.2381C126.362 60.7725 126.205 60.1958 126.264 59.6206V43.2316H127.694V51.6935H137.052C137.684 51.6144 138.327 51.6953 138.92 51.9289C139.513 52.1624 140.038 52.5411 140.447 53.0302M139.605 56.7064C139.605 55.5969 139.605 54.0328 138.856 53.3778C138.384 53.0482 137.814 52.888 137.239 52.9233H127.694V59.2998C127.685 59.5932 127.74 59.8851 127.855 60.1553C128.055 60.4761 128.483 60.4761 128.884 60.4761H136.597C137.451 60.5139 138.286 60.2165 138.923 59.6473C139.497 58.7812 139.734 57.7354 139.591 56.7064M143.401 61.7461H144.832V43.2316H143.401V61.7461ZM162.357 43.1915H160.659L154.617 51.3058L148.588 43.1915H146.89L153.855 52.3351L146.676 61.6926H148.374L154.617 53.4714L160.873 61.8396H162.571L155.392 52.4822L162.357 43.1915ZM194.119 61.7461H173.867V60.4761H175.203L182.502 44.8759C182.957 43.8733 183.505 43.0177 184.414 43.0177C185.323 43.0177 185.844 43.8465 186.312 44.8759L194.172 61.7862M191.993 60.5162L184.908 45.1967C184.842 45.0095 184.601 44.555 184.36 44.555C184.12 44.555 183.879 45.0095 183.799 45.1967L176.781 60.5162H191.993ZM210.989 45.0363C213.088 47.135 213.195 50.3834 213.195 52.5089C213.195 54.6344 213.088 57.856 210.989 59.9815C208.89 62.107 206.27 62.0001 204.212 62.0001C202.153 62.0001 199.332 61.8931 197.421 59.9815C195.509 58.0699 195.228 54.6344 195.228 52.5089C195.228 50.3834 195.335 47.1618 197.421 45.0363C199.506 42.9108 202.14 43.0177 204.212 43.0177C206.284 43.0177 209.091 43.1247 210.989 45.0363ZM211.657 52.5089C211.657 50.37 211.657 47.7901 210.067 46.0656C208.476 44.3412 205.99 44.3011 204.212 44.3011C202.434 44.3011 199.947 44.301 198.356 46.0656C196.766 47.8302 196.766 50.37 196.766 52.5089C196.766 54.6478 196.766 57.2277 198.356 58.9522C199.947 60.6766 202.434 60.7301 204.212 60.7301C205.99 60.7301 208.476 60.7301 210.067 58.9522C211.657 57.1743 211.657 54.6611 211.657 52.5089ZM230.974 48.9263C230.974 50.4369 230.787 52.3752 229.437 53.4179C228.714 53.9416 227.842 54.2182 226.95 54.2066H217.593V61.7862H216.055V45.4507C216.018 45.148 216.044 44.8408 216.131 44.5486C216.219 44.2564 216.366 43.9854 216.563 43.753C217.084 43.3924 217.709 43.2138 218.341 43.245H225.988C227.248 43.1092 228.511 43.4635 229.517 44.2342C230.573 45.1299 230.921 46.5335 230.921 48.9397M229.383 48.5788C229.468 47.4562 229.202 46.335 228.621 45.3705C228.288 45.0617 227.892 44.827 227.461 44.6818C227.031 44.5367 226.574 44.4844 226.121 44.5283H218.595C217.526 44.5283 217.526 45.0229 217.526 45.6646V52.9367H226.121C226.59 52.9882 227.064 52.9384 227.511 52.7908C227.959 52.6432 228.369 52.4012 228.715 52.0811C229.262 50.9941 229.507 49.7797 229.423 48.5654M249.141 45.0363C251.226 47.135 251.333 50.3834 251.333 52.5089C251.333 54.6344 251.226 57.856 249.141 59.9815C247.055 62.107 244.422 62.0001 242.35 62.0001C240.278 62.0001 237.484 61.8931 235.572 59.9815C233.661 58.0699 233.367 54.6344 233.367 52.5089C233.367 50.3834 233.474 47.1618 235.572 45.0363C237.671 42.9108 240.291 43.0177 242.35 43.0177C244.409 43.0177 247.229 43.1247 249.141 45.0363ZM249.796 52.5089C249.796 50.37 249.796 47.7901 248.205 46.0656C246.614 44.3412 244.128 44.3011 242.35 44.3011C240.572 44.3011 238.086 44.301 236.495 46.0656C234.904 47.8302 234.904 50.37 234.904 52.5089C234.904 54.6478 234.904 57.2277 236.495 58.9522C238.086 60.6766 240.505 60.7301 242.35 60.7301C244.195 60.7301 246.614 60.7301 248.205 58.9522C249.796 57.1743 249.796 54.6611 249.796 52.5089ZM256.319 43.2316C256.036 43.2178 255.754 43.263 255.489 43.3642C255.224 43.4655 254.984 43.6206 254.782 43.8198C254.596 44.022 254.453 44.2605 254.363 44.5205C254.274 44.7805 254.239 45.0562 254.261 45.3304V61.7862H255.691V45.7448C255.654 45.4153 255.709 45.0819 255.852 44.7823C256.105 44.4481 256.801 44.5016 257.188 44.5016H267.548V43.1648L256.319 43.2316Z" fill="#A0A0A0"/>
<path d="M276.196 1.02997e-05C274.475 1.02997e-05 272.792 0.510401 271.361 1.46664C269.93 2.42288 268.815 3.78202 268.156 5.37218C267.497 6.96235 267.325 8.71212 267.661 10.4002C267.997 12.0883 268.825 13.639 270.043 14.856C271.26 16.0731 272.81 16.9019 274.498 17.2377C276.186 17.5735 277.936 17.4012 279.526 16.7425C281.117 16.0838 282.476 14.9684 283.432 13.5373C284.388 12.1062 284.899 10.4237 284.899 8.70247C284.9 7.55915 284.676 6.42673 284.24 5.3701C283.803 4.31347 283.162 3.35342 282.354 2.54498C281.545 1.73653 280.585 1.09558 279.528 0.65886C278.472 0.222144 277.339 -0.00175001 276.196 1.02997e-05ZM277.653 12.3118L275.14 10.8681C275.011 10.7988 274.897 10.7038 274.806 10.5889C274.715 10.4739 274.649 10.3415 274.612 10.1999C274.574 10.0582 274.566 9.91034 274.588 9.76543C274.61 9.62052 274.661 9.48167 274.739 9.35749L277.252 10.8012C277.498 10.9414 277.679 11.1736 277.754 11.4468C277.829 11.72 277.793 12.0119 277.653 12.2583M277.653 7.9405L275.14 6.55025C274.894 6.41005 274.713 6.17787 274.638 5.90467C274.563 5.63147 274.599 5.3396 274.739 5.09315L277.252 6.53688C277.498 6.67707 277.679 6.90926 277.754 7.18246C277.829 7.45565 277.793 7.74752 277.653 7.99397M268.683 8.70247C268.684 7.25347 269.104 5.83559 269.891 4.61912C270.678 3.40264 271.8 2.4393 273.121 1.84477C272.976 2.36895 272.995 2.9249 273.174 3.43842C273.353 3.95195 273.684 4.39863 274.124 4.71885C273.815 4.92522 273.562 5.20551 273.389 5.53429C273.057 6.10572 272.948 6.77986 273.084 7.42663C273.22 8.07341 273.59 8.64697 274.124 9.03666C273.815 9.24303 273.562 9.52332 273.389 9.8521C273.035 10.4656 272.939 11.1944 273.122 11.8787C273.305 12.5629 273.752 13.1465 274.365 13.5015L275.314 14.0496L276.651 14.7982L277.306 15.1725C277.342 15.1869 277.374 15.2098 277.399 15.2393C277.494 15.3198 277.556 15.4313 277.576 15.5538C277.596 15.6763 277.571 15.8018 277.506 15.9077C277.462 15.9798 277.402 16.0404 277.329 16.0845C277.257 16.1287 277.176 16.1551 277.092 16.1617C276.811 16.1617 276.544 16.1617 276.263 16.1617H276.022C274.073 16.0959 272.225 15.2758 270.869 13.8744C269.512 12.4729 268.753 10.5995 268.75 8.649M279.324 15.5067C279.471 14.9839 279.454 14.4288 279.278 13.9154C279.101 13.402 278.772 12.9546 278.335 12.6326C278.644 12.4262 278.897 12.146 279.07 11.8172C279.402 11.2457 279.511 10.5716 279.375 9.92483C279.239 9.27806 278.869 8.70449 278.335 8.3148C278.644 8.10843 278.897 7.82814 279.07 7.49936C279.424 6.88587 279.52 6.15701 279.337 5.4728C279.154 4.78859 278.707 4.20493 278.094 3.84995L277.145 3.30186L275.808 2.56663L275.153 2.17897H275.073C274.979 2.0985 274.916 1.987 274.897 1.86449C274.877 1.74197 274.902 1.61649 274.966 1.51058C275.009 1.43698 275.069 1.37517 275.141 1.3308C275.214 1.28643 275.296 1.26092 275.381 1.25659C275.657 1.23622 275.934 1.23622 276.209 1.25659H276.45C278.15 1.31066 279.78 1.93967 281.076 3.04079C282.372 4.1419 283.256 5.64999 283.583 7.31853C283.911 8.98706 283.663 10.7173 282.879 12.2265C282.096 13.7357 280.824 14.9345 279.271 15.627" fill="#A0A0A0"/>
<path d="M0.69873 0.387742H35.9898V8.84958H23.8384V34.4222H12.8501V8.84958H0.69873V0.387742ZM107.214 0.387742H94.0864L88.2981 9.47787L82.5099 0.387742H69.3826L81.8816 17.1644L68.995 34.4222H82.1222L88.2981 24.8375L94.4741 34.4222H107.641L94.7147 17.1644L107.214 0.387742ZM132.612 12.4188H120.221V0.387742H109.219V34.4222H120.221V20.9074H132.559V34.4222H143.547V0.387742H132.559L132.612 12.4188ZM176.726 -0.0266609C175.243 -0.152797 173.755 0.160129 172.447 0.87318C171.14 1.58623 170.071 2.66793 169.374 3.98369L160.017 20.3727C159.589 21.148 159.348 21.5891 159.054 21.5891C158.466 21.5891 158.466 20.8539 158.466 20.4261V0.387742H147.772V26.6422C147.772 30.7327 148.641 34.8099 155.351 34.8099C160.07 34.8099 161.768 32.9651 162.69 31.361L172.368 14.825C173.05 13.7155 173.344 13.1808 173.705 13.1808C174.066 13.1808 174.186 13.809 174.186 14.4373V34.4891H184.881V8.40844C184.881 5.6413 184.6 7.47889e-05 176.86 7.47889e-05M51.4029 26.1609C50.6776 26.2626 49.9396 26.1064 49.3175 25.7198C49.1478 25.5573 49.0165 25.359 48.9332 25.1393C48.85 24.9195 48.8169 24.684 48.8363 24.4498V20.7603H67.4042V13.3679H48.8229V10.7879C48.7875 10.4915 48.817 10.1909 48.9093 9.90694C49.0016 9.62301 49.1546 9.36257 49.3576 9.14367C49.8511 8.79101 50.4497 8.6166 51.0553 8.64906H67.8854V0.387742H43.4758C41.9798 0.298356 40.5051 0.775624 39.3451 1.72452C38.8295 2.22465 38.4313 2.83303 38.1793 3.50575C37.9273 4.17846 37.8278 4.89873 37.888 5.61456V28.9815C37.7694 29.7697 37.8518 30.5751 38.1276 31.3229C38.4034 32.0707 38.8635 32.7368 39.4654 33.2592C40.6525 34.1415 42.1231 34.5556 43.5961 34.4222H61.8699L68.0325 26.1609H51.4029ZM213.648 20.0518C212.735 19.2499 212.122 18.1608 211.91 16.9639C211.91 16.6831 212.057 15.9479 213.247 14.4373L225.078 0.387742H212.044L203.462 12.4188H200.28V0.387742H189.292V34.4222H200.28V20.9074H203.088L203.342 21.2416L213.648 34.4222H226.749V34.3287L213.648 20.0518ZM267.494 34.449H255.917L253.244 27.4442H240.999L238.325 34.449H226.882L226.789 34.3554L239.341 4.15747C240.411 1.63095 241.868 0.0268105 247.121 0.0268105C250.37 0.0268105 253.297 0.374374 254.901 4.15747L267.494 34.449ZM250.677 19.6374L247.616 11.0419C247.509 10.7879 247.322 10.3067 247.175 10.3067C247.028 10.3067 246.827 10.7879 246.734 11.0419L243.672 19.6374H250.677Z" fill="#A0A0A0"/>
</g>
<defs>
<clipPath id="clip0_177_8616">
<rect width="284.2" height="62" fill="white" transform="translate(0.69873)"/>
</clipPath>
</defs>
</svg>
