<svg width="122" height="62" viewBox="0 0 122 62" fill="none" xmlns="http://www.w3.org/2000/svg">
<g id="tsm" clip-path="url(#clip0_177_8586)">
<g id="&#208;&#161;&#208;&#187;&#208;&#190;&#208;&#185; 1">
<g id="Group">
<path id="Vector" d="M3.18318 60.7816H1.49104V56.5851H0.00195312V55.2991H4.67226V56.5851H3.18318V60.7816Z" fill="#A0A0A0"/>
<path id="Vector_2" d="M7.31323 60.7819H5.62109V55.2993H8.05777C9.54686 55.2993 10.2237 56.0439 10.2237 57.1268C10.2237 58.2775 9.54686 59.022 8.12546 59.022H7.31323V60.7819ZM7.31323 57.8037H7.99009C8.3962 57.8037 8.66695 57.6683 8.66695 57.1945C8.66695 56.653 8.12546 56.5853 7.78703 56.5853H7.31323V57.8037Z" fill="#A0A0A0"/>
<path id="Vector_3" d="M13.6746 55.2993L15.5021 60.7819H13.8777L13.6746 60.0373H12.0502L11.8471 60.7819H10.2227L12.0502 55.2993H13.6746ZM13.3362 58.8867L12.7947 56.9238L12.2532 58.8867H13.3362Z" fill="#A0A0A0"/>
<path id="Vector_4" d="M18.0046 57.1945H19.5614V55.2993H21.1859V60.7819H19.5614V58.4805H18.0046V60.7819H16.3125V55.2993H18.0046V57.1945Z" fill="#A0A0A0"/>
<path id="Vector_5" d="M25.7215 57.3977C25.6538 56.8562 25.3154 56.5178 24.8416 56.5178C24.2324 56.5178 23.894 57.0593 23.894 58.1422C23.894 58.8868 24.0294 59.6313 24.9093 59.6313C25.4508 59.6313 25.7215 59.2252 25.7892 58.6837H27.4136C27.2783 60.1051 26.3307 60.9173 24.977 60.9173C23.2848 60.9173 22.2695 59.8344 22.2695 58.0069C22.2695 56.1793 23.3525 55.1641 24.7739 55.1641C26.3307 55.1641 27.2106 55.9763 27.346 57.3977H25.7215Z" fill="#A0A0A0"/>
<path id="Vector_6" d="M31.6121 57.3977C31.5444 56.8562 31.206 56.5178 30.7322 56.5178C30.123 56.5178 29.7846 57.0593 29.7846 58.1422C29.7846 58.8868 29.92 59.6313 30.7999 59.6313C31.3414 59.6313 31.6121 59.2252 31.6798 58.6837H33.3043C33.1689 60.1051 32.2213 60.9173 30.8676 60.9173C29.1754 60.9173 28.1602 59.8344 28.1602 58.0069C28.1602 56.1793 29.2431 55.1641 30.6645 55.1641C32.2213 55.1641 33.1012 55.9763 33.2366 57.3977H31.6121Z" fill="#A0A0A0"/>
<path id="Vector_7" d="M37.0933 60.7819H35.4012V56.5853H33.9121V55.2993H38.5824V56.5853H37.0933V60.7819Z" fill="#A0A0A0"/>
<path id="Vector_8" d="M41.2234 60.7819H39.5312V55.2993H41.9679C43.457 55.2993 44.1339 56.0439 44.1339 57.1268C44.1339 58.2775 43.457 59.022 42.0356 59.022H41.2234V60.7819ZM41.2234 57.8037H41.9002C42.3064 57.8037 42.5771 57.6683 42.5771 57.1945C42.5771 56.653 42.0356 56.5853 41.6972 56.5853H41.2234V57.8037Z" fill="#A0A0A0"/>
<path id="Vector_9" d="M50.2912 58.0069C50.2912 59.8344 49.1405 60.9173 47.6515 60.9173C46.027 60.9173 45.0117 59.8344 45.0117 58.0069C45.0117 56.3147 46.0947 55.1641 47.6515 55.1641C49.4113 55.1641 50.2912 56.5855 50.2912 58.0069ZM46.6362 58.0069C46.6362 58.6837 46.8392 59.5636 47.6515 59.5636C48.396 59.5636 48.6667 58.8868 48.6667 58.0069C48.6667 57.2623 48.396 56.5178 47.6515 56.5178C46.8392 56.5178 46.6362 57.33 46.6362 58.0069Z" fill="#A0A0A0"/>
<path id="Vector_10" d="M56.1793 55.299V60.7815H54.5549V59.0217L54.6226 57.6003L52.7951 60.7138H51.2383V55.2313H52.8627V56.9911L52.7951 58.4125L54.6226 55.299H56.1793ZM53.0658 53.7422C53.1335 54.1483 53.4719 54.216 53.8103 54.216C54.2164 54.216 54.4872 54.0806 54.4872 53.7422H55.0287C55.0287 54.5544 54.4195 54.8928 53.7427 54.8928C52.9981 54.8928 52.5243 54.5544 52.4566 53.7422H53.0658Z" fill="#A0A0A0"/>
<path id="Vector_11" d="M59.4974 55.2991L60.3773 58.6834L61.2572 55.2991H63.2878V60.7817H61.7987V59.0895C61.7987 58.4804 61.8664 57.8712 61.934 57.262L60.9864 60.7817H59.7681L58.8205 57.262C58.8882 57.7358 58.9559 58.4804 58.9559 58.8865V60.714H57.4668V55.2314L59.4974 55.2991Z" fill="#A0A0A0"/>
<path id="Vector_12" d="M68.6366 55.2993V56.5853H66.2V57.3976H68.2982V58.6159H66.2V59.4958H68.772V60.7819H64.5078V55.2993H68.6366Z" fill="#A0A0A0"/>
<path id="Vector_13" d="M71.4095 55.2988L72.154 56.7202L72.8986 55.2988H74.7261L73.0339 57.9386L74.7261 60.7814H72.8986L72.0863 59.2246L71.2741 60.7814H69.3789L71.2064 57.9386L69.582 55.2988H71.4095Z" fill="#A0A0A0"/>
<path id="Vector_14" d="M78.6512 55.2993L80.4787 60.7819H78.8542L78.6512 60.0373H77.0267L76.8237 60.7819H75.1992L77.0267 55.2993H78.6512ZM78.3128 58.8867L77.7713 56.9238L77.2298 58.8867H78.3128Z" fill="#A0A0A0"/>
<path id="Vector_15" d="M82.9851 57.1945H84.5419V55.2993H86.234V60.7819H84.5419V58.4805H82.9851V60.7819H81.293V55.2993H82.9851V57.1945Z" fill="#A0A0A0"/>
<path id="Vector_16" d="M92.3245 55.2993V60.7819H90.7678V59.022L90.8355 57.6683L89.0079 60.7819H87.4512V55.2993H89.0756V57.0591L88.9403 58.4129L90.7678 55.2993H92.3245Z" fill="#A0A0A0"/>
<path id="Vector_17" d="M95.3704 57.4654H95.5058C96.0473 57.4654 96.318 57.33 96.318 56.9239C96.318 56.5855 96.0473 56.4501 95.5735 56.4501C95.235 56.4501 94.8966 56.5855 94.8289 56.9916H93.4752C93.5429 55.7055 94.5582 55.1641 95.7088 55.1641C96.9949 55.1641 97.8748 55.8409 97.8748 56.7208C97.8748 57.2623 97.5364 57.7361 97.1302 57.9392C97.6717 58.1422 98.0102 58.4807 98.0102 59.2252C98.0102 60.2405 97.1979 60.9173 95.7088 60.9173C94.2198 60.9173 93.4075 60.3082 93.3398 58.8868H94.7612C94.8289 59.4283 95.0997 59.699 95.7088 59.699C96.2503 59.699 96.5211 59.4283 96.5211 59.0898C96.5211 58.616 96.115 58.4807 95.5735 58.4807H95.4381L95.3704 57.4654Z" fill="#A0A0A0"/>
<path id="Vector_18" d="M102.139 55.2993L103.967 60.7819H102.343L102.139 60.0373H100.515L100.312 60.7819H98.6875L100.515 55.2993H102.139ZM101.869 58.8867L101.327 56.9238L100.786 58.8867H101.869Z" fill="#A0A0A0"/>
<path id="Vector_19" d="M106.471 59.4958H108.028V55.2993H109.72V59.4958H110.126V62.0002H108.57V60.7819H104.779V55.2993H106.471V59.4958Z" fill="#A0A0A0"/>
<path id="Vector_20" d="M116.015 55.2993V60.7819H114.391V59.022L114.458 57.6683L112.631 60.7819H111.074V55.2993H112.699V57.0591L112.631 58.4129L114.458 55.2993H116.015Z" fill="#A0A0A0"/>
<path id="Vector_21" d="M119.536 58.8867L118.791 60.7819H117.031L118.047 58.6159C117.573 58.4129 117.099 57.6683 117.099 57.0591C117.099 56.0439 117.776 55.2993 119.265 55.2993H121.702V60.7819H120.009V58.8867H119.536ZM120.009 56.5853H119.333C118.926 56.5853 118.656 56.7884 118.656 57.1268C118.656 57.5329 118.926 57.6683 119.468 57.6683H120.009V56.5853Z" fill="#A0A0A0"/>
<path id="Vector_22" d="M34.4551 36.8208C34.5904 37.9038 34.7935 38.9867 35.1319 40.0697C38.6516 40.6112 41.359 43.454 41.6297 46.9736H44.4049C44.7433 43.0479 48.0599 39.9343 52.121 39.9343C56.1821 39.9343 59.4987 43.0479 59.8372 46.9736H62.6123C62.9507 43.0479 66.2673 39.9343 70.3284 39.9343C74.3896 39.9343 77.7062 43.0479 78.0446 46.9736H80.8197C81.0904 43.454 83.7979 40.6112 87.3175 40.0697C87.5883 38.9867 87.7913 37.9038 87.9944 36.8208H34.4551Z" fill="#A0A0A0"/>
<path id="Vector_23" d="M61.1216 0C45.8923 0 33.5059 12.3865 33.5059 27.6157V27.9541H37.2963V17.3952C38.3115 15.0262 39.6652 12.8603 41.2897 10.9651V28.0895H44.2002V7.91921C45.4185 6.83624 46.7722 5.88865 48.1936 5.07642V27.9541H51.1041V7.78384L55.0976 11.3712V28.0218H58.008V14.0109L62.0015 17.5983V28.0218H64.912V20.3057L68.9054 23.893V28.0218H88.6696V27.6834C88.7373 12.3865 76.4185 0 61.1216 0Z" fill="#A0A0A0"/>
<path id="Vector_24" d="M42.5759 30.9322H40.5453V35.6702V35.8733H38.3117V31.0676V30.9322H36.2811V29.1047H41.0868H42.5759V30.9322Z" fill="#A0A0A0"/>
<path id="Vector_25" d="M64.7094 33.2337C64.7094 33.4368 64.7094 33.5722 64.6417 33.7752C64.574 33.9783 64.5064 34.1136 64.4387 34.3167C64.2356 34.6551 64.0326 34.9259 63.7618 35.1966C63.4911 35.4674 63.085 35.6704 62.6788 35.8058C62.2727 35.9412 61.8666 36.0088 61.3928 36.0088H61.2574C60.9867 36.0088 60.716 36.0088 60.5129 35.9412C60.2422 35.8735 60.0391 35.8058 59.8361 35.7381C59.4299 35.6027 59.0238 35.332 58.7531 35.0612C58.4823 34.7905 58.2116 34.3844 58.0762 33.9783C57.9409 33.5722 57.8732 33.0984 57.8732 32.5569C57.8732 31.9477 57.9409 31.4062 58.1439 30.9324C58.347 30.4586 58.55 30.0525 58.8885 29.7818C59.2269 29.511 59.5653 29.2403 59.9714 29.1049C60.3775 28.9695 60.7836 28.9019 61.2574 28.9019C62.1374 28.9019 62.8142 29.0372 63.3557 29.3757C63.8972 29.7141 64.2356 30.0525 64.4387 30.4586C64.6417 30.8647 64.7771 31.2709 64.7771 31.677H62.4758C62.2727 30.9324 61.8666 30.594 61.3251 30.594H61.2574C60.9867 30.594 60.7836 30.6617 60.5806 30.8647C60.3775 31.0678 60.2422 31.2709 60.1745 31.6093C60.1068 31.9477 60.0391 32.2184 60.0391 32.5569C60.0391 32.8953 60.1068 33.166 60.1745 33.4368C60.2422 33.7075 60.4452 33.9783 60.5806 34.1136C60.7836 34.3167 60.9867 34.3844 61.2574 34.3844C61.5282 34.3844 61.7989 34.3167 62.002 34.1136C62.205 33.9783 62.4081 33.6398 62.4758 33.2337H64.7094Z" fill="#A0A0A0"/>
<path id="Vector_26" d="M85.8964 35.8735H83.9336V33.2338V31.7447L82.7829 35.8735H81.1585L79.9401 31.677V33.2338V35.8735H78.0449V31.0679V29.105H80.7523L81.9707 33.2338L83.1213 29.105H85.8964V33.843V35.8735Z" fill="#A0A0A0"/>
</g>
</g>
</g>
<defs>
<clipPath id="clip0_177_8586">
<rect width="121.699" height="62" fill="white"/>
</clipPath>
</defs>
</svg>
