<svg width="170" height="62" viewBox="0 0 170 62" fill="none" xmlns="http://www.w3.org/2000/svg">
<g id="vad" clip-path="url(#clip0_177_8580)">
<g id="&#208;&#161;&#208;&#187;&#208;&#190;&#208;&#185; 2">
<g id="&#208;&#161;&#208;&#187;&#208;&#190;&#208;&#185; 1">
<path id="Vector" fill-rule="evenodd" clip-rule="evenodd" d="M72.303 5.81139C64.9768 8.75258 57.8146 12.087 50.8478 15.8002H45.1643C52.2295 12.0402 59.5126 8.70473 66.9747 5.81139H72.303ZM101.14 0C100.323 0.191818 99.5057 0.383637 98.6887 0.589664C74.889 6.51472 55.2667 18.6277 36.7243 34.4989H22.5155C29.7833 29.1777 38.9124 22.734 46.1447 18.3791H40.4612C31.6375 23.3948 22.7357 28.652 14.4023 34.3497L14.1749 34.4989H0.903931C25.4851 19.4873 48.6383 7.67984 76.4023 0H84.9915C80.3452 1.23616 75.365 2.77782 70.8608 4.36209H76.4662C81.1835 2.70677 86.2134 1.23616 91.0728 0H101.14Z" fill="#A0A0A0"/>
<path id="Vector_2" d="M79.5226 45.468C79.5623 44.4665 79.2479 43.4829 78.6345 42.6902C78.216 42.2465 77.7031 41.9024 77.1338 41.6835C76.5644 41.4647 75.9532 41.3765 75.3452 41.4256H69.6617L66.7489 53.7802H71.9493C73.1771 53.8326 74.4043 53.6642 75.5725 53.2829C76.4169 52.9225 77.1518 52.3468 77.7038 51.6133C78.3 50.7409 78.7288 49.7652 78.9684 48.736C79.3063 47.68 79.4999 46.5831 79.5439 45.4751M82.2577 28.659C82.2836 28.2823 82.2341 27.9041 82.1121 27.5467C81.9901 27.1893 81.7981 26.8598 81.5473 26.5775C80.9221 25.9452 79.7996 25.6255 78.2011 25.6255H73.3346L71.3667 34.4989H76.6098C78.4616 34.4989 79.8115 34.0773 80.6593 33.2343C81.1905 32.6015 81.5696 31.8554 81.7675 31.0532C82.0306 30.2871 82.1883 29.4889 82.2364 28.6804L82.2577 28.659ZM116.252 44.0472V29.881L108.096 44.0472H116.252ZM116.252 60.0533V51.3149H104.082L98.6334 61.0053C98.4684 61.3106 98.2228 61.5647 97.9235 61.74C97.6241 61.9154 97.2823 62.0053 96.9354 61.9999H91.394C91.0509 62.0041 90.7131 61.9151 90.4166 61.7424C90.1201 61.5698 89.876 61.32 89.7103 61.0195C89.5339 60.7229 89.4408 60.3842 89.4408 60.0391C89.4408 59.694 89.5339 59.3553 89.7103 59.0587L112.48 20.3043C112.815 19.7111 113.305 19.2193 113.896 18.8805C114.487 18.5418 115.159 18.3685 115.84 18.379H124.067C124.576 18.3789 125.065 18.5781 125.429 18.934C125.793 19.2899 126.003 19.7741 126.014 20.283L126.944 60.0036C126.954 60.2658 126.91 60.5271 126.815 60.7715C126.719 61.0159 126.575 61.2381 126.39 61.4245C126.208 61.6166 125.987 61.7683 125.742 61.8698C125.497 61.9714 125.234 62.0206 124.969 62.0142H118.206C117.69 62.0085 117.198 61.7992 116.836 61.4319C116.474 61.0646 116.272 60.5691 116.274 60.0533H116.252ZM143.704 54.4125H156.207L155.447 30.833L143.704 54.4125ZM132.422 54.4125H134.077L152.279 20.4393C152.606 19.8106 153.101 19.2851 153.71 18.9214C154.318 18.5576 155.015 18.3699 155.724 18.379H163.326C163.828 18.3785 164.31 18.5719 164.673 18.9187C165.036 19.2655 165.251 19.739 165.273 20.2403L166.793 54.4125H167.574C167.866 54.4131 168.154 54.4791 168.417 54.6056C168.68 54.7321 168.911 54.9159 169.094 55.1435C169.277 55.3711 169.406 55.6367 169.472 55.9208C169.539 56.2049 169.541 56.5003 169.478 56.7853L168.676 60.4654C168.584 60.9027 168.343 61.2946 167.994 61.5744C167.646 61.8542 167.211 62.0046 166.764 61.9999H131.626C131.335 62.0004 131.047 61.9354 130.784 61.8097C130.521 61.684 130.289 61.5009 130.107 61.2738C129.924 61.0467 129.794 60.7815 129.728 60.4977C129.661 60.2139 129.659 59.9188 129.722 59.6342L130.525 55.947C130.617 55.5151 130.854 55.1276 131.196 54.8485C131.539 54.5695 131.966 54.4157 132.408 54.4125H132.422ZM92.1613 27.7071C92.1556 29.8788 91.5904 32.0124 90.5201 33.9021C89.2129 36.2702 87.5553 37.5987 85.5471 37.8876C87.1409 38.7669 88.4723 40.0542 89.4048 41.6175C90.05 43.0232 90.3519 44.5621 90.2857 46.1074C90.1941 48.5673 89.6848 50.9937 88.7796 53.2829C87.7897 56.0157 86.679 57.9102 85.4476 58.9664C84.2356 60.0403 82.7985 60.8292 81.2418 61.2753C79.3904 61.7796 77.4769 62.0188 75.5583 61.9857H56.3765C56.0839 61.9853 55.7952 61.9192 55.5316 61.7923C55.268 61.6654 55.0363 61.4809 54.8535 61.2525C54.6708 61.0241 54.5417 60.7575 54.4757 60.4725C54.4098 60.1875 54.4087 59.8913 54.4725 59.6058L63.424 19.8922C63.5186 19.4588 63.7595 19.071 64.1062 18.7942C64.4529 18.5173 64.8843 18.3682 65.328 18.3719H81.7391C85.2913 18.3719 87.9484 19.331 89.7671 21.2136C90.5791 22.0816 91.2093 23.1032 91.6205 24.2184C92.0317 25.3335 92.2155 26.5197 92.1613 27.7071Z" fill="#A0A0A0"/>
</g>
</g>
</g>
<defs>
<clipPath id="clip0_177_8580">
<rect width="168.608" height="62" fill="white" transform="translate(0.905884)"/>
</clipPath>
</defs>
</svg>
