<svg width="283" height="62" viewBox="0 0 283 62" fill="none" xmlns="http://www.w3.org/2000/svg">
<g clip-path="url(#clip0_177_8542)">
<path d="M72.8225 13.4592H77.9248C78.6321 13.4592 79.361 13.5458 80.1188 13.7118C80.8765 13.8778 81.5621 14.2459 82.1756 14.816C82.789 15.3861 83.0921 16.2161 83.0921 17.2986C83.0921 18.3811 82.8323 19.1894 82.3199 19.7379C81.8075 20.2864 81.2229 20.6689 80.559 20.8709V20.9142C81.5044 21.0514 82.2838 21.4483 82.8972 22.105C83.5107 22.7618 83.821 23.5989 83.821 24.6165C83.821 25.2949 83.6622 25.966 83.3375 26.6156C83.0127 27.2723 82.3993 27.828 81.49 28.2899C80.5806 28.7517 79.3249 28.9827 77.7228 28.9827H72.8225V13.4592ZM75.9691 15.8985V19.7595H77.499C78.4228 19.7595 79.0579 19.5503 79.3971 19.1389C79.7363 18.7275 79.9095 18.2873 79.9095 17.8326C79.9095 17.3419 79.7363 16.9017 79.3898 16.4975C79.0434 16.1006 78.3651 15.8985 77.3619 15.8985H75.9618H75.9691ZM75.9691 22.2061V26.5506H77.7228C78.3218 26.5506 78.8269 26.4568 79.2383 26.2764C79.6497 26.0959 79.9672 25.8361 80.1765 25.5114C80.3858 25.1866 80.494 24.8041 80.494 24.3783C80.494 22.9277 79.5703 22.2061 77.7228 22.2061H75.9691Z" fill="#A0A0A0"/>
<path d="M93.7592 13.2786C95.217 13.2786 96.5232 13.5817 97.6779 14.2023C98.8326 14.8158 99.7347 15.7251 100.391 16.9231C101.048 18.1211 101.373 19.5572 101.373 21.2243C101.373 22.8914 101.048 24.3276 100.391 25.5256C99.7347 26.7236 98.8326 27.6329 97.6779 28.2463C96.5232 28.8598 95.217 29.1701 93.7592 29.1701C92.3013 29.1701 90.9879 28.8598 89.8404 28.2463C88.6929 27.6329 87.7908 26.7236 87.1341 25.5256C86.4773 24.3276 86.1526 22.8914 86.1526 21.2171C86.1526 19.5428 86.4773 18.1139 87.1341 16.9159C87.7908 15.7179 88.6929 14.8158 89.8404 14.2023C90.9879 13.5889 92.2941 13.2786 93.7592 13.2786ZM93.7592 15.5014C93.0952 15.5014 92.4385 15.6529 91.7962 15.9632C91.1611 16.2663 90.6126 16.8509 90.1579 17.7025C89.7033 18.5541 89.4796 19.7304 89.4796 21.2243C89.4796 22.7182 89.7033 23.9018 90.1579 24.7534C90.6126 25.605 91.1539 26.1823 91.7962 26.4926C92.4385 26.7957 93.088 26.9545 93.7592 26.9545C94.2355 26.9545 94.7118 26.8751 95.1953 26.7163C95.6788 26.5576 96.1335 26.2761 96.5737 25.8648C97.014 25.4534 97.3604 24.8616 97.6346 24.0966C97.9088 23.3316 98.046 22.3718 98.046 21.2243C98.046 19.7232 97.8222 18.5469 97.3676 17.6953C96.9129 16.8437 96.3644 16.2663 95.7221 15.9632C95.0798 15.6529 94.4231 15.5014 93.7592 15.5014Z" fill="#A0A0A0"/>
<path d="M115.258 25.8579L115.46 28.4993C114.125 28.9467 112.79 29.1632 111.441 29.1632C110.344 29.1632 109.312 28.9972 108.323 28.6653C107.341 28.3333 106.475 27.8281 105.732 27.1641C104.989 26.5002 104.404 25.6703 103.986 24.6815C103.567 23.6928 103.358 22.567 103.358 21.3113C103.358 20.0555 103.56 18.9947 103.957 18.006C104.354 17.01 104.931 16.1657 105.681 15.4584C106.432 14.7512 107.349 14.2171 108.417 13.8418C109.492 13.4738 110.69 13.2861 112.011 13.2861C113.187 13.2861 114.334 13.4666 115.453 13.8202L115.316 16.4832C114.356 16.0935 113.331 15.9059 112.234 15.9059C111.137 15.9059 110.221 16.1151 109.377 16.5337C108.532 16.9523 107.875 17.5657 107.399 18.374C106.923 19.1823 106.685 20.1494 106.685 21.2752C106.685 22.5237 106.944 23.5413 107.457 24.3279C107.976 25.1218 108.633 25.6847 109.441 26.0311C110.25 26.3775 111.101 26.5507 112.011 26.5507C113.165 26.5507 114.248 26.3198 115.251 25.8651L115.258 25.8579Z" fill="#A0A0A0"/>
<path d="M116.666 13.4592H128.783V16.2088H124.302V28.9827H121.155V16.2088H116.673V13.4592H116.666Z" fill="#A0A0A0"/>
<path d="M137.724 13.2786C139.182 13.2786 140.488 13.5817 141.643 14.2023C142.797 14.8158 143.7 15.7251 144.356 16.9231C145.013 18.1211 145.338 19.5572 145.338 21.2243C145.338 22.8914 145.013 24.3276 144.356 25.5256C143.7 26.7236 142.797 27.6329 141.643 28.2463C140.488 28.8598 139.182 29.1701 137.724 29.1701C136.266 29.1701 134.953 28.8598 133.805 28.2463C132.658 27.6329 131.756 26.7236 131.099 25.5256C130.442 24.3276 130.117 22.8914 130.117 21.2171C130.117 19.5428 130.442 18.1139 131.099 16.9159C131.756 15.7179 132.658 14.8158 133.805 14.2023C134.953 13.5889 136.259 13.2786 137.724 13.2786ZM137.724 15.5014C137.06 15.5014 136.403 15.6529 135.761 15.9632C135.126 16.2663 134.577 16.8509 134.123 17.7025C133.668 18.5541 133.444 19.7304 133.444 21.2243C133.444 22.7182 133.668 23.9018 134.123 24.7534C134.577 25.605 135.119 26.1823 135.761 26.4926C136.403 26.7957 137.053 26.9545 137.724 26.9545C138.2 26.9545 138.677 26.8751 139.16 26.7163C139.644 26.5576 140.098 26.2761 140.539 25.8648C140.979 25.4534 141.325 24.8616 141.599 24.0966C141.874 23.3316 142.011 22.3718 142.011 21.2243C142.011 19.7232 141.787 18.5469 141.332 17.6953C140.878 16.8437 140.329 16.2663 139.687 15.9632C139.045 15.6529 138.388 15.5014 137.724 15.5014Z" fill="#A0A0A0"/>
<path d="M147.439 13.459H150.586V18.7634C150.586 19.5284 150.766 20.1274 151.127 20.5676C151.488 21.0078 152.31 21.2243 153.602 21.2243C154.504 21.2243 155.471 21.1016 156.511 20.849V13.459H159.664V28.9897H156.511V23.4615C155.464 23.6708 154.497 23.7719 153.602 23.7719C152.282 23.7719 151.206 23.6347 150.369 23.3605C149.532 23.0863 148.897 22.7254 148.478 22.278C148.06 21.8305 147.778 21.3542 147.641 20.8418C147.504 20.3294 147.432 19.7809 147.432 19.182V13.459H147.439Z" fill="#A0A0A0"/>
<path d="M162.768 13.459H165.914V19.716H172.222V13.459H175.368V28.9897H172.222V22.2708H165.914V28.9897H162.768V13.459Z" fill="#A0A0A0"/>
<path d="M181.617 13.459V19.2686H183.797C185.168 19.2686 186.28 19.4995 187.138 19.9614C187.997 20.4232 188.611 21.0078 188.971 21.7151C189.332 22.4223 189.52 23.1801 189.52 23.9739C189.52 24.6884 189.404 25.3379 189.181 25.9369C188.957 26.5359 188.611 27.0628 188.142 27.5174C187.672 27.9721 187.066 28.3329 186.316 28.5927C185.565 28.8525 184.692 28.9824 183.703 28.9824H178.471V13.459H181.617ZM181.617 21.7151V26.5431H183.703C184.511 26.5431 185.147 26.3194 185.608 25.8648C186.07 25.4101 186.301 24.8327 186.301 24.1255C186.301 23.5121 186.099 22.9564 185.695 22.4584C185.291 21.9604 184.548 21.7078 183.458 21.7078H181.617V21.7151ZM191.736 13.459H194.889V28.9897H191.736V13.459Z" fill="#A0A0A0"/>
<path d="M197.992 13.4592H201.139V21.4411L201.074 25.2155H201.139L202.25 22.9494L207.692 13.452H211.459V28.9827H208.305V20.972L208.377 17.2264H208.305L207.244 19.5791L201.76 28.9899H197.992V13.4592ZM207.042 8.9126L208.659 9.77862C207.959 11.5107 206.588 12.3767 204.553 12.3767C202.517 12.3767 201.153 11.5107 200.446 9.77862L202.063 8.9126C202.452 9.87244 203.275 10.356 204.553 10.356C205.83 10.356 206.653 9.87244 207.035 8.9126H207.042Z" fill="#A0A0A0"/>
<path d="M222.356 13.459H234.805V28.9897H231.651V16.0065H225.502V28.9824H222.356V13.459Z" fill="#A0A0A0"/>
<path d="M244.953 13.2786C246.41 13.2786 247.717 13.5817 248.871 14.2023C250.026 14.8158 250.928 15.7251 251.585 16.9231C252.242 18.1211 252.566 19.5572 252.566 21.2243C252.566 22.8914 252.242 24.3276 251.585 25.5256C250.928 26.7236 250.026 27.6329 248.871 28.2463C247.717 28.8598 246.41 29.1701 244.953 29.1701C243.495 29.1701 242.181 28.8598 241.034 28.2463C239.886 27.6329 238.984 26.7236 238.327 25.5256C237.671 24.3276 237.346 22.8914 237.346 21.2171C237.346 19.5428 237.671 18.1139 238.327 16.9159C238.984 15.7179 239.886 14.8158 241.034 14.2023C242.181 13.5889 243.488 13.2786 244.953 13.2786ZM244.953 15.5014C244.289 15.5014 243.632 15.6529 242.99 15.9632C242.354 16.2663 241.806 16.8509 241.351 17.7025C240.897 18.5541 240.673 19.7304 240.673 21.2243C240.673 22.7182 240.897 23.9018 241.351 24.7534C241.806 25.605 242.347 26.1823 242.99 26.4926C243.632 26.7957 244.281 26.9545 244.953 26.9545C245.429 26.9545 245.905 26.8751 246.389 26.7163C246.872 26.5576 247.327 26.2761 247.767 25.8648C248.207 25.4534 248.554 24.8616 248.828 24.0966C249.102 23.3316 249.239 22.3718 249.239 21.2243C249.239 19.7232 249.016 18.5469 248.561 17.6953C248.106 16.8437 247.558 16.2663 246.916 15.9632C246.273 15.6529 245.616 15.5014 244.953 15.5014Z" fill="#A0A0A0"/>
<path d="M255.113 13.4592H259.703C261.983 13.4592 263.55 13.9788 264.394 15.0181C265.238 16.0573 265.664 17.1543 265.664 18.3162C265.664 19.1389 265.462 19.9183 265.065 20.6616C264.668 21.405 264.062 22.004 263.239 22.4659C262.424 22.9277 261.435 23.1587 260.273 23.1587H258.252V28.9899H255.106V13.4592H255.113ZM258.26 20.7122H259.703C260.54 20.7122 261.182 20.474 261.644 19.9977C262.106 19.5214 262.337 18.9296 262.337 18.2296C262.337 17.5656 262.128 17.0171 261.702 16.5697C261.276 16.1222 260.612 15.8985 259.703 15.8985H258.26V20.7122Z" fill="#A0A0A0"/>
<path d="M266.891 13.4592H279.008V16.2088H274.526V28.9827H271.38V16.2088H266.898V13.4592H266.891Z" fill="#A0A0A0"/>
<path d="M82.5145 43.2075L81.8794 41.6198H78.3287L77.6936 43.2075H76.676L79.5411 36.0701H80.6453L83.5248 43.2075H82.5072H82.5145ZM80.104 36.9866L78.5813 40.826H81.6124L80.104 36.9866Z" fill="#A0A0A0"/>
<path d="M91.7736 43.2073L89.0672 39.9958L88.3528 40.8113V43.2073H87.4651V36.0698H88.3528V39.7649L91.5137 36.0698H92.6251L89.6518 39.4617L92.8849 43.2073H91.7808H91.7736Z" fill="#A0A0A0"/>
<path d="M102.607 43.2075H96.8909V36.0701H97.7785V42.4137H101.95V36.0701H102.838V42.4137H103.487V44.521H102.599V43.2075H102.607Z" fill="#A0A0A0"/>
<path d="M107.621 43.2073V36.0698H108.509V41.6485L112.623 36.0698H113.532V43.2073H112.644V37.5132L108.48 43.2073H107.621Z" fill="#A0A0A0"/>
<path d="M117.914 39.6423C117.914 37.535 119.336 35.9473 121.458 35.9473C123.58 35.9473 125.001 37.535 125.001 39.6423C125.001 41.7496 123.565 43.3373 121.458 43.3373C119.35 43.3373 117.914 41.7568 117.914 39.6423ZM124.077 39.6423C124.077 37.9752 123.053 36.7411 121.458 36.7411C119.863 36.7411 118.838 37.9752 118.838 39.6423C118.838 41.3094 119.856 42.5435 121.458 42.5435C123.06 42.5435 124.077 41.3022 124.077 39.6423Z" fill="#A0A0A0"/>
<path d="M134.446 43.2073V39.9308H130.275V43.2073H129.387V36.0698H130.275V39.1442H134.446V36.0698H135.334V43.2073H134.446Z" fill="#A0A0A0"/>
<path d="M140.004 43.2075V36.0701H144.681V36.8639H140.892V39.1661H144.608V39.96H140.892V42.4209H144.681V43.2148H140.004V43.2075Z" fill="#A0A0A0"/>
<path d="M149.096 43.2073V36.0698H151.961C153.397 36.0698 154.198 37.0513 154.198 38.2204C154.198 39.3896 153.376 40.3711 151.961 40.3711H149.984V43.2073H149.096ZM153.282 38.2204C153.282 37.4194 152.704 36.8637 151.86 36.8637H149.984V39.5844H151.86C152.704 39.5844 153.282 39.0287 153.282 38.2277V38.2204Z" fill="#A0A0A0"/>
<path d="M163.438 43.2073V39.9308H159.267V43.2073H158.379V36.0698H159.267V39.1442H163.438V36.0698H164.326V43.2073H163.438Z" fill="#A0A0A0"/>
<path d="M168.705 39.6423C168.705 37.535 170.127 35.9473 172.249 35.9473C174.371 35.9473 175.792 37.535 175.792 39.6423C175.792 41.7496 174.356 43.3373 172.249 43.3373C170.141 43.3373 168.705 41.7568 168.705 39.6423ZM174.869 39.6423C174.869 37.9752 173.844 36.7411 172.249 36.7411C170.654 36.7411 169.629 37.9752 169.629 39.6423C169.629 41.3094 170.647 42.5435 172.249 42.5435C173.851 42.5435 174.869 41.3022 174.869 39.6423Z" fill="#A0A0A0"/>
<path d="M180.18 43.2075V36.0701H184.856V36.8639H181.068V39.1661H184.784V39.96H181.068V42.4209H184.856V43.2148H180.18V43.2075Z" fill="#A0A0A0"/>
<path d="M194.737 39.6423C194.737 37.535 196.158 35.9473 198.28 35.9473C200.402 35.9473 201.823 37.535 201.823 39.6423C201.823 41.7496 200.387 43.3373 198.28 43.3373C196.173 43.3373 194.737 41.7568 194.737 39.6423ZM200.9 39.6423C200.9 37.9752 199.875 36.7411 198.28 36.7411C196.685 36.7411 195.66 37.9752 195.66 39.6423C195.66 41.3094 196.678 42.5435 198.28 42.5435C199.882 42.5435 200.9 41.3022 200.9 39.6423Z" fill="#A0A0A0"/>
<path d="M210.852 36.0701V36.8639H207.107V38.9063H209.084C210.499 38.9063 211.321 39.8878 211.321 41.0569C211.321 42.226 210.52 43.2075 209.084 43.2075H206.219V36.0701H210.852ZM207.107 39.7001V42.4209H208.983C209.827 42.4209 210.405 41.8652 210.405 41.0641C210.405 40.2631 209.827 39.7074 208.983 39.7074H207.107V39.7001Z" fill="#A0A0A0"/>
<path d="M224.146 36.0698V42.4134H224.789V44.5208H223.901V43.2073H215.551V36.0698H216.439V42.4134H219.405V36.0698H220.292V42.4134H223.259V36.0698H224.146Z" fill="#A0A0A0"/>
<path d="M228.93 43.2073V36.0698H233.606V36.8637H229.818V39.1659H233.534V39.9597H229.818V42.4207H233.606V43.2145H228.93V43.2073Z" fill="#A0A0A0"/>
<path d="M237.726 39.6423C237.726 37.4484 239.343 35.9473 241.4 35.9473C242.663 35.9473 243.543 36.5607 244.106 37.3618L243.355 37.7803C242.951 37.1813 242.208 36.7411 241.4 36.7411C239.834 36.7411 238.65 37.9391 238.65 39.6423C238.65 41.3455 239.841 42.5435 241.4 42.5435C242.215 42.5435 242.951 42.1177 243.355 41.5042L244.113 41.9228C243.514 42.7383 242.655 43.3373 241.392 43.3373C239.336 43.3373 237.719 41.8362 237.719 39.6423H237.726Z" fill="#A0A0A0"/>
<path d="M250.017 43.2073V36.8637H247.758V36.0698H253.171V36.8637H250.905V43.2073H250.017Z" fill="#A0A0A0"/>
<path d="M257.351 43.2078V36.0703H260.527C261.768 36.0703 262.526 36.8209 262.526 37.889C262.526 38.7911 261.927 39.3901 261.27 39.5272C262.028 39.6427 262.663 40.4293 262.663 41.2809C262.663 42.4284 261.905 43.2078 260.599 43.2078H257.344H257.351ZM261.609 38.0189C261.609 37.3766 261.183 36.8642 260.375 36.8642H258.232V39.1663H260.375C261.176 39.1663 261.609 38.6756 261.609 38.0189ZM261.746 41.1871C261.746 40.5303 261.299 39.953 260.418 39.953H258.232V42.4139H260.418C261.256 42.4139 261.746 41.9448 261.746 41.1798V41.1871Z" fill="#A0A0A0"/>
<path d="M266.789 39.6423C266.789 37.535 268.211 35.9473 270.333 35.9473C272.455 35.9473 273.876 37.535 273.876 39.6423C273.876 41.7496 272.44 43.3373 270.333 43.3373C268.226 43.3373 266.789 41.7568 266.789 39.6423ZM272.953 39.6423C272.953 37.9752 271.928 36.7411 270.333 36.7411C268.738 36.7411 267.713 37.9752 267.713 39.6423C267.713 41.3094 268.731 42.5435 270.333 42.5435C271.935 42.5435 272.953 41.3022 272.953 39.6423Z" fill="#A0A0A0"/>
<path d="M70.4065 32.5913H282.546" stroke="#A0A0A0" stroke-width="0.5" stroke-miterlimit="10" stroke-linecap="round"/>
<path fill-rule="evenodd" clip-rule="evenodd" d="M48.1921 28.4488H33.9676V13.6038H48.1921C52.3706 13.6038 55.611 17.0029 55.611 21.0227C55.611 25.0425 52.3634 28.4416 48.1921 28.4416M14.4893 10.6665L29.6447 42.8248V9.27366H47.2683C42.7866 6.17763 37.5255 4.3229 31.8098 4.3229C25.1631 4.3229 19.1298 6.63951 14.4966 10.6593M32.1201 52.7119V52.5604L12.4758 10.8253C7.22198 15.776 3.81562 23.0434 3.81562 30.9242C3.81562 46.3827 16.3369 58.9112 31.8026 58.9112C47.2683 58.9112 59.6308 46.3899 59.6308 30.9242C59.6308 29.0695 59.4792 27.3663 59.1689 25.5116C59.1689 25.2013 59.3205 24.7394 59.4792 24.4291C59.9411 26.5941 60.2514 28.7592 60.2514 30.9242C60.2514 46.6931 47.4199 59.5246 31.8026 59.5246C16.1853 59.5246 3.20219 46.6931 3.20219 30.9242C3.20219 15.1554 16.0338 2.47538 31.8026 2.47538C38.9184 2.47538 45.4064 5.10232 50.5087 9.43243C50.0468 9.43243 49.7365 9.43243 49.2674 9.28088C44.4754 5.41264 38.4421 3.09603 31.7954 3.09603C24.528 3.09603 17.8813 5.88174 12.9305 10.3634L32.0985 51.1819V11.749H48.7983C53.5903 12.0594 57.4585 16.0792 57.4585 21.0227C57.4585 25.9662 53.2872 30.2964 48.1848 30.2964H33.9604V29.6757H48.1848C52.9768 29.6757 56.8451 25.8075 56.8451 21.0155C56.8451 16.2235 52.9768 12.3553 48.1848 12.3553H32.7263V52.7119H33.9604V32.7645H48.1848C52.3634 32.7645 56.0729 30.5995 58.0792 27.3519C58.2307 28.5932 58.3895 29.6685 58.3895 30.9098C58.3895 45.7549 46.4889 57.6555 31.7954 57.6555C17.1018 57.6555 5.05692 45.7621 5.05692 30.9242C5.05692 24.4291 7.37353 18.5545 11.2418 13.9141L29.3344 52.7191M31.8098 61.9928C14.6409 62 0.726807 48.0859 0.726807 30.9242C0.726807 13.7625 14.6409 0 31.8026 0C48.9643 0 62.7268 13.9141 62.7268 30.9242C62.7268 47.9343 48.8127 62 31.8026 62" fill="#A0A0A0"/>
</g>
<defs>
<clipPath id="clip0_177_8542">
<rect width="282.179" height="62" fill="white" transform="translate(0.726807)"/>
</clipPath>
</defs>
</svg>
