<svg width="25" height="25" viewBox="0 0 25 25" fill="none" xmlns="http://www.w3.org/2000/svg">
<g id="Line Duotone / Messages, Conversation  /  Letter">
<path id="Vector" d="M2.5 12.5C2.5 8.72876 2.5 6.84315 3.67157 5.67157C4.84315 4.5 6.72876 4.5 10.5 4.5H14.5C18.2712 4.5 20.1569 4.5 21.3284 5.67157C22.5 6.84315 22.5 8.72876 22.5 12.5C22.5 16.2712 22.5 18.1569 21.3284 19.3284C20.1569 20.5 18.2712 20.5 14.5 20.5H10.5C6.72876 20.5 4.84315 20.5 3.67157 19.3284C2.5 18.1569 2.5 16.2712 2.5 12.5Z" stroke="white" stroke-width="1.5"/>
<path id="Vector_2" d="M6.5 8.5L8.6589 10.2991C10.4955 11.8296 11.4139 12.5949 12.5 12.5949C13.5861 12.5949 14.5045 11.8296 16.3411 10.2991L18.5 8.5" stroke="white" stroke-width="1.5" stroke-linecap="round"/>
</g>
</svg>
