<svg width="25" height="25" viewBox="0 0 25 25" fill="none" xmlns="http://www.w3.org/2000/svg">
<g id="Line Duotone / Call / Phone ">
<path id="Vector" d="M16.6007 13.859L17.0562 13.4062C17.6858 12.7801 18.6672 12.6515 19.4728 13.0894L21.3833 14.128C22.6102 14.7949 22.8806 16.4295 21.9217 17.383L20.5011 18.7954C20.1399 19.1546 19.6917 19.4171 19.1763 19.4651M4.50289 6.24561C4.46765 5.62559 4.75823 5.06668 5.19185 4.63552L6.76145 3.07483C7.63596 2.20529 9.11028 2.33992 9.87326 3.35908L11.1342 5.04348C11.7507 5.86691 11.6841 6.99484 10.9775 7.69738L10.6907 7.98257" stroke="white" stroke-width="1.5"/>
<path id="Vector_2" d="M19.1763 19.4651C17.5469 19.617 13.5622 19.4492 9.3154 15.2266C5.31076 11.2447 4.59308 7.83182 4.50293 6.24561" stroke="white" stroke-width="1.5"/>
<path id="Vector_3" d="M16.6007 13.8591C16.6007 13.8591 15.5181 14.9356 12.5631 11.9973C9.60807 9.05911 10.6907 7.98267 10.6907 7.98267" stroke="white" stroke-width="1.5" stroke-linecap="round"/>
</g>
</svg>
