<svg width="214" height="166" viewBox="0 0 214 166" fill="none" xmlns="http://www.w3.org/2000/svg">
<path id="Vector" fill-rule="evenodd" clip-rule="evenodd" d="M54.269 22.0762C25.7237 34.2137 1.94782 44.5327 1.43421 45.0075L0.5 45.8702V83.143V120.416L1.43421 121.278C2.90985 122.64 105.06 166 106.792 166C108.759 166 210.739 122.592 212.358 121.066L213.5 119.99V82.5801C213.5 62.0048 213.374 45.2973 213.219 45.4515C213.065 45.6062 212.551 45.3755 212.078 44.9385C211.177 44.1078 107.767 -0.0137167 106.752 3.19906e-06C106.432 0.00416074 82.8143 9.9382 54.269 22.0762ZM54.788 28.7735L6.72807 49.2258V81.7752C6.72807 99.6772 6.77623 114.325 6.83561 114.325C6.89457 114.325 28.6152 105.106 55.1032 93.8383L103.263 73.352L103.471 66.201C103.664 59.5394 103.741 58.9877 104.589 58.1387C105.137 57.592 106.017 57.2278 106.792 57.2278C107.568 57.2278 108.448 57.592 108.995 58.1387C109.844 58.9877 109.921 59.5394 110.114 66.201L110.322 73.352L158.482 93.8383C184.97 105.106 206.69 114.325 206.749 114.325C206.809 114.325 206.857 99.6772 206.857 81.7752V49.2253L158.759 28.7665C132.305 17.5137 110.544 8.30719 110.401 8.30719C110.257 8.30719 110.087 16.1812 110.024 25.8051L109.906 43.3033L108.741 44.3061C107.271 45.5725 106.314 45.5725 104.843 44.3061L103.678 43.3033L103.561 25.8051C103.497 16.1812 103.31 8.31052 103.146 8.31426C102.982 8.31842 81.2208 17.5249 54.788 28.7735ZM82.7105 25.8076C76.2022 28.5628 70.5504 31.1982 70.1506 31.6647C69.502 32.4222 69.424 33.593 69.424 42.5803C69.424 52.5664 69.4319 52.6553 70.3848 53.5521C70.9133 54.0493 71.7794 54.456 72.3096 54.456C73.6246 54.456 96.8283 44.5922 97.8655 43.5923C98.6515 42.8344 98.6959 42.2477 98.6959 32.5806V22.3693L97.7156 21.5748C97.1767 21.1374 96.2425 20.784 95.6396 20.789C95.0371 20.7944 89.2189 23.0523 82.7105 25.8076ZM118.49 23.4049L117.588 24.3674V46.4148C117.588 67.746 117.614 68.4864 118.397 69.1965C119.496 70.1918 167.579 90.6266 168.823 90.6266C169.367 90.6266 170.253 90.2691 170.792 89.8321L171.772 89.0376L171.875 67.2774C171.955 50.4527 171.861 45.2857 171.457 44.4961C171.03 43.6613 166.425 41.5555 146.234 32.9623C132.648 27.1804 121.051 22.4483 120.463 22.4466C119.875 22.4445 118.987 22.8761 118.49 23.4049ZM83.9561 32.233L75.8596 35.663L75.7434 41.1418C75.6799 44.1552 75.7733 46.5354 75.951 46.4306C76.1291 46.3259 79.7314 44.7884 83.9561 43.0136C88.1808 41.2391 91.7836 39.658 91.9617 39.5C92.1402 39.3424 92.2337 36.8712 92.1693 34.0079L92.0526 28.8026L83.9561 32.233ZM123.825 47.7137L123.834 65.0577L135.554 70.0093C142.001 72.7325 151.339 76.6901 156.306 78.8034L165.336 82.6462V65.3221V47.998L147.794 40.5431C138.145 36.443 128.803 32.4767 127.034 31.7291L123.816 30.37L123.825 47.7137ZM59.0439 35.9424C58.2446 36.2463 47.688 40.7178 35.5848 45.8789C22.0072 51.6687 13.3008 55.6034 12.8523 56.1526C12.181 56.9746 12.1257 58.6833 12.1257 78.5597C12.1257 99.6984 12.1407 100.096 12.9865 101.172C13.5769 101.924 14.2404 102.268 15.1027 102.268C16.5028 102.268 62.1537 83.8602 63.2997 82.8337C63.9748 82.2288 64.0263 80.5828 64.0263 59.6188V37.0546L62.9323 36.1931C61.6821 35.2082 61.0775 35.1691 59.0439 35.9424ZM38.9064 51.3532C29.0868 55.5515 20.4456 59.2733 19.7032 59.6246L18.3538 60.2632V77.3158C18.3538 86.6948 18.4937 94.3651 18.6652 94.3609C18.8367 94.3568 27.6648 90.8153 38.2836 86.4915L57.5906 78.6296L57.699 61.138C57.785 47.2688 57.699 43.6538 57.2838 43.6833C56.9957 43.7037 48.726 47.1553 38.9064 51.3532ZM0.698883 83.143C0.698883 103.837 0.749538 112.303 0.811404 101.956C0.873269 91.609 0.873269 74.6774 0.811404 64.3301C0.749538 53.9832 0.698883 62.4488 0.698883 83.143ZM176.074 47.7669L175.094 48.5618V70.6242V92.6863L176.132 93.6678C177.391 94.859 196.677 103.099 198.205 103.099C198.803 103.099 199.732 102.742 200.271 102.305L201.251 101.51V79.4499C201.251 57.6489 201.241 57.3791 200.386 56.5231C199.286 55.4213 179.615 46.9724 178.15 46.9724C177.547 46.9724 176.613 47.3299 176.074 47.7669ZM83.1257 53.676C76.6174 56.4379 70.8722 59.0858 70.3582 59.5598C69.4485 60.3988 69.424 60.642 69.424 68.8419V77.2622L70.518 78.1236C71.1197 78.5976 71.9447 78.9855 72.3512 78.9855C73.1874 78.9855 95.98 69.3865 97.4785 68.4037C98.8088 67.5306 98.9816 66.1786 98.8284 57.8394L98.6959 50.6402L97.5308 49.6378C96.8902 49.0865 96.0494 48.6395 95.6624 48.6445C95.2755 48.6499 89.6341 50.9137 83.1257 53.676ZM181.53 72.2457L181.53 89.5872L183.709 90.4907C184.908 90.9875 187.897 92.2431 190.352 93.2808L194.816 95.1675L194.815 77.8259L194.815 60.4844L192.636 59.581C191.437 59.0841 188.448 57.8286 185.993 56.7908L181.529 54.9041L181.53 72.2457ZM83.6447 60.3759L75.652 63.7709V67.4055V71.0404L77.8319 70.0763C79.0306 69.5462 82.7674 67.9493 86.136 66.527L92.2602 63.9418V60.4461C92.2602 58.5237 92.1199 56.9576 91.9488 56.9659C91.7778 56.9742 88.0409 58.5087 83.6447 60.3759ZM59.1369 99.0273C33.2688 110.036 12.249 119.179 12.4263 119.345C12.6036 119.511 33.9086 128.64 59.7705 139.632L106.792 159.616L153.814 139.632C179.677 128.64 200.981 119.511 201.158 119.345C201.489 119.035 107.722 78.9747 106.723 78.9988C106.419 79.0063 85.0049 88.0194 59.1369 99.0273ZM94.3363 95.024C88.043 97.7306 83.0223 100.135 82.6067 100.642C81.9627 101.427 81.8801 102.585 81.8801 110.814C81.8801 119.864 81.9038 120.124 82.8143 121.116C83.8914 122.288 105.157 131.477 106.792 131.477C108.428 131.477 129.693 122.288 130.77 121.116C131.681 120.125 131.705 119.862 131.705 110.86C131.705 103.358 131.589 101.455 131.087 100.739C130.286 99.5936 108.324 90.1946 106.582 90.2516C105.898 90.274 100.388 92.4214 94.3363 95.024ZM99.988 99.5657C96.5879 101.039 93.7371 102.313 93.6524 102.398C93.5677 102.483 96.4895 103.827 100.145 105.384L106.792 108.216L113.436 105.386C117.089 103.829 120.079 102.512 120.079 102.459C120.079 102.237 107.228 96.8642 106.722 96.875C106.418 96.8816 103.388 98.0923 99.988 99.5657ZM88.1082 111.952C88.1082 115.275 88.2651 116.837 88.6272 117.115C89.0262 117.42 96.3629 120.611 102.952 123.345C103.35 123.51 103.471 122.411 103.471 118.629V113.698L96.1349 110.581C92.1004 108.867 88.6438 107.402 88.4536 107.326C88.2635 107.25 88.1082 109.332 88.1082 111.952ZM117.485 110.524L110.117 113.701L110.115 118.631C110.114 122.412 110.235 123.51 110.633 123.345C117.222 120.611 124.559 117.42 124.958 117.115C125.529 116.677 125.729 107.221 125.165 107.302C124.994 107.326 121.538 108.776 117.485 110.524Z" fill="white"/>
</svg>
