<svg width="151" height="160" viewBox="0 0 151 160" fill="none" xmlns="http://www.w3.org/2000/svg">
<g id="Frame 156">
<path id="Vector" fill-rule="evenodd" clip-rule="evenodd" d="M9.95333 3.50198C7.09831 5.4283 4.51302 7.2936 4.20883 7.64775C3.74432 8.18814 3.65547 8.93976 3.65547 12.332C3.65547 17.9579 3.53404 17.8337 9.16029 17.969L13.4578 18.0727V20.3953V22.7178L9.16029 22.8215C3.54764 22.9565 3.65547 22.8481 3.65547 28.3564C3.65547 30.5224 3.79808 32.5613 3.97262 32.8873C4.14717 33.2133 6.3527 34.8661 8.87381 36.5603L13.4578 39.6402V61.3711V83.102L12.1105 83.8915C10.6468 84.7494 9.52898 86.4259 9.18464 88.2798C8.77452 90.4892 10.3223 93.4836 12.3824 94.4661L13.4578 94.9787V117.529V140.079H11.5755C8.08392 140.079 7.44993 140.834 7.44993 144.995V147.668H6.01436C3.2229 147.668 0.89689 149.572 0.17436 152.447C-0.503585 155.144 0.836494 157.888 3.48029 159.215L5.04456 160H75.4341H145.824L147.471 159.179C150.074 157.882 151.401 155.063 150.681 152.359C149.932 149.542 147.603 147.668 144.854 147.668H143.418V144.995C143.418 140.834 142.784 140.079 139.293 140.079H137.41V117.479V94.8778L138.28 94.4256C142.271 92.3494 142.583 86.6862 138.852 84.0563L137.41 83.0403V61.3281V39.6161L141.863 36.6628C144.312 35.0387 146.517 33.4213 146.764 33.0691C147.094 32.5976 147.213 31.3701 147.213 28.4231C147.213 22.8379 147.329 22.9568 141.708 22.8215L137.41 22.7178V20.3953V18.0727L141.708 17.969C147.334 17.8337 147.213 17.9579 147.213 12.332C147.213 8.94292 147.124 8.18624 146.659 7.63921C146.355 7.28063 143.768 5.41502 140.91 3.49375L135.713 0H75.4287H15.1445L9.95333 3.50198ZM12.4302 7.32111L8.08234 10.2128V11.7467V13.2806H75.4341H142.786V11.7448V10.209L138.427 7.31794L134.068 4.42688L75.423 4.42814L16.778 4.42941L12.4302 7.32111ZM18.2009 20.3953V22.7668H75.4341H132.667V20.3953V18.0237H75.4341H18.2009V20.3953ZM8.08234 29.0457V30.5815L12.4412 33.4726L16.7998 36.3636H75.467H134.135L138.46 33.464L142.786 30.5647V29.0372V27.5099H75.4341H8.08234V29.0457ZM18.2009 61.8182V82.8458H30.654H43.1068L43.3314 80.4503C44.754 65.2677 57.2447 52.9062 72.5092 51.5744C83.9413 50.5771 94.4861 55.3375 101.422 64.6277C104.761 69.1007 106.985 74.8933 107.545 80.5752L107.769 82.8458H120.218H132.667V61.8182V40.7905H75.4341H18.2009V61.8182ZM23.3345 44.9129C22.9408 45.071 22.4782 45.5693 22.3068 46.0199C21.8395 47.2496 21.892 75.3164 22.3638 76.3516C22.9541 77.6478 24.304 77.8403 32.0242 77.7293C37.7506 77.6471 39.1366 77.5409 39.522 77.1542C39.7819 76.8933 40.3593 75.3992 40.8052 73.834C41.9758 69.7224 44.9598 63.9349 47.5783 60.6979C51.3241 56.0667 56.8466 52.0209 62.2569 49.9443C63.6782 49.3986 65.0901 48.7301 65.3946 48.4588C66.2556 47.6908 66.1105 46.0237 65.1147 45.2405C64.291 44.5926 64.0529 44.5853 44.1661 44.6049C32.8748 44.6163 23.7367 44.7513 23.3345 44.9129ZM85.762 45.2335C84.7581 46.0234 84.6095 47.6857 85.4736 48.4632C85.7778 48.7371 87.023 49.335 88.2404 49.7923C98.6983 53.7176 106.828 62.6795 110.051 73.834C110.504 75.3992 111.086 76.8933 111.346 77.1542C111.732 77.5409 113.118 77.6471 118.844 77.7293C126.703 77.8422 127.957 77.6541 128.528 76.2745C128.788 75.6462 128.866 71.2139 128.803 60.6346C128.721 46.954 128.673 45.8305 128.15 45.3075C127.622 44.7791 126.275 44.7377 107.095 44.6574C86.7125 44.572 86.599 44.5752 85.762 45.2335ZM26.7385 61.194V73.0599L31.5185 72.9726L36.2989 72.8854L37.1963 70.2397C38.3157 66.9385 40.23 63.1668 42.3457 60.0933C44.34 57.1959 48.6474 52.7662 51.3867 50.7956L53.4262 49.3281H40.0823H26.7385V61.194ZM99.4815 50.8101C102.275 52.8398 106.277 56.9081 108.288 59.7628C110.367 62.713 112.572 67.0378 113.69 70.3557L114.542 72.8854L119.336 72.9726L124.13 73.0599V61.194V49.3281H110.786H97.442L99.4815 50.8101ZM70.0586 56.4496C57.8139 58.9622 49.2653 68.5028 47.7772 81.3164C47.5884 82.9439 47.6289 83.126 48.2227 83.3145C51.1075 84.2302 52.8618 88.4759 51.6017 91.4919C51.1435 92.5885 48.7309 94.8617 48.0254 94.8617C47.683 94.8617 47.608 99.6063 47.608 121.265V147.668H75.4341H103.26V121.429V95.1908L102.035 94.5657C98.5728 92.7994 97.5189 88.5499 99.7715 85.44C100.27 84.751 101.261 83.9213 101.972 83.5956L103.265 83.004L103.076 81.2648C101.669 68.381 92.5696 58.5198 80.04 56.3007C77.5293 55.8561 72.5924 55.9295 70.0586 56.4496ZM14.477 87.7651C13.657 88.339 13.5578 89.5409 14.2708 90.2542C14.7094 90.6928 16.6373 90.751 30.6958 90.751H46.6237L47.1157 90.0481C47.7664 89.1194 47.7367 88.6662 46.9756 87.9051C46.3603 87.2898 45.9217 87.2727 30.7616 87.2727C17.1704 87.2727 15.0898 87.3357 14.477 87.7651ZM104.209 87.4988C103.099 87.9314 102.874 89.8896 103.872 90.4237C104.27 90.6365 109.957 90.751 120.156 90.751C135.408 90.751 135.846 90.7339 136.462 90.1186C137.21 89.3701 137.254 88.8768 136.645 88.0446C136.213 87.4527 135.637 87.4286 120.44 87.3723C111.774 87.3401 104.47 87.397 104.209 87.4988ZM18.2009 117.628V140.079H30.691H43.1812V117.628V95.1779H30.691H18.2009V117.628ZM107.687 117.628V140.079H120.177H132.667V117.628V95.1779H120.177H107.687V117.628ZM23.1448 101.209L22.3116 101.864V117.335C22.3116 132.385 22.329 132.824 22.944 133.439C23.5388 134.034 23.9979 134.071 30.668 134.071H37.7598L38.415 133.238C39.0569 132.422 39.0705 132.099 39.0705 117.601C39.0705 107.424 38.9608 102.556 38.7195 102.026C38.1197 100.71 37.2352 100.553 30.4027 100.553C24.3818 100.553 23.9255 100.594 23.1448 101.209ZM113.263 101.209L112.43 101.864V117.444C112.43 132.137 112.463 133.054 113.008 133.548C113.51 134.002 114.525 134.071 120.707 134.071C127.543 134.071 127.85 134.045 128.429 133.406C129.003 132.77 129.031 132.041 129.031 117.41V102.08L128.144 101.316C127.267 100.563 127.176 100.553 120.676 100.553C114.498 100.553 114.046 100.594 113.263 101.209ZM26.7385 117.47V129.644H30.5329H34.3274V117.47V105.296H30.5329H26.7385V117.47ZM116.857 117.47V129.644H120.652H124.446V117.47V105.296H120.652H116.857V117.47ZM12.193 146.245V147.668H27.6871H43.1812V146.245V144.822H27.6871H12.193V146.245ZM107.687 146.245V147.668H123.181H138.675V146.245V144.822H123.181H107.687V146.245ZM5.15744 152.436C4.35302 152.905 4.44187 154.475 5.30701 155.081C6.38084 155.833 144.487 155.833 145.561 155.081C146.463 154.449 146.517 152.885 145.653 152.422C144.806 151.969 5.93531 151.983 5.15744 152.436Z" fill="white"/>
</g>
</svg>
