<svg width="136" height="36" viewBox="0 0 136 36" fill="none" xmlns="http://www.w3.org/2000/svg">
<g id="Group">
<g id="Group_2">
<g id="&#60;Group&#62;">
<g id="&#60;Group&#62;_2">
<g id="&#60;Group&#62;_3">
<path id="&#60;Path&#62;" d="M20.9625 16.8495C20.9776 15.6777 21.2897 14.5288 21.8698 13.5097C22.4498 12.4906 23.279 11.6343 24.2801 11.0206C23.6441 10.1148 22.8051 9.36948 21.8298 8.84367C20.8544 8.31785 19.7695 8.02606 18.6613 7.99149C16.2973 7.74403 14.0055 9.40213 12.8008 9.40213C11.5728 9.40213 9.71801 8.01606 7.72071 8.05703C6.42881 8.09865 5.16975 8.47328 4.06621 9.1444C2.96266 9.81553 2.05227 10.7603 1.42374 11.8866C-1.29888 16.5873 0.731952 23.4957 3.34004 27.2955C4.64493 29.1561 6.16996 31.2344 8.16545 31.1607C10.1182 31.08 10.8475 29.919 13.2045 29.919C15.5397 29.919 16.2239 31.1607 18.2599 31.1139C20.3553 31.08 21.6754 29.245 22.9346 27.3668C23.8721 26.041 24.5936 24.5758 25.0722 23.0253C23.8549 22.5119 22.816 21.6525 22.0852 20.5542C21.3544 19.456 20.9639 18.1675 20.9625 16.8495Z" fill="black"/>
<path id="&#60;Path&#62;_2" d="M17.1174 5.49264C18.2598 4.12499 18.8227 2.3671 18.6864 0.592285C16.941 0.775095 15.3287 1.60696 14.1708 2.92214C13.6046 3.56464 13.171 4.31211 12.8948 5.12181C12.6185 5.93152 12.505 6.78758 12.5607 7.64107C13.4337 7.65003 14.2974 7.46133 15.0867 7.08919C15.876 6.71704 16.5703 6.17116 17.1174 5.49264Z" fill="black"/>
</g>
</g>
<g id="Group_3">
<path id="Vector" d="M44.3916 26.6376H37.9835L36.4447 31.1688H33.7305L39.8 14.4045H42.62L48.6896 31.1688H45.9291L44.3916 26.6376ZM38.6472 24.5467H43.7266L41.2226 17.1929H41.1525L38.6472 24.5467Z" fill="black"/>
<path id="Vector_2" d="M61.7975 25.058C61.7975 28.8562 59.7589 31.2964 56.6825 31.2964C55.9032 31.3371 55.1281 31.1581 54.4461 30.7799C53.7641 30.4017 53.2026 29.8396 52.826 29.158H52.7678V35.212H50.252V18.9461H52.6872V20.979H52.7335C53.1273 20.3006 53.6983 19.7415 54.3855 19.361C55.0727 18.9805 55.8505 18.7929 56.6362 18.8182C59.747 18.8182 61.7975 21.2703 61.7975 25.058ZM59.2116 25.058C59.2116 22.5834 57.9292 20.9566 55.9725 20.9566C54.0503 20.9566 52.7573 22.6177 52.7573 25.058C52.7573 27.5207 54.0503 29.1699 55.9725 29.1699C57.9292 29.1699 59.2115 27.555 59.2115 25.058H59.2116Z" fill="black"/>
<path id="Vector_3" d="M75.2884 25.0582C75.2884 28.8564 73.2492 31.2967 70.1727 31.2967C69.3934 31.3373 68.6184 31.1583 67.9363 30.7801C67.2543 30.402 66.6929 29.8399 66.3163 29.1583H66.2581V35.2122H63.7422V18.9463H66.1774V20.9792H66.2237C66.6176 20.3009 67.1885 19.7417 67.8757 19.3612C68.563 18.9807 69.3408 18.7932 70.1264 18.8184C73.2373 18.8184 75.2884 21.2706 75.2884 25.0582ZM72.7018 25.0582C72.7018 22.5837 71.4194 20.9568 69.4628 20.9568C67.5405 20.9568 66.2475 22.6179 66.2475 25.0582C66.2475 27.5209 67.5405 29.1702 69.4628 29.1702C71.4194 29.1702 72.7018 27.5552 72.7018 25.0582Z" fill="black"/>
<path id="Vector_4" d="M84.2024 26.4979C84.3888 28.1603 86.0083 29.2519 88.2214 29.2519C90.342 29.2519 91.8677 28.1603 91.8677 26.6613C91.8677 25.3601 90.9475 24.5809 88.7688 24.047L86.59 23.5236C83.503 22.78 82.0699 21.3404 82.0699 19.0043C82.0699 16.1118 84.5977 14.125 88.1858 14.125C91.7394 14.125 94.1747 16.1118 94.2567 19.0043H91.717C91.5649 17.3312 90.1781 16.3214 88.1514 16.3214C86.1246 16.3214 84.7378 17.3431 84.7378 18.8302C84.7378 20.0154 85.6236 20.7129 87.7904 21.2467L89.6426 21.7003C93.0919 22.5137 94.5237 23.8954 94.5237 26.3475C94.5237 29.4838 92.0197 31.4482 88.035 31.4482C84.3068 31.4482 81.7896 29.53 81.627 26.4977L84.2024 26.4979Z" fill="black"/>
<path id="Vector_5" d="M99.9564 16.0537V18.9462H102.287V20.933H99.9564V27.6711C99.9564 28.7179 100.423 29.2057 101.448 29.2057C101.724 29.2009 102.001 29.1815 102.275 29.1476V31.1225C101.815 31.2083 101.346 31.2472 100.878 31.2385C98.3964 31.2385 97.4286 30.3091 97.4286 27.9387V20.933H95.6465V18.9462H97.4286V16.0537H99.9564Z" fill="black"/>
<path id="Vector_6" d="M103.636 25.0583C103.636 21.2127 105.908 18.7961 109.45 18.7961C113.003 18.7961 115.264 21.2126 115.264 25.0583C115.264 28.9146 113.015 31.3206 109.45 31.3206C105.885 31.3206 103.636 28.9145 103.636 25.0583ZM112.7 25.0583C112.7 22.4203 111.488 20.8633 109.45 20.8633C107.411 20.8633 106.199 22.4322 106.199 25.0583C106.199 27.7069 107.411 29.2521 109.45 29.2521C111.488 29.2521 112.7 27.7069 112.7 25.0583H112.7Z" fill="black"/>
<path id="Vector_7" d="M117.338 18.9459H119.737V21.0263H119.796C119.958 20.3766 120.34 19.8024 120.877 19.4002C121.413 18.9981 122.073 18.7925 122.744 18.818C123.034 18.817 123.323 18.8484 123.606 18.9117V21.2583C123.24 21.1468 122.858 21.0956 122.475 21.1067C122.11 21.0919 121.746 21.1562 121.407 21.2951C121.069 21.434 120.765 21.6442 120.516 21.9114C120.267 22.1785 120.079 22.4963 119.964 22.8428C119.85 23.1893 119.812 23.5563 119.854 23.9188V31.1684H117.338L117.338 18.9459Z" fill="black"/>
<path id="Vector_8" d="M135.205 27.5793C134.866 29.7981 132.7 31.3208 129.927 31.3208C126.362 31.3208 124.148 28.9385 124.148 25.1166C124.148 21.2828 126.373 18.7964 129.821 18.7964C133.212 18.7964 135.345 21.1193 135.345 24.8252V25.6848H126.688V25.8364C126.648 26.2862 126.705 26.7394 126.854 27.1658C127.003 27.5922 127.241 27.982 127.553 28.3095C127.865 28.6369 128.243 28.8944 128.663 29.0649C129.082 29.2354 129.533 29.315 129.985 29.2984C130.58 29.354 131.176 29.2167 131.686 28.9069C132.196 28.5972 132.593 28.1315 132.816 27.5793L135.205 27.5793ZM126.7 23.9314H132.828C132.85 23.5269 132.789 23.1222 132.647 22.7426C132.505 22.3629 132.287 22.0166 132.004 21.7253C131.722 21.434 131.382 21.2041 131.007 21.0499C130.631 20.8957 130.228 20.8206 129.821 20.8293C129.412 20.8269 129.006 20.9054 128.626 21.0603C128.247 21.2152 127.903 21.4434 127.613 21.7318C127.322 22.0202 127.092 22.3631 126.936 22.7406C126.779 23.1181 126.699 23.5228 126.7 23.9314V23.9314Z" fill="black"/>
</g>
</g>
</g>
<g id="&#60;Group&#62;_4">
<g id="Group_4">
<path id="Vector_9" d="M36.8598 5.19149H37.9399C38.1259 5.21458 38.3146 5.19901 38.4942 5.14576C38.6738 5.09251 38.8404 5.00274 38.9835 4.8821C39.1266 4.76146 39.243 4.61257 39.3255 4.44482C39.4081 4.27707 39.4548 4.09409 39.4629 3.90741C39.4629 3.16452 38.9024 2.68463 37.9518 2.68463C37.7613 2.65809 37.5674 2.66988 37.3816 2.7193C37.1957 2.76872 37.0217 2.85478 36.8697 2.97238C36.7178 3.08999 36.591 3.23676 36.4969 3.40404C36.4028 3.57131 36.3432 3.7557 36.3217 3.9463H35.1358C35.1562 3.6003 35.2478 3.26219 35.405 2.95303C35.5621 2.64386 35.7813 2.37026 36.0491 2.14926C36.3169 1.92826 36.6274 1.76459 36.9613 1.66844C37.2952 1.57229 37.6454 1.54573 37.9901 1.59039C39.5806 1.59039 40.7004 2.4783 40.7004 3.75645C40.7041 4.18464 40.5605 4.60116 40.2934 4.93646C40.0263 5.27177 39.652 5.50558 39.2329 5.59887V5.69379C39.7297 5.71576 40.1977 5.933 40.5343 6.29801C40.871 6.66302 41.0491 7.14611 41.0296 7.64166C40.9928 7.99791 40.8851 8.34326 40.7128 8.65747C40.5404 8.97167 40.3069 9.2484 40.0259 9.47145C39.7449 9.69449 39.4221 9.85936 39.0764 9.95638C38.7307 10.0534 38.369 10.0806 38.0126 10.0365C37.6555 10.085 37.2922 10.0614 36.9444 9.96692C36.5966 9.87248 36.2715 9.70917 35.9883 9.48674C35.7052 9.26431 35.4699 8.9873 35.2964 8.67223C35.1229 8.35717 35.0148 8.01049 34.9785 7.65288H36.1829C36.2556 8.42346 36.9656 8.92053 38.0126 8.92053C39.0597 8.92053 39.7432 8.36221 39.7432 7.57514C39.7432 6.77688 39.0994 6.28513 37.9743 6.28513H36.8598V5.19149Z" fill="black"/>
<path id="Vector_10" d="M42.3984 8.12216C42.3984 7.02792 43.2168 6.39709 44.6658 6.30744L46.317 6.21252V5.68781C46.317 5.04577 45.8926 4.68322 45.069 4.68322C44.3974 4.68322 43.9333 4.9291 43.7985 5.35888H42.6338C42.7567 4.31474 43.743 3.64502 45.1258 3.64502C46.6542 3.64502 47.5161 4.40372 47.5161 5.68781V9.8413H46.3567V8.98701H46.2615C46.0683 9.29345 45.797 9.54326 45.4753 9.71095C45.1536 9.87863 44.793 9.95818 44.4304 9.94146C44.1745 9.968 43.9159 9.94078 43.6712 9.86153C43.4265 9.78229 43.2011 9.65279 43.0097 9.48138C42.8182 9.30997 42.6649 9.10046 42.5596 8.86635C42.4544 8.63224 42.3994 8.37873 42.3984 8.12216ZM46.317 7.60272V7.0945L44.8283 7.18942C43.9888 7.24544 43.6081 7.53021 43.6081 8.06612C43.6081 8.61323 44.084 8.93162 44.7385 8.93162C44.9302 8.95098 45.1239 8.93168 45.3081 8.87486C45.4922 8.81804 45.663 8.72487 45.8103 8.60088C45.9575 8.4769 46.0783 8.32463 46.1654 8.15315C46.2524 7.98167 46.304 7.79448 46.317 7.60272Z" fill="black"/>
<path id="Vector_11" d="M50.7089 4.77207V9.84116H49.5059V3.76221H53.5197V4.77201L50.7089 4.77207Z" fill="black"/>
<path id="Vector_12" d="M60.81 6.79943C60.81 8.73082 59.8303 9.94174 58.2915 9.94174C57.9137 9.96747 57.5364 9.88504 57.2041 9.70414C56.8717 9.52324 56.5981 9.25142 56.4155 8.92067H56.3203V11.8626H55.1172V3.76259H56.2753V4.76722H56.3652C56.5511 4.42492 56.8283 4.14052 57.1661 3.94544C57.504 3.75036 57.8893 3.65219 58.2796 3.66177C59.8303 3.66173 60.81 4.86736 60.81 6.79943ZM59.5725 6.79943C59.5725 5.51535 58.9631 4.73949 57.9438 4.73949C56.9311 4.73949 56.2978 5.53182 56.2978 6.80471C56.2978 8.07166 56.9311 8.86465 57.9385 8.86465C58.9631 8.86463 59.5725 8.08877 59.5725 6.79943Z" fill="black"/>
<path id="Vector_13" d="M62.4124 12.0184V10.9855C62.5426 11.002 62.6738 11.0095 62.805 11.0079C63.0614 11.0268 63.3156 10.9507 63.5191 10.7942C63.7226 10.6376 63.861 10.4116 63.9076 10.1595L63.9975 9.86357L61.791 3.76221H63.1012L64.6295 8.5907H64.7247L66.2477 3.76221H67.5235L65.2509 10.0923C64.73 11.5715 64.1536 12.0461 62.9109 12.0461C62.8104 12.0461 62.5248 12.0349 62.4124 12.0184Z" fill="black"/>
<path id="Vector_14" d="M68.4609 8.11613H69.6587C69.7764 8.65208 70.2801 8.93153 70.9848 8.93153C71.7859 8.93153 72.2777 8.57953 72.2777 8.03243C72.2777 7.44642 71.8362 7.16693 70.9848 7.16693H70.0725V6.23485H70.9689C71.696 6.23485 72.0662 5.95602 72.0662 5.4478C72.0662 5.00153 71.7079 4.66075 70.9689 4.66075C70.296 4.66075 69.8042 4.94552 69.7261 5.4254H68.5667C68.6534 4.87398 68.9536 4.37851 69.4029 4.04555C69.8521 3.7126 70.4144 3.56875 70.9689 3.64496C72.4179 3.64496 73.2468 4.29821 73.2468 5.32521C73.2536 5.6112 73.1617 5.89083 72.9865 6.11737C72.8113 6.3439 72.5634 6.50359 72.2843 6.56975V6.66466C72.6166 6.7074 72.9216 6.87029 73.1414 7.12243C73.3612 7.37456 73.4806 7.69838 73.4768 8.03246C73.4768 9.18806 72.4906 9.95264 70.9848 9.95264C69.6534 9.9526 68.572 9.34418 68.4609 8.11613Z" fill="black"/>
<path id="Vector_15" d="M75.2087 9.84116V3.76221H76.4012V7.9434H76.4964L79.3058 3.76222H80.4983V9.84118H79.3058V5.6376H79.2159L76.4012 9.84119L75.2087 9.84116Z" fill="black"/>
<path id="Vector_16" d="M87.0672 4.7725H85.1475V9.84158H83.9431V4.7725H82.0234V3.7627H87.0672V4.7725Z" fill="black"/>
<path id="Vector_17" d="M93.5492 8.20006C93.3853 8.75561 93.0308 9.23608 92.5478 9.55753C92.0647 9.87898 91.4838 10.021 90.9064 9.95875C90.5048 9.96932 90.1057 9.89261 89.7368 9.73395C89.3679 9.57528 89.038 9.33846 88.7701 9.03993C88.5022 8.74139 88.3026 8.38829 88.1852 8.00512C88.0679 7.62196 88.0355 7.21792 88.0905 6.82105C88.037 6.42295 88.0699 6.01805 88.187 5.63374C88.3041 5.24943 88.5026 4.8947 88.7691 4.59355C89.0356 4.2924 89.3639 4.05187 89.7317 3.88824C90.0996 3.72461 90.4984 3.6417 90.9011 3.64512C92.5973 3.64512 93.6219 4.80072 93.6219 6.70962V7.12826H89.3173V7.19549C89.2983 7.41861 89.3262 7.64325 89.3994 7.85496C89.4726 8.06667 89.5894 8.26077 89.7423 8.42479C89.8952 8.5888 90.0808 8.7191 90.2872 8.80731C90.4936 8.89552 90.7163 8.93969 90.9408 8.93699C91.2284 8.97128 91.5197 8.91952 91.7777 8.78829C92.0357 8.65707 92.2488 8.4523 92.3898 8.20002L93.5492 8.20006ZM89.3173 6.24098H92.395C92.4102 6.03706 92.3825 5.83223 92.3136 5.63963C92.2447 5.44703 92.1362 5.27093 91.995 5.12264C91.8539 4.97434 91.6831 4.85713 91.4938 4.77852C91.3045 4.69992 91.1008 4.66166 90.8958 4.66621C90.6877 4.66338 90.4811 4.70219 90.2883 4.78034C90.0954 4.85849 89.9203 4.97439 89.7731 5.1212C89.626 5.26801 89.5098 5.44274 89.4315 5.63507C89.3532 5.8274 89.3144 6.03343 89.3173 6.24098H89.3173Z" fill="black"/>
<path id="Vector_18" d="M98.6484 3.76221H101.397C102.589 3.76221 103.289 4.3647 103.289 5.30796C103.291 5.60726 103.189 5.89812 103.002 6.13187C102.814 6.36562 102.552 6.52806 102.259 6.59204V6.68696C102.615 6.70939 102.949 6.86731 103.191 7.12812C103.434 7.38892 103.567 7.73268 103.563 8.08838C103.563 9.14899 102.763 9.84114 101.425 9.84114H98.6484V3.76221ZM99.8409 4.68308V6.25718H101.033C101.761 6.25718 102.108 5.97835 102.108 5.46419C102.108 4.99025 101.806 4.68307 101.167 4.68307L99.8409 4.68308ZM99.8409 7.13919V8.9203H101.268C101.979 8.9203 102.36 8.60719 102.36 8.03239C102.36 7.42397 101.929 7.1392 101.117 7.1392L99.8409 7.13919Z" fill="black"/>
</g>
</g>
</g>
</svg>
