<svg width="184" height="54" viewBox="0 0 184 54" fill="none" xmlns="http://www.w3.org/2000/svg">
<path d="M92.8635 29.362C91.726 29.3647 90.6149 29.7046 89.6707 30.3387C88.7264 30.9729 87.9914 31.8728 87.5586 32.9247C87.1258 33.9765 87.0146 35.1331 87.2391 36.2482C87.4637 37.3633 88.0138 38.3867 88.82 39.1891C89.6261 39.9915 90.6522 40.5368 91.7683 40.7561C92.8844 40.9754 94.0404 40.8588 95.0903 40.421C96.1401 39.9833 97.0365 39.2441 97.6662 38.2969C98.296 37.3496 98.6306 36.2369 98.628 35.0995C98.639 34.3407 98.4972 33.5875 98.211 32.8846C97.9249 32.1818 97.5003 31.5437 96.9624 31.0083C96.4245 30.473 95.7845 30.0514 95.0803 29.7685C94.3761 29.4857 93.6222 29.3474 92.8635 29.362ZM92.8635 38.5825C92.1663 38.6313 91.4706 38.4692 90.8668 38.1173C90.263 37.7654 89.779 37.24 89.4777 36.6094C89.1764 35.9788 89.0719 35.2721 89.1775 34.5813C89.2832 33.8905 89.5943 33.2474 90.0703 32.7357C90.5463 32.224 91.1652 31.8673 91.8466 31.7121C92.528 31.5568 93.2404 31.6101 93.8911 31.865C94.5418 32.12 95.1007 32.5648 95.4953 33.1416C95.8899 33.7184 96.1018 34.4006 96.1035 35.0995C96.1252 35.5423 96.0581 35.985 95.906 36.4015C95.7539 36.8179 95.52 37.1997 95.2181 37.5243C94.9161 37.849 94.5522 38.1098 94.1478 38.2916C93.7434 38.4733 93.3067 38.5722 92.8635 38.5825ZM80.2815 29.362C79.144 29.3647 78.0329 29.7046 77.0887 30.3387C76.1444 30.9729 75.4094 31.8728 74.9766 32.9247C74.5438 33.9765 74.4326 35.1331 74.6572 36.2482C74.8817 37.3633 75.4318 38.3867 76.238 39.1891C77.0442 39.9915 78.0702 40.5368 79.1863 40.7561C80.3024 40.9754 81.4584 40.8588 82.5083 40.421C83.5581 39.9833 84.4545 39.2441 85.0843 38.2969C85.714 37.3496 86.0486 36.2369 86.046 35.0995C86.057 34.3407 85.9152 33.5875 85.6291 32.8846C85.3429 32.1818 84.9183 31.5437 84.3804 31.0083C83.8426 30.473 83.2025 30.0514 82.4983 29.7685C81.7941 29.4857 81.0402 29.3474 80.2815 29.362ZM80.2815 38.5825C79.5843 38.6313 78.8886 38.4692 78.2848 38.1173C77.681 37.7654 77.197 37.24 76.8957 36.6094C76.5944 35.9788 76.4899 35.2721 76.5955 34.5813C76.7012 33.8905 77.0123 33.2474 77.4883 32.7357C77.9643 32.224 78.5832 31.8673 79.2646 31.7121C79.946 31.5568 80.6584 31.6101 81.3091 31.865C81.9598 32.12 82.5188 32.5648 82.9133 33.1416C83.3079 33.7184 83.5198 34.4006 83.5215 35.0995C83.5432 35.5423 83.4761 35.985 83.324 36.4015C83.1719 36.8179 82.938 37.1997 82.6361 37.5243C82.3341 37.849 81.9702 38.1098 81.5658 38.2916C81.1614 38.4733 80.7247 38.5722 80.2815 38.5825ZM65.3235 31.1305V33.5605H71.1555C71.064 34.705 70.5883 35.785 69.8055 36.625C69.2205 37.221 68.5168 37.6876 67.7401 37.9946C66.9634 38.3016 66.1309 38.4421 65.2965 38.407C63.5779 38.407 61.9297 37.7243 60.7144 36.5091C59.4992 35.2938 58.8165 33.6456 58.8165 31.927C58.8165 30.2084 59.4992 28.5602 60.7144 27.345C61.9297 26.1297 63.5779 25.447 65.2965 25.447C66.9441 25.4225 68.535 26.0482 69.7245 27.1885L71.439 25.474C70.6344 24.6782 69.679 24.051 68.6289 23.6291C67.5788 23.2072 66.455 22.9991 65.3235 23.017C64.1233 22.9703 62.9261 23.1664 61.8035 23.5934C60.681 24.0205 59.6562 24.6698 58.7905 25.5024C57.9249 26.335 57.2362 27.3338 56.7658 28.4389C56.2954 29.544 56.053 30.7327 56.053 31.9338C56.053 33.1348 56.2954 34.3235 56.7658 35.4286C57.2362 36.5338 57.9249 37.5325 58.7905 38.3651C59.6562 39.1977 60.681 39.847 61.8035 40.2741C62.9261 40.7012 64.1233 40.8972 65.3235 40.8505C66.4783 40.8966 67.6298 40.698 68.7024 40.2675C69.775 39.8371 70.7444 39.1846 71.547 38.353C72.9646 36.7957 73.72 34.7474 73.653 32.6425C73.6578 32.1359 73.6172 31.6299 73.5315 31.1305H65.3235ZM126.492 33.0205C126.14 31.9847 125.481 31.0803 124.604 30.427C123.726 29.7736 122.671 29.4023 121.578 29.362C120.839 29.3606 120.109 29.5106 119.43 29.8028C118.752 30.0951 118.141 30.5233 117.635 31.061C117.129 31.5988 116.739 32.2346 116.488 32.9292C116.237 33.6238 116.132 34.3625 116.178 35.0995C116.166 36.3319 116.554 37.5349 117.282 38.5289C118.011 39.5229 119.042 40.2545 120.22 40.6145C121.399 40.9744 122.662 40.9434 123.822 40.5261C124.982 40.1088 125.975 39.3275 126.654 38.299L124.696 36.949C124.405 37.4354 123.991 37.837 123.496 38.1141C123.001 38.3912 122.442 38.534 121.875 38.5285C121.29 38.5527 120.711 38.3993 120.215 38.0884C119.718 37.7776 119.328 37.324 119.094 36.787L126.775 33.6145L126.492 33.0205ZM118.662 34.9375C118.635 34.5182 118.691 34.0976 118.828 33.7004C118.966 33.3032 119.181 32.9374 119.461 32.6243C119.741 32.3113 120.081 32.0573 120.461 31.8773C120.841 31.6973 121.253 31.5949 121.672 31.576C122.107 31.5495 122.541 31.6519 122.918 31.8704C123.295 32.0889 123.599 32.4139 123.792 32.8045L118.662 34.9375ZM112.425 40.4995H114.949V23.6245H112.425V40.4995ZM108.294 30.6445H108.199C107.822 30.215 107.357 29.872 106.835 29.639C106.313 29.406 105.747 29.2885 105.175 29.2945C103.7 29.366 102.309 30.0025 101.29 31.0719C100.271 32.1413 99.703 33.5617 99.703 35.0388C99.703 36.5158 100.271 37.9362 101.29 39.0056C102.309 40.075 103.7 40.7115 105.175 40.783C105.748 40.7945 106.316 40.6794 106.838 40.4461C107.361 40.2127 107.826 39.8668 108.199 39.433H108.294V40.2565C108.294 42.457 107.119 43.6315 105.229 43.6315C104.598 43.6176 103.985 43.4165 103.468 43.0535C102.952 42.6905 102.554 42.1822 102.327 41.593L100.14 42.4975C100.544 43.513 101.247 44.382 102.156 44.9894C103.065 45.5968 104.136 45.9142 105.229 45.8995C108.186 45.8995 110.629 44.158 110.629 39.919V29.6995H108.294V30.6445ZM105.391 38.5825C104.507 38.5274 103.677 38.1371 103.07 37.4913C102.463 36.8454 102.125 35.9925 102.125 35.1063C102.125 34.22 102.463 33.3671 103.07 32.7213C103.677 32.0754 104.507 31.6852 105.391 31.63C105.824 31.6487 106.248 31.7541 106.639 31.94C107.029 32.1259 107.379 32.3886 107.666 32.7123C107.953 33.036 108.172 33.4141 108.31 33.8242C108.448 34.2344 108.502 34.668 108.469 35.0995C108.506 35.5324 108.455 35.9683 108.318 36.3809C108.182 36.7934 107.963 37.1739 107.676 37.4995C107.388 37.8251 107.037 38.0889 106.645 38.2751C106.252 38.4612 105.826 38.5658 105.391 38.5825ZM138.318 23.6245H132.27V40.4995H134.794V34.1005H138.318C139.037 34.1522 139.76 34.0551 140.44 33.8153C141.12 33.5755 141.744 33.1981 142.272 32.7066C142.8 32.2152 143.221 31.6202 143.509 30.9588C143.797 30.2975 143.946 29.5838 143.946 28.8625C143.946 28.1412 143.797 27.4276 143.509 26.7662C143.221 26.1048 142.8 25.5098 142.272 25.0184C141.744 24.5269 141.12 24.1495 140.44 23.9097C139.76 23.6699 139.037 23.5728 138.318 23.6245ZM138.318 31.7245H134.794V25.9735H138.372C138.751 25.9735 139.127 26.0482 139.478 26.1934C139.828 26.3386 140.146 26.5514 140.415 26.8197C140.683 27.0879 140.896 27.4064 141.041 27.7569C141.186 28.1074 141.261 28.4831 141.261 28.8625C141.261 29.2419 141.186 29.6176 141.041 29.9681C140.896 30.3186 140.683 30.6371 140.415 30.9053C140.146 31.1736 139.828 31.3864 139.478 31.5316C139.127 31.6768 138.751 31.7515 138.372 31.7515L138.318 31.7245ZM153.897 29.308C152.978 29.2513 152.062 29.4653 151.263 29.9236C150.464 30.3819 149.817 31.0643 149.401 31.8865L151.629 32.818C151.854 32.4122 152.192 32.0802 152.601 31.8622C153.011 31.6442 153.475 31.5495 153.937 31.5895C154.258 31.5521 154.583 31.5788 154.893 31.6682C155.203 31.7576 155.492 31.9079 155.743 32.1102C155.994 32.3125 156.203 32.5629 156.356 32.8467C156.51 33.1304 156.606 33.4419 156.637 33.763V33.925C155.826 33.4983 154.922 33.2759 154.005 33.277C151.602 33.277 149.145 34.627 149.145 37.084C149.169 37.6062 149.297 38.1184 149.523 38.59C149.748 39.0616 150.066 39.4831 150.458 39.8294C150.85 40.1757 151.307 40.4397 151.803 40.6059C152.298 40.772 152.822 40.8368 153.343 40.7965C153.977 40.8316 154.608 40.6975 155.173 40.4081C155.738 40.1186 156.215 39.6843 156.556 39.1495H156.637V40.4995H159.067V34.006C159.067 31.0495 156.826 29.335 153.951 29.335L153.897 29.308ZM153.586 38.5555C152.763 38.5555 151.615 38.137 151.615 37.1245C151.615 35.7745 153.046 35.3155 154.315 35.3155C155.117 35.2957 155.91 35.4915 156.61 35.8825C156.526 36.6157 156.178 37.2932 155.632 37.7897C155.086 38.2861 154.378 38.5678 153.64 38.5825L153.586 38.5555ZM167.923 29.6995L165.034 37.0165H164.953L161.956 29.6995H159.256L163.752 39.9325L161.187 45.616H163.819L170.731 29.6995H167.923ZM145.243 40.4995H147.754V23.6245H145.243V40.4995Z" fill="black"/>
<path d="M14.9687 10.179C14.5238 10.705 14.2968 11.3811 14.3342 12.069V41.931C14.2882 42.62 14.5163 43.2993 14.9687 43.821L15.0632 43.929L31.7897 27.2025V26.7975L15.0632 10.0845L14.9687 10.179Z" fill="#181818"/>
<path d="M37.3243 32.7777L31.7893 27.2022V26.7972L37.3243 21.2217L37.4458 21.3027L44.0743 25.0557C45.9643 26.1222 45.9643 27.8772 44.0743 28.9572L37.4728 32.7102L37.3243 32.7777Z" fill="#363636"/>
<path d="M37.487 32.697L31.79 27L14.969 43.821C15.3505 44.1606 15.8388 44.3559 16.3492 44.3732C16.8596 44.3904 17.3599 44.2285 17.7635 43.9155L37.487 32.697Z" fill="#212121"/>
<path d="M37.487 21.3027L17.7635 10.0977C17.3626 9.78037 16.8626 9.61452 16.3515 9.62933C15.8404 9.64415 15.3509 9.83868 14.969 10.1787L31.79 26.9997L37.487 21.3027Z" fill="#212121"/>
<path opacity="0.2" d="M37.325 32.5752L17.7635 43.7127C17.3746 44.0062 16.9007 44.165 16.4135 44.165C15.9263 44.165 15.4524 44.0062 15.0635 43.7127L14.969 43.8072L15.0635 43.9152C15.4524 44.2087 15.9263 44.3675 16.4135 44.3675C16.9007 44.3675 17.3746 44.2087 17.7635 43.9152L37.487 32.6967L37.325 32.5752Z" fill="black"/>
<path opacity="0.12" d="M14.9692 43.632C14.5355 43.0966 14.323 42.4156 14.3752 41.7285V41.931C14.3292 42.62 14.5573 43.2993 15.0097 43.821L15.1042 43.7265L14.9692 43.632Z" fill="black"/>
<path opacity="0.12" d="M44.0745 28.755L37.3245 32.5755L37.446 32.697L44.0745 28.944C44.4657 28.7786 44.8051 28.5107 45.057 28.1686C45.3088 27.8264 45.4637 27.4228 45.5055 27C45.4211 27.3842 45.2476 27.7431 44.999 28.048C44.7505 28.3528 44.4338 28.595 44.0745 28.755Z" fill="black"/>
<path opacity="0.25" d="M17.7632 10.2866L44.0747 25.2446C44.434 25.4046 44.7507 25.6468 44.9993 25.9517C45.2478 26.2565 45.4213 26.6155 45.5057 26.9996C45.464 26.5769 45.3091 26.1732 45.0572 25.8311C44.8054 25.489 44.466 25.2211 44.0747 25.0556L17.7632 10.0976C15.8867 9.01763 14.3342 9.90863 14.3342 12.0686V12.2711C14.3747 10.1111 15.8867 9.22013 17.7632 10.2866Z" fill="white"/>
<path d="M58.5845 18.6203C57.8356 18.1966 57.2171 17.5759 56.7961 16.8255C56.3689 16.0521 56.1448 15.1829 56.1448 14.2993C56.1448 13.4158 56.3689 12.5466 56.7961 11.7732C57.2171 11.0228 57.8356 10.402 58.5845 9.97833C59.3519 9.54616 60.2205 9.32573 61.1011 9.3396C61.7651 9.32415 62.4242 9.45555 63.0315 9.72442C63.6388 9.99328 64.1792 10.393 64.6141 10.8949L63.589 11.8913C63.2899 11.5246 62.9166 11.2252 62.4935 11.0131C62.0613 10.809 61.5886 10.7053 61.1107 10.7097C60.4924 10.7014 59.8826 10.8544 59.3414 11.1536C58.8042 11.4512 58.3615 11.8938 58.0639 12.4311C57.7598 13.0114 57.601 13.6569 57.601 14.3121C57.601 14.9673 57.7598 15.6128 58.0639 16.1932C58.3612 16.7306 58.804 17.1733 59.3414 17.4706C59.8823 17.7708 60.4921 17.9249 61.1107 17.9177C61.638 17.9208 62.1588 17.8009 62.6317 17.5675C63.1046 17.3341 63.5166 16.9937 63.8349 16.5732L64.8856 17.5856C64.4318 18.1275 63.865 18.5635 63.2249 18.8631C62.488 19.1926 61.6846 19.3462 60.8782 19.3119C60.0717 19.2775 59.2843 19.0561 58.5781 18.6651L58.5845 18.6203Z" fill="black"/>
<path d="M66.5413 9.5376H68.004V14.1524H68.0838L71.8715 9.5376H73.7078V9.61744L69.6806 14.3792L73.9058 18.978V19.0579H71.9896L68.071 14.6985H67.9912V19.0579H66.5413V9.5376Z" fill="black"/>
<path d="M78.4145 9.5376H80.0752L83.6776 19.0579H82.0808L81.2025 16.6115H77.3095L76.4408 19.0579H74.844L78.4145 9.5376ZM80.7139 15.2574L79.6504 12.3384L79.2927 11.2462H79.2129L78.852 12.3384L77.7885 15.2574H80.7139Z" fill="black"/>
<path d="M89.1824 14.8167C88.5737 15.3479 87.7863 15.6286 86.9788 15.6023C86.4374 15.6104 85.9019 15.4889 85.4171 15.2478C84.9627 15.0185 84.5844 14.6624 84.3281 14.2227C84.0537 13.7465 83.9156 13.204 83.9289 12.6546V9.5376H85.4075V12.4119C85.3917 12.6575 85.4285 12.9037 85.5155 13.1339C85.6026 13.3641 85.7378 13.5731 85.9121 13.7468C86.2837 14.0767 86.7699 14.2475 87.2662 14.2227C87.6336 14.2296 87.9976 14.1516 88.33 13.9948C88.6623 13.8381 88.954 13.6068 89.1824 13.3189V9.5376H90.6323V19.0579H89.1824V14.8167Z" fill="black"/>
<path d="M95.5088 9.5376H97.1727L100.775 19.0579H99.1783L98.3032 16.6115H94.407L93.5287 19.0579H91.9319L95.5088 9.5376ZM97.8114 15.2574L96.7479 12.3384L96.387 11.2462H96.3072L95.9495 12.3384L94.886 15.2574H97.8114Z" fill="black"/>
<path d="M103.248 10.9204H100.578V9.5376H107.371V10.9204H104.711V19.0579H103.248V10.9204Z" fill="black"/>
<path d="M108.885 9.5376H110.351V12.9452H112.369C112.94 12.9397 113.505 13.0654 114.02 13.3125C114.395 13.5049 114.726 13.7727 114.992 14.0991C115.259 14.4255 115.455 14.8034 115.568 15.2092C115.681 15.6149 115.71 16.0397 115.651 16.4569C115.592 16.8741 115.448 17.2747 115.227 17.6335C114.929 18.0905 114.512 18.4572 114.02 18.6938C113.505 18.9419 112.94 19.0687 112.369 19.0643H108.885V9.5376ZM112.478 17.6878C112.799 17.6941 113.117 17.6112 113.394 17.4483C113.653 17.2957 113.864 17.0747 114.004 16.8095C114.145 16.5547 114.218 16.2685 114.218 15.9776C114.218 15.6867 114.145 15.4005 114.004 15.1456C113.862 14.8816 113.651 14.6609 113.394 14.5069C113.119 14.3381 112.801 14.2517 112.478 14.2578H110.351V17.675L112.478 17.6878Z" fill="black"/>
<path d="M120.388 9.5376H121.835V14.8039L121.755 16.6371H121.835L126.105 9.5376H127.766V19.0579H126.316V13.6606L126.395 11.8242H126.316L121.982 19.0579H120.385L120.388 9.5376Z" fill="black"/>
<path d="M130.63 18.6587C130.014 18.2262 129.577 17.5834 129.401 16.8511L130.733 16.3209C130.823 16.7732 131.058 17.1836 131.403 17.4898C131.729 17.7712 132.148 17.9224 132.579 17.9145C133.038 17.9241 133.485 17.7612 133.83 17.4579C133.995 17.3183 134.127 17.144 134.217 16.9474C134.306 16.7508 134.351 16.5369 134.348 16.3209C134.349 16.0331 134.26 15.752 134.096 15.5161C133.92 15.2651 133.681 15.0656 133.403 14.9381C133.104 14.793 132.776 14.7197 132.444 14.7241H131.691V13.4466H132.397C132.828 13.4615 133.251 13.3235 133.591 13.057C133.746 12.927 133.869 12.7626 133.949 12.5769C134.03 12.3912 134.065 12.1892 134.054 11.9871C134.056 11.8042 134.017 11.6231 133.939 11.4573C133.862 11.2915 133.748 11.1451 133.607 11.029C133.297 10.7665 132.901 10.6287 132.496 10.6426C132.126 10.6316 131.766 10.7592 131.486 11.0003C131.22 11.226 131.022 11.5213 130.915 11.853L129.637 11.3197C129.842 10.7724 130.194 10.2919 130.653 9.93043C131.185 9.51469 131.847 9.30084 132.521 9.32682C133.053 9.31603 133.579 9.43208 134.057 9.66535C134.485 9.8745 134.848 10.1957 135.108 10.5947C135.362 10.9943 135.494 11.4593 135.488 11.9328C135.505 12.3544 135.399 12.7718 135.185 13.1349C134.97 13.4981 134.655 13.7915 134.278 13.98V14.0598C134.717 14.2551 135.097 14.5624 135.379 14.9508C135.672 15.3657 135.822 15.8644 135.807 16.372C135.813 16.8944 135.667 17.4071 135.386 17.8475C135.106 18.2945 134.708 18.6558 134.236 18.8918C133.73 19.1488 133.169 19.2792 132.601 19.2719C131.896 19.2765 131.208 19.0622 130.63 18.6587Z" fill="black"/>
</svg>
