<svg width="48" height="48" viewBox="0 0 48 48" fill="none" xmlns="http://www.w3.org/2000/svg">
<g id="Youtube_black">
<rect width="48" height="48" rx="12" fill="white"/>
<g id="Youtube">
<path id="Subtract" fill-rule="evenodd" clip-rule="evenodd" d="M34.0008 15.7495C35.1023 16.0518 35.9698 16.9424 36.2642 18.0734C36.7992 20.1232 36.7992 24.4002 36.7992 24.4002C36.7992 24.4002 36.7992 28.677 36.2642 30.727C35.9698 31.858 35.1023 32.7486 34.0008 33.051C32.0046 33.6002 23.9992 33.6002 23.9992 33.6002C23.9992 33.6002 15.9938 33.6002 13.9975 33.051C12.8959 32.7486 12.0285 31.858 11.7341 30.727C11.1992 28.677 11.1992 24.4002 11.1992 24.4002C11.1992 24.4002 11.1992 20.1232 11.7341 18.0734C12.0285 16.9424 12.8959 16.0518 13.9975 15.7495C15.9938 15.2002 23.9992 15.2002 23.9992 15.2002C23.9992 15.2002 32.0046 15.2002 34.0008 15.7495ZM21.5996 20.8003V28.8003L27.9996 24.8004L21.5996 20.8003Z" fill="#0A0C33"/>
</g>
</g>
</svg>
