<svg width="24" height="25" viewBox="0 0 24 25" fill="none" xmlns="http://www.w3.org/2000/svg">
<g id="Icons">
<path id="Vector" d="M3 9.20938C3 7.73584 3 6.99907 3.39264 6.56935C3.53204 6.41678 3.70147 6.29466 3.89029 6.21066C4.42213 5.97406 5.12109 6.20705 6.51901 6.67302C7.58626 7.02877 8.11989 7.20665 8.6591 7.18823C8.85714 7.18147 9.05401 7.15511 9.24685 7.10952C9.77191 6.98541 10.2399 6.6734 11.176 6.04937L12.5583 5.12778C13.7574 4.32843 14.3569 3.92876 15.0451 3.8366C15.7333 3.74444 16.4168 3.97229 17.7839 4.42799L18.9487 4.81624C19.9387 5.14625 20.4337 5.31126 20.7169 5.70409C21 6.09692 21 6.61871 21 7.66229V15.7907C21 17.2642 21 18.001 20.6074 18.4307C20.468 18.5833 20.2985 18.7054 20.1097 18.7894C19.5779 19.026 18.8789 18.793 17.481 18.327C16.4137 17.9713 15.8801 17.7934 15.3409 17.8118C15.1429 17.8186 14.946 17.8449 14.7532 17.8905C14.2281 18.0146 13.7601 18.3266 12.824 18.9507L11.4417 19.8722C10.2426 20.6716 9.64311 21.0713 8.95493 21.1634C8.26674 21.2556 7.58319 21.0277 6.21609 20.572L5.05132 20.1838C4.06129 19.8538 3.56627 19.6888 3.28314 19.2959C3 18.9031 3 18.3813 3 17.3377V9.20938Z" stroke="white" stroke-width="1.5"/>
<path id="Vector_2" opacity="0.5" d="M9 7.13867V21" stroke="white" stroke-width="1.5"/>
<path id="Vector_3" opacity="0.5" d="M15 3.5V17.5" stroke="white" stroke-width="1.5"/>
</g>
</svg>
