<svg width="21" height="20" viewBox="0 0 21 20" fill="none" xmlns="http://www.w3.org/2000/svg">
<g id="Icons">
<path id="Vector" d="M2.64772 11.4941C2.27603 8.85778 2.09018 7.53963 2.88006 6.68644C3.66993 5.83325 5.0761 5.83325 7.88845 5.83325H13.4345C16.2468 5.83325 17.653 5.83325 18.4429 6.68644C19.2327 7.53963 19.0469 8.85778 18.6752 11.4941L18.3227 13.9941C18.0312 16.0615 17.8855 17.0952 17.1378 17.7142C16.3902 18.3333 15.2875 18.3333 13.082 18.3333H8.24093C6.03546 18.3333 4.93273 18.3333 4.18507 17.7142C3.43742 17.0952 3.29167 16.0615 3.00019 13.9941L2.64772 11.4941Z" stroke="white" stroke-width="1.25"/>
<path id="Vector_2" d="M16.9663 5.83341C17.1568 4.74611 16.3202 3.75008 15.2163 3.75008H6.11311C5.00923 3.75008 4.17256 4.74611 4.36308 5.83341M15.2482 3.75008C15.2718 3.53418 15.2836 3.42621 15.2838 3.33704C15.2857 2.48402 14.6431 1.76728 13.795 1.67626C13.7063 1.66675 13.5977 1.66675 13.3805 1.66675H7.94904C7.73183 1.66675 7.62323 1.66675 7.53456 1.67626C6.68641 1.76728 6.04389 2.48402 6.04574 3.33704C6.04593 3.42621 6.05776 3.53417 6.0814 3.75008" stroke="white" stroke-width="1.25"/>
<circle id="Vector_3" cx="14.4141" cy="9.58325" r="1.25" stroke="white" stroke-width="1.25"/>
<path id="Vector_4" d="M17.3311 16.6667L14.9276 14.8763C14.1525 14.2989 12.9982 14.2414 12.1451 14.7377L11.9227 14.867C11.3299 15.2119 10.5233 15.1541 10.0108 14.7299L6.81237 12.0825C6.17396 11.5541 5.14992 11.5259 4.47047 12.018L3.36719 12.817" stroke="white" stroke-width="1.25" stroke-linecap="round"/>
</g>
</svg>
