<svg width="24" height="25" viewBox="0 0 24 25" fill="none" xmlns="http://www.w3.org/2000/svg">
<g id="Line Duotone / Video, Audio, Sound / Clapperboard Play">
<path id="Vector" d="M2 12.5C2 7.78595 2 5.42893 3.46447 3.96447C4.92893 2.5 7.28595 2.5 12 2.5C16.714 2.5 19.0711 2.5 20.5355 3.96447C22 5.42893 22 7.78595 22 12.5C22 17.214 22 19.5711 20.5355 21.0355C19.0711 22.5 16.714 22.5 12 22.5C7.28595 22.5 4.92893 22.5 3.46447 21.0355C2 19.5711 2 17.214 2 12.5Z" stroke="white" stroke-width="1.5"/>
<path id="Vector_2" d="M21.5 8.5H2.5M7 8.5L10.5 3M13.5 8.5L17 3" stroke="white" stroke-width="1.5" stroke-linecap="round"/>
<path id="Vector_3" d="M15 15C15 14.3666 14.338 13.9395 13.014 13.0852C11.6719 12.2193 11.0008 11.7863 10.5004 12.1042C10 12.4221 10 13.2814 10 15C10 16.7186 10 17.5779 10.5004 17.8958C11.0008 18.2137 11.6719 17.7807 13.014 16.9148C14.338 16.0605 15 15.6334 15 15Z" stroke="white" stroke-width="1.5" stroke-linecap="round"/>
</g>
</svg>
