<svg width="20" height="20" viewBox="0 0 20 20" fill="none" xmlns="http://www.w3.org/2000/svg">
<g id="Line Duotone / Business, Statistic / Presentation Graph">
<path id="Vector" d="M1.66797 1.66675H18.3346" stroke="white" stroke-width="1.25" stroke-linecap="round"/>
<path id="Vector_2" d="M7.5 8.74992L8.57741 7.67251C8.85519 7.39473 8.99408 7.25584 9.16667 7.25584C9.33926 7.25584 9.47814 7.39473 9.75592 7.67251L10.2441 8.16066C10.5219 8.43844 10.6607 8.57733 10.8333 8.57733C11.0059 8.57733 11.1448 8.43844 11.4226 8.16066L12.5 7.08325" stroke="white" stroke-width="1.25" stroke-linecap="round"/>
<path id="Vector_3" d="M9.9987 17.5001L9.9987 14.1667M9.9987 17.5001L8.33203 18.3334M9.9987 17.5001L11.6654 18.3334" stroke="white" stroke-width="1.25" stroke-linecap="round"/>
<path id="Vector_4" d="M16.6654 1.66675V8.75008C16.6654 11.3035 16.6654 12.5802 15.8285 13.3735C14.9917 14.1667 13.6448 14.1667 10.9511 14.1667H9.04632C6.35258 14.1667 5.00571 14.1667 4.16887 13.3735C3.33203 12.5802 3.33203 11.3035 3.33203 8.75008V1.66675" stroke="white" stroke-width="1.25"/>
</g>
</svg>
