<svg width="38" height="38" viewBox="0 0 38 38" fill="none" xmlns="http://www.w3.org/2000/svg">
<g id="Traced/golden-gate-bridge 1">
<path id="Vector" fill-rule="evenodd" clip-rule="evenodd" d="M6.33212 6.32737C6.22421 6.44686 6.1442 6.72659 6.05076 7.31077C5.44112 11.1218 3.80356 14.4573 1.8047 15.959C1.56728 16.1375 1.34514 16.3064 1.311 16.3345C1.24918 16.3854 1.75817 17.219 1.85116 17.219C1.91625 17.219 2.78395 16.5273 3.14309 16.1891C4.16263 15.2291 5.21825 13.5678 5.93134 11.801L6.156 11.2444L6.15808 16.3811L6.16016 21.5178L3.75577 21.5393C1.51243 21.5594 1.34084 21.5703 1.19522 21.7022C1.04827 21.8352 1.03906 21.9173 1.03906 23.0938C1.03906 24.245 1.05079 24.3557 1.1875 24.4924C1.32985 24.6348 1.43487 24.6408 3.74805 24.6408H6.16016V26.6742V28.7077L5.52277 28.7338C4.64164 28.77 4.60156 28.8231 4.60156 29.9557V30.801H3.08008H1.55859V31.3205V31.8401H19H36.4414V31.3205V30.801H34.9199H33.3984V29.9557C33.3984 28.8231 33.3584 28.77 32.4772 28.7338L31.8398 28.7077V26.6742V24.6408H34.252C36.5651 24.6408 36.6701 24.6348 36.8125 24.4924C36.9492 24.3557 36.9609 24.245 36.9609 23.0938C36.9609 21.9173 36.9517 21.8352 36.8048 21.7022C36.6592 21.5703 36.4876 21.5594 34.2442 21.5393L31.8398 21.5178L31.8435 16.3811L31.8471 11.2444L32.0325 11.7268C32.5665 13.1161 33.5369 14.7424 34.419 15.7264C34.8348 16.19 36.0279 17.219 36.1497 17.219C36.1761 17.219 36.3241 17.0286 36.4786 16.796L36.7594 16.3729L36.5838 16.2579C34.3904 14.8211 32.5682 11.2982 31.9491 7.29793C31.7625 6.09202 31.8919 6.16038 29.7941 6.16038C27.6811 6.16038 27.8008 6.10456 27.6453 7.16233C27.184 10.2999 25.8718 13.3727 24.2534 15.1056C23.2758 16.1524 22.0836 16.8906 20.8184 17.2324C19.9603 17.4643 18.0384 17.4652 17.1977 17.2341C14.5823 16.5153 12.604 14.4009 11.3204 10.9523C10.9721 10.0168 10.51 8.20911 10.361 7.19944C10.1986 6.09878 10.3264 6.16038 8.20592 6.16038C6.51322 6.16038 6.48026 6.16335 6.33212 6.32737ZM7.19922 14.3615V21.5237H8.20117H9.20312V14.3615V7.19944H8.20117H7.19922V14.3615ZM28.7969 14.3615V21.5237H29.7988H30.8008V14.3615V7.19944H29.7988H28.7969V14.3615ZM10.3171 16.4211L10.3164 21.5237H11.3184H12.3203V18.2918V15.0599L11.9615 14.5252C11.4534 13.7682 11.1015 13.1159 10.682 12.154L10.3177 11.3186L10.3171 16.4211ZM27.3929 11.968C27.0751 12.7599 26.5103 13.8289 26.0468 14.5158L25.6797 15.0599V18.2918V21.5237H26.6816H27.6836V16.4397C27.6836 13.6435 27.6735 11.3557 27.6611 11.3557C27.6487 11.3557 27.528 11.6313 27.3929 11.968ZM13.3594 18.8743V21.5237H14.3613H15.3633V19.601V17.6784L15.0107 17.4759C14.5683 17.2218 13.916 16.748 13.6006 16.4516L13.3594 16.225V18.8743ZM24.4509 16.4071C24.2683 16.609 23.4327 17.2196 22.9893 17.4752L22.6367 17.6784V19.601V21.5237H23.6387H24.6406V18.8889C24.6406 17.4398 24.6291 16.2541 24.615 16.2541C24.6009 16.2541 24.5271 16.323 24.4509 16.4071ZM16.4766 19.8269V21.5237H17.4785H18.4805V20.0094V18.4952L18.0214 18.442C17.769 18.4127 17.3181 18.3305 17.0195 18.2594L16.4766 18.13V19.8269ZM21.1152 18.226C20.9111 18.2827 20.4686 18.3683 20.1318 18.4162L19.5195 18.5032V20.0135V21.5237H20.5215H21.5234V19.8166C21.5234 18.8778 21.5151 18.1126 21.5049 18.1162C21.4947 18.1199 21.3193 18.1693 21.1152 18.226ZM2.07812 23.1194V23.6018H19H35.9219V23.1194V22.6369H19H2.07812V23.1194ZM7.19922 26.6819V28.7229H8.20117H9.20312V26.6819V24.6408H8.20117H7.19922V26.6819ZM10.3164 26.6819V28.7229H10.863C11.3037 28.7229 11.4476 28.7527 11.6052 28.8767C11.797 29.0275 11.8008 29.0478 11.8008 29.9158V30.801H19H26.1992V29.9158C26.1992 29.0478 26.203 29.0275 26.3948 28.8767C26.5524 28.7527 26.6963 28.7229 27.137 28.7229H27.6836V26.6819V24.6408H19H10.3164V26.6819ZM28.7969 26.6819V28.7229H29.7988H30.8008V26.6819V24.6408H29.7988H28.7969V26.6819ZM5.64062 30.3V30.801H8.20117H10.7617V30.3V29.799H8.20117H5.64062V30.3ZM27.2383 30.3V30.801H29.7988H32.3594V30.3V29.799H29.7988H27.2383V30.3Z" fill="white"/>
</g>
</svg>
