<svg width="24" height="25" viewBox="0 0 24 25" fill="none" xmlns="http://www.w3.org/2000/svg">
<g id="Icons">
<path id="Vector" opacity="0.5" d="M19.5627 7.5C19.7913 6.19523 18.7873 5 17.4627 5H6.53885C5.21421 5 4.2102 6.19523 4.43882 7.5M17.5009 5C17.5293 4.74092 17.5435 4.61135 17.5437 4.50435C17.5459 3.48072 16.7749 2.62064 15.7571 2.51142C15.6507 2.5 15.5204 2.5 15.2598 2.5H8.74197C8.48132 2.5 8.351 2.5 8.2446 2.51142C7.22682 2.62064 6.45579 3.48072 6.45801 4.50434C6.45825 4.61135 6.47243 4.7409 6.50081 5" stroke="white" stroke-width="1.5"/>
<path id="Vector_2" d="M15 18.5H9" stroke="white" stroke-width="1.5" stroke-linecap="round"/>
<path id="Vector_3" d="M2.38351 14.293C1.93748 11.1294 1.71447 9.54765 2.66232 8.52383C3.61017 7.5 5.29758 7.5 8.67239 7.5H15.3276C18.7024 7.5 20.3898 7.5 21.3377 8.52383C22.2855 9.54765 22.0625 11.1294 21.6165 14.293L21.1935 17.293C20.8437 19.7739 20.6689 21.0143 19.7717 21.7572C18.8745 22.5 17.5512 22.5 14.9046 22.5H9.09536C6.44881 22.5 5.12553 22.5 4.22834 21.7572C3.33115 21.0143 3.15626 19.7739 2.80648 17.293L2.38351 14.293Z" stroke="white" stroke-width="1.5"/>
</g>
</svg>
