<svg width="48" height="48" viewBox="0 0 48 48" fill="none" xmlns="http://www.w3.org/2000/svg">
<g id="VK_black">
<rect width="48" height="48" rx="12" fill="white"/>
<g id="VK">
<path id="Combined-Shape" d="M25.2547 31.8762C25.2547 31.8762 25.7167 31.8258 25.9534 31.5763C26.17 31.3477 26.1625 30.9163 26.1625 30.9163C26.1625 30.9163 26.1337 28.9019 27.0865 28.6044C28.0256 28.3119 29.2313 30.5525 30.511 31.4141C31.4776 32.0655 32.2113 31.9229 32.2113 31.9229L35.6308 31.8762C35.6308 31.8762 37.4188 31.768 36.5711 30.3878C36.501 30.2747 36.0766 29.3664 34.0294 27.5007C31.8845 25.5478 32.1725 25.8636 34.7543 22.485C36.327 20.4275 36.9555 19.1714 36.7589 18.6343C36.5724 18.1206 35.4154 18.257 35.4154 18.257L31.5665 18.2804C31.5665 18.2804 31.281 18.2423 31.0694 18.3664C30.8628 18.4881 30.7288 18.772 30.7288 18.772C30.7288 18.772 30.1203 20.3636 29.3077 21.718C27.5936 24.5744 26.9087 24.7255 26.6282 24.5486C25.9759 24.1344 26.1387 22.8869 26.1387 22.0007C26.1387 19.2317 26.5669 18.0776 25.306 17.7789C24.8878 17.6794 24.5798 17.6142 23.5093 17.6032C22.1357 17.5897 20.9738 17.6081 20.3152 17.924C19.8769 18.1341 19.5389 18.6036 19.7455 18.6307C19.9996 18.6638 20.5756 18.7831 20.8811 19.1911C21.2755 19.7184 21.2617 20.9007 21.2617 20.9007C21.2617 20.9007 21.4884 24.1602 20.7321 24.5645C20.2137 24.8423 19.5025 24.2757 17.9737 21.6836C17.1912 20.3563 16.6002 18.8888 16.6002 18.8888C16.6002 18.8888 16.4862 18.6147 16.2822 18.4672C16.0355 18.289 15.6912 18.2337 15.6912 18.2337L12.0338 18.257C12.0338 18.257 11.4841 18.2718 11.2825 18.5065C11.1035 18.7142 11.2688 19.1456 11.2688 19.1456C11.2688 19.1456 14.1323 25.7223 17.3752 29.0371C20.349 32.0753 23.7246 31.8762 23.7246 31.8762H25.2547Z" fill="#0A0C33"/>
</g>
</g>
</svg>
