<svg width="40" height="40" viewBox="0 0 40 40" fill="none" xmlns="http://www.w3.org/2000/svg">
<g id="icon05">
<path id="Vector" fill-rule="evenodd" clip-rule="evenodd" d="M24.7873 4.7033C24.3039 4.84882 23.8603 5.19281 23.6139 5.61317L23.3685 6.03182H22.0775H20.7866L18.5457 8.26529C16.3757 10.4283 16.2967 10.4957 16.0445 10.3998C15.6667 10.2562 14.9901 10.2785 14.5838 10.448C14.1536 10.6274 13.6663 11.0847 13.5143 11.4517C13.4037 11.7188 13.3876 11.7239 12.6541 11.7239H11.9066V8.36281C11.9066 4.67209 11.9115 4.70368 11.3373 4.70368C10.7631 4.70368 10.7681 4.67209 10.7681 8.36281V11.7239H9.67701C8.82066 11.7239 8.58594 11.6962 8.58594 11.595C8.58594 11.3884 7.86185 10.6236 7.50673 10.4551C7.07438 10.25 6.26158 10.2619 5.78037 10.4804C5.30457 10.6965 4.82013 11.2664 4.68389 11.7704C4.2746 13.2844 5.70124 14.7077 7.20587 14.2865C7.709 14.1457 8.32285 13.6479 8.48945 13.2456L8.60899 12.9572H9.68583H10.7628L10.7891 14.2581L10.8155 15.5591L11.0764 15.7048C11.3111 15.836 11.3635 15.836 11.5982 15.7048L11.8591 15.5591L11.8855 14.2581L11.9119 12.9572H12.6713C13.3078 12.9572 13.4404 12.984 13.4918 13.1232C13.7309 13.7722 14.6379 14.3783 15.3695 14.3783C16.1067 14.3783 17.0234 13.7665 17.2501 13.1232C17.3042 12.9693 17.5546 12.9572 20.6796 12.9572H24.0507V15.9073V18.8574L24.6604 19.489C25.1012 19.9455 25.2489 20.1598 25.193 20.2624C25.0199 20.5801 24.9905 21.1821 25.1286 21.5827L25.2686 21.9891L23.4751 23.7932C21.9427 25.3347 21.6503 25.5887 21.4667 25.5373C20.9384 25.3894 20.4705 25.3775 20.1133 25.5029L19.7338 25.6361L18.6339 24.5618L17.5341 23.4875H15.4409H13.3477L13.1015 23.0673C12.9556 22.8184 12.6619 22.5219 12.381 22.3398L11.9066 22.0325V21.162C11.9066 20.439 11.8772 20.2647 11.7331 20.1344C11.5156 19.9376 11.2513 19.9343 10.979 20.1251C10.7857 20.2603 10.7681 20.3495 10.7681 21.1924V22.1122L10.3471 22.3355C9.94769 22.5473 9.43982 23.1287 9.43982 23.374C9.43982 23.4588 8.8772 23.4875 7.21024 23.4875C5.10713 23.4875 4.96994 23.4982 4.79091 23.6772C4.54224 23.9258 4.54983 24.2861 4.80884 24.5273C5.00542 24.7105 5.13351 24.7207 7.22172 24.7207C9.42644 24.7207 9.42701 24.7208 9.49133 24.9342C9.58792 25.2549 10.1031 25.765 10.5309 25.9635C11.4669 26.3978 12.6936 25.9602 13.1807 25.0183L13.3346 24.7207H15.2078H17.0811L17.9677 25.6111L18.8544 26.5014L18.7376 26.8554C18.6231 27.2022 18.6469 27.9257 18.7836 28.2541C18.8369 28.3822 18.5621 28.7099 17.5711 29.7008L16.2898 30.982H15.7727C15.257 30.982 15.2548 30.9808 14.9701 30.5227C14.4629 29.707 13.3642 29.3442 12.4965 29.7061C12.0664 29.8855 11.5791 30.3428 11.4271 30.7098L11.3143 30.982H9.96163H8.60899L8.49144 30.6984C8.32825 30.3044 7.72133 29.781 7.28813 29.6607C6.72514 29.5043 6.30484 29.5407 5.76433 29.7923C4.62564 30.3224 4.25543 31.8058 5.01159 32.8085C5.76557 33.8082 7.18377 33.9205 8.08148 33.0518C8.24761 32.8911 8.43423 32.6371 8.49618 32.4874L8.60899 32.2153H9.96287C11.2872 32.2153 11.318 32.2199 11.3723 32.4287C11.4511 32.7317 11.9457 33.2265 12.4026 33.4596C12.7107 33.6168 12.9177 33.6503 13.3911 33.6203C14.1182 33.574 14.683 33.2253 15.0209 32.6143L15.2415 32.2153H16.0103H16.7793L18.2694 30.7357C19.6775 29.3377 19.7718 29.2626 19.9793 29.3737C20.2635 29.5258 21.1031 29.525 21.3881 29.3725C21.5989 29.2597 21.6888 29.3326 23.1802 30.8238C24.6982 32.3416 24.7466 32.4021 24.6377 32.641C24.4854 32.9753 24.4954 33.7631 24.6567 34.1493C25.0236 35.0271 26.0847 35.5619 27.0207 35.3407C27.9235 35.1273 28.6066 34.228 28.602 33.2588C28.5963 32.0392 27.2033 31.0273 26.0296 31.3903L25.5893 31.5264L24.0498 29.985L22.5104 28.4435L22.6282 28.0864C22.7391 27.7504 22.7165 26.9459 22.5869 26.6181C22.5486 26.5211 23.1023 25.9048 24.3235 24.685L26.1164 22.8942L26.6016 23.0106C26.9849 23.1025 27.1887 23.1025 27.5723 23.0105L28.0579 22.894L29.7666 24.6024L31.4753 26.311L31.3588 26.7966C30.8325 28.9903 33.7634 30.2785 35.0189 28.4054C35.5251 27.6501 35.5141 26.8539 34.9871 26.1033C34.6066 25.5614 34.0216 25.2584 33.356 25.2584C33.0644 25.2584 32.7344 25.3073 32.6225 25.3672C32.436 25.467 32.2747 25.3307 30.6677 23.7162L28.9162 21.9565L29.0409 21.6073C29.1982 21.1668 29.1983 20.8754 29.0416 20.4365L28.9175 20.0892L30.3514 18.6577L31.7852 17.2262H33.3628C34.7288 17.2262 34.9661 17.2039 35.1323 17.0602C35.43 16.8029 35.4661 16.5314 35.2408 16.245L35.0425 15.9929H33.1635H31.2846L29.6712 17.6076C28.1292 19.1508 28.0465 19.2179 27.8033 19.1254C27.4801 19.0026 26.6989 19.0004 26.3804 19.1216C26.1597 19.2054 26.0909 19.1668 25.6637 18.7184L25.1912 18.2223L25.1901 15.1301C25.1893 12.2556 25.1769 12.0268 25.0156 11.8809C24.8603 11.7404 24.4479 11.7239 21.0848 11.7239C17.4563 11.7239 17.3253 11.7176 17.2691 11.5408C17.2231 11.3958 17.6346 10.9326 19.2495 9.3114L21.288 7.2651H22.322C23.306 7.2651 23.3608 7.27554 23.4545 7.48111C23.9474 8.56298 25.2871 9.0081 26.3344 8.43814C26.7501 8.21188 27.2764 7.61061 27.2764 7.36196C27.2764 7.30144 27.701 7.2651 28.4078 7.2651H29.5392L29.7598 7.66411C29.8812 7.88354 30.1655 8.193 30.3918 8.3519C30.7653 8.61412 30.8716 8.64068 31.5458 8.64068C32.2179 8.64068 32.3271 8.61355 32.6936 8.35598C32.9223 8.19528 33.184 7.89777 33.2947 7.67265L33.4908 7.27392L34.2666 7.26956C34.9909 7.26539 35.0557 7.24831 35.2408 7.01304C35.4661 6.72663 35.43 6.45512 35.1323 6.19784C34.985 6.07043 34.7689 6.03182 34.2034 6.03182C33.4814 6.03182 33.464 6.02623 33.3536 5.75965C33.1083 5.16729 32.2349 4.60786 31.5576 4.60938C30.8575 4.6108 30.0143 5.13134 29.6872 5.76382L29.5486 6.03182L28.4362 6.03106L27.3239 6.0304L27.1103 5.65634C26.6445 4.84057 25.6655 4.4389 24.7873 4.7033ZM24.814 6.10772C24.6154 6.30637 24.525 6.48927 24.525 6.69296C24.525 7.3889 25.515 7.74684 25.9413 7.20486C26.3557 6.67806 26.0995 5.97822 25.4544 5.87491C25.1507 5.82634 25.0639 5.85784 24.814 6.10772ZM30.9693 6.11939C30.6602 6.42846 30.6249 6.67047 30.8308 7.06854C30.9886 7.37391 31.1488 7.45616 31.5773 7.4518C32.1767 7.44582 32.5364 6.85584 32.2629 6.32715C31.9745 5.76932 31.41 5.67873 30.9693 6.11939ZM6.06746 11.767C5.74099 12.0934 5.75798 12.5157 6.11186 12.8696C6.65787 13.4156 7.44743 13.0871 7.44743 12.314C7.44743 11.5886 6.58691 11.2475 6.06746 11.767ZM14.796 11.767C14.4531 12.1099 14.4778 12.5839 14.855 12.9013C15.1877 13.1811 15.4066 13.2062 15.7897 13.0081C16.2299 12.7805 16.3176 12.2142 15.9793 11.7841C15.7099 11.4416 15.1298 11.4332 14.796 11.767ZM11.1502 17.3382C10.8626 17.4452 10.7714 17.5794 10.7695 17.8993C10.7667 18.3912 11.4207 18.6493 11.7496 18.286C12.0294 17.9767 11.9056 17.4276 11.5271 17.2993C11.4488 17.2729 11.2793 17.2903 11.1502 17.3382ZM26.7471 20.3017C26.19 20.5443 26.1028 21.3047 26.5883 21.6865C27.2775 22.2285 28.2116 21.4407 27.8072 20.6586C27.7235 20.4969 27.5336 20.3327 27.36 20.2722C27.1941 20.2144 27.0541 20.1688 27.0488 20.1708C27.0435 20.1729 26.9078 20.2318 26.7471 20.3017ZM10.8019 23.5226C10.2545 23.9933 10.6167 24.9105 11.3499 24.9105C11.709 24.9105 12.1912 24.4566 12.1912 24.1187C12.1912 23.9883 12.0807 23.7501 11.9456 23.5896C11.6346 23.2199 11.1844 23.1936 10.8019 23.5226ZM32.9584 26.5707C32.822 26.6447 32.6543 26.8412 32.5854 27.0073C32.4752 27.2735 32.4821 27.3493 32.6435 27.6451C32.8703 28.0608 33.2401 28.2039 33.6496 28.0343C34.262 27.7806 34.3072 26.8702 33.7224 26.5678C33.3928 26.3973 33.2764 26.3978 32.9584 26.5707ZM20.1681 26.8637C19.5866 27.3529 19.9195 28.2498 20.6826 28.2498C21.5392 28.2498 21.805 27.1334 21.0446 26.7284C20.7257 26.5586 20.4869 26.5954 20.1681 26.8637ZM6.08017 31.0842C5.80029 31.4168 5.77524 31.6357 5.97334 32.0187C6.34421 32.7358 7.44743 32.4214 7.44743 31.5986C7.44743 30.8371 6.56689 30.5058 6.08017 31.0842ZM12.7089 31.0089C12.1801 31.4637 12.5088 32.405 13.1962 32.405C13.6343 32.405 13.792 32.3242 13.9499 32.0187C14.1558 31.6206 14.1205 31.3786 13.8114 31.0696C13.469 30.7272 13.0625 30.7049 12.7089 31.0089ZM26.1854 32.6106C25.8801 32.7919 25.7647 32.9984 25.7615 33.369C25.7574 33.8401 26.217 34.2521 26.6533 34.1686C27.0261 34.0972 27.3713 33.7054 27.3713 33.3537C27.3713 32.7985 26.6401 32.3404 26.1854 32.6106Z" fill="white"/>
</g>
</svg>
