<svg width="40" height="40" viewBox="0 0 40 40" fill="none" xmlns="http://www.w3.org/2000/svg">
<g id="Frame 110" clip-path="url(#clip0_177_8311)">
<path id="Vector" fill-rule="evenodd" clip-rule="evenodd" d="M0.617583 11.9767C0.51469 11.9954 0.354355 12.1018 0.261189 12.2134C0.0950673 12.4121 0.0917969 12.5182 0.0917969 17.6968V22.9776L0.30144 23.1749C0.48534 23.348 0.511503 23.442 0.514774 23.9408C0.521566 25.0053 0.697248 25.4422 1.25121 25.7722C1.39695 25.859 1.54069 26.0189 1.57071 26.1274C1.84467 27.1187 2.74848 27.8263 3.86186 27.9213C4.9915 28.0177 6.16006 27.339 6.5089 26.384C6.65708 25.9785 6.86538 25.994 7.04073 26.4237C7.24786 26.9311 7.73943 27.4264 8.28718 27.6796C8.69742 27.8691 8.8731 27.9029 9.4419 27.9017C10.0037 27.9005 10.1908 27.8644 10.5928 27.6799C11.1519 27.4232 11.5845 26.9819 11.8354 26.4125C11.9783 26.0879 12.0811 25.9771 12.357 25.8508C12.5722 25.7523 12.7888 25.5625 12.937 25.3426C13.157 25.0161 13.1736 24.9349 13.1736 24.1783V23.3651H14.8397H16.5059L16.5449 24.174C16.5965 25.2452 16.8214 25.6384 17.545 25.923C17.7622 26.0084 17.8608 26.1038 17.8955 26.2622C17.9725 26.6135 18.4179 27.205 18.8036 27.4679C19.8635 28.1905 21.4044 28.045 22.2682 27.1408C22.471 26.9285 22.6898 26.6048 22.7545 26.4214C22.9014 26.0052 23.1864 25.9154 23.2622 26.2614C23.3393 26.6134 23.7845 27.2048 24.1705 27.4679C25.6105 28.4496 27.7136 27.7841 28.2189 26.1866C28.2591 26.0597 28.4366 26.0485 30.3923 26.0485H32.5218L32.6731 26.4211C32.8751 26.9191 33.4568 27.4889 33.9942 27.7151C34.6527 27.9923 35.6048 27.9775 36.2531 27.6799C36.8185 27.4204 37.2748 26.9512 37.4733 26.4252L37.6154 26.0485H38.3601C39.2754 26.0485 39.665 25.8814 39.9241 25.3776C40.0809 25.0727 40.0918 24.8903 40.0918 22.5641V20.0766L39.7667 19.4913L39.4417 18.9059L39.256 16.8934C39.0465 14.6224 38.9523 14.3039 38.4136 14.0437C37.9804 13.8344 30.5118 13.0616 30.051 13.1784C29.6608 13.2772 29.3005 13.6116 29.1887 13.9786C29.1396 14.1397 29.1065 15.9419 29.1065 18.4515C29.1065 22.1351 29.091 22.6548 28.9807 22.6548C28.8702 22.6548 28.8549 22.0405 28.8549 17.5997C28.8549 12.0323 28.8686 12.1815 28.3418 12.0086C28.1503 11.9459 24.2299 11.9242 14.4399 11.9319C6.94043 11.9378 0.720392 11.958 0.617583 11.9767ZM0.930371 17.6826V22.6548H14.4733H28.0163V17.6826V12.7104H14.4733H0.930371V17.6826ZM2.10438 17.4853V21.6288H2.64945H3.19452V17.4853V13.3418H2.64945H2.10438V17.4853ZM5.37482 17.4853V21.6288H5.87796H6.3811V17.4853V13.3418H5.87796H5.37482V17.4853ZM8.5614 17.4853V21.6363L9.08551 21.6128L9.60962 21.5893V17.4853V13.3813L9.08551 13.3577L8.5614 13.3343V17.4853ZM11.8318 17.4853V21.6288H12.335H12.8381V17.4853V13.3418H12.335H11.8318V17.4853ZM15.0184 17.4853V21.6288H15.5216H16.0247V17.4853V13.3418H15.5216H15.0184V17.4853ZM18.205 17.4853V21.6288H18.7501H19.2952V17.4853V13.3418H18.7501H18.205V17.4853ZM21.4754 17.4853V21.6288H21.9786H22.4817V17.4853V13.3418H21.9786H21.4754V17.4853ZM24.662 17.4853V21.6288H25.2071H25.7522V17.4853V13.3418H25.2071H24.662V17.4853ZM30.1337 13.9355L29.945 14.061V19.569C29.945 24.8048 29.9526 25.0834 30.0984 25.2075C30.2254 25.3157 30.4491 25.3382 31.3982 25.3382C32.5391 25.3382 32.5446 25.3373 32.5446 25.1563C32.5446 24.8672 32.9475 24.1842 33.2802 23.9093C34.3722 23.0069 35.9775 23.044 36.9674 23.9945C37.2711 24.286 37.6599 24.9978 37.6599 25.2622C37.6599 25.3504 38.9141 25.3644 39.052 25.2778C39.308 25.1168 39.3371 24.8428 39.3371 22.5942V20.3134L39.0016 19.7142C38.8172 19.3846 38.6662 19.0591 38.6662 18.9907C38.6662 18.8799 38.3423 18.8664 35.6893 18.8664C32.8241 18.8664 32.7061 18.8605 32.5446 18.7086C32.3879 18.5611 32.3769 18.4455 32.3769 16.945C32.3769 15.4897 32.3913 15.3271 32.5303 15.2087C32.6665 15.0927 32.9946 15.0781 35.4653 15.0781C37.7395 15.0781 38.2469 15.0588 38.2469 14.972C38.2469 14.6263 37.8325 14.5591 32.5866 14.0552C31.6641 13.9666 30.7773 13.8752 30.6159 13.852C30.4213 13.824 30.2588 13.8521 30.1337 13.9355ZM33.1316 16.9723V18.1561H35.8554H38.5792L38.5381 17.8207C38.4685 17.2529 38.3308 15.9572 38.3308 15.8704C38.3308 15.8155 37.4741 15.7884 35.7312 15.7884H33.1316V16.9723ZM1.34966 24.0998C1.34966 24.5812 1.38756 24.8832 1.4596 24.976C1.5593 25.1042 1.57934 25.0867 1.67419 24.7888C1.7988 24.3975 2.25565 23.8974 2.77071 23.5886L3.14354 23.3651H2.2466H1.34966V24.0998ZM5.40567 23.6033C5.62521 23.7344 5.89901 23.9385 6.01414 24.0571C6.25691 24.3073 6.63066 24.9987 6.63184 25.2C6.63234 25.276 6.68928 25.3382 6.75846 25.3382C6.82765 25.3382 6.88458 25.276 6.88509 25.2C6.88777 24.7429 7.56031 23.9058 8.22597 23.5309L8.51947 23.3656L6.76299 23.3654L5.00651 23.3651L5.40567 23.6033ZM10.7814 23.6085C11.4074 23.9822 11.7219 24.3687 11.9473 25.0408C12.0193 25.2556 12.2388 25.1194 12.3398 24.7973C12.3894 24.639 12.4181 24.2608 12.4035 23.957L12.3769 23.4045L11.3707 23.3821L10.3645 23.3597L10.7814 23.6085ZM17.3664 24.1104C17.3664 24.7849 17.3857 24.8768 17.569 25.0772L17.7717 25.2987L17.8325 25.0619C17.9821 24.4799 18.4731 23.8994 19.1274 23.5309L19.4209 23.3656L18.3937 23.3654L17.3664 23.3651V24.1104ZM21.3916 23.3913C21.3916 23.4056 21.5845 23.5351 21.8204 23.6789C22.2968 23.9695 22.692 24.4872 22.8307 25.0027C22.8803 25.1872 22.9662 25.3382 23.0214 25.3382C23.0767 25.3382 23.1884 25.1399 23.2695 24.8976C23.437 24.3974 23.8497 23.922 24.4059 23.5886L24.7788 23.3651H23.0852C22.1537 23.3651 21.3916 23.3768 21.3916 23.3913ZM26.8723 23.4684C27.489 23.8407 27.7706 24.1111 28.0089 24.5597C28.1513 24.8281 28.2679 25.1131 28.2679 25.1929C28.2679 25.3168 28.3374 25.3382 28.7396 25.3382H29.2113L29.1589 25.0915C29.13 24.9558 29.1065 24.5119 29.1065 24.105V23.3651L27.9115 23.3697C26.9544 23.3734 26.7476 23.3931 26.8723 23.4684ZM3.31955 24.1436C2.08786 24.6703 1.95402 26.2432 3.08358 26.9174C4.21087 27.5902 5.63964 27.0055 5.85004 25.7851C6.00408 24.892 5.11704 23.9999 4.07503 23.9999C3.84442 23.9999 3.50446 24.0646 3.31955 24.1436ZM8.78253 24.1121C8.11276 24.3368 7.69834 24.8928 7.6923 25.5749C7.68542 26.3486 8.18748 26.9524 9.01104 27.1611C9.64785 27.3224 10.5231 27.0326 10.8989 26.5358C11.8839 25.234 10.4235 23.5615 8.78253 24.1121ZM19.5827 24.1459C18.9331 24.4236 18.4534 25.2403 18.5865 25.8423C18.8365 26.9737 20.198 27.5516 21.2467 26.9715C22.2163 26.435 22.4211 25.3445 21.6979 24.5692C21.1868 24.0214 20.2926 23.8424 19.5827 24.1459ZM25.0863 24.0991C24.6507 24.2299 24.1096 24.7612 23.9925 25.1731C23.662 26.3364 24.8961 27.4766 26.1435 27.1605C27.1543 26.9043 27.7426 25.9263 27.3975 25.0758C27.0594 24.2427 26.0414 23.8125 25.0863 24.0991ZM34.4419 24.1124C33.719 24.3549 33.2295 25.0937 33.3308 25.7894C33.5461 27.2675 35.6579 27.7188 36.5602 26.4795C37.5056 25.1809 36.0627 23.5686 34.4419 24.1124Z" fill="white"/>
</g>
<defs>
<clipPath id="clip0_177_8311">
<rect width="40" height="40" fill="white"/>
</clipPath>
</defs>
</svg>
