<svg width="40" height="40" viewBox="0 0 40 40" fill="none" xmlns="http://www.w3.org/2000/svg">
<g id="icon02">
<g id="Vector">
<mask id="path-1-outside-1_177_8284" maskUnits="userSpaceOnUse" x="3.21875" y="7.35938" width="33" height="25" fill="black">
<rect fill="white" x="3.21875" y="7.35938" width="33" height="25"/>
<path fill-rule="evenodd" clip-rule="evenodd" d="M5.73781 8.50444C5.19662 8.69691 4.73062 9.12093 4.45791 9.66904L4.21896 10.1493V13.1618C4.21896 15.3817 4.24811 16.2036 4.32967 16.2853C4.50505 16.4609 4.93784 16.42 5.04605 16.2175C5.09855 16.1192 5.14154 15.5578 5.14154 14.9701V13.9014H19.9951H34.8487V20.0856C34.8487 25.5843 34.8647 26.2858 34.9936 26.4149C35.1869 26.6084 35.4313 26.5984 35.6205 26.389C35.7633 26.2311 35.7733 25.5899 35.7502 18.1423L35.7251 10.0668L35.5257 9.69722C35.2605 9.20603 34.8034 8.77961 34.2951 8.54953C33.9522 8.39421 33.6859 8.36113 32.7641 8.35947C31.7986 8.35771 31.6277 8.38016 31.4956 8.52643C31.2927 8.75096 31.3029 8.96422 31.5274 9.18903C31.6908 9.35267 31.8349 9.37383 32.7851 9.37383C33.7229 9.37383 33.8988 9.39896 34.1798 9.57295C34.7088 9.90032 34.8443 10.3339 34.8467 11.7069L34.8487 12.885H19.9951H5.14154L5.14173 11.6607C5.14182 10.2696 5.2422 9.94199 5.77794 9.58357L6.09143 9.37383H17.9585C28.5499 9.37383 29.8477 9.3584 30.0307 9.22996C30.2939 9.04535 30.3096 8.58825 30.0574 8.45307C29.9368 8.38848 26.0239 8.35984 17.9946 8.36473C7.92405 8.37092 6.05342 8.39227 5.73781 8.50444ZM6.91668 9.92776C6.0465 10.4591 6.01458 11.7507 6.85727 12.3252C7.74018 12.9272 8.89415 12.3459 8.98825 11.2518C9.08641 10.1114 7.8794 9.33982 6.91668 9.92776ZM10.5386 9.91538C10.1406 10.1616 9.9696 10.3858 9.85714 10.809C9.58534 11.8319 10.5847 12.8302 11.5647 12.5148C12.0121 12.3708 12.2176 12.1928 12.4397 11.7568C12.6583 11.328 12.658 11.0034 12.4388 10.52C12.1186 9.81374 11.1837 9.51621 10.5386 9.91538ZM14.0264 9.95132C13.4107 10.3893 13.2203 11.2291 13.59 11.8758C13.8274 12.2911 14.5273 12.6505 14.9447 12.5715C15.6295 12.4419 16.2046 11.7893 16.2105 11.1355C16.2138 10.7688 15.8529 10.1339 15.5262 9.93173C15.1009 9.6684 14.4114 9.67745 14.0264 9.95132ZM7.31662 10.8445C6.91576 11.2881 7.51728 11.8402 7.9401 11.4168C8.12527 11.2313 8.12923 11.2009 7.99786 10.9658C7.82266 10.6522 7.53647 10.6012 7.31662 10.8445ZM10.9093 10.8177C10.6769 11.0503 10.7663 11.4322 11.0788 11.5416C11.3041 11.6206 11.3668 11.6035 11.5124 11.4233C11.6938 11.199 11.6648 10.9719 11.4307 10.7829C11.2382 10.6276 11.0891 10.6376 10.9093 10.8177ZM14.5288 10.7672C14.3434 10.8754 14.3121 11.3143 14.4781 11.4805C14.539 11.5415 14.676 11.5914 14.7825 11.5914C14.8891 11.5914 15.0261 11.5415 15.087 11.4805C15.2624 11.3049 15.2215 10.8714 15.0193 10.7631C14.8012 10.6462 14.7353 10.6467 14.5288 10.7672ZM24.225 16.4874C23.2414 17.0161 23.2494 18.4662 24.239 19.0003C24.5302 19.1574 24.7447 19.1719 26.4237 19.1483C28.1497 19.1239 28.3044 19.1078 28.5456 18.9275C29.346 18.3293 29.346 17.1427 28.5456 16.5445C28.3038 16.3637 28.1536 16.3484 26.4237 16.3282C24.726 16.3082 24.5322 16.3223 24.225 16.4874ZM15.2725 17.1123C15.1964 17.2013 14.9857 17.6898 14.8042 18.198C14.6226 18.7062 14.0944 20.1407 13.6302 21.3857C11.9229 25.9656 11.852 26.1732 11.9129 26.4161C12.0337 26.8979 12.6908 26.7802 12.8543 26.2476C12.8874 26.14 13.3 25.0124 13.7714 23.7419C15.8285 18.1964 16.1203 17.3989 16.1203 17.3222C16.1203 17.1671 15.8291 16.9506 15.6206 16.9506C15.5052 16.9506 15.3485 17.0233 15.2725 17.1123ZM24.5095 17.5166C24.4333 17.6593 24.4319 17.7733 24.5043 17.9324C24.6041 18.1517 24.6049 18.1518 26.2944 18.1518C28.0681 18.1518 28.2061 18.1217 28.2061 17.736C28.2061 17.3503 28.0678 17.3202 26.2996 17.3202C24.6756 17.3202 24.6107 17.3273 24.5095 17.5166ZM4.38041 17.6048C4.2292 17.693 4.21896 18.0861 4.21896 23.7815C4.21896 30.5335 4.18907 30.1921 4.84382 30.9194C5.5508 31.7047 4.15309 31.6377 19.8922 31.64C30.633 31.6416 33.9463 31.616 34.2383 31.5292C34.7583 31.3745 35.4213 30.6974 35.6175 30.1209C35.8429 29.4583 35.8335 27.9386 35.6025 27.7294C35.4127 27.5573 35.2369 27.538 35.0332 27.6669C34.9298 27.7323 34.8816 28.0099 34.8427 28.7662C34.795 29.6925 34.7686 29.8068 34.5307 30.1192C34.0423 30.7606 35.0768 30.7181 19.9483 30.7181C6.29311 30.7181 6.23988 30.7173 5.869 30.5278C5.60542 30.3932 5.44544 30.2246 5.32117 29.9503C5.15455 29.5829 5.14551 29.2634 5.14357 23.6869C5.14163 18.113 5.13287 17.803 4.9728 17.6579C4.7809 17.4839 4.61336 17.4689 4.38041 17.6048ZM9.19426 19.6995C7.47807 21.4466 7.25435 21.7148 7.33424 21.9298C7.4134 22.1428 9.95816 24.8447 10.2763 25.0534C10.4718 25.1818 10.5147 25.1809 10.7232 25.044C11.191 24.7371 11.0646 24.5024 9.68794 23.1209L8.42206 21.8506L9.73407 20.5253C10.5511 19.7 11.0461 19.1297 11.0461 19.0136C11.0461 18.7842 10.7705 18.5214 10.5301 18.5214C10.4233 18.5214 9.88601 18.9952 9.19426 19.6995ZM17.0613 18.6322C17.0004 18.6932 16.9512 18.8492 16.9517 18.9787C16.9529 19.2157 17.1291 19.4223 18.7818 21.1252L19.4705 21.8348L18.2106 23.1498C17.5176 23.873 16.9506 24.5412 16.9506 24.6347C16.9506 24.8245 17.2604 25.1741 17.4286 25.1741C17.5971 25.1741 20.5499 22.1974 20.6071 21.9699C20.6348 21.8593 20.6206 21.7026 20.5754 21.6217C20.5303 21.541 19.8338 20.8103 19.0276 19.9981C17.5728 18.5324 17.3297 18.3635 17.0613 18.6322ZM24.225 20.2771C23.2423 20.8014 23.2496 22.2597 24.2375 22.7854C24.5367 22.9446 24.8469 22.9565 28.6995 22.9565C32.7854 22.9565 32.8448 22.9539 33.1986 22.7547C33.6706 22.4891 33.9692 21.8954 33.8981 21.3643C33.8424 20.9489 33.6357 20.6212 33.2449 20.3289C32.9973 20.1437 32.8719 20.1378 28.7761 20.1178C24.7567 20.0983 24.5463 20.1056 24.225 20.2771ZM24.5095 21.305C24.4333 21.4476 24.4319 21.5617 24.5043 21.7208L24.6041 21.9401H28.7083C32.6779 21.9401 32.8157 21.9342 32.9084 21.7606C32.9762 21.6337 32.9729 21.5119 32.8969 21.3448L32.7894 21.1085H28.702C24.6279 21.1085 24.6142 21.1092 24.5095 21.305ZM24.2121 24.0736C23.2348 24.5902 23.2496 26.048 24.2375 26.5738C24.5315 26.7302 24.8164 26.7449 27.5603 26.7449C30.9131 26.7449 30.9768 26.7341 31.4203 26.0887C31.6004 25.8265 31.6298 25.6869 31.5988 25.2422C31.5562 24.633 31.3612 24.3101 30.88 24.0516C30.5883 23.8948 30.3098 23.8809 27.5618 23.8846C24.7437 23.8885 24.5407 23.8999 24.2121 24.0736ZM24.5095 25.0934C24.4333 25.236 24.4319 25.35 24.5043 25.5092L24.6041 25.7285H27.5399C30.6256 25.7285 30.6971 25.7191 30.6971 25.3127C30.6971 24.9063 30.6253 24.8969 27.5451 24.8969C24.6508 24.8969 24.6132 24.8993 24.5095 25.0934Z"/>
</mask>
<path fill-rule="evenodd" clip-rule="evenodd" d="M5.73781 8.50444C5.19662 8.69691 4.73062 9.12093 4.45791 9.66904L4.21896 10.1493V13.1618C4.21896 15.3817 4.24811 16.2036 4.32967 16.2853C4.50505 16.4609 4.93784 16.42 5.04605 16.2175C5.09855 16.1192 5.14154 15.5578 5.14154 14.9701V13.9014H19.9951H34.8487V20.0856C34.8487 25.5843 34.8647 26.2858 34.9936 26.4149C35.1869 26.6084 35.4313 26.5984 35.6205 26.389C35.7633 26.2311 35.7733 25.5899 35.7502 18.1423L35.7251 10.0668L35.5257 9.69722C35.2605 9.20603 34.8034 8.77961 34.2951 8.54953C33.9522 8.39421 33.6859 8.36113 32.7641 8.35947C31.7986 8.35771 31.6277 8.38016 31.4956 8.52643C31.2927 8.75096 31.3029 8.96422 31.5274 9.18903C31.6908 9.35267 31.8349 9.37383 32.7851 9.37383C33.7229 9.37383 33.8988 9.39896 34.1798 9.57295C34.7088 9.90032 34.8443 10.3339 34.8467 11.7069L34.8487 12.885H19.9951H5.14154L5.14173 11.6607C5.14182 10.2696 5.2422 9.94199 5.77794 9.58357L6.09143 9.37383H17.9585C28.5499 9.37383 29.8477 9.3584 30.0307 9.22996C30.2939 9.04535 30.3096 8.58825 30.0574 8.45307C29.9368 8.38848 26.0239 8.35984 17.9946 8.36473C7.92405 8.37092 6.05342 8.39227 5.73781 8.50444ZM6.91668 9.92776C6.0465 10.4591 6.01458 11.7507 6.85727 12.3252C7.74018 12.9272 8.89415 12.3459 8.98825 11.2518C9.08641 10.1114 7.8794 9.33982 6.91668 9.92776ZM10.5386 9.91538C10.1406 10.1616 9.9696 10.3858 9.85714 10.809C9.58534 11.8319 10.5847 12.8302 11.5647 12.5148C12.0121 12.3708 12.2176 12.1928 12.4397 11.7568C12.6583 11.328 12.658 11.0034 12.4388 10.52C12.1186 9.81374 11.1837 9.51621 10.5386 9.91538ZM14.0264 9.95132C13.4107 10.3893 13.2203 11.2291 13.59 11.8758C13.8274 12.2911 14.5273 12.6505 14.9447 12.5715C15.6295 12.4419 16.2046 11.7893 16.2105 11.1355C16.2138 10.7688 15.8529 10.1339 15.5262 9.93173C15.1009 9.6684 14.4114 9.67745 14.0264 9.95132ZM7.31662 10.8445C6.91576 11.2881 7.51728 11.8402 7.9401 11.4168C8.12527 11.2313 8.12923 11.2009 7.99786 10.9658C7.82266 10.6522 7.53647 10.6012 7.31662 10.8445ZM10.9093 10.8177C10.6769 11.0503 10.7663 11.4322 11.0788 11.5416C11.3041 11.6206 11.3668 11.6035 11.5124 11.4233C11.6938 11.199 11.6648 10.9719 11.4307 10.7829C11.2382 10.6276 11.0891 10.6376 10.9093 10.8177ZM14.5288 10.7672C14.3434 10.8754 14.3121 11.3143 14.4781 11.4805C14.539 11.5415 14.676 11.5914 14.7825 11.5914C14.8891 11.5914 15.0261 11.5415 15.087 11.4805C15.2624 11.3049 15.2215 10.8714 15.0193 10.7631C14.8012 10.6462 14.7353 10.6467 14.5288 10.7672ZM24.225 16.4874C23.2414 17.0161 23.2494 18.4662 24.239 19.0003C24.5302 19.1574 24.7447 19.1719 26.4237 19.1483C28.1497 19.1239 28.3044 19.1078 28.5456 18.9275C29.346 18.3293 29.346 17.1427 28.5456 16.5445C28.3038 16.3637 28.1536 16.3484 26.4237 16.3282C24.726 16.3082 24.5322 16.3223 24.225 16.4874ZM15.2725 17.1123C15.1964 17.2013 14.9857 17.6898 14.8042 18.198C14.6226 18.7062 14.0944 20.1407 13.6302 21.3857C11.9229 25.9656 11.852 26.1732 11.9129 26.4161C12.0337 26.8979 12.6908 26.7802 12.8543 26.2476C12.8874 26.14 13.3 25.0124 13.7714 23.7419C15.8285 18.1964 16.1203 17.3989 16.1203 17.3222C16.1203 17.1671 15.8291 16.9506 15.6206 16.9506C15.5052 16.9506 15.3485 17.0233 15.2725 17.1123ZM24.5095 17.5166C24.4333 17.6593 24.4319 17.7733 24.5043 17.9324C24.6041 18.1517 24.6049 18.1518 26.2944 18.1518C28.0681 18.1518 28.2061 18.1217 28.2061 17.736C28.2061 17.3503 28.0678 17.3202 26.2996 17.3202C24.6756 17.3202 24.6107 17.3273 24.5095 17.5166ZM4.38041 17.6048C4.2292 17.693 4.21896 18.0861 4.21896 23.7815C4.21896 30.5335 4.18907 30.1921 4.84382 30.9194C5.5508 31.7047 4.15309 31.6377 19.8922 31.64C30.633 31.6416 33.9463 31.616 34.2383 31.5292C34.7583 31.3745 35.4213 30.6974 35.6175 30.1209C35.8429 29.4583 35.8335 27.9386 35.6025 27.7294C35.4127 27.5573 35.2369 27.538 35.0332 27.6669C34.9298 27.7323 34.8816 28.0099 34.8427 28.7662C34.795 29.6925 34.7686 29.8068 34.5307 30.1192C34.0423 30.7606 35.0768 30.7181 19.9483 30.7181C6.29311 30.7181 6.23988 30.7173 5.869 30.5278C5.60542 30.3932 5.44544 30.2246 5.32117 29.9503C5.15455 29.5829 5.14551 29.2634 5.14357 23.6869C5.14163 18.113 5.13287 17.803 4.9728 17.6579C4.7809 17.4839 4.61336 17.4689 4.38041 17.6048ZM9.19426 19.6995C7.47807 21.4466 7.25435 21.7148 7.33424 21.9298C7.4134 22.1428 9.95816 24.8447 10.2763 25.0534C10.4718 25.1818 10.5147 25.1809 10.7232 25.044C11.191 24.7371 11.0646 24.5024 9.68794 23.1209L8.42206 21.8506L9.73407 20.5253C10.5511 19.7 11.0461 19.1297 11.0461 19.0136C11.0461 18.7842 10.7705 18.5214 10.5301 18.5214C10.4233 18.5214 9.88601 18.9952 9.19426 19.6995ZM17.0613 18.6322C17.0004 18.6932 16.9512 18.8492 16.9517 18.9787C16.9529 19.2157 17.1291 19.4223 18.7818 21.1252L19.4705 21.8348L18.2106 23.1498C17.5176 23.873 16.9506 24.5412 16.9506 24.6347C16.9506 24.8245 17.2604 25.1741 17.4286 25.1741C17.5971 25.1741 20.5499 22.1974 20.6071 21.9699C20.6348 21.8593 20.6206 21.7026 20.5754 21.6217C20.5303 21.541 19.8338 20.8103 19.0276 19.9981C17.5728 18.5324 17.3297 18.3635 17.0613 18.6322ZM24.225 20.2771C23.2423 20.8014 23.2496 22.2597 24.2375 22.7854C24.5367 22.9446 24.8469 22.9565 28.6995 22.9565C32.7854 22.9565 32.8448 22.9539 33.1986 22.7547C33.6706 22.4891 33.9692 21.8954 33.8981 21.3643C33.8424 20.9489 33.6357 20.6212 33.2449 20.3289C32.9973 20.1437 32.8719 20.1378 28.7761 20.1178C24.7567 20.0983 24.5463 20.1056 24.225 20.2771ZM24.5095 21.305C24.4333 21.4476 24.4319 21.5617 24.5043 21.7208L24.6041 21.9401H28.7083C32.6779 21.9401 32.8157 21.9342 32.9084 21.7606C32.9762 21.6337 32.9729 21.5119 32.8969 21.3448L32.7894 21.1085H28.702C24.6279 21.1085 24.6142 21.1092 24.5095 21.305ZM24.2121 24.0736C23.2348 24.5902 23.2496 26.048 24.2375 26.5738C24.5315 26.7302 24.8164 26.7449 27.5603 26.7449C30.9131 26.7449 30.9768 26.7341 31.4203 26.0887C31.6004 25.8265 31.6298 25.6869 31.5988 25.2422C31.5562 24.633 31.3612 24.3101 30.88 24.0516C30.5883 23.8948 30.3098 23.8809 27.5618 23.8846C24.7437 23.8885 24.5407 23.8999 24.2121 24.0736ZM24.5095 25.0934C24.4333 25.236 24.4319 25.35 24.5043 25.5092L24.6041 25.7285H27.5399C30.6256 25.7285 30.6971 25.7191 30.6971 25.3127C30.6971 24.9063 30.6253 24.8969 27.5451 24.8969C24.6508 24.8969 24.6132 24.8993 24.5095 25.0934Z" fill="white"/>
<path fill-rule="evenodd" clip-rule="evenodd" d="M5.73781 8.50444C5.19662 8.69691 4.73062 9.12093 4.45791 9.66904L4.21896 10.1493V13.1618C4.21896 15.3817 4.24811 16.2036 4.32967 16.2853C4.50505 16.4609 4.93784 16.42 5.04605 16.2175C5.09855 16.1192 5.14154 15.5578 5.14154 14.9701V13.9014H19.9951H34.8487V20.0856C34.8487 25.5843 34.8647 26.2858 34.9936 26.4149C35.1869 26.6084 35.4313 26.5984 35.6205 26.389C35.7633 26.2311 35.7733 25.5899 35.7502 18.1423L35.7251 10.0668L35.5257 9.69722C35.2605 9.20603 34.8034 8.77961 34.2951 8.54953C33.9522 8.39421 33.6859 8.36113 32.7641 8.35947C31.7986 8.35771 31.6277 8.38016 31.4956 8.52643C31.2927 8.75096 31.3029 8.96422 31.5274 9.18903C31.6908 9.35267 31.8349 9.37383 32.7851 9.37383C33.7229 9.37383 33.8988 9.39896 34.1798 9.57295C34.7088 9.90032 34.8443 10.3339 34.8467 11.7069L34.8487 12.885H19.9951H5.14154L5.14173 11.6607C5.14182 10.2696 5.2422 9.94199 5.77794 9.58357L6.09143 9.37383H17.9585C28.5499 9.37383 29.8477 9.3584 30.0307 9.22996C30.2939 9.04535 30.3096 8.58825 30.0574 8.45307C29.9368 8.38848 26.0239 8.35984 17.9946 8.36473C7.92405 8.37092 6.05342 8.39227 5.73781 8.50444ZM6.91668 9.92776C6.0465 10.4591 6.01458 11.7507 6.85727 12.3252C7.74018 12.9272 8.89415 12.3459 8.98825 11.2518C9.08641 10.1114 7.8794 9.33982 6.91668 9.92776ZM10.5386 9.91538C10.1406 10.1616 9.9696 10.3858 9.85714 10.809C9.58534 11.8319 10.5847 12.8302 11.5647 12.5148C12.0121 12.3708 12.2176 12.1928 12.4397 11.7568C12.6583 11.328 12.658 11.0034 12.4388 10.52C12.1186 9.81374 11.1837 9.51621 10.5386 9.91538ZM14.0264 9.95132C13.4107 10.3893 13.2203 11.2291 13.59 11.8758C13.8274 12.2911 14.5273 12.6505 14.9447 12.5715C15.6295 12.4419 16.2046 11.7893 16.2105 11.1355C16.2138 10.7688 15.8529 10.1339 15.5262 9.93173C15.1009 9.6684 14.4114 9.67745 14.0264 9.95132ZM7.31662 10.8445C6.91576 11.2881 7.51728 11.8402 7.9401 11.4168C8.12527 11.2313 8.12923 11.2009 7.99786 10.9658C7.82266 10.6522 7.53647 10.6012 7.31662 10.8445ZM10.9093 10.8177C10.6769 11.0503 10.7663 11.4322 11.0788 11.5416C11.3041 11.6206 11.3668 11.6035 11.5124 11.4233C11.6938 11.199 11.6648 10.9719 11.4307 10.7829C11.2382 10.6276 11.0891 10.6376 10.9093 10.8177ZM14.5288 10.7672C14.3434 10.8754 14.3121 11.3143 14.4781 11.4805C14.539 11.5415 14.676 11.5914 14.7825 11.5914C14.8891 11.5914 15.0261 11.5415 15.087 11.4805C15.2624 11.3049 15.2215 10.8714 15.0193 10.7631C14.8012 10.6462 14.7353 10.6467 14.5288 10.7672ZM24.225 16.4874C23.2414 17.0161 23.2494 18.4662 24.239 19.0003C24.5302 19.1574 24.7447 19.1719 26.4237 19.1483C28.1497 19.1239 28.3044 19.1078 28.5456 18.9275C29.346 18.3293 29.346 17.1427 28.5456 16.5445C28.3038 16.3637 28.1536 16.3484 26.4237 16.3282C24.726 16.3082 24.5322 16.3223 24.225 16.4874ZM15.2725 17.1123C15.1964 17.2013 14.9857 17.6898 14.8042 18.198C14.6226 18.7062 14.0944 20.1407 13.6302 21.3857C11.9229 25.9656 11.852 26.1732 11.9129 26.4161C12.0337 26.8979 12.6908 26.7802 12.8543 26.2476C12.8874 26.14 13.3 25.0124 13.7714 23.7419C15.8285 18.1964 16.1203 17.3989 16.1203 17.3222C16.1203 17.1671 15.8291 16.9506 15.6206 16.9506C15.5052 16.9506 15.3485 17.0233 15.2725 17.1123ZM24.5095 17.5166C24.4333 17.6593 24.4319 17.7733 24.5043 17.9324C24.6041 18.1517 24.6049 18.1518 26.2944 18.1518C28.0681 18.1518 28.2061 18.1217 28.2061 17.736C28.2061 17.3503 28.0678 17.3202 26.2996 17.3202C24.6756 17.3202 24.6107 17.3273 24.5095 17.5166ZM4.38041 17.6048C4.2292 17.693 4.21896 18.0861 4.21896 23.7815C4.21896 30.5335 4.18907 30.1921 4.84382 30.9194C5.5508 31.7047 4.15309 31.6377 19.8922 31.64C30.633 31.6416 33.9463 31.616 34.2383 31.5292C34.7583 31.3745 35.4213 30.6974 35.6175 30.1209C35.8429 29.4583 35.8335 27.9386 35.6025 27.7294C35.4127 27.5573 35.2369 27.538 35.0332 27.6669C34.9298 27.7323 34.8816 28.0099 34.8427 28.7662C34.795 29.6925 34.7686 29.8068 34.5307 30.1192C34.0423 30.7606 35.0768 30.7181 19.9483 30.7181C6.29311 30.7181 6.23988 30.7173 5.869 30.5278C5.60542 30.3932 5.44544 30.2246 5.32117 29.9503C5.15455 29.5829 5.14551 29.2634 5.14357 23.6869C5.14163 18.113 5.13287 17.803 4.9728 17.6579C4.7809 17.4839 4.61336 17.4689 4.38041 17.6048ZM9.19426 19.6995C7.47807 21.4466 7.25435 21.7148 7.33424 21.9298C7.4134 22.1428 9.95816 24.8447 10.2763 25.0534C10.4718 25.1818 10.5147 25.1809 10.7232 25.044C11.191 24.7371 11.0646 24.5024 9.68794 23.1209L8.42206 21.8506L9.73407 20.5253C10.5511 19.7 11.0461 19.1297 11.0461 19.0136C11.0461 18.7842 10.7705 18.5214 10.5301 18.5214C10.4233 18.5214 9.88601 18.9952 9.19426 19.6995ZM17.0613 18.6322C17.0004 18.6932 16.9512 18.8492 16.9517 18.9787C16.9529 19.2157 17.1291 19.4223 18.7818 21.1252L19.4705 21.8348L18.2106 23.1498C17.5176 23.873 16.9506 24.5412 16.9506 24.6347C16.9506 24.8245 17.2604 25.1741 17.4286 25.1741C17.5971 25.1741 20.5499 22.1974 20.6071 21.9699C20.6348 21.8593 20.6206 21.7026 20.5754 21.6217C20.5303 21.541 19.8338 20.8103 19.0276 19.9981C17.5728 18.5324 17.3297 18.3635 17.0613 18.6322ZM24.225 20.2771C23.2423 20.8014 23.2496 22.2597 24.2375 22.7854C24.5367 22.9446 24.8469 22.9565 28.6995 22.9565C32.7854 22.9565 32.8448 22.9539 33.1986 22.7547C33.6706 22.4891 33.9692 21.8954 33.8981 21.3643C33.8424 20.9489 33.6357 20.6212 33.2449 20.3289C32.9973 20.1437 32.8719 20.1378 28.7761 20.1178C24.7567 20.0983 24.5463 20.1056 24.225 20.2771ZM24.5095 21.305C24.4333 21.4476 24.4319 21.5617 24.5043 21.7208L24.6041 21.9401H28.7083C32.6779 21.9401 32.8157 21.9342 32.9084 21.7606C32.9762 21.6337 32.9729 21.5119 32.8969 21.3448L32.7894 21.1085H28.702C24.6279 21.1085 24.6142 21.1092 24.5095 21.305ZM24.2121 24.0736C23.2348 24.5902 23.2496 26.048 24.2375 26.5738C24.5315 26.7302 24.8164 26.7449 27.5603 26.7449C30.9131 26.7449 30.9768 26.7341 31.4203 26.0887C31.6004 25.8265 31.6298 25.6869 31.5988 25.2422C31.5562 24.633 31.3612 24.3101 30.88 24.0516C30.5883 23.8948 30.3098 23.8809 27.5618 23.8846C24.7437 23.8885 24.5407 23.8999 24.2121 24.0736ZM24.5095 25.0934C24.4333 25.236 24.4319 25.35 24.5043 25.5092L24.6041 25.7285H27.5399C30.6256 25.7285 30.6971 25.7191 30.6971 25.3127C30.6971 24.9063 30.6253 24.8969 27.5451 24.8969C24.6508 24.8969 24.6132 24.8993 24.5095 25.0934Z" stroke="white" stroke-width="0.1625" mask="url(#path-1-outside-1_177_8284)"/>
</g>
</g>
</svg>
