<svg width="40" height="40" viewBox="0 0 40 40" fill="none" xmlns="http://www.w3.org/2000/svg">
<g id="Traced" clip-path="url(#clip0_177_8347)">
<path id="Vector" fill-rule="evenodd" clip-rule="evenodd" d="M32.1958 0.903438C32.0648 1.01367 31.9217 1.23336 31.8777 1.39172C31.8254 1.58 31.7976 4.63406 31.7973 10.2148L31.7969 18.75H30.8203H29.8438L29.8433 11.7773C29.843 7.26234 29.8147 4.7032 29.7629 4.51672C29.7189 4.35836 29.5758 4.13867 29.4448 4.02844L29.2068 3.82812H27.5292C25.6541 3.82812 25.5039 3.86133 25.284 4.32477C25.1687 4.56773 25.1562 5.28273 25.1562 11.672V18.75H23.5938H22.0312V15.3577V11.9655L22.2461 11.9222C22.3642 11.8984 22.707 11.8384 23.0078 11.7888C24.1342 11.6035 24.2963 11.3834 24.2963 10.0391C24.2963 8.95883 24.1872 8.67055 23.7018 8.46773C23.4357 8.35656 23.2035 8.38969 18.7621 9.17234C16.1988 9.62414 11.6582 10.421 8.67188 10.9434C5.68555 11.4656 3.12867 11.9395 2.99 11.9965C2.53312 12.184 2.42242 12.4878 2.42242 13.5547C2.42242 14.6374 2.53117 14.923 3.02133 15.1279C3.29648 15.2428 3.75203 15.2117 4.51172 15.026L4.6875 14.983V20.6166V26.25H3.52773C2.44797 26.25 2.35773 26.2613 2.21914 26.4144C2.0768 26.5716 2.06937 26.7824 2.04898 31.2484L2.02773 35.918L1.62414 35.9567C1.285 35.9893 1.1793 36.0405 0.961875 36.2779L0.703125 36.5602V37.5845C0.703125 38.7091 0.768672 38.9291 1.175 39.1691C1.37359 39.2864 2.91375 39.2969 20 39.2969C37.0863 39.2969 38.6264 39.2864 38.825 39.1691C39.2313 38.9291 39.2969 38.7091 39.2969 37.5845V36.5602L39.0403 36.2802C38.8349 36.0561 38.7102 35.992 38.4153 35.9587L38.0469 35.9172V27.7203C38.0469 18.6708 38.0777 19.2219 37.5548 18.9031C37.3909 18.8031 37.1634 18.7505 36.8945 18.7503L36.4844 18.75V10.1095C36.4844 2.27406 36.4725 1.44383 36.3566 1.19977C36.1367 0.736328 35.9866 0.703125 34.1114 0.703125H32.4338L32.1958 0.903438ZM32.9688 2.30469V2.8125H34.1406H35.3125V2.30469V1.79688H34.1406H32.9688V2.30469ZM32.9688 11.3281V18.75H34.1406H35.3125V11.3281V3.90625H34.1406H32.9688V11.3281ZM26.3281 5.42969V5.9375H27.5H28.6719V5.42969V4.92188H27.5H26.3281V5.42969ZM26.3281 12.8906V18.75H27.5H28.6719V12.8906V7.03125H27.5H26.3281V12.8906ZM22.6953 9.615C22.5234 9.6518 18.252 10.4051 13.2031 11.2888C8.1543 12.1726 3.90922 12.916 3.76953 12.9409L3.51562 12.9862V13.5305V14.0749L3.73047 14.032C3.84859 14.0084 6.66992 13.512 10 12.9289C13.3301 12.3458 17.6433 11.5888 19.5849 11.2468C21.5266 10.9048 23.135 10.625 23.1591 10.625C23.1834 10.625 23.2031 10.3789 23.2031 10.0781C23.2031 9.48406 23.2227 9.50195 22.6953 9.615ZM13.1836 13.5018L5.85938 14.7972V20.5236V26.25H10.6227H15.386L15.4078 22.7361L15.4297 19.2222L15.6462 19.0056L15.8627 18.7891L18.361 18.7664L20.8594 18.7437V15.4656V12.1875L20.6836 12.197C20.5869 12.2022 17.212 12.7894 13.1836 13.5018ZM7.50742 15.5136C7.14906 15.8151 7.09234 16.1252 7.12203 17.6184C7.14352 18.6986 7.1725 18.9793 7.27797 19.1283C7.56422 19.5324 7.69516 19.5686 8.97586 19.597C10.5359 19.6318 10.8185 19.5877 11.1477 19.2586L11.4062 19V17.5039C11.4062 15.2763 11.4422 15.3125 9.22859 15.3125C7.75023 15.3125 7.74578 15.313 7.50742 15.5136ZM8.28125 17.4219V18.4375H9.29688H10.3125V17.4219V16.4062H9.29688H8.28125V17.4219ZM16.4844 27.8906V35.9375H26.6797H36.875V27.8906V19.8438H26.6797H16.4844V27.8906ZM7.68164 20.8171C7.20383 21.025 7.15133 21.2054 7.12273 22.738C7.08148 24.9525 7.12625 24.9993 9.28484 24.9997C11.4191 25.0002 11.4062 25.0134 11.4062 22.8305C11.4062 21.4466 11.3955 21.3355 11.2431 21.1418C10.9298 20.7435 10.7467 20.7029 9.28125 20.7062C8.3093 20.7084 7.86 20.7395 7.68164 20.8171ZM8.28125 22.8906V23.9062H9.29688H10.3125V22.8906V21.875H9.29688H8.28125V22.8906ZM18.6867 22.4239C18.2482 22.6912 18.1873 22.9631 18.2165 24.5239C18.2541 26.5341 18.2843 26.5625 20.3868 26.5625C21.8386 26.5625 22.0248 26.5206 22.3369 26.1238C22.4892 25.9301 22.5 25.819 22.5 24.4387C22.5 22.2396 22.5253 22.2655 20.375 22.2659C19.0788 22.2662 18.9212 22.2809 18.6867 22.4239ZM25.0148 22.4239C24.5763 22.6912 24.5155 22.9631 24.5446 24.5239C24.5822 26.5341 24.6124 26.5625 26.7149 26.5625C28.1667 26.5625 28.3529 26.5206 28.665 26.1238C28.8173 25.9301 28.8281 25.819 28.8281 24.4387C28.8281 22.2396 28.8534 22.2655 26.7031 22.2659C25.407 22.2662 25.2493 22.2809 25.0148 22.4239ZM31.343 22.4239C30.9241 22.6792 30.8594 22.9481 30.8594 24.4323C30.8594 26.492 30.9309 26.5622 33.0312 26.5623C34.4958 26.5625 34.6805 26.5213 34.9931 26.1238C35.1455 25.9301 35.1562 25.819 35.1562 24.4387C35.1562 22.2396 35.1816 22.2655 33.0312 22.2659C31.7351 22.2662 31.5774 22.2809 31.343 22.4239ZM19.375 24.375V25.3906H20.3906H21.4062V24.375V23.3594H20.3906H19.375V24.375ZM25.7031 24.375V25.3906H26.7188H27.7344V24.375V23.3594H26.7188H25.7031V24.375ZM32.0312 24.375V25.3906H33.0469H34.0625V24.375V23.3594H33.0469H32.0312V24.375ZM3.20312 31.6406V35.9375H3.94531H4.6875L4.68766 32.9492C4.68773 29.6588 4.69266 29.622 5.18141 29.2634C5.39609 29.1059 5.50047 29.1009 9.13148 29.0792C13.2709 29.0544 13.3384 29.061 13.6495 29.5233C13.828 29.7887 13.8281 29.7898 13.8281 32.8631V35.9375H14.6094H15.3906V31.6406V27.3438H9.29688H3.20312V31.6406ZM18.9565 29.1428C18.8337 29.1796 18.6618 29.2733 18.5746 29.3509C18.2619 29.6293 18.2031 29.9298 18.2031 31.25C18.2031 32.6262 18.2637 32.8988 18.6339 33.19C18.8375 33.3502 18.9294 33.3594 20.327 33.3594C22.5334 33.3594 22.5 33.3928 22.5 31.1817C22.5 29.7048 22.4993 29.6987 22.2997 29.4614C22.1895 29.3305 21.9698 29.1873 21.8114 29.1434C21.4677 29.0479 19.2745 29.0475 18.9565 29.1428ZM25.2705 29.1424C25.14 29.1821 24.9291 29.3233 24.8017 29.456L24.5703 29.6974L24.5439 31.0389C24.5142 32.5475 24.5703 32.8563 24.9293 33.1583C25.1677 33.3588 25.1721 33.3594 26.6505 33.3594C28.8552 33.3594 28.8287 33.3852 28.827 31.2344C28.8257 29.6934 28.7955 29.5501 28.4125 29.2653C28.2111 29.1156 28.0767 29.1002 26.85 29.0859C26.1118 29.0773 25.401 29.1027 25.2705 29.1424ZM31.5934 29.1438C31.2703 29.2418 30.9678 29.5555 30.908 29.8546C30.8813 29.9883 30.8594 30.6393 30.8594 31.3013C30.8594 32.6228 30.9228 32.9011 31.2902 33.19C31.4938 33.3502 31.5856 33.3594 32.9832 33.3594C35.1826 33.3594 35.1568 33.3845 35.1551 31.2344C35.1538 29.6934 35.1237 29.5501 34.7406 29.2653C34.5392 29.1156 34.4048 29.1002 33.1781 29.0859C32.4399 29.0773 31.7268 29.1034 31.5934 29.1438ZM5.85938 33.0859V35.9375H7.30469H8.75V33.0859V30.2344H7.30469H5.85938V33.0859ZM9.84375 33.0859V35.9375H11.2891H12.7344V33.0859V30.2344H11.2891H9.84375V33.0859ZM19.375 31.25V32.2656H20.3906H21.4062V31.25V30.2344H20.3906H19.375V31.25ZM25.7031 31.25V32.2656H26.7188H27.7344V31.25V30.2344H26.7188H25.7031V31.25ZM32.0312 31.25V32.2656H33.0469H34.0625V31.25V30.2344H33.0469H32.0312V31.25ZM1.79688 37.6172V38.2031H20H38.2031V37.6172V37.0312H20H1.79688V37.6172Z" fill="white"/>
</g>
<defs>
<clipPath id="clip0_177_8347">
<rect width="40" height="40" fill="white"/>
</clipPath>
</defs>
</svg>
