<svg width="41" height="40" viewBox="0 0 41 40" fill="none" xmlns="http://www.w3.org/2000/svg">
<g id="Traced" clip-path="url(#clip0_177_8338)">
<path id="Vector" fill-rule="evenodd" clip-rule="evenodd" d="M18.9139 2.5008C12.5266 3.07525 7.12074 6.86509 4.39418 12.68L3.96613 13.5928L3.61145 13.5933C2.35512 13.595 1.18395 14.3587 0.615353 15.5469L0.372384 16.0547V20V23.9453L0.615353 24.4531C1.18379 25.641 2.35207 26.4031 3.61145 26.4075L3.96613 26.4087L4.4616 27.4526C7.03223 32.8688 12.0064 36.5325 17.9544 37.3906C19.2077 37.5714 21.4556 37.5719 22.7046 37.3917C28.713 36.5245 33.7163 32.8088 36.2728 27.3149L36.6957 26.4063H37.0528C37.9179 26.4063 38.915 25.9594 39.4932 25.3125C39.8354 24.9298 40.255 24.1254 40.2551 23.8523C40.2552 23.7581 40.2904 23.6594 40.3333 23.6328C40.3836 23.6017 40.4114 22.2763 40.4114 19.9127C40.4114 17.4846 40.385 16.2571 40.3333 16.2891C40.2899 16.316 40.2552 16.2574 40.2551 16.157C40.255 15.8758 39.8402 15.0757 39.4932 14.6875C38.915 14.0406 37.9179 13.5938 37.0528 13.5938H36.6957L36.2728 12.6851C34.5282 8.93619 31.7075 6.05197 28.0286 4.25525C26.2783 3.40048 24.6481 2.89595 22.7552 2.62322C21.704 2.47181 19.882 2.41369 18.9139 2.5008ZM18.1659 3.78619C17.353 3.89611 17.4524 3.82048 16.6361 4.95087C15.9856 5.85166 15.4111 6.80064 14.9033 7.81306C14.2168 9.18205 14.1823 9.02025 15.2014 9.21119C16.1653 9.39189 17.6737 9.56994 18.9075 9.64884L19.7083 9.70002V6.68595V3.67189L19.2982 3.68017C19.0726 3.68478 18.5631 3.73244 18.1659 3.78619ZM20.9583 6.6833V9.6947L21.7591 9.64564C22.9785 9.57095 24.4939 9.39322 25.4677 9.21072L26.3443 9.04642L26.2254 8.7615C25.7644 7.65705 24.5096 5.53705 23.7014 4.49736C23.5033 4.24244 23.3192 4.00134 23.2923 3.96166C23.2381 3.88166 21.8108 3.67626 21.2904 3.67361L20.9583 3.67189V6.6833ZM14.7864 4.61111C13.8318 4.94603 12.1968 5.7683 11.3213 6.35361C10.5527 6.86751 9.71871 7.50431 9.71199 7.58228C9.70426 7.67314 12.4968 8.63275 12.9237 8.68595C13.1114 8.70931 13.169 8.6233 13.7961 7.38283C14.1654 6.65236 14.7139 5.67673 15.0148 5.21486C15.3157 4.75291 15.5369 4.37572 15.5062 4.37658C15.4756 4.37744 15.1517 4.48298 14.7864 4.61111ZM25.6518 5.21486C25.9528 5.67673 26.5001 6.65236 26.8682 7.38283C27.2362 8.1133 27.5492 8.72361 27.5637 8.73908C27.6311 8.81087 30.9625 7.67439 30.9546 7.58228C30.9526 7.55853 30.7593 7.3858 30.5252 7.19845C29.3294 6.24173 27.4914 5.20494 26.0204 4.65728C25.6032 4.50205 25.2266 4.37501 25.1833 4.37501C25.1401 4.37501 25.3509 4.75291 25.6518 5.21486ZM8.12637 9.12369C7.43527 9.91392 6.81621 10.751 6.3516 11.5235C5.93027 12.2241 5.33332 13.3914 5.33332 13.5148C5.33332 13.5694 6.34824 13.5889 8.46457 13.5751L11.5959 13.5547L11.8599 12.5391C12.0051 11.9805 12.2481 11.157 12.3999 10.7091C12.5517 10.2612 12.6674 9.88783 12.6569 9.87955C12.6465 9.87119 12.2513 9.75095 11.7786 9.61236C11.306 9.47369 10.4379 9.17025 9.84965 8.93798C9.26137 8.70572 8.7516 8.51681 8.71684 8.51822C8.68207 8.5197 8.41637 8.79212 8.12637 9.12369ZM30.763 8.95041C30.2044 9.17806 29.3607 9.47681 28.888 9.61431C28.4154 9.75181 28.0201 9.87119 28.0097 9.87955C27.9993 9.88783 28.115 10.2612 28.2668 10.7091C28.4186 11.157 28.6615 11.9805 28.8068 12.5391L29.0707 13.5547L32.2021 13.5751C34.4253 13.5896 35.3333 13.5708 35.3333 13.5102C35.3333 13.3392 34.4482 11.7006 33.967 10.9808C33.1898 9.81837 32.0756 8.5065 31.8821 8.52611C31.8252 8.53181 31.3216 8.72283 30.763 8.95041ZM13.6586 10.7184C13.4571 11.2613 12.8333 13.3841 12.8333 13.5264C12.8333 13.5635 14.3802 13.5938 16.2708 13.5938H19.7083V12.2377V10.8815L18.7513 10.8285C17.2598 10.7456 14.4426 10.3674 13.9715 10.1866C13.9039 10.1606 13.7997 10.3377 13.6586 10.7184ZM26.0755 10.3206C25.0901 10.5177 23.0499 10.7671 21.9154 10.8292L20.9583 10.8815V12.2377V13.5938H24.3958C26.2864 13.5938 27.8333 13.5635 27.8333 13.5264C27.8333 13.2817 26.8929 10.2589 26.7959 10.1919C26.7864 10.1853 26.4622 10.2432 26.0755 10.3206ZM3.1602 14.8486C2.47535 14.9845 1.82879 15.5794 1.62676 16.2595C1.44582 16.8688 1.44652 23.1335 1.62762 23.7432C1.77668 24.2451 2.23106 24.7639 2.74199 25.0156L3.10676 25.1953H20.3333H37.5599L37.9246 25.0156C38.4356 24.7639 38.89 24.2451 39.039 23.7432C39.2207 23.1314 39.2207 16.8686 39.039 16.2568C38.89 15.7549 38.4356 15.2361 37.9246 14.9844L37.5599 14.8047L20.5286 14.7932C11.1614 14.7869 3.34566 14.8118 3.1602 14.8486ZM0.369415 20C0.369415 22.041 0.379493 22.876 0.391837 21.8555C0.404181 20.835 0.404181 19.1651 0.391837 18.1445C0.379493 17.1241 0.369415 17.959 0.369415 20ZM5.33332 26.4898C5.33332 26.6609 6.21848 28.2995 6.69965 29.0192C7.58027 30.3364 8.61817 31.5252 8.83152 31.461C8.90551 31.4388 9.3177 31.2743 9.74738 31.0956C10.1771 30.9169 11.0032 30.627 11.5833 30.4514C12.1634 30.2758 12.6465 30.1262 12.6569 30.1188C12.6674 30.1114 12.5517 29.7388 12.3999 29.291C12.2481 28.8431 12.0051 28.0195 11.8599 27.461L11.5959 26.4453L8.46457 26.4249C6.24137 26.4104 5.33332 26.4292 5.33332 26.4898ZM12.8333 26.4736C12.8333 26.616 13.4571 28.7387 13.6586 29.2817C13.8161 29.7066 13.8998 29.841 13.9861 29.8078C14.4647 29.6242 17.1934 29.2603 18.7513 29.1725L19.7083 29.1185V27.7624V26.4063H16.2708C14.3802 26.4063 12.8333 26.4366 12.8333 26.4736ZM20.9583 27.7624V29.1185L21.9154 29.1716C23.4151 29.2549 26.2132 29.6285 26.6811 29.8081C26.7667 29.8409 26.851 29.7052 27.0081 29.2817C27.2095 28.7387 27.8333 26.616 27.8333 26.4736C27.8333 26.4366 26.2864 26.4063 24.3958 26.4063H20.9583V27.7624ZM29.0503 26.5039C29.0348 26.5577 28.9243 26.9883 28.8047 27.461C28.6851 27.9336 28.4532 28.722 28.2892 29.213C28.1252 29.7039 27.9995 30.1118 28.0098 30.1193C28.0202 30.1268 28.4681 30.267 29.0052 30.4306C29.5423 30.5944 30.4144 30.9007 30.9432 31.1114C31.4721 31.322 31.9317 31.4834 31.9646 31.4699C32.2163 31.3667 33.6261 29.5903 34.2331 28.6117C34.6426 27.9514 35.3333 26.617 35.3333 26.486C35.3333 26.3595 29.0868 26.3774 29.0503 26.5039ZM18.1849 30.3993C17.1825 30.4749 15.2204 30.7466 14.6779 30.8849L14.3016 30.981L14.8928 32.1506C15.4961 33.3442 16.3077 34.6577 16.9609 35.4974C17.1614 35.7552 17.3475 35.9987 17.3743 36.0384C17.4286 36.1184 18.8558 36.3238 19.3763 36.3264L19.7083 36.3281V33.3203V30.3125L19.3763 30.3235C19.1936 30.3295 18.6575 30.3637 18.1849 30.3993ZM20.9583 33.3203V36.3281L21.2904 36.3264C21.8108 36.3238 23.2381 36.1184 23.2923 36.0384C23.3192 35.9987 23.5052 35.7552 23.7057 35.4974C24.3589 34.6577 25.1706 33.3442 25.7739 32.1506L26.365 30.981L25.9888 30.8849C25.2 30.6837 22.0383 30.314 21.095 30.3127C20.9672 30.3125 20.9583 30.5077 20.9583 33.3203ZM11.5833 31.7141C10.0384 32.2352 9.70676 32.3602 9.71199 32.4195C9.71402 32.4423 9.89863 32.6067 10.1221 32.7848C11.315 33.735 12.9137 34.6543 14.3568 35.2199C15.6811 35.7388 15.6496 35.7595 15.0154 34.7861C14.7141 34.3237 14.1664 33.3477 13.7984 32.6172C13.4303 31.8867 13.0889 31.281 13.0398 31.271C12.9907 31.2611 12.3353 31.4605 11.5833 31.7141ZM26.878 32.5977C26.505 33.3389 25.9533 34.3232 25.6522 34.7852C25.3511 35.2471 25.1401 35.625 25.1833 35.625C25.2266 35.625 25.6032 35.498 26.0204 35.3428C27.4914 34.7951 29.3294 33.7583 30.5252 32.8016C30.7593 32.6142 30.9526 32.4415 30.9546 32.4177C30.9611 32.3415 27.829 31.25 27.6038 31.25C27.5777 31.25 27.2511 31.8564 26.878 32.5977Z" fill="white"/>
<g id="&#208;&#161;&#208;&#156;&#208;&#152;">
<path d="M11.2722 19.5547C11.2722 18.7615 11.4693 18.1241 11.8634 17.6423C12.2576 17.1557 12.8099 16.9124 13.5203 16.9124C14.1042 16.9124 14.5811 17.0681 14.9509 17.3796C15.2623 17.6377 15.4667 17.9734 15.5643 18.3867C15.5949 18.5167 15.4968 18.6371 15.3638 18.6484L15.0542 18.6747C14.9306 18.6852 14.8226 18.5966 14.7869 18.4778C14.7153 18.24 14.5851 18.0418 14.3962 17.8832C14.1578 17.6788 13.8658 17.5766 13.5203 17.5766C13.0532 17.5766 12.6979 17.7664 12.4546 18.146C12.2113 18.5255 12.0897 18.9951 12.0897 19.5547C12.0897 20.1289 12.2211 20.6033 12.4838 20.978C12.7466 21.3478 13.1116 21.5327 13.5787 21.5327C13.9485 21.5327 14.2478 21.4208 14.4765 21.197C14.6556 21.0179 14.778 20.8029 14.8437 20.5522C14.8751 20.4323 14.9817 20.342 15.1053 20.3501L15.4187 20.3706C15.5531 20.3794 15.6536 20.4998 15.6252 20.6314C15.5298 21.0725 15.3294 21.4314 15.0239 21.7079C14.6687 22.034 14.187 22.197 13.5787 22.197C12.8439 22.197 12.2746 21.9585 11.8707 21.4817C11.4717 20.9999 11.2722 20.3576 11.2722 19.5547Z" fill="black"/>
<path d="M20.4182 17.1696C20.4471 17.0692 20.5389 17 20.6434 17H21.6486C21.778 17 21.883 17.1049 21.883 17.2344V21.875C21.883 22.0044 21.778 22.1094 21.6486 22.1094H21.3294C21.1998 22.1094 21.0948 22.0042 21.095 21.8746L21.0995 19.0346C21.0999 18.7652 20.7199 18.708 20.641 18.9656L19.7294 21.9436C19.6992 22.0421 19.6083 22.1094 19.5053 22.1094H18.7424C18.6394 22.1094 18.5486 22.0422 18.5183 21.9438L17.6043 18.9673C17.5253 18.71 17.1459 18.767 17.1459 19.0361V21.875C17.1459 22.0044 17.0409 22.1094 16.9115 22.1094H16.5992C16.4698 22.1094 16.3649 22.0044 16.3649 21.875V17.2344C16.3649 17.1049 16.4698 17 16.5992 17H17.619C17.7235 17 17.8154 17.0692 17.8443 17.1696L18.906 20.8594C18.971 21.0855 19.2914 21.0855 19.3565 20.8594L20.4182 17.1696Z" fill="black"/>
<path d="M25.8188 17.1338C25.8576 17.0521 25.94 17 26.0305 17H26.918C27.0474 17 27.1524 17.1049 27.1524 17.2344V21.875C27.1524 22.0044 27.0474 22.1094 26.918 22.1094H26.5911C26.4617 22.1094 26.3568 22.0044 26.3568 21.875V18.6162C26.3568 18.3663 26.0179 18.2899 25.9107 18.5157L24.2671 21.9756C24.2283 22.0573 24.1459 22.1094 24.0554 22.1094H23.1679C23.0384 22.1094 22.9335 22.0044 22.9335 21.875V17.2344C22.9335 17.1049 23.0384 17 23.1679 17H23.4947C23.6242 17 23.7291 17.1049 23.7291 17.2344V20.4932C23.7291 20.743 24.0679 20.8194 24.1752 20.5937L25.8188 17.1338Z" fill="black"/>
</g>
</g>
<defs>
<clipPath id="clip0_177_8338">
<rect width="40" height="40" fill="white" transform="translate(0.333313)"/>
</clipPath>
</defs>
</svg>
