<svg width="40" height="40" viewBox="0 0 40 40" fill="none" xmlns="http://www.w3.org/2000/svg">
<g id="Traced" clip-path="url(#clip0_177_8351)">
<path id="Vector" fill-rule="evenodd" clip-rule="evenodd" d="M18.6328 0.0866618C18.0035 0.177287 16.9108 0.494865 16.2245 0.786427C14.2534 1.62401 12.4866 3.33651 11.5145 5.35158C9.47422 9.58119 10.8459 14.6038 14.7691 17.268C15.8316 17.9896 17.3553 18.5674 18.713 18.7637L19.375 18.8595L19.3721 20.5039L19.3692 22.1485L18.0316 22.9297C17.2959 23.3594 16.5796 23.7776 16.4398 23.8591L16.1856 24.0072L15.6393 23.5121C14.569 22.542 13.204 21.8157 11.7245 21.4293C10.7076 21.1637 8.95383 21.0953 7.8757 21.279C5.51023 21.6822 3.32672 23.0017 1.92484 24.8751C1.05445 26.0382 0.908984 26.4839 1.29961 26.7912C1.73633 27.1347 1.97773 26.9882 2.57812 26.0155C3.47828 24.5571 5.19547 23.2715 6.99406 22.7096C8.82547 22.1374 11.0496 22.2646 12.762 23.0397C14.6344 23.8871 16.2219 25.5069 17.0094 27.3734C17.7512 29.1317 17.8545 31.2042 17.2898 33.006C15.9107 37.4071 11.175 39.8474 6.83594 38.3929C5.5293 37.9549 4.59742 37.3596 3.55469 36.2966C1.76602 34.4731 0.979219 32.2223 1.24133 29.6789C1.33797 28.7413 1.33727 28.7307 1.16359 28.546C0.934375 28.3019 0.553672 28.297 0.333672 28.5352C0.12875 28.757 0 29.558 0 30.6103C0 34.2224 2.16484 37.5909 5.47758 39.1333C11.0637 41.7342 17.6579 38.2568 18.7228 32.1485C18.9059 31.0984 18.8327 29.2763 18.5666 28.2583C18.322 27.3226 17.8858 26.3161 17.3979 25.5619C17.1962 25.2502 17.032 24.9699 17.033 24.939C17.034 24.9081 17.702 24.49 18.5174 24.0099L20 23.1369L21.4826 24.0099C22.298 24.49 22.966 24.9054 22.967 24.933C22.968 24.9606 22.7785 25.2862 22.5459 25.6566C22.0351 26.4703 21.6911 27.2757 21.4273 28.2755C21.1655 29.2681 21.0948 31.0962 21.2777 32.1485C22.0653 36.6835 25.9987 39.9979 30.5952 39.9997C33.0799 40.0007 35.4445 39.013 37.2288 37.2288C38.6218 35.8357 39.5571 34.0496 39.8492 32.2246C39.9041 31.882 39.978 31.5681 40.0136 31.5274C40.1002 31.4277 40.0967 29.5106 40.0099 29.5642C39.9724 29.5874 39.9175 29.3927 39.888 29.1315C39.8069 28.4147 39.4875 27.3949 39.0711 26.5235C38.6083 25.5547 38.3512 25.2344 38.0364 25.2344C37.7741 25.2344 37.4219 25.5366 37.4219 25.7617C37.4219 25.8406 37.6271 26.3099 37.8779 26.8044C38.1287 27.2989 38.4093 27.9829 38.5015 28.3244C39.2794 31.2078 38.5644 34.0889 36.5432 36.2146C35.1966 37.631 33.6784 38.4267 31.7578 38.7229C28.102 39.2867 24.3355 37.1367 22.9597 33.7008C22.4789 32.5 22.3947 32.0362 22.3944 30.586C22.3941 29.4033 22.4161 29.1765 22.595 28.5156C23.55 24.9882 26.5582 22.5438 30.1627 22.3665C32.0948 22.2714 33.8413 22.788 35.4258 23.9231C35.7717 24.171 36.1291 24.374 36.2199 24.3744C36.508 24.3755 36.7969 24.0828 36.7969 23.7895C36.7969 23.5728 36.7291 23.4685 36.4027 23.1829C35.5745 22.4585 34.1433 21.7534 32.7734 21.3949C32.1462 21.2308 31.906 21.2115 30.5469 21.2162C29.1559 21.221 28.957 21.2393 28.2583 21.4274C26.7848 21.8241 25.3355 22.6047 24.3118 23.5531L23.8188 24.0098L23.5624 23.8604C23.4213 23.7782 22.7041 23.3594 21.9684 22.9297L20.6308 22.1485L20.6279 20.5039L20.625 18.8595L21.287 18.7637C25.2901 18.1849 28.4063 15.2335 29.2616 11.211C29.533 9.93463 29.4065 7.49666 29.049 7.11291C28.848 6.89713 28.4123 6.90018 28.1935 7.11901C28.0467 7.2658 28.0345 7.33549 28.0867 7.72447C28.3689 9.82276 28.1848 11.3397 27.4628 12.8671C27.003 13.8397 26.637 14.3746 25.9143 15.1299C22.6947 18.4947 17.3053 18.4947 14.0857 15.1299C12.5334 13.5074 11.7919 11.6573 11.7915 9.40479C11.7909 6.56869 13.147 4.07127 15.5313 2.51705C18.3218 0.698146 21.8697 0.756349 24.7084 2.66768C25.3738 3.11572 26.3756 4.13447 26.8576 4.85322C27.0772 5.18072 27.3145 5.4708 27.3848 5.49776C27.8013 5.6576 28.2031 5.39651 28.2031 4.96611C28.2031 4.53244 27.2018 3.22588 26.1719 2.31572C24.1828 0.557834 21.2927 -0.296698 18.6328 0.0866618ZM19.2586 2.59182C18.6051 2.71643 17.8957 3.10658 17.3777 3.62619C15.8792 5.12979 15.88 7.42791 17.3797 8.91799L17.6667 9.20323L17.3685 9.29768C16.8952 9.4476 15.8239 10.0362 15.3237 10.421C14.7286 10.879 13.8396 11.8411 13.7755 12.0967C13.6625 12.5469 14.6145 13.9062 15.6544 14.7796C16.2869 15.3108 17.3742 15.8685 18.2422 16.107C18.7585 16.2488 19.0709 16.2785 20.0391 16.2774C21.0898 16.2762 21.2836 16.254 21.9141 16.0626C23.2648 15.6524 24.4038 14.8973 25.324 13.8017C25.8963 13.1203 26.293 12.3693 26.2245 12.0967C26.1604 11.8411 25.2714 10.879 24.6762 10.421C24.1764 10.0364 23.1048 9.4476 22.6323 9.29791L22.3349 9.20377L22.6893 8.84432C23.3388 8.18549 23.75 7.16963 23.75 6.22354C23.75 4.50932 22.386 2.8983 20.6692 2.58471C20.1321 2.48658 19.8018 2.48822 19.2586 2.59182ZM19.5884 3.75705C18.7666 3.88619 18.0277 4.4508 17.6709 5.22229C17.383 5.84463 17.3824 6.65432 17.6696 7.27502C17.9439 7.86799 18.3617 8.31065 18.8937 8.5719C19.272 8.75768 19.432 8.78908 20 8.78908C20.568 8.78908 20.728 8.75768 21.1063 8.5719C22.5705 7.85291 22.9955 5.9708 21.9912 4.65408C21.4888 3.99549 20.4766 3.6176 19.5884 3.75705ZM19.1016 10.0816C18.4298 10.1857 17.6263 10.4425 17.0257 10.745C16.4485 11.0356 15.387 11.845 15.1913 12.1435C15.0706 12.3278 15.0763 12.3521 15.3216 12.711C16.0518 13.7795 17.2375 14.5967 18.5983 14.9696C19.2829 15.1572 20.7126 15.1577 21.4062 14.9705C22.5649 14.6578 23.6783 13.9481 24.4059 13.0581C24.9302 12.4169 24.9775 12.3011 24.798 12.0983C24.4505 11.7057 23.4318 10.9696 22.8516 10.6916C21.7212 10.1502 20.227 9.90705 19.1016 10.0816ZM8.55148 23.7809C5.75898 24.4593 4.73375 28.0098 6.74859 30.0246C6.90406 30.1801 7.03125 30.3233 7.03125 30.3429C7.03125 30.3625 6.89945 30.4207 6.73828 30.4723C5.34398 30.9185 3.20312 32.6847 3.20312 33.3888C3.20312 33.756 3.9943 34.9212 4.68805 35.5756C6.05359 36.8638 7.55383 37.4541 9.45312 37.4506C10.8732 37.4478 12.0095 37.1211 13.1403 36.3903C14.4228 35.5614 15.8436 33.7389 15.635 33.1904C15.5263 32.9048 14.5834 31.9285 13.9948 31.4921C13.4498 31.0881 12.397 30.5224 12.0128 30.4272L11.799 30.3742L12.1773 29.9497C13.3389 28.6465 13.4873 26.7853 12.5431 25.3628C11.6673 24.0434 10.0725 23.4113 8.55148 23.7809ZM29.6176 23.7906C28.9662 23.9735 28.4428 24.2887 27.9209 24.8125C27.3492 25.3864 27.0654 25.934 26.8973 26.7874C26.7838 27.3631 26.7834 27.4786 26.8927 28.0333C27.0445 28.8039 27.3373 29.4052 27.8299 29.9579C28.0439 30.198 28.1668 30.3906 28.106 30.3906C27.8919 30.3906 26.5165 31.1131 25.9959 31.4991C25.3737 31.9603 24.4084 32.9814 24.3411 33.2495C24.2834 33.4793 24.5338 33.9956 25.0197 34.6485C25.9952 35.9592 27.3127 36.8548 28.8908 37.2799C29.7562 37.513 31.2695 37.5142 32.2038 37.2825C33.9255 36.8557 35.3473 35.8447 36.3353 34.345C36.9279 33.4456 36.9341 33.2981 36.4061 32.6636C35.7145 31.8325 34.595 31.0201 33.534 30.5792C33.2446 30.459 32.9955 30.3521 32.9805 30.3418C32.9655 30.3314 33.0838 30.1922 33.2436 30.0324C33.6655 29.6106 33.9684 29.0971 34.153 28.4912C34.3651 27.7947 34.3276 26.7438 34.0666 26.0685C33.691 25.0969 32.8109 24.2445 31.8195 23.8921C31.2224 23.6799 30.1824 23.632 29.6176 23.7906ZM8.85805 24.9131C8.10328 25.1081 7.40773 25.688 7.08367 26.3925C6.84609 26.9088 6.84609 27.9349 7.08367 28.4513C7.63594 29.6517 9.03508 30.2474 10.2906 29.8165C10.8055 29.6398 11.427 29.088 11.7024 28.5631C11.8864 28.2124 11.9119 28.0742 11.9129 27.4219C11.9138 26.8096 11.8834 26.6176 11.7392 26.325C11.4999 25.8393 10.9788 25.3276 10.4959 25.1039C10.0591 24.9016 9.26211 24.8088 8.85805 24.9131ZM29.9792 24.924C29.5185 25.04 29.1302 25.2676 28.7686 25.6334C28.2718 26.136 28.0927 26.561 28.0595 27.3168C28.0348 27.8789 28.0568 28.0104 28.2466 28.4333C28.7548 29.5657 29.9988 30.1896 31.157 29.8928C31.9731 29.6837 32.5777 29.1862 32.9207 28.4415C33.1538 27.9353 33.1516 26.904 32.9163 26.3925C32.6791 25.8768 32.1647 25.35 31.6696 25.1158C31.1951 24.8913 30.4463 24.8064 29.9792 24.924ZM0.0303906 30.586C0.0304688 31.1446 0.0429688 31.3628 0.0579688 31.071C0.0730469 30.7792 0.0729688 30.3221 0.0577344 30.0553C0.0425781 29.7886 0.0302344 30.0274 0.0303906 30.586ZM8.20312 31.2892C7.29578 31.4727 6.52602 31.7899 5.78125 32.287C5.35563 32.5711 4.53125 33.3592 4.53125 33.4821C4.53125 33.6592 5.33266 34.623 5.76602 34.9671C6.86867 35.8424 8.02594 36.2573 9.375 36.261C10.3172 36.2636 11.0127 36.1248 11.7638 35.7842C12.7241 35.3489 13.5359 34.6698 14.13 33.805L14.3875 33.4303L13.8805 32.9456C12.4132 31.5428 10.1764 30.8903 8.20312 31.2892ZM29.188 31.3292C28.0438 31.5703 26.8916 32.1874 26.0484 33.0106L25.6149 33.4338L25.8712 33.8067C26.6713 34.9714 27.8526 35.7831 29.2516 36.13C29.5965 36.2155 30.0918 36.2631 30.6188 36.2613C32.3835 36.2557 33.9335 35.5129 35.014 34.155C35.2641 33.8407 35.4688 33.5408 35.4688 33.4885C35.4688 33.3577 34.652 32.5765 34.1934 32.2687C32.7672 31.3116 30.9187 30.9646 29.188 31.3292Z" fill="white"/>
</g>
<defs>
<clipPath id="clip0_177_8351">
<rect width="40" height="40" fill="white"/>
</clipPath>
</defs>
</svg>
