<svg width="10" height="11" viewBox="0 0 10 11" fill="none" xmlns="http://www.w3.org/2000/svg">
<g id="Frame 15">
<path id="Vector 1" d="M9.99911 1.40918C9.99911 0.907103 9.5921 0.500089 9.09002 0.500089H0.908203C0.406126 0.500089 -0.000888348 0.907103 -0.000888348 1.40918C-0.000888348 1.91126 0.406126 2.31827 0.908203 2.31827H8.18093V9.591C8.18093 10.0931 8.58794 10.5001 9.09002 10.5001C9.5921 10.5001 9.99911 10.0931 9.99911 9.591V1.40918ZM0.265379 8.94817C-0.0896434 9.3032 -0.0896434 9.8788 0.265379 10.2338C0.620401 10.5888 1.19601 10.5888 1.55103 10.2338L0.265379 8.94817ZM8.4472 0.766355L0.265379 8.94817L1.55103 10.2338L9.73285 2.052L8.4472 0.766355Z" fill="white"/>
</g>
</svg>
