<svg width="23" height="32" viewBox="0 0 23 32" fill="none" xmlns="http://www.w3.org/2000/svg">
<path id="icon-scroll" fill-rule="evenodd" clip-rule="evenodd" d="M10.7345 0.0519131C8.77701 0.286707 7.07376 0.892091 5.60226 1.87596C2.98671 3.62492 1.28276 6.26515 0.711676 9.45374C0.594162 10.1101 0.578613 10.8777 0.578613 16.018C0.578613 22.365 0.581192 22.4097 1.04695 24.0277C1.28331 24.8488 1.94096 26.2595 2.41758 26.9677C4.16537 29.5651 6.75919 31.2811 9.7969 31.8497C10.8675 32.0501 12.7112 32.0501 13.7817 31.8497C18.4929 30.9679 22.0072 27.383 22.867 22.5822C22.9845 21.9258 23 21.1582 23 16.018C23 9.669 22.9973 9.62173 22.5308 8.00825C21.6207 4.86006 19.0733 2.0559 16.0097 0.829662C14.3909 0.181772 12.2651 -0.131624 10.7345 0.0519131ZM10.1876 1.76743C6.57597 2.41524 3.60624 5.04259 2.61354 8.46838C2.21709 9.83644 2.21787 9.8212 2.21787 16.018C2.21787 22.2147 2.21709 22.1995 2.61354 23.5675C3.32792 26.0328 5.15127 28.1996 7.50131 29.376C12.923 32.0903 19.4742 29.1435 21.0446 23.2844C21.3802 22.0327 21.4138 21.2393 21.3792 15.3929C21.344 9.44616 21.358 9.6386 20.8495 8.10897C20.4061 6.77537 19.6006 5.48756 18.575 4.47314C17.7465 3.65359 17.1786 3.23206 16.245 2.74387C14.3997 1.77884 12.1475 1.41583 10.1876 1.76743ZM11.008 9.02494C11.008 11.324 10.9819 13.2051 10.95 13.2051C10.9181 13.2051 10.1352 12.4489 9.21027 11.5246L7.52843 9.84402L6.96336 10.4129L6.39829 10.9817L8.92078 13.4998L11.4433 16.018H11.7893H12.1354L14.6579 13.4998L17.1804 10.9817L16.6153 10.4129L16.0502 9.84402L14.3684 11.5246C13.4434 12.4489 12.6605 13.2051 12.6286 13.2051C12.5968 13.2051 12.5707 11.324 12.5707 9.02494V4.84475H11.7893H11.008V9.02494Z" fill="white"/>
</svg>
