<svg width="24" height="25" viewBox="0 0 24 25" fill="none" xmlns="http://www.w3.org/2000/svg">
<g id="Line Duotone / Map &#38; Location / Global">
<path id="Vector" d="M2 12.5H22M16 12.5C16 13.8132 15.8965 15.1136 15.6955 16.3268C15.4945 17.5401 15.1999 18.6425 14.8284 19.5711C14.457 20.4997 14.016 21.2362 13.5307 21.7388C13.0454 22.2413 12.5253 22.5 12 22.5C11.4747 22.5 10.9546 22.2413 10.4693 21.7388C9.98396 21.2362 9.54301 20.4997 9.17157 19.5711C8.80014 18.6425 8.5055 17.5401 8.30448 16.3268C8.10346 15.1136 8 13.8132 8 12.5C8 11.1868 8.10346 9.88642 8.30448 8.67316C8.5055 7.45991 8.80014 6.35752 9.17157 5.42893C9.54301 4.50035 9.98396 3.76375 10.4693 3.2612C10.9546 2.75866 11.4747 2.5 12 2.5C12.5253 2.5 13.0454 2.75866 13.5307 3.26121C14.016 3.76375 14.457 4.50035 14.8284 5.42893C15.1999 6.35752 15.4945 7.45991 15.6955 8.67317C15.8965 9.88642 16 11.1868 16 12.5Z" stroke="white" stroke-width="1.5" stroke-linecap="round"/>
<path id="Vector_2" d="M22 12.5C22 13.8132 21.7413 15.1136 21.2388 16.3268C20.7362 17.5401 19.9997 18.6425 19.0711 19.5711C18.1425 20.4997 17.0401 21.2362 15.8268 21.7388C14.6136 22.2413 13.3132 22.5 12 22.5C10.6868 22.5 9.38642 22.2413 8.17317 21.7388C6.95991 21.2362 5.85752 20.4997 4.92893 19.5711C4.00035 18.6425 3.26375 17.5401 2.7612 16.3268C2.25866 15.1136 2 13.8132 2 12.5C2 11.1868 2.25866 9.88642 2.76121 8.67316C3.26375 7.45991 4.00035 6.35752 4.92893 5.42893C5.85752 4.50035 6.95991 3.76375 8.17317 3.2612C9.38642 2.75866 10.6868 2.5 12 2.5C13.3132 2.5 14.6136 2.75866 15.8268 3.26121C17.0401 3.76375 18.1425 4.50035 19.0711 5.42893C19.9997 6.35752 20.7362 7.45991 21.2388 8.67317C21.7413 9.88642 22 11.1868 22 12.5L22 12.5Z" stroke="white" stroke-width="1.5"/>
</g>
</svg>
