<svg width="24" height="25" viewBox="0 0 24 25" fill="none" xmlns="http://www.w3.org/2000/svg">
<g id="Line Duotone / Call / Phone ">
<path id="Vector" d="M16.1007 13.859L16.5562 13.4062C17.1858 12.7801 18.1672 12.6515 18.9728 13.0894L20.8833 14.128C22.1102 14.7949 22.3806 16.4295 21.4217 17.383L20.0011 18.7954C19.6399 19.1546 19.1917 19.4171 18.6763 19.4651M4.00289 6.24561C3.96765 5.62559 4.25823 5.06668 4.69185 4.63552L6.26145 3.07483C7.13596 2.20529 8.61028 2.33992 9.37326 3.35908L10.6342 5.04348C11.2507 5.86691 11.1841 6.99484 10.4775 7.69738L10.1907 7.98257" stroke="white" stroke-width="1.5"/>
<path id="Vector_2" d="M18.6773 19.4651C17.0479 19.617 13.0632 19.4492 8.81638 15.2266C4.81173 11.2447 4.09405 7.83182 4.00391 6.24561" stroke="white" stroke-width="1.5"/>
<path id="Vector_3" d="M16.0997 13.8591C16.0997 13.8591 15.0171 14.9356 12.0621 11.9973C9.10709 9.05911 10.1897 7.98267 10.1897 7.98267" stroke="white" stroke-width="1.5" stroke-linecap="round"/>
</g>
</svg>
