<svg width="163" height="80" viewBox="0 0 163 80" fill="none" xmlns="http://www.w3.org/2000/svg">
<g id="Frame 2">
<path id="Vector" fill-rule="evenodd" clip-rule="evenodd" d="M67.4443 0.410156C90.0096 0.410156 110.021 11.3877 122.395 28.2966H116.545C104.912 14.0958 87.2303 5.03368 67.4443 5.03368C35.4956 5.03368 9.06581 28.6268 4.6851 59.2874H0C4.42041 26.0641 32.9281 0.410156 67.4443 0.410156Z" fill="white"/>
<path id="Vector_2" fill-rule="evenodd" clip-rule="evenodd" d="M14.5018 42.1753C9.15149 53.6487 7.01669 66.7121 8.93801 79.5899H4.17474C2.33348 66.7386 4.17474 53.768 9.45836 42.1753H14.5018Z" fill="white"/>
<g id="2023">
<path d="M75.0532 76.4476V74.391L79.8586 69.9416C80.2673 69.5461 80.61 69.1901 80.8869 68.8737C81.1681 68.5573 81.3813 68.2475 81.5263 67.9443C81.6713 67.6367 81.7438 67.3049 81.7438 66.9489C81.7438 66.5534 81.6537 66.2128 81.4736 65.9272C81.2934 65.6372 81.0473 65.4153 80.7353 65.2614C80.4233 65.1032 80.0695 65.0241 79.674 65.0241C79.2609 65.0241 78.9006 65.1076 78.593 65.2746C78.2854 65.4416 78.0481 65.6811 77.8811 65.9931C77.7141 66.3051 77.6306 66.6765 77.6306 67.1071H74.9214C74.9214 66.2238 75.1213 65.457 75.5212 64.8066C75.9211 64.1562 76.4814 63.6531 77.2021 63.2971C77.9228 62.9412 78.7534 62.7632 79.6938 62.7632C80.6606 62.7632 81.5021 62.9346 82.2184 63.2773C82.9391 63.6157 83.4994 64.0859 83.8993 64.688C84.2992 65.29 84.4992 65.9799 84.4992 66.7578C84.4992 67.2675 84.3981 67.7707 84.1959 68.2673C83.9982 68.7638 83.6444 69.3154 83.1347 69.9218C82.6249 70.5238 81.9064 71.2467 80.9792 72.0905L79.0083 74.0218V74.1141H84.6771V76.4476H75.0532Z" fill="white"/>
<path d="M90.7391 76.7442C89.6053 76.7398 88.6297 76.4608 87.8123 75.9071C86.9994 75.3534 86.3732 74.5514 85.9337 73.5011C85.4987 72.4508 85.2833 71.1874 85.2877 69.7109C85.2877 68.2387 85.5052 66.9841 85.9403 65.947C86.3797 64.9099 87.006 64.1211 87.8189 63.5806C88.6363 63.0356 89.6097 62.7632 90.7391 62.7632C91.8685 62.7632 92.8396 63.0356 93.6526 63.5806C94.47 64.1255 95.0984 64.9165 95.5378 65.9536C95.9773 66.9863 96.1948 68.2387 96.1904 69.7109C96.1904 71.1918 95.9707 72.4574 95.5312 73.5077C95.0962 74.558 94.4722 75.36 93.6592 75.9137C92.8462 76.4674 91.8728 76.7442 90.7391 76.7442ZM90.7391 74.3778C91.5125 74.3778 92.1299 73.9889 92.5913 73.2111C93.0528 72.4332 93.2813 71.2665 93.2769 69.7109C93.2769 68.6869 93.1714 67.8344 92.9605 67.1533C92.7539 66.4721 92.4595 65.9602 92.0772 65.6174C91.6993 65.2746 91.2532 65.1032 90.7391 65.1032C89.97 65.1032 89.3548 65.4878 88.8934 66.2568C88.432 67.0258 88.1991 68.1772 88.1947 69.7109C88.1947 70.748 88.2979 71.6137 88.5045 72.308C88.7154 72.9979 89.012 73.5165 89.3944 73.8636C89.7767 74.2064 90.2249 74.3778 90.7391 74.3778Z" fill="white"/>
<path d="M96.9263 76.4476V74.391L101.732 69.9416C102.14 69.5461 102.483 69.1901 102.76 68.8737C103.041 68.5573 103.254 68.2475 103.399 67.9443C103.544 67.6367 103.617 67.3049 103.617 66.9489C103.617 66.5534 103.527 66.2128 103.347 65.9272C103.166 65.6372 102.92 65.4153 102.608 65.2614C102.296 65.1032 101.943 65.0241 101.547 65.0241C101.134 65.0241 100.774 65.1076 100.466 65.2746C100.158 65.4416 99.9211 65.6811 99.7541 65.9931C99.5871 66.3051 99.5036 66.6765 99.5036 67.1071H96.7944C96.7944 66.2238 96.9944 65.457 97.3943 64.8066C97.7942 64.1562 98.3545 63.6531 99.0752 63.2971C99.7958 62.9412 100.626 62.7632 101.567 62.7632C102.534 62.7632 103.375 62.9346 104.091 63.2773C104.812 63.6157 105.372 64.0859 105.772 64.688C106.172 65.29 106.372 65.9799 106.372 66.7578C106.372 67.2675 106.271 67.7707 106.069 68.2673C105.871 68.7638 105.517 69.3154 105.008 69.9218C104.498 70.5238 103.779 71.2467 102.852 72.0905L100.881 74.0218V74.1141H106.55V76.4476H96.9263Z" fill="white"/>
<path d="M112.309 76.6322C111.325 76.6322 110.448 76.463 109.679 76.1246C108.914 75.7818 108.31 75.3116 107.866 74.714C107.427 74.1119 107.2 73.4176 107.187 72.631H110.061C110.079 72.9606 110.186 73.2506 110.384 73.5011C110.586 73.7472 110.854 73.9383 111.188 74.0746C111.522 74.2108 111.898 74.2789 112.315 74.2789C112.751 74.2789 113.135 74.202 113.469 74.0482C113.803 73.8944 114.064 73.6813 114.253 73.4088C114.442 73.1363 114.537 72.8221 114.537 72.4662C114.537 72.1058 114.436 71.7872 114.234 71.5104C114.036 71.2291 113.75 71.0094 113.377 70.8512C113.008 70.693 112.568 70.6139 112.058 70.6139H110.799V68.5178H112.058C112.489 68.5178 112.869 68.443 113.199 68.2936C113.533 68.1442 113.792 67.9377 113.977 67.674C114.161 67.406 114.253 67.0939 114.253 66.738C114.253 66.3996 114.172 66.103 114.01 65.8481C113.851 65.5888 113.627 65.3867 113.337 65.2417C113.052 65.0967 112.718 65.0241 112.335 65.0241C111.949 65.0241 111.595 65.0945 111.274 65.2351C110.953 65.3713 110.696 65.5669 110.503 65.8217C110.309 66.0766 110.206 66.3754 110.193 66.7182H107.457C107.471 65.9404 107.692 65.2549 108.123 64.6616C108.554 64.0683 109.134 63.6047 109.863 63.2707C110.597 62.9324 111.426 62.7632 112.348 62.7632C113.28 62.7632 114.095 62.9324 114.794 63.2707C115.493 63.6091 116.035 64.0661 116.422 64.6418C116.813 65.2131 117.007 65.8547 117.002 66.5666C117.007 67.3225 116.771 67.9531 116.297 68.4584C115.827 68.9638 115.214 69.2846 114.458 69.4208V69.5263C115.451 69.6537 116.207 69.9987 116.725 70.5612C117.248 71.1193 117.508 71.818 117.503 72.6574C117.508 73.4264 117.286 74.1097 116.837 74.7074C116.394 75.305 115.781 75.7752 114.998 76.118C114.216 76.4608 113.32 76.6322 112.309 76.6322Z" fill="white"/>
</g>
<g id="&#208;&#162;&#208;&#160;&#208;&#144;&#208;&#157;&#208;&#161;&#208;&#159;&#208;&#158;&#208;&#160;&#208;&#162;&#208;&#157;&#208;&#144;&#208;&#175;">
<path d="M19.8015 32.8169V30.4636H30.8888V32.8169H26.7558V43.9635H23.9345V32.8169H19.8015Z" fill="white"/>
<path d="M31.4153 43.9635V30.4636H36.7414C37.7654 30.4636 38.6377 30.6592 39.3583 31.0503C40.079 31.437 40.6284 31.9753 41.0063 32.6653C41.3886 33.3508 41.5798 34.1418 41.5798 35.0383C41.5798 35.9347 41.3864 36.7258 40.9997 37.4113C40.613 38.0968 40.0527 38.6308 39.3188 39.0131C38.5893 39.3954 37.706 39.5866 36.6689 39.5866H33.2742V37.2992H36.2075C36.7568 37.2992 37.2094 37.2048 37.5654 37.0158C37.9257 36.8224 38.1938 36.5566 38.3696 36.2182C38.5498 35.8754 38.6399 35.4821 38.6399 35.0383C38.6399 34.59 38.5498 34.1989 38.3696 33.8649C38.1938 33.5266 37.9257 33.2651 37.5654 33.0805C37.2051 32.8916 36.748 32.7971 36.1943 32.7971H34.2695V43.9635H31.4153Z" fill="white"/>
<path d="M42.9023 43.9635H39.8437L44.504 30.4636H48.1822L52.836 43.9635H49.7774L46.3959 33.5485H46.2904L42.9023 43.9635ZM42.7111 38.6571H49.9356V40.8851H42.7111V38.6571Z" fill="white"/>
<path d="M53.1615 43.9635V30.4636H56.0157V36.0336H61.8098V30.4636H64.6574V43.9635H61.8098V38.3869H56.0157V43.9635H53.1615Z" fill="white"/>
<path d="M77.6225 35.1899H74.7354C74.6826 34.8164 74.575 34.4846 74.4124 34.1945C74.2498 33.9001 74.041 33.6496 73.7862 33.4431C73.5313 33.2365 73.2369 33.0783 72.9029 32.9685C72.5733 32.8586 72.2151 32.8037 71.8284 32.8037C71.1297 32.8037 70.5211 32.9773 70.0025 33.3244C69.484 33.6672 69.0819 34.1682 68.7962 34.8273C68.5106 35.4821 68.3678 36.2775 68.3678 37.2135C68.3678 38.1759 68.5106 38.9845 68.7962 39.6393C69.0863 40.2941 69.4906 40.7884 70.0091 41.1224C70.5277 41.4564 71.1275 41.6234 71.8087 41.6234C72.191 41.6234 72.5447 41.5729 72.8699 41.4718C73.1995 41.3707 73.4917 41.2235 73.7466 41.0301C74.0015 40.8324 74.2124 40.5929 74.3794 40.3116C74.5508 40.0304 74.6695 39.7096 74.7354 39.3493L77.6225 39.3624C77.5478 39.9821 77.3611 40.5797 77.0623 41.1554C76.7678 41.7267 76.3701 42.2386 75.8691 42.6913C75.3726 43.1395 74.7793 43.4954 74.0894 43.7591C73.4038 44.0184 72.6282 44.148 71.7625 44.148C70.5584 44.148 69.4818 43.8756 68.5326 43.3307C67.5878 42.7857 66.8407 41.9969 66.2914 40.9642C65.7465 39.9315 65.474 38.6813 65.474 37.2135C65.474 35.7414 65.7509 34.489 66.3046 33.4563C66.8583 32.4236 67.6097 31.6369 68.5589 31.0964C69.5081 30.5515 70.576 30.2791 71.7625 30.2791C72.5447 30.2791 73.2698 30.3889 73.9378 30.6086C74.6101 30.8284 75.2056 31.1492 75.7241 31.571C76.2427 31.9885 76.6646 32.5005 76.9897 33.1069C77.3193 33.7133 77.5303 34.4077 77.6225 35.1899Z" fill="white"/>
<path d="M89.8461 30.4636V43.9635H87.0248V32.7839H81.5669V43.9635H78.7456V30.4636H89.8461Z" fill="white"/>
<path d="M103.67 37.2135C103.67 38.6857 103.391 39.9381 102.833 40.9708C102.279 42.0035 101.523 42.7923 100.565 43.3372C99.6115 43.8778 98.5392 44.148 97.3483 44.148C96.1486 44.148 95.072 43.8756 94.1184 43.3307C93.1648 42.7857 92.4111 41.9969 91.8574 40.9642C91.3037 39.9315 91.0269 38.6813 91.0269 37.2135C91.0269 35.7414 91.3037 34.489 91.8574 33.4563C92.4111 32.4236 93.1648 31.6369 94.1184 31.0964C95.072 30.5515 96.1486 30.2791 97.3483 30.2791C98.5392 30.2791 99.6115 30.5515 100.565 31.0964C101.523 31.6369 102.279 32.4236 102.833 33.4563C103.391 34.489 103.67 35.7414 103.67 37.2135ZM100.776 37.2135C100.776 36.2599 100.633 35.4557 100.348 34.801C100.066 34.1462 99.6686 33.6496 99.1545 33.3112C98.6403 32.9729 98.0383 32.8037 97.3483 32.8037C96.6584 32.8037 96.0563 32.9729 95.5422 33.3112C95.028 33.6496 94.6281 34.1462 94.3425 34.801C94.0612 35.4557 93.9206 36.2599 93.9206 37.2135C93.9206 38.1671 94.0612 38.9713 94.3425 39.6261C94.6281 40.2809 95.028 40.7775 95.5422 41.1158C96.0563 41.4542 96.6584 41.6234 97.3483 41.6234C98.0383 41.6234 98.6403 41.4542 99.1545 41.1158C99.6686 40.7775 100.066 40.2809 100.348 39.6261C100.633 38.9713 100.776 38.1671 100.776 37.2135Z" fill="white"/>
<path d="M104.485 43.9635V30.4636H109.811C110.835 30.4636 111.707 30.6592 112.428 31.0503C113.148 31.437 113.698 31.9753 114.076 32.6653C114.458 33.3508 114.649 34.1418 114.649 35.0383C114.649 35.9347 114.456 36.7258 114.069 37.4113C113.682 38.0968 113.122 38.6308 112.388 39.0131C111.659 39.3954 110.775 39.5866 109.738 39.5866H106.344V37.2992H109.277C109.826 37.2992 110.279 37.2048 110.635 37.0158C110.995 36.8224 111.263 36.5566 111.439 36.2182C111.619 35.8754 111.709 35.4821 111.709 35.0383C111.709 34.59 111.619 34.1989 111.439 33.8649C111.263 33.5266 110.995 33.2651 110.635 33.0805C110.274 32.8916 109.817 32.7971 109.264 32.7971H107.339V43.9635H104.485Z" fill="white"/>
<path d="M114.69 32.8169V30.4636H125.777V32.8169H121.644V43.9635H118.823V32.8169H114.69Z" fill="white"/>
<path d="M126.303 43.9635V30.4636H129.158V36.0336H134.952V30.4636H137.799V43.9635H134.952V38.3869H129.158V43.9635H126.303Z" fill="white"/>
<path d="M141.18 43.9635H138.122L142.782 30.4636H146.46L151.114 43.9635H148.055L144.674 33.5485H144.568L141.18 43.9635ZM140.989 38.6571H148.213V40.8851H140.989V38.6571Z" fill="white"/>
<path d="M161.801 43.9635H158.954V32.7971H157.029C156.48 32.7971 156.023 32.8784 155.658 33.041C155.298 33.1992 155.027 33.4321 154.847 33.7397C154.667 34.0473 154.577 34.4252 154.577 34.8735C154.577 35.3173 154.667 35.6887 154.847 35.9875C155.027 36.2863 155.298 36.5104 155.658 36.6598C156.018 36.8092 156.471 36.884 157.016 36.884H160.114V39.1779H156.554C155.522 39.1779 154.638 39.0065 153.905 38.6637C153.171 38.3209 152.61 37.8288 152.224 37.1872C151.837 36.5412 151.644 35.77 151.644 34.8735C151.644 33.9814 151.833 33.2058 152.211 32.5466C152.593 31.883 153.144 31.3711 153.865 31.0107C154.59 30.646 155.462 30.4636 156.482 30.4636H161.801V43.9635ZM154.518 37.82H157.596L154.313 43.9635H151.162L154.518 37.82Z" fill="white"/>
</g>
<g id="&#208;&#157;&#208;&#149;&#208;&#148;&#208;&#149;&#208;&#155;&#208;&#175;">
<path d="M39.7476 60.2056V46.7058H42.6018V52.2758H48.3959V46.7058H51.2435V60.2056H48.3959V54.6291H42.6018V60.2056H39.7476Z" fill="white"/>
<path d="M52.2974 60.2056V46.7058H61.394V49.0591H55.1516V52.2758H60.926V54.6291H55.1516V57.8524H61.4203V60.2056H52.2974Z" fill="white"/>
<path d="M61.6321 63.462V57.9315H62.5484C62.8604 57.7074 63.146 57.391 63.4053 56.9823C63.6646 56.5692 63.8865 56.0001 64.0711 55.275C64.2556 54.5456 64.3875 53.592 64.4666 52.4142L64.8489 46.7058H73.7807V57.9315H75.2572V63.4488H72.5151V60.2056H64.3743V63.462H61.6321ZM65.8442 57.9315H71.0385V49.0591H67.4197L67.2087 52.4142C67.1516 53.3063 67.0571 54.0973 66.9253 54.7873C66.7978 55.4772 66.6418 56.0814 66.4573 56.6C66.2771 57.1141 66.0727 57.558 65.8442 57.9315Z" fill="white"/>
<path d="M75.6931 60.2056V46.7058H84.7897V49.0591H78.5473V52.2758H84.3217V54.6291H78.5473V57.8524H84.8161V60.2056H75.6931Z" fill="white"/>
<path d="M85.0279 60.2056V57.9117L85.4102 57.8788C85.9023 57.8392 86.3001 57.6525 86.6033 57.3185C86.9065 56.9801 87.1328 56.4418 87.2822 55.7035C87.436 54.9608 87.5349 53.9633 87.5788 52.7109L87.803 46.7058H96.9655V60.2056H94.1903V48.9931H90.4528L90.2419 53.693C90.1716 55.2047 89.9914 56.4396 89.7014 57.3976C89.4157 58.3556 88.9587 59.0631 88.3303 59.5201C87.7063 59.9771 86.8516 60.2056 85.7661 60.2056H85.0279Z" fill="white"/>
<path d="M108.382 60.2056H105.534V49.0393H103.609C103.06 49.0393 102.603 49.1206 102.238 49.2832C101.878 49.4414 101.607 49.6743 101.427 49.9819C101.247 50.2895 101.157 50.6674 101.157 51.1157C101.157 51.5595 101.247 51.9308 101.427 52.2297C101.607 52.5285 101.878 52.7526 102.238 52.902C102.598 53.0514 103.051 53.1261 103.596 53.1261H106.694V55.4201H103.135C102.102 55.4201 101.219 55.2487 100.485 54.9059C99.7508 54.5631 99.1905 54.071 98.8037 53.4294C98.417 52.7834 98.2237 52.0121 98.2237 51.1157C98.2237 50.2236 98.4126 49.448 98.7906 48.7888C99.1729 48.1252 99.7244 47.6133 100.445 47.2529C101.17 46.8882 102.042 46.7058 103.062 46.7058H108.382V60.2056ZM101.098 54.0622H104.176L100.893 60.2056H97.7425L101.098 54.0622Z" fill="white"/>
</g>
</g>
</svg>
