<svg width="40" height="40" viewBox="0 0 40 40" fill="none" xmlns="http://www.w3.org/2000/svg">
<g id="Traced" clip-path="url(#clip0_177_8325)">
<path id="Vector" fill-rule="evenodd" clip-rule="evenodd" d="M4.27836 0.118281C3.17133 0.524921 2.47915 1.69203 2.71516 2.75391C2.76532 2.97953 2.82821 3.23859 2.855 3.32976C2.89415 3.4632 2.86227 3.50578 2.69149 3.54867C2.57477 3.57797 2.28047 3.80219 2.03735 4.04703C1.37454 4.71461 1.17696 5.48922 1.44375 6.3743C1.51657 6.61594 1.53032 6.76766 1.48094 6.78445C1.20063 6.87984 0.62477 7.36351 0.411254 7.68305C0.0833639 8.17359 -0.0264017 8.59742 0.0206295 9.19031C0.0664889 9.7675 0.372895 10.3795 0.792426 10.7316L1.07915 10.9723L0.929926 11.2648C0.404614 12.2945 0.687036 13.5127 1.60032 14.1564L1.95313 14.4051V17.8105V21.2158L1.07954 22.6587C0.599067 23.4523 0.161176 24.2246 0.106411 24.375C-0.0481205 24.7993 -0.0438236 35.2467 0.11102 35.6857C0.50977 36.8159 1.67954 37.5237 2.75391 37.2848C2.97954 37.2347 3.2386 37.1718 3.32977 37.145C3.46321 37.1059 3.50579 37.1377 3.54868 37.3085C3.57797 37.4252 3.80219 37.7195 4.04704 37.9627C4.71461 38.6255 5.48922 38.823 6.3743 38.5562C6.61594 38.4834 6.76766 38.4697 6.78446 38.5191C6.87985 38.7994 7.36352 39.3752 7.68305 39.5887C8.1736 39.9166 8.59743 40.0264 9.19032 39.9794C9.76586 39.9337 10.3792 39.6273 10.7286 39.2112L10.9663 38.928L11.4011 39.1279C11.9532 39.3816 12.6832 39.3959 13.2091 39.1634C13.6335 38.9755 14.1056 38.5755 14.2638 38.2697L14.379 38.0469L17.795 38.047L21.2109 38.047L22.6563 38.9158C23.4512 39.3935 24.2378 39.833 24.4044 39.8923C24.6504 39.9798 25.6972 39.9999 29.9903 39.9995C33.5415 39.9993 35.3759 39.9713 35.5859 39.9144C36.7333 39.6033 37.5305 38.3512 37.2848 37.2461C37.2347 37.0205 37.1718 36.7614 37.145 36.6702C37.1059 36.5368 37.1377 36.4942 37.3085 36.4513C37.4252 36.422 37.7195 36.1978 37.9627 35.953C38.6255 35.2854 38.8231 34.5108 38.5563 33.6257C38.4834 33.3841 38.4697 33.2323 38.5191 33.2155C39.0278 33.0425 39.7915 32.1994 39.9077 31.6824C39.937 31.552 39.9795 32.3418 40.002 33.4375C40.0246 34.5332 40.0428 32.9688 40.0425 29.9609C40.042 25.7121 40.0325 25.1719 40 27.5391C39.977 29.2148 39.9497 30.5156 39.9393 30.4297C39.907 30.162 39.467 29.4708 39.1863 29.2468L38.9181 29.0329L39.0688 28.7378C39.5954 27.7054 39.314 26.488 38.3997 25.8436L38.0469 25.5949L38.047 22.192L38.047 18.7891L38.9158 17.3438C39.3935 16.5488 39.8336 15.7605 39.8936 15.5918C40.0395 15.182 40.0648 4.98742 39.9213 4.44469C39.5808 3.15687 38.1498 2.35117 36.9531 2.77344C36.5185 2.9268 36.51 2.92531 36.4497 2.685C36.4213 2.57187 36.1978 2.28047 35.953 2.03734C35.2854 1.37453 34.5108 1.17695 33.6257 1.44375C33.3841 1.51656 33.2323 1.53031 33.2156 1.48094C33.1202 1.20062 32.6365 0.624765 32.317 0.411249C31.8264 0.0833588 31.4026 -0.0264068 30.8097 0.0206245C30.2341 0.0663276 29.6208 0.372656 29.2714 0.788749L29.0337 1.07195L28.5989 0.872109C27.6062 0.415859 26.4 0.750624 25.8069 1.64695L25.6042 1.95312L22.1966 1.95305L18.7891 1.95297L17.3438 1.08422C16.5488 0.606484 15.7622 0.167031 15.5956 0.107734C15.1512 -0.0504693 4.71118 -0.0407818 4.27836 0.118281ZM4.68758 1.41586C3.95321 1.70867 3.79477 2.5857 4.38618 3.08336C4.62125 3.28109 4.62243 3.28125 6.23649 3.28172C7.12477 3.28195 7.98235 3.31844 8.14227 3.36281C8.6968 3.51687 8.84532 4.05734 8.44352 4.45914L8.21516 4.6875H5.85766C3.12266 4.6875 3.0579 4.70055 2.79071 5.30445C2.64821 5.62672 2.64375 5.68789 2.74266 5.97156C2.81063 6.16648 2.95141 6.35102 3.11704 6.46227C3.37383 6.63477 3.43977 6.64062 5.13477 6.64062H6.88704L7.1154 6.86898C7.49001 7.24359 7.39594 7.73336 6.91032 7.93633C6.70204 8.02328 6.14665 8.04687 4.3054 8.04687H1.96508L1.72618 8.24797C1.59477 8.35851 1.44688 8.58359 1.39758 8.74812C1.32133 9.00266 1.32985 9.09125 1.45477 9.34281C1.53547 9.50539 1.70079 9.71094 1.82196 9.79961C2.0318 9.9532 2.15774 9.96187 4.43915 9.98117C6.02321 9.99445 6.89383 10.0312 7.00657 10.0892C7.38118 10.2823 7.42766 10.8586 7.09368 11.1697C6.93196 11.3204 6.82485 11.3281 4.90461 11.3281C2.65454 11.3281 2.4636 11.3621 2.18954 11.8117C1.94321 12.2157 1.98032 12.6029 2.2986 12.9504L2.56594 13.2422L6.7586 13.2812L10.9512 13.3203L11.1396 13.5395C11.5048 13.9641 11.4318 14.1425 10.3612 15.4416C9.26086 16.7768 9.21875 16.8423 9.21875 17.217C9.21875 17.6239 9.48727 17.896 9.93891 17.947L10.3024 17.988L13.822 14.5213C16.1888 12.1899 17.4626 10.9907 17.7114 10.8594C18.0568 10.677 18.1706 10.6623 19.4213 10.637L20.7613 10.6099L20.6896 10.2911C20.5748 9.77992 20.7743 9.06148 21.1508 8.63086C21.6477 8.06226 22.4896 7.75531 23.1884 7.88781C23.722 7.98906 23.9113 8.09367 24.6727 8.70836L25.3125 9.225V6.29219V3.35937H22.0827C19.5944 3.35937 18.7724 3.33516 18.502 3.25375C18.3091 3.1957 17.4677 2.73867 16.6325 2.23812L15.1138 1.32812L9.99829 1.33305C6.79415 1.33617 4.80985 1.36711 4.68758 1.41586ZM30.6306 1.465C30.4832 1.54008 30.2899 1.70078 30.2009 1.82195C30.0466 2.03203 30.0381 2.155 30.0188 4.43914C30.0056 6.0232 29.9688 6.89383 29.9108 7.00656C29.7177 7.38117 29.1414 7.42766 28.8303 7.09367C28.6796 6.93195 28.6719 6.82484 28.6719 4.90461C28.6719 2.65453 28.6379 2.46359 28.1883 2.18953C28.0461 2.10281 27.7938 2.03172 27.6275 2.03156C27.3805 2.03133 27.27 2.08656 27.022 2.33453L26.7188 2.63789V6.63391C26.7188 10.891 26.7059 11.0478 26.3398 11.2437C25.957 11.4486 25.7773 11.3594 24.5604 10.3602C23.912 9.82789 23.3085 9.35328 23.2193 9.30555C22.6817 9.01781 22.0313 9.39727 22.0313 9.99867C22.0313 10.3198 22.0535 10.3444 25.4883 13.8298C27.8381 16.2142 29.0079 17.4569 29.1406 17.7096C29.3227 18.0562 29.3377 18.1716 29.3629 19.4139L29.3898 20.7465L29.9156 20.7167C30.5986 20.6781 31.1092 20.888 31.5941 21.4064C32.1936 22.0472 32.3395 22.9925 31.9555 23.7455C31.8754 23.9023 31.577 24.3191 31.2925 24.6716L30.775 25.3125H33.7078H36.6406V22.0827C36.6406 19.5814 36.6646 18.7732 36.7471 18.4991C36.8056 18.3046 37.2539 17.4816 37.7432 16.6703L38.6328 15.1953V9.94711C38.6328 4.76758 38.6307 4.69609 38.4715 4.47836C38.3828 4.35703 38.1773 4.19172 38.0147 4.11101C37.7631 3.98609 37.6745 3.97758 37.42 4.05383C37.2555 4.10312 37.0304 4.25102 36.9198 4.38242L36.7188 4.62133L36.7183 6.23648C36.7181 7.12476 36.6816 7.98234 36.6372 8.14227C36.4831 8.6968 35.9427 8.84531 35.5409 8.44351L35.3125 8.21516V5.85766C35.3125 3.12266 35.2995 3.05789 34.6956 2.7907C34.3733 2.6482 34.3121 2.64375 34.0284 2.74266C33.8335 2.81062 33.649 2.95141 33.5377 3.11703C33.3652 3.37383 33.3594 3.43976 33.3594 5.13476V6.88703L33.131 7.11539C32.7564 7.49 32.2666 7.39594 32.0637 6.91031C31.9767 6.70211 31.9531 6.14726 31.9531 4.30992C31.9531 2.03219 31.9489 1.96883 31.7838 1.75891C31.622 1.5532 31.2113 1.32797 30.9986 1.32828C30.9435 1.32828 30.7779 1.38984 30.6306 1.465ZM0.0250045 8.98437C0.0250045 9.26367 0.0392233 9.37789 0.0564889 9.23828C0.0738326 9.09867 0.0738326 8.87008 0.0564889 8.73047C0.0392233 8.59086 0.0250045 8.70508 0.0250045 8.98437ZM15.139 15.1354L12.0313 18.2395V19.9964V21.7533L15.1354 24.861L18.2395 27.9687H19.9964H21.7533L24.861 24.8646L27.9688 21.7605V20.0036V18.2467L24.8646 15.139L21.7605 12.0312H20.0036H18.2467L15.139 15.1354ZM3.35938 17.9173C3.35938 20.4186 3.3354 21.2268 3.2529 21.5009C3.19438 21.6954 2.7461 22.5184 2.2568 23.3297L1.36719 24.8047V30.0529C1.36719 35.2324 1.3693 35.3039 1.52852 35.5216C1.61719 35.643 1.81727 35.8056 1.97313 35.8831C2.34329 36.0673 2.79243 35.9595 3.08024 35.6175L3.28125 35.3787L3.28172 33.7635C3.28196 32.8752 3.31844 32.0177 3.36282 31.8577C3.51688 31.3032 4.05735 31.1547 4.45915 31.5565L4.6875 31.7848V34.1423C4.6875 36.8773 4.70055 36.9421 5.30446 37.2093C5.62672 37.3518 5.6879 37.3563 5.97157 37.2573C6.16649 37.1894 6.35102 37.0486 6.46227 36.883C6.63477 36.6262 6.64063 36.5602 6.64063 34.8652V33.113L6.86899 32.8846C7.2436 32.51 7.73336 32.6041 7.93633 33.0897C8.02329 33.298 8.04688 33.8534 8.04688 35.6946V38.0349L8.24797 38.2738C8.35852 38.4052 8.5836 38.5531 8.74813 38.6024C9.00266 38.6787 9.09125 38.6702 9.34282 38.5452C9.50539 38.4645 9.71094 38.2992 9.79961 38.178C9.95321 37.9682 9.96188 37.8423 9.98118 35.5609C9.99446 33.9768 10.0312 33.1062 10.0892 32.9934C10.2823 32.6188 10.8586 32.5723 11.1697 32.9063C11.3204 33.068 11.3281 33.1752 11.3281 35.0954C11.3281 37.2332 11.3597 37.4557 11.7072 37.7653C11.8032 37.8509 12.0351 37.9289 12.2561 37.9502C12.6087 37.9841 12.6623 37.9652 12.9405 37.7105L13.2422 37.4341L13.2813 33.2414L13.3203 29.0488L13.5395 28.8604C13.9521 28.5056 14.1514 28.5793 15.2766 29.5027C16.7611 30.7209 16.852 30.7812 17.2052 30.7812C17.6428 30.7812 17.9688 30.4483 17.9688 30.0013C17.9688 29.6802 17.9464 29.6554 14.5117 26.1684C12.1873 23.8084 10.9907 22.5373 10.8594 22.2886C10.677 21.9432 10.6623 21.8295 10.637 20.5787L10.6099 19.2388L10.2931 19.3099C10.0886 19.3559 9.83141 19.3511 9.56821 19.2964C8.47618 19.0698 7.72594 18.0598 7.8379 16.9673C7.89243 16.4352 8.08149 16.0791 8.71836 15.3092L9.23274 14.6875H6.2961H3.35938V17.9173ZM26.1781 25.4787C23.8112 27.8101 22.5374 29.0093 22.2886 29.1406C21.9432 29.323 21.8295 29.3377 20.5787 29.363L19.2388 29.3901L19.3104 29.7089C19.4612 30.38 19.0739 31.2812 18.4383 31.738C18.0031 32.0509 17.3186 32.2084 16.8116 32.1122C16.278 32.0109 16.0887 31.9063 15.3273 31.2916L14.6875 30.775V33.7078V36.6406H17.9173C20.4056 36.6406 21.2276 36.6648 21.498 36.7462C21.6909 36.8043 22.5335 37.2621 23.3702 37.7635L24.8917 38.6752L30.0964 38.654C35.2151 38.6331 35.3048 38.6302 35.5216 38.4715C35.643 38.3828 35.8083 38.1773 35.889 38.0147C36.0139 37.7631 36.0224 37.6745 35.9462 37.42C35.8969 37.2555 35.749 37.0304 35.6176 36.9198L35.3787 36.7188L33.7635 36.7183C32.8752 36.718 32.0177 36.6816 31.8577 36.6372C31.3032 36.4831 31.1547 35.9427 31.5565 35.5409L31.7848 35.3125H34.1423C36.8773 35.3125 36.9421 35.2994 37.2093 34.6955C37.3518 34.3733 37.3563 34.3121 37.2574 34.0284C37.1894 33.8335 37.0486 33.649 36.883 33.5377C36.6262 33.3652 36.5602 33.3594 34.8652 33.3594H33.113L32.8846 33.131C32.51 32.7564 32.6041 32.2666 33.0897 32.0637C33.298 31.9767 33.8534 31.9531 35.6946 31.9531H38.0349L38.2738 31.752C38.4052 31.6415 38.5531 31.4164 38.6024 31.2519C38.6787 30.9973 38.6702 30.9087 38.5452 30.6572C38.4645 30.4946 38.2992 30.2891 38.1781 30.2004C37.9682 30.0468 37.8423 30.0381 35.5609 30.0188C33.9768 30.0055 33.1062 29.9688 32.9934 29.9108C32.6188 29.7177 32.5723 29.1414 32.9063 28.8303C33.0681 28.6796 33.1752 28.6719 35.0954 28.6719C37.3455 28.6719 37.5364 28.6379 37.8105 28.1883C37.8972 28.0461 37.9683 27.7937 37.9684 27.6275C37.9687 27.3805 37.9134 27.27 37.6655 27.022L37.3621 26.7187H33.3661C29.109 26.7187 28.9522 26.7059 28.7563 26.3398C28.5514 25.957 28.6406 25.7773 29.6398 24.5604C30.7423 23.2175 30.7813 23.1569 30.7813 22.783C30.7813 22.3761 30.5127 22.104 30.0611 22.053L29.6976 22.012L26.1781 25.4787ZM0.0369576 30.0391C0.0370358 33.0469 0.0467233 34.266 0.0585983 32.7482C0.0704733 31.2304 0.0703951 28.7695 0.0585201 27.2795C0.0467233 25.7895 0.0369576 27.0312 0.0369576 30.0391Z" fill="white"/>
</g>
<defs>
<clipPath id="clip0_177_8325">
<rect width="40" height="40" fill="white"/>
</clipPath>
</defs>
</svg>
