<svg width="40" height="40" viewBox="0 0 40 40" fill="none" xmlns="http://www.w3.org/2000/svg">
<g id="Traced" clip-path="url(#clip0_177_8334)">
<path id="Vector" fill-rule="evenodd" clip-rule="evenodd" d="M19.9518 0.0728174C19.152 0.268052 18.3866 0.899614 18.0031 1.68071L17.7734 2.14844L17.7502 4.76797L17.7268 7.38758L17.2465 7.47883C16.65 7.59219 16.2127 7.88946 15.9012 8.39329C15.5777 8.91641 15.5241 9.74227 15.7794 10.2696C16.0957 10.9231 16.8227 11.4063 17.4895 11.4063H17.7344V11.9871C17.7344 13.8867 18.7513 15.8758 20.3182 17.0409L20.8594 17.4434V18.0173C20.8594 18.5332 20.8376 18.6156 20.6444 18.832C20.4368 19.0643 20.3198 19.0968 17.2655 19.7711C14.6565 20.3471 14.0022 20.5183 13.5348 20.747C12.5495 21.2295 11.6357 22.2292 11.2582 23.2381C10.9691 24.0107 8.51461 34.5422 8.51688 35C8.52063 35.7406 8.96727 36.4644 9.63188 36.8068C9.79469 36.8907 10.5681 37.1527 11.3506 37.3891C12.1332 37.6254 12.8877 37.8552 13.0273 37.8998C13.2781 37.9799 13.2812 37.9868 13.2812 38.4703C13.2812 39.0993 13.5174 39.5761 13.9512 39.823L14.2578 39.9974L24.2422 39.9988C35.0182 40.0001 34.4222 40.0228 34.8205 39.5962C35.0828 39.3152 35.2344 38.8788 35.2344 38.4043V37.9755L36.0352 37.7326C38.9428 36.8509 39.2079 36.7357 39.6008 36.184C39.833 35.8577 40 35.3531 40 34.9773C40 34.6343 37.5028 23.9822 37.2588 23.2843C36.8758 22.1888 35.8408 21.1026 34.7238 20.6238C34.5284 20.5401 33.0077 20.17 31.3444 19.8015C29.6812 19.4329 28.2253 19.0948 28.1093 19.05C27.7665 18.9177 27.6562 18.6671 27.6562 18.0199V17.4406L28.1055 17.1021C29.6946 15.9046 30.6351 14.155 30.7578 12.168L30.8048 11.4063H31.0902C31.4577 11.4063 32.1252 11.073 32.393 10.7556C33.1884 9.81352 33.0124 8.43204 32.0126 7.7704C31.8374 7.65446 31.4909 7.52094 31.2423 7.47375L30.7906 7.3879L30.7664 4.80727L30.7422 2.22657L30.5236 1.75782C30.2366 1.14258 29.6349 0.538286 29.0316 0.259458L28.5547 0.0390674L24.375 0.0262549C22.0762 0.0191456 20.0857 0.0401612 19.9518 0.0728174ZM20.0949 1.26868C19.9538 1.31469 19.6846 1.48758 19.4967 1.65297C18.9341 2.14821 18.9062 2.30868 18.9062 5.05446V7.42485L19.082 7.38844C19.1787 7.36836 19.4688 7.33032 19.7266 7.30383C19.9844 7.27735 20.4881 7.18766 20.846 7.10446C21.2039 7.02118 21.5994 6.95313 21.7249 6.95313C22.1905 6.95313 22.4309 7.5129 22.1267 7.88868C21.9587 8.0961 20.9029 8.36844 19.6998 8.51485L18.8916 8.61313L18.9227 10.7323C18.9532 12.8248 18.9565 12.8598 19.1786 13.5079C19.7422 15.1523 21.0777 16.4513 22.7344 16.9663C23.2197 17.1172 23.488 17.1479 24.2969 17.1455C25.1817 17.1428 25.3366 17.1202 25.9467 16.9045C27.271 16.4362 28.3737 15.4791 28.975 14.2761C29.512 13.2017 29.5516 12.9632 29.5859 10.5859L29.6163 8.47657L28.9292 8.14977C27.9813 7.69883 26.8635 6.75586 26.3281 5.95547L26.2109 5.78024L25.5469 6.25868C24.3602 7.11368 23.9605 7.20876 23.6769 6.70352C23.4769 6.34711 23.6274 6.12125 24.421 5.58711C24.8114 5.32438 25.2871 4.98133 25.4781 4.82485C25.9602 4.42985 26.1821 4.3568 26.5417 4.47461C26.756 4.54485 26.9014 4.6743 27.0881 4.96094C27.522 5.62727 28.1767 6.29915 28.7951 6.71274C29.1213 6.93094 29.4402 7.10938 29.504 7.10938C29.6043 7.10938 29.6165 6.79836 29.5951 4.78516C29.5728 2.69485 29.5556 2.43344 29.4245 2.18751C29.2195 1.80336 28.9949 1.57399 28.6328 1.37915C28.3255 1.21375 28.2532 1.21071 24.3359 1.19797C21.6827 1.18938 20.2659 1.21297 20.0949 1.26868ZM1.44219 8.58274C0.866562 8.85508 0.379453 9.38235 0.158828 9.97188C0.0101562 10.3694 0 10.5727 0 13.1581C0 15.4865 0.0197656 15.9808 0.126172 16.3102C0.318672 16.9063 0.741719 17.4054 1.32812 17.7282L1.83594 18.0078L4.70219 18.0469L7.56852 18.0859L8.16898 18.7891C8.4993 19.1758 8.84422 19.5349 8.93555 19.5871C9.16289 19.717 9.49453 19.7106 9.76477 19.5708C10.1302 19.3817 10.2344 19.1636 10.2344 18.5866V18.0674L10.8051 18.0308C11.838 17.9645 12.6158 17.4531 13.0384 16.5625L13.2422 16.1328V13.1641C13.2422 10.2965 13.2365 10.1831 13.0752 9.83422C12.8323 9.30883 12.397 8.86688 11.856 8.59657L11.3813 8.35938L6.64766 8.35946L1.91406 8.35954L1.44219 8.58274ZM17.2959 8.67032C17.0481 8.77047 16.7969 9.1325 16.7969 9.38946C16.7969 9.85219 17.152 10.2344 17.5818 10.2344C17.7234 10.2344 17.7344 10.1757 17.7344 9.41407C17.7344 8.52915 17.7173 8.50008 17.2959 8.67032ZM30.7812 9.41407V10.2344H30.9844C31.253 10.2344 31.7188 9.77188 31.7188 9.50508C31.7188 9.1725 31.5789 8.91399 31.3105 8.75032C30.8163 8.44899 30.7812 8.49305 30.7812 9.41407ZM21.1328 9.23086C20.8259 9.39868 20.7812 9.5386 20.7812 10.331C20.7812 11.0442 20.7954 11.115 20.973 11.2926C21.2191 11.5387 21.558 11.5433 21.7833 11.3036C21.9356 11.1413 21.9531 11.0373 21.9531 10.2936C21.9531 9.49094 21.9466 9.4593 21.7473 9.30258C21.5179 9.12211 21.3644 9.10422 21.1328 9.23086ZM26.7427 9.32915C26.5377 9.50532 26.5217 9.56313 26.4965 10.2172C26.4761 10.7488 26.4998 10.9752 26.5956 11.1603C26.738 11.4356 27.0271 11.5435 27.3335 11.4357C27.6372 11.3289 27.732 11.0566 27.7332 10.287C27.7343 9.62821 27.7241 9.58711 27.506 9.36899C27.2283 9.09125 27.0312 9.08102 26.7427 9.32915ZM1.8418 9.70829C1.64859 9.81829 1.46664 10.0127 1.34984 10.2341L1.16453 10.5854L1.18773 13.2872L1.21094 15.989L1.43625 16.2842C1.87461 16.8588 1.95219 16.8713 5.06633 16.8733C8.2293 16.8752 8.11867 16.8545 8.67273 17.5491L9.02344 17.9886L9.06758 17.7248C9.17648 17.0736 9.47844 16.8758 10.3672 16.8733C11.3305 16.8706 11.8441 16.5541 12.0349 15.8457C12.0872 15.6517 12.1087 14.6038 12.0938 12.9789L12.0703 10.4179L11.8763 10.135C11.7697 9.97938 11.5539 9.77993 11.397 9.69165C11.1182 9.535 11.0068 9.53125 6.63 9.53251L2.14844 9.53383L1.8418 9.70829ZM3.30969 11.4977C2.96625 11.6639 2.90578 12.123 3.18539 12.4414C3.29617 12.5676 3.56039 12.5781 6.605 12.5781C9.63664 12.5781 9.91836 12.567 10.0741 12.4408C10.3287 12.2347 10.3154 11.8195 10.047 11.5885L9.835 11.4063L6.65578 11.4116C4.63688 11.4149 3.41562 11.4463 3.30969 11.4977ZM3.30969 13.8414C2.96625 14.0077 2.90578 14.4667 3.18539 14.7852C3.29617 14.9113 3.56039 14.9219 6.605 14.9219C9.63664 14.9219 9.91836 14.9107 10.0741 14.7845C10.3287 14.5784 10.3154 14.1632 10.047 13.9323L9.835 13.75L6.65578 13.7553C4.63688 13.7587 3.41562 13.7901 3.30969 13.8414ZM22.662 14.5027C22.24 15.0391 22.6718 15.5032 23.7838 15.7088C24.8405 15.9041 26.1509 15.3304 25.9738 14.7499C25.8366 14.2999 25.4922 14.187 24.9489 14.4141C24.7946 14.4785 24.4782 14.5313 24.2458 14.5313C24.0133 14.5313 23.6969 14.4785 23.5427 14.4141C23.1191 14.2371 22.8495 14.2643 22.662 14.5027ZM22.0109 18.51C21.9637 19.0309 21.7007 19.5674 21.3621 19.8338L21.1616 19.9916L21.4987 20.2374C22.2654 20.7964 23.3608 21.1731 24.2117 21.1706C25.1592 21.1676 26.4704 20.7174 27.0578 20.1934L27.2797 19.9954L27.001 19.687C26.6408 19.2882 26.4844 18.9044 26.4844 18.4188C26.4844 18.0542 26.4729 18.0313 26.3086 18.0695C25.2895 18.3064 24.9305 18.3566 24.2578 18.3566C23.5764 18.3566 23.0156 18.2813 22.2574 18.0876C22.0579 18.0366 22.0531 18.0448 22.0109 18.51ZM17.1094 21.0151C14.1274 21.6873 13.8477 21.7902 13.1488 22.4726C12.4713 23.1339 12.3814 23.4052 11.2494 28.2031C10.6867 30.5879 10.2096 32.5964 10.1891 32.6664C10.1575 32.7738 10.2042 32.7882 10.486 32.7581C10.7076 32.7343 11.2116 32.8165 11.9805 33.0017C12.6185 33.1555 13.1722 33.2813 13.2109 33.2813C13.2496 33.2813 13.2812 32.829 13.2812 32.2762C13.2812 31.3777 13.2984 31.2492 13.4432 31.0652C13.6548 30.7962 14.0431 30.7846 14.2833 31.0402C14.4483 31.2159 14.4531 31.2768 14.4536 33.1691C14.4538 34.2873 14.4889 35.2429 14.5359 35.4123C14.581 35.5746 14.7231 35.8272 14.8516 35.9736C15.3308 36.5193 14.7862 36.4912 24.3878 36.467L33.0334 36.4453L33.3652 36.2109C33.5477 36.082 33.7705 35.8359 33.8602 35.6641C34.0208 35.3567 34.0234 35.2702 34.0234 30.3906C34.0234 27.6621 33.9971 25.3357 33.9648 25.2209C33.8809 24.9213 33.5438 24.5488 33.1964 24.3716C32.9045 24.2227 32.6782 24.2188 24.266 24.2188C18.3579 24.2188 15.5658 24.245 15.4152 24.3019C15.1026 24.42 14.7696 24.7534 14.6012 25.1172C14.4743 25.3914 14.4563 25.643 14.4548 27.1715L14.4531 28.9134L14.2613 29.1051C14.0148 29.3516 13.7173 29.3494 13.4671 29.0992L13.2695 28.9016L13.2948 26.9313L13.3203 24.9609L13.5437 24.5313C13.8434 23.9552 14.4338 23.4071 14.9713 23.2059C15.398 23.0463 15.479 23.0451 24.361 23.0655L33.3203 23.0859L33.6947 23.2719C34.2143 23.5299 34.6967 24.0236 34.9668 24.5737L35.1953 25.0391L35.2181 29.1602C35.2306 31.4267 35.2705 33.2813 35.3069 33.2813C35.3432 33.2813 35.8954 33.1549 36.5341 33.0006C37.2961 32.8164 37.8073 32.7323 38.0209 32.7559C38.2402 32.7801 38.3366 32.7633 38.3162 32.7045C38.2995 32.6565 37.8295 30.6836 37.2716 28.3203C36.7138 25.957 36.2055 23.8765 36.142 23.6969C35.8416 22.8479 35.0405 22.0189 34.2252 21.7134C33.9924 21.6263 32.6234 21.2952 31.1829 20.9778L28.5637 20.4008L28.074 20.8589C26.4476 22.3804 23.9483 22.7757 21.9004 21.8355C21.2214 21.5237 20.7673 21.2181 20.2818 20.7463C20.0805 20.5506 19.8909 20.3945 19.8603 20.3991C19.8297 20.4037 18.5918 20.6809 17.1094 21.0151ZM23.2202 27.9792C22.9762 28.073 22.622 28.3096 22.3531 28.5585C20.8471 29.9529 21.233 32.3101 23.1113 33.1906C23.4885 33.3674 23.6596 33.3984 24.2578 33.3984C24.8541 33.3984 25.0277 33.3671 25.4 33.1925C26.8549 32.5105 27.4661 30.7766 26.7602 29.3338C26.4936 28.7889 25.8305 28.1839 25.2702 27.9743C24.6911 27.7576 23.7913 27.7597 23.2202 27.9792ZM23.5943 29.1088C22.3991 29.6271 22.284 31.3432 23.4005 31.9976C24.2625 32.5027 25.2559 32.2046 25.716 31.3029C25.9531 30.8381 25.894 30.118 25.5823 29.6756C25.1465 29.0567 24.2824 28.8104 23.5943 29.1088ZM10.3152 34.0083C9.59102 34.2577 9.47469 35.3898 10.138 35.7328C10.2555 35.7935 11.0978 36.0712 12.0099 36.3498C13.2349 36.7239 13.6879 36.8327 13.7434 36.7657C13.7938 36.705 13.7391 36.5148 13.5772 36.1881C13.3941 35.8186 13.3268 35.5609 13.2985 35.1204L13.2613 34.5397L11.952 34.223C11.2319 34.0488 10.6299 33.9082 10.6143 33.9106C10.5988 33.9131 10.4641 33.957 10.3152 34.0083ZM36.6797 34.1841C36.0781 34.332 35.5069 34.4713 35.4102 34.4937C35.2616 34.528 35.2344 34.586 35.2344 34.8679C35.2344 35.3351 35.028 36.0798 34.8046 36.419C34.4703 36.9266 34.6323 36.9182 36.5574 36.328C37.973 35.894 38.3498 35.7488 38.5309 35.5677C38.9997 35.0989 38.8561 34.3305 38.2481 34.0543C38.073 33.9748 37.8945 33.9109 37.8516 33.9123C37.8086 33.9138 37.2812 34.0361 36.6797 34.1841ZM14.4855 37.7627C14.463 37.8212 14.4554 38.0761 14.4684 38.3291L14.4922 38.7891L24.214 38.8089C31.9398 38.8247 33.9485 38.8086 33.9979 38.7308C34.0713 38.6152 34.0832 37.9573 34.0151 37.7799C33.9722 37.6681 33.0389 37.6563 24.247 37.6563C16.1163 37.6563 14.5197 37.6737 14.4855 37.7627Z" fill="white"/>
</g>
<defs>
<clipPath id="clip0_177_8334">
<rect width="40" height="40" fill="white"/>
</clipPath>
</defs>
</svg>
