<svg width="40" height="40" viewBox="0 0 40 40" fill="none" xmlns="http://www.w3.org/2000/svg">
<g id="icon03">
<path id="Vector" fill-rule="evenodd" clip-rule="evenodd" d="M16.9138 3.52341C16.6767 3.61912 16.4224 3.96248 16.4224 4.18693C16.4224 4.33943 16.2491 4.34998 13.7346 4.34998C11.7663 4.34998 11.0173 4.37944 10.9367 4.46009C10.8636 4.53323 10.8266 4.93201 10.8266 5.64773C10.8266 6.65727 10.8395 6.73435 11.0305 6.86813C11.2034 6.98925 11.6291 7.011 13.8284 7.011C16.1292 7.011 16.4224 7.02733 16.4224 7.1557C16.4224 7.23526 16.543 7.42107 16.6905 7.56862C16.9228 7.80095 17.0271 7.83683 17.4703 7.83683C17.7516 7.83683 17.9812 7.86776 17.9803 7.90565C17.9795 7.94355 17.6737 8.55255 17.3009 9.2591L16.623 10.5437L15.6555 10.5697C14.7371 10.5944 14.6784 10.6079 14.5002 10.8344C14.3397 11.0385 14.3125 11.2052 14.3125 11.9825C14.3125 12.8257 14.3289 12.9084 14.5377 13.1171L14.7628 13.3424H18.8533H22.9438L23.1689 13.1171C23.3791 12.907 23.3942 12.8284 23.3942 11.9403C23.3942 11.0642 23.3773 10.9728 23.1819 10.7891C22.9946 10.6132 22.8666 10.5896 22.0969 10.5896H21.2244L20.4764 9.23616L19.7283 7.88271L20.254 7.82986C20.9498 7.75985 21.0743 7.69387 21.2082 7.32344L21.3212 7.011H24.3758C27.0961 7.011 27.4304 7.02687 27.4304 7.1557C27.4304 7.38749 27.9401 7.83683 28.2031 7.83683H28.4395V20.4078V32.9789H28.2177C27.5511 32.9789 27.4304 33.2735 27.4304 34.9012C27.4304 36.6835 27.2469 36.5575 29.8409 36.5575C31.5421 36.5575 31.9187 36.5335 32.0884 36.4146C32.2843 36.2775 32.2923 36.2152 32.2923 34.8506C32.2923 33.4639 32.2868 33.4238 32.0671 33.2041C31.9433 33.0803 31.7369 32.9789 31.6085 32.9789H31.375V32.0755C31.375 31.3168 31.3481 31.1478 31.2072 31.0203C30.9871 30.8211 30.7065 30.8276 30.5177 31.0362C30.3985 31.168 30.3659 31.3945 30.3659 32.0915V32.9789H29.9073H29.4486V20.4078V7.83683H29.9073H30.3659V18.5674V29.2981L30.5699 29.4409C30.8393 29.6297 30.9707 29.6211 31.1915 29.4003C31.3729 29.2188 31.375 29.0944 31.375 18.5268C31.375 9.23965 31.3925 7.83683 31.5083 7.83683C31.8018 7.83683 32.1129 7.60945 32.2183 7.31775L32.3292 7.011H33.0488C33.6905 7.011 33.7928 6.98659 33.9935 6.78573C34.204 6.57533 34.2188 6.49742 34.2188 5.60038C34.2188 5.07231 34.1931 4.57342 34.1618 4.49175C34.0617 4.23097 33.6147 4.0747 32.9686 4.0747C32.3846 4.0747 32.3382 4.05874 32.1026 3.77649L31.8538 3.47827H29.8635H27.8732L27.6518 3.73575C27.5301 3.87733 27.4304 4.07342 27.4304 4.1716C27.4304 4.33429 27.3618 4.34998 26.6528 4.34998C25.9245 4.34998 25.8656 4.36457 25.7249 4.57938C25.5858 4.79189 25.5858 4.82566 25.7249 5.03818C25.8656 5.25298 25.9245 5.26757 26.6528 5.26757H27.4304V5.63461V6.00165H24.3519H21.2732L21.3017 5.65755L21.3301 5.31345L22.6998 5.28794C23.519 5.27271 24.1181 5.22206 24.1905 5.16205C24.3417 5.03652 24.3483 4.607 24.2014 4.46009C24.1257 4.38439 23.6676 4.34998 22.7349 4.34998H21.3785L21.2493 4.04085C21.0068 3.4601 20.8961 3.43175 18.9017 3.43817C17.9164 3.44138 17.022 3.47974 16.9138 3.52341ZM17.4315 5.63461V6.82748H18.8533H20.2752V5.63461V4.44174H18.8533H17.4315V5.63461ZM28.4395 5.63461V6.82748H29.8614H31.2833V5.63461V4.44174H29.8614H28.4395V5.63461ZM32.2923 5.54285V6.00165H32.751H33.2097V5.54285V5.08406H32.751H32.2923V5.54285ZM11.8051 5.32878C11.7715 5.36236 11.744 5.52753 11.744 5.69581V6.00165H14.0832H16.4224V5.63461V5.26757H14.1444C12.8914 5.26757 11.8387 5.2951 11.8051 5.32878ZM18.3037 9.48694C18.0258 10.0413 17.7984 10.5161 17.7984 10.5422C17.7984 10.5683 18.2968 10.5896 18.9059 10.5896C19.7466 10.5896 20.0063 10.562 19.9838 10.4749C19.9257 10.2502 18.9439 8.48016 18.877 8.47961C18.8396 8.47933 18.5816 8.93271 18.3037 9.48694ZM15.3216 11.966V12.333H18.8533H22.3851V11.966V11.599H18.8533H15.3216V11.966ZM6.26762 16.7386C5.89729 16.8878 5.76061 17.3184 5.79547 18.2258C5.8251 18.994 5.8439 19.0619 6.08452 19.2688C6.29413 19.4491 6.44302 19.4903 6.88719 19.4903H7.43246V20.9125V22.3348H6.97975C6.03572 22.3348 5.78125 22.6368 5.78125 23.7571C5.78125 24.8773 6.03572 25.1793 6.97975 25.1793H7.43246V26.6016V28.0239H6.97975C6.03572 28.0239 5.78125 28.3258 5.78125 29.4461C5.78125 30.5664 6.03572 30.8684 6.97975 30.8684H7.43246V32.28V33.6916L6.83426 33.7296C5.96362 33.7852 5.83638 33.9392 5.79547 34.9878C5.75978 35.9052 5.8995 36.3188 6.29615 36.4697C6.65226 36.6051 23.5346 36.5868 23.7901 36.4508C24.1547 36.2564 24.2138 36.0844 24.2168 35.2083C24.2211 33.957 24.0412 33.7129 23.1146 33.7129H22.6603V32.2907V30.8684H23.1235C23.6241 30.8684 24.0717 30.6888 24.1628 30.4514C24.1941 30.3697 24.2198 29.8969 24.2198 29.4009C24.2198 28.5064 24.2175 28.497 23.9375 28.2614C23.7098 28.0697 23.5592 28.0239 23.1578 28.0239H22.6603V26.6016V25.1793H23.1444C23.6011 25.1793 23.9706 25.0295 24.1496 24.7717C24.1866 24.7183 24.2176 24.2551 24.2184 23.7423C24.2198 22.813 24.2188 22.8091 23.9375 22.5724C23.7098 22.3807 23.5592 22.3348 23.1578 22.3348H22.6603V20.9125V19.4903H23.1235C23.6241 19.4903 24.0717 19.3107 24.1628 19.0732C24.1941 18.9915 24.2198 18.5224 24.2198 18.0306C24.2198 17.1881 24.2061 17.1237 23.9831 16.914L23.7464 16.6916L18.1451 16.6665C13.2188 16.6445 12.5176 16.6587 12.3273 16.7834C12.0899 16.939 12.0317 17.3557 12.221 17.545C12.3041 17.6281 13.6622 17.6551 17.7709 17.6551H23.2107V18.068V18.4809H15.0005H6.79032V18.068V17.6551H8.61849C10.5982 17.6551 10.7349 17.6224 10.7349 17.149C10.7349 16.6961 10.4961 16.6452 8.39814 16.6515C7.33724 16.6547 6.37853 16.6939 6.26762 16.7386ZM8.44153 20.9125V22.3348H8.9002H9.35887V20.9125V19.4903H8.9002H8.44153V20.9125ZM10.3679 20.9125V22.3348H11.9733H13.5786V20.9125V19.4903H11.9733H10.3679V20.9125ZM14.5877 20.9125V22.3348H15.0464H15.505V20.9125V19.4903H15.0464H14.5877V20.9125ZM16.5141 20.9125V22.3348H18.1195H19.7248V20.9125V19.4903H18.1195H16.5141V20.9125ZM20.7339 20.9125V22.3348H21.1925H21.6512V20.9125V19.4903H21.1925H20.7339V20.9125ZM6.79032 23.7571V24.17H15.0005H23.2107V23.7571V23.3441H15.0005H6.79032V23.7571ZM8.44153 26.6016V28.0239H8.9002H9.35887V26.6016V25.1793H8.9002H8.44153V26.6016ZM10.3679 26.6016V28.0239H11.9733H13.5786V26.6016V25.1793H11.9733H10.3679V26.6016ZM14.5877 26.6016V28.0239H15.0464H15.505V26.6016V25.1793H15.0464H14.5877V26.6016ZM16.5141 26.6016V28.0239H18.1195H19.7248V26.6016V25.1793H18.1195H16.5141V26.6016ZM20.7339 26.6016V28.0239H21.1925H21.6512V26.6016V25.1793H21.1925H20.7339V26.6016ZM6.79032 29.4461V29.859H15.0005H23.2107V29.4461V29.0332H15.0005H6.79032V29.4461ZM8.44153 32.2907V33.7129H8.9002H9.35887V32.2907V30.8684H8.9002H8.44153V32.2907ZM10.3679 32.2907V33.7129H11.9733H13.5786V32.2907V30.8684H11.9733H10.3679V32.2907ZM14.5877 32.2907V33.7129H15.0464H15.505V32.2907V30.8684H15.0464H14.5877V32.2907ZM16.5141 32.2907V33.7129H18.1195H19.7248V32.2907V30.8684H18.1195H16.5141V32.2907ZM20.7339 32.2907V33.7129H21.1925H21.6512V32.2907V30.8684H21.1925H20.7339V32.2907ZM28.4395 34.7682V35.5481H29.8614H31.2833V34.7682V33.9882H29.8614H28.4395V34.7682ZM6.79032 35.1352V35.5481H15.0005H23.2107V35.1352V34.7223H15.0005H6.79032V35.1352Z" fill="white"/>
</g>
</svg>
