<svg width="40" height="40" viewBox="0 0 40 40" fill="none" xmlns="http://www.w3.org/2000/svg">
<g id="icon04">
<path id="Vector" fill-rule="evenodd" clip-rule="evenodd" d="M4.75864 4.26227C4.25747 4.60233 4.09166 4.90199 4.09166 5.4674C4.09166 6.08599 4.34447 6.49006 4.88428 6.73458C5.20477 6.87966 5.49115 6.90008 7.23063 6.90177L9.21196 6.90373V8.8212C9.21196 10.5883 9.19816 10.7579 9.03609 10.9849C8.44757 11.809 8.55051 12.9877 9.27056 13.6691C9.5727 13.955 10.0908 14.1844 10.4346 14.1844C10.6368 14.1844 10.9374 14.4379 12.0403 15.5395C13.0779 16.5755 13.3973 16.9476 13.3973 17.1202C13.3973 17.623 13.8324 18.2189 15.1536 19.5251C15.8773 20.2405 16.5597 20.8525 16.6701 20.8851C16.8322 20.9331 16.9733 20.8468 17.4063 20.435L17.9419 19.9255L18.8184 20.7841C19.3004 21.2563 19.7422 21.6426 19.8003 21.6426C19.9373 21.6426 20.3431 21.238 20.3431 21.1014C20.3431 21.0435 19.9559 20.6033 19.4828 20.1231L18.6224 19.2499L19.0375 18.8075C19.2657 18.5641 19.4526 18.3137 19.4526 18.251C19.4526 18.1883 18.7614 17.4528 17.9165 16.6165C16.4469 15.1617 16.3592 15.0911 15.8906 14.9857C15.4261 14.8811 15.3307 14.806 14.0429 13.5321C13.1928 12.6912 12.6845 12.122 12.684 12.0101C12.6829 11.7928 12.2962 10.9445 12.1597 10.8605C12.093 10.8193 12.0615 10.1758 12.0615 8.85183V6.90373H13.9315C15.6829 6.90373 15.8129 6.89245 15.9797 6.72615C16.194 6.51244 16.2024 6.3852 16.0191 6.12443L15.8806 5.92705H10.5936C5.90594 5.92705 5.2907 5.91125 5.16657 5.78757C5.00049 5.62198 4.98366 5.29515 5.13353 5.14572C5.28892 4.99078 34.7738 4.99078 34.9292 5.14572C35.0985 5.3145 35.0591 5.73101 34.8639 5.83516C34.7485 5.89669 31.8264 5.92705 26.0173 5.92705C17.7269 5.92705 17.3365 5.93425 17.1956 6.08945C16.9998 6.3052 17.0097 6.51013 17.2263 6.72615C17.399 6.89831 17.5231 6.90373 21.2781 6.90373H25.1517V10.3492V13.7947L24.9281 14.0968C24.5755 14.5733 24.5294 14.9036 24.5289 16.9527C24.5283 19.2338 24.4968 19.1565 25.4252 19.1565H26.0422V20.2147C26.0422 20.7967 26.0676 21.3392 26.0988 21.4202C26.1927 21.6641 26.5672 21.7578 26.8111 21.5985C27.0147 21.4655 27.0217 21.4222 27.0217 20.3087V19.1565H27.6718C28.0586 19.1565 28.3651 19.1134 28.4287 19.05C28.5059 18.973 28.535 18.3627 28.5336 16.8525C28.5319 15.0005 28.5126 14.7196 28.3647 14.3951C28.273 14.1936 28.1536 14.0015 28.0996 13.9681C28.0305 13.9255 28.0012 12.8646 28.0012 10.4056V6.90373H31.4107C34.7697 6.90373 34.8261 6.9008 35.2169 6.70395C35.7312 6.44487 36.0156 6.0201 36.0156 5.51081C36.0156 4.97586 35.7533 4.50289 35.3226 4.26156L34.9673 4.0625H20.0102H5.05303L4.75864 4.26227ZM10.1915 8.54631V10.1889H10.6367H11.082V8.54631V6.90373H10.6367H10.1915V8.54631ZM26.1312 10.1001V13.2965H26.5765H27.0217V10.1001V6.90373H26.5765H26.1312V10.1001ZM10.236 11.2495C9.82738 11.4163 9.53797 11.9696 9.62711 12.4139C9.69452 12.75 10.1027 13.17 10.4208 13.2307C11.0206 13.3451 11.5979 12.9374 11.6779 12.343C11.7864 11.5358 10.9985 10.9384 10.236 11.2495ZM12.0645 13.6171L11.7603 13.9273L12.7118 14.8761L13.6634 15.825L13.9761 15.5132L14.2887 15.2014L13.3755 14.2941C12.8732 13.7951 12.4412 13.3688 12.4155 13.3468C12.3898 13.3248 12.2318 13.4464 12.0645 13.6171ZM26.1682 14.3095C26.0171 14.3757 25.8067 14.5398 25.7007 14.6742C25.5188 14.9047 25.5079 15.0116 25.5079 16.5492V18.1798H26.5835H27.6592L27.6298 16.5595C27.6057 15.2259 27.5743 14.9022 27.4529 14.7311C27.1348 14.2834 26.6164 14.1132 26.1682 14.3095ZM14.9287 16.0199C14.5755 16.1935 14.3768 16.5436 14.3768 16.9926C14.3768 17.2986 14.4669 17.414 15.5773 18.5285L16.7779 19.7336L17.5131 19.0015L18.2484 18.2693L17.1808 17.1973C15.8018 15.8127 15.5831 15.6983 14.9287 16.0199ZM17.9387 22.6705C17.2036 22.8695 16.7324 23.2346 14.7126 25.1703L12.8667 26.9393L11.774 27.2198C7.80392 28.2386 7.59662 28.314 7.02849 28.9439C6.46205 29.5721 6.3624 29.9833 6.3624 31.6918V33.0963L5.80585 33.0982C4.75872 33.1019 4.13797 33.5898 4.06762 34.4643C4.02719 34.9673 4.22523 35.3571 4.69924 35.7074C4.94582 35.8896 5.03985 35.8935 9.69959 35.9175C14.8799 35.9442 14.733 35.9579 14.733 35.4478C14.733 34.9608 14.7329 34.9608 9.78873 34.9608C6.36988 34.9608 5.21385 34.9344 5.13353 34.8543C4.98366 34.7049 5.00049 34.378 5.16657 34.2124C5.29266 34.0868 6.76098 34.0729 19.9991 34.0729C29.9568 34.0729 34.7471 34.1026 34.8639 34.1648C35.0591 34.269 35.0985 34.6855 34.9292 34.8543C34.8475 34.9358 32.6134 34.9612 25.4233 34.9622C20.2538 34.963 15.9801 34.9929 15.9262 35.0288C15.8724 35.0646 15.7793 35.1866 15.7196 35.2997C15.6303 35.4686 15.6363 35.5442 15.7528 35.7215L15.8947 35.9375H25.431H34.9673L35.3029 35.7494C36.1291 35.2864 36.2602 34.1175 35.5566 33.486C35.2639 33.2232 34.8291 33.0963 34.2214 33.0963H33.7004V30.8647C33.7004 29.4494 33.6631 28.5093 33.5988 28.2948C33.4514 27.8045 33.0221 27.3328 32.5045 27.0925C32.1153 26.9117 31.9157 26.8827 31.0581 26.882L30.0632 26.8811L29.2398 25.456C28.2157 23.6834 27.9222 23.3431 27.043 22.9098L26.3635 22.5749L22.396 22.5564C19.1118 22.541 18.3442 22.5607 17.9387 22.6705ZM18.0904 23.6352C17.5564 23.8251 17.1861 24.1224 15.7125 25.5446L14.3323 26.8767L18.0055 26.8789L21.6788 26.8811V25.1941V23.5071L20.0536 23.511C18.9213 23.5137 18.3259 23.5514 18.0904 23.6352ZM22.6583 25.1875V26.8811H23.9432C25.3349 26.8811 25.5079 26.9353 25.5079 27.3708C25.5079 27.8681 25.6429 27.8578 19.0988 27.8577L13.0856 27.8576L12.0615 28.1341C11.4983 28.2862 10.8571 28.4601 10.6367 28.5206L10.236 28.6307L10.1778 29.2089C10.0529 30.4476 9.52595 30.865 8.07659 30.8727L7.34194 30.8766V31.9864V33.0963H8.72041H10.0988L10.2743 32.7533C10.5234 32.2665 11.273 31.6281 11.8466 31.4141C12.505 31.1684 13.486 31.1677 14.1417 31.4122C14.7204 31.6282 15.3622 32.1684 15.6779 32.7055L15.9075 33.0963H20.254H24.6005L24.8301 32.7055C25.1458 32.1684 25.7876 31.6282 26.3663 31.4122C27.022 31.1677 28.003 31.1684 28.6614 31.4141C29.235 31.6281 29.9846 32.2665 30.2337 32.7533L30.4092 33.0963H31.565H32.7208V31.7304V30.3645L32.1604 30.3289C31.1389 30.2641 30.7618 29.7917 30.7618 28.5769V27.8578H28.7645C26.5682 27.8578 26.4874 27.8388 26.4874 27.3218C26.4874 26.948 26.6962 26.8811 27.8618 26.8811C28.4282 26.8811 28.8917 26.861 28.8917 26.8365C28.8917 26.6862 27.549 24.4895 27.3087 24.2469C26.6759 23.6079 26.4669 23.5547 24.4616 23.5228L22.6583 23.4941V25.1875ZM31.7413 28.5059C31.7413 28.8916 31.7846 29.1972 31.8481 29.2606C31.9069 29.3192 32.1273 29.3672 32.3379 29.3672H32.7208V29.0076C32.7208 28.5463 32.5201 28.1629 32.1895 27.9925C31.77 27.7762 31.7413 27.809 31.7413 28.5059ZM8.52166 29.0901C8.04436 29.2545 7.74747 29.4645 7.59769 29.7435C7.52102 29.8864 7.57168 29.8999 8.18478 29.8999C8.9775 29.8999 9.21196 29.7479 9.21196 29.234C9.21196 28.8748 9.17136 28.8663 8.52166 29.0901ZM17.7224 29.1515C17.5216 29.3518 17.5496 29.6893 17.7805 29.8504C18.0098 30.0106 19.7263 30.0493 20.1121 29.903C20.4119 29.7894 20.5065 29.4188 20.2953 29.186C20.1542 29.0305 20.0164 29.012 18.9998 29.012C18.0845 29.012 17.8351 29.0393 17.7224 29.1515ZM12.5513 32.203C11.954 32.3634 11.2601 32.8001 11.2601 33.0154C11.2601 33.0613 12.0112 33.0963 12.9965 33.0963C13.9886 33.0963 14.733 33.0614 14.733 33.0149C14.733 32.9111 14.1373 32.4534 13.8318 32.3227C13.4961 32.1788 12.8617 32.1195 12.5513 32.203ZM27.0662 32.203C26.57 32.3363 26.3502 32.4542 26.0398 32.7536L25.7305 33.0519L27.4576 33.076C28.4075 33.0893 29.2057 33.0791 29.2314 33.0535C29.3163 32.9689 28.8761 32.5758 28.4982 32.3987C28.0521 32.1896 27.4316 32.1048 27.0662 32.203Z" fill="white"/>
</g>
</svg>
