<svg width="40" height="40" viewBox="0 0 40 40" fill="none" xmlns="http://www.w3.org/2000/svg">
<g id="icon06">
<g id="Vector">
<mask id="path-1-outside-1_177_8316" maskUnits="userSpaceOnUse" x="4.15625" y="2.90625" width="31" height="34" fill="black">
<rect fill="white" x="4.15625" y="2.90625" width="31" height="34"/>
<path fill-rule="evenodd" clip-rule="evenodd" d="M7.09363 4.01949C6.54538 4.21697 6.02055 4.60046 5.70729 5.03245C5.11096 5.85508 5.1405 5.02014 5.16806 20.2459L5.19309 34.104L5.45555 34.6381C5.74012 35.217 6.14849 35.6272 6.77144 35.9598L7.16861 36.1719H13.6596H20.1506L20.668 35.8806C21.7485 35.2724 22.4922 33.6666 21.7957 33.4457C21.5117 33.3557 21.2752 33.5438 21.1507 33.9591C21.0875 34.1697 20.9104 34.4848 20.7573 34.6592C20.188 35.307 20.5077 35.2789 13.675 35.2789C9.54799 35.2789 7.42261 35.2459 7.24528 35.1789C6.88997 35.0448 6.48527 34.6506 6.26627 34.2253C6.09204 33.8868 6.08678 33.4709 6.08678 20.0521C6.08678 6.63325 6.09204 6.21733 6.26627 5.87886C6.48527 5.45354 6.88997 5.05934 7.24528 4.92521C7.3909 4.87022 7.92467 4.8252 8.43135 4.8252H9.3525L9.70311 5.67038C10.2593 7.01101 10.0357 6.94004 13.7066 6.94004C17.3776 6.94004 17.154 7.01101 17.7102 5.67038L18.0608 4.8252H18.9349C19.9882 4.8252 20.162 4.88441 20.7663 5.44922C21.1922 5.84728 21.2573 5.87802 21.4692 5.78148C22.0056 5.53729 21.5846 4.72585 20.6545 4.21105L20.1506 3.93227L13.8007 3.91159C8.62429 3.89467 7.38479 3.91469 7.09363 4.01949ZM10.5174 5.31847C10.6244 5.58974 10.756 5.86467 10.8097 5.92943C10.951 6.09937 16.4623 6.09965 16.603 5.92962C16.6566 5.86504 16.7847 5.59011 16.8877 5.31866L17.0752 4.8252H13.699H10.3228L10.5174 5.31847ZM21.4206 6.7952C21.1527 6.87406 9.05599 14.5304 8.76784 14.8034C8.63332 14.9309 8.5797 15.1037 8.5797 15.4101C8.5797 15.7631 8.62626 15.8787 8.84367 16.0655C9.09804 16.2842 9.16022 16.2923 10.5613 16.2923H12.0151L11.9908 20.8745L11.9663 25.4567L11.3678 25.485C10.2833 25.5361 10.0378 25.8877 10.0378 27.3898C10.0378 28.4877 10.1778 28.898 10.6385 29.15C10.9011 29.2937 11.3294 29.3104 14.7726 29.3104C18.4662 29.3104 18.6187 29.3034 18.7471 29.1279C18.9026 28.9155 18.9117 28.8002 18.7886 28.6054C18.7126 28.4851 18.1357 28.4576 14.8625 28.4174L11.0256 28.3705V27.3835V26.3966L14.8625 26.3496C18.1357 26.3095 18.7126 26.2819 18.7886 26.1616C18.955 25.8986 18.8485 25.6166 18.5386 25.4988L18.3162 25.4144V20.8534V16.2923H18.9747H19.6332V18.6746C19.6332 20.8631 19.6472 21.0695 19.8053 21.2124C20.0301 21.4157 20.1569 21.4087 20.3858 21.18C20.5639 21.0021 20.5739 20.8667 20.5739 18.6422V16.2923H21.7028H22.8317V18.6422C22.8317 20.8667 22.8417 21.0021 23.0198 21.18C23.1233 21.2834 23.2503 21.368 23.302 21.368C23.3538 21.368 23.4808 21.2834 23.5843 21.18C23.7623 21.0021 23.7724 20.8667 23.7724 18.6422V16.2923H24.4309H25.0894V18.6746C25.0894 20.9391 25.0987 21.0653 25.2779 21.2274C25.4337 21.3682 25.5073 21.3793 25.7013 21.2909L25.9361 21.184V18.7381V16.2923H27.112H28.2879V18.6422C28.2879 20.8667 28.298 21.0021 28.476 21.18C28.7118 21.4155 28.8047 21.4155 29.0405 21.18C29.2186 21.002 29.2286 20.8667 29.2286 18.6379V16.2838L29.8636 16.3115L30.4986 16.3393L30.5237 18.7624L30.5488 21.1854L30.782 21.2917C30.9741 21.3791 31.0484 21.3678 31.2038 21.2274C31.383 21.0653 31.3923 20.9391 31.3923 18.6746V16.2923H32.8377C34.151 16.2923 34.3055 16.2748 34.5275 16.1003C34.8443 15.8513 34.9371 15.373 34.7418 14.9956C34.6552 14.8283 34.3498 14.5624 34.0044 14.3536C33.6801 14.1575 32.5259 13.4286 31.4393 12.7338C30.3528 12.039 28.2996 10.7314 26.8768 9.82817C25.454 8.9248 24.0781 8.04907 23.8194 7.88185C22.1298 6.79012 21.857 6.66652 21.4206 6.7952ZM15.9149 11.2869C12.7601 13.2922 10.0308 15.0265 9.84968 15.141L9.52042 15.3492L21.6977 15.3508L33.875 15.3524L33.4098 15.0558C33.1539 14.8926 32.5 14.478 31.9567 14.1345C31.4134 13.7909 28.9276 12.2105 26.4325 10.6224C23.9374 9.0344 21.8408 7.71389 21.7734 7.68804C21.706 7.66219 19.0696 9.28169 15.9149 11.2869ZM20.9032 9.47005C20.2818 9.74724 19.8156 10.5137 19.8285 11.2372C19.8411 11.9471 20.1099 12.4456 20.6928 12.8405C21.4035 13.3222 22.2716 13.2529 22.9256 12.6626C24.2278 11.4871 23.4352 9.33498 21.7028 9.34213C21.4182 9.34326 21.0584 9.40087 20.9032 9.47005ZM21.2721 10.3125C21.0976 10.3906 20.9155 10.5829 20.8144 10.796C20.5873 11.2741 20.7341 11.8031 21.167 12.0668C21.5476 12.2987 21.8578 12.2988 22.238 12.0672C22.7725 11.7416 22.8396 10.9695 22.3721 10.5221C22.0576 10.221 21.6499 10.1433 21.2721 10.3125ZM12.8826 20.8745L12.907 25.4567L13.542 25.4845L14.177 25.5122V20.9023V16.2923H13.5176H12.8582L12.8826 20.8745ZM15.1177 20.898V25.5037H16.2466H17.3755V20.898V16.2923H16.2466H15.1177V20.898ZM20.3891 22.1487C20.2014 22.2133 19.9707 22.3981 19.8454 22.5842L19.6279 22.9075L19.6541 27.3056L19.6803 31.7037L19.9878 32.0109L20.2953 32.3182L27.0208 32.3434C32.9193 32.3657 33.7807 32.3511 34.0258 32.2244C34.5935 31.9311 34.5907 31.9559 34.5907 27.1659C34.5907 22.8329 34.5893 22.8015 34.3868 22.5442C33.9706 22.0156 34.1108 22.0255 27.1385 22.0312C22.4187 22.0351 20.6286 22.0662 20.3891 22.1487ZM20.6373 23.0279C20.6024 23.0627 20.5739 23.2533 20.5739 23.4515V23.8118H27.1644H33.7549L33.7259 23.4123L33.6971 23.0129L27.1988 22.9887C23.6248 22.9754 20.6722 22.993 20.6373 23.0279ZM20.5739 25.4573V26.1629L27.1355 26.1388L33.6971 26.1146L33.7247 25.4332L33.7524 24.7517H27.1632H20.5739V25.4573ZM20.5739 29.264V31.4265L27.1355 31.4024L33.6971 31.3782L33.7224 29.2399L33.7477 27.1015H27.1608H20.5739V29.264ZM22.1261 27.7492C21.4341 28.0683 21.1384 28.5531 21.1384 29.3682C21.1384 30.9221 22.996 31.6282 24.0502 30.475C24.6283 29.8426 24.6226 28.8431 24.037 28.1768C23.514 27.5816 22.8242 27.4272 22.1261 27.7492ZM26.5979 28.0353C26.4488 28.3137 26.4804 28.4866 26.7096 28.6471C26.8873 28.7715 27.3348 28.7934 29.699 28.7934C32.0631 28.7934 32.5106 28.7715 32.6883 28.6471C32.9331 28.4758 32.9583 28.2097 32.7497 28.0012C32.6215 27.8732 32.2079 27.8535 29.6486 27.8535C26.825 27.8535 26.691 27.8615 26.5979 28.0353ZM22.2862 28.7021C22.0126 28.9567 21.9382 29.2994 22.0814 29.6448C22.4091 30.4354 23.5843 30.1739 23.5843 29.3104C23.5843 28.6306 22.7719 28.25 22.2862 28.7021ZM26.5979 29.7271C26.4488 30.0056 26.4804 30.1785 26.7096 30.3389C26.8873 30.4634 27.3348 30.4853 29.699 30.4853C32.0631 30.4853 32.5106 30.4634 32.6883 30.3389C32.9422 30.1613 32.9568 29.9102 32.7254 29.7009C32.5731 29.5632 32.2179 29.5454 29.6243 29.5454C26.8248 29.5454 26.691 29.5534 26.5979 29.7271ZM9.30406 33.6999C9.1589 33.8449 9.1589 34.1752 9.30406 34.3202C9.46652 34.4825 17.8527 34.4825 18.0152 34.3202C18.1603 34.1752 18.1603 33.8449 18.0152 33.6999C17.8527 33.5375 9.46652 33.5375 9.30406 33.6999Z"/>
</mask>
<path fill-rule="evenodd" clip-rule="evenodd" d="M7.09363 4.01949C6.54538 4.21697 6.02055 4.60046 5.70729 5.03245C5.11096 5.85508 5.1405 5.02014 5.16806 20.2459L5.19309 34.104L5.45555 34.6381C5.74012 35.217 6.14849 35.6272 6.77144 35.9598L7.16861 36.1719H13.6596H20.1506L20.668 35.8806C21.7485 35.2724 22.4922 33.6666 21.7957 33.4457C21.5117 33.3557 21.2752 33.5438 21.1507 33.9591C21.0875 34.1697 20.9104 34.4848 20.7573 34.6592C20.188 35.307 20.5077 35.2789 13.675 35.2789C9.54799 35.2789 7.42261 35.2459 7.24528 35.1789C6.88997 35.0448 6.48527 34.6506 6.26627 34.2253C6.09204 33.8868 6.08678 33.4709 6.08678 20.0521C6.08678 6.63325 6.09204 6.21733 6.26627 5.87886C6.48527 5.45354 6.88997 5.05934 7.24528 4.92521C7.3909 4.87022 7.92467 4.8252 8.43135 4.8252H9.3525L9.70311 5.67038C10.2593 7.01101 10.0357 6.94004 13.7066 6.94004C17.3776 6.94004 17.154 7.01101 17.7102 5.67038L18.0608 4.8252H18.9349C19.9882 4.8252 20.162 4.88441 20.7663 5.44922C21.1922 5.84728 21.2573 5.87802 21.4692 5.78148C22.0056 5.53729 21.5846 4.72585 20.6545 4.21105L20.1506 3.93227L13.8007 3.91159C8.62429 3.89467 7.38479 3.91469 7.09363 4.01949ZM10.5174 5.31847C10.6244 5.58974 10.756 5.86467 10.8097 5.92943C10.951 6.09937 16.4623 6.09965 16.603 5.92962C16.6566 5.86504 16.7847 5.59011 16.8877 5.31866L17.0752 4.8252H13.699H10.3228L10.5174 5.31847ZM21.4206 6.7952C21.1527 6.87406 9.05599 14.5304 8.76784 14.8034C8.63332 14.9309 8.5797 15.1037 8.5797 15.4101C8.5797 15.7631 8.62626 15.8787 8.84367 16.0655C9.09804 16.2842 9.16022 16.2923 10.5613 16.2923H12.0151L11.9908 20.8745L11.9663 25.4567L11.3678 25.485C10.2833 25.5361 10.0378 25.8877 10.0378 27.3898C10.0378 28.4877 10.1778 28.898 10.6385 29.15C10.9011 29.2937 11.3294 29.3104 14.7726 29.3104C18.4662 29.3104 18.6187 29.3034 18.7471 29.1279C18.9026 28.9155 18.9117 28.8002 18.7886 28.6054C18.7126 28.4851 18.1357 28.4576 14.8625 28.4174L11.0256 28.3705V27.3835V26.3966L14.8625 26.3496C18.1357 26.3095 18.7126 26.2819 18.7886 26.1616C18.955 25.8986 18.8485 25.6166 18.5386 25.4988L18.3162 25.4144V20.8534V16.2923H18.9747H19.6332V18.6746C19.6332 20.8631 19.6472 21.0695 19.8053 21.2124C20.0301 21.4157 20.1569 21.4087 20.3858 21.18C20.5639 21.0021 20.5739 20.8667 20.5739 18.6422V16.2923H21.7028H22.8317V18.6422C22.8317 20.8667 22.8417 21.0021 23.0198 21.18C23.1233 21.2834 23.2503 21.368 23.302 21.368C23.3538 21.368 23.4808 21.2834 23.5843 21.18C23.7623 21.0021 23.7724 20.8667 23.7724 18.6422V16.2923H24.4309H25.0894V18.6746C25.0894 20.9391 25.0987 21.0653 25.2779 21.2274C25.4337 21.3682 25.5073 21.3793 25.7013 21.2909L25.9361 21.184V18.7381V16.2923H27.112H28.2879V18.6422C28.2879 20.8667 28.298 21.0021 28.476 21.18C28.7118 21.4155 28.8047 21.4155 29.0405 21.18C29.2186 21.002 29.2286 20.8667 29.2286 18.6379V16.2838L29.8636 16.3115L30.4986 16.3393L30.5237 18.7624L30.5488 21.1854L30.782 21.2917C30.9741 21.3791 31.0484 21.3678 31.2038 21.2274C31.383 21.0653 31.3923 20.9391 31.3923 18.6746V16.2923H32.8377C34.151 16.2923 34.3055 16.2748 34.5275 16.1003C34.8443 15.8513 34.9371 15.373 34.7418 14.9956C34.6552 14.8283 34.3498 14.5624 34.0044 14.3536C33.6801 14.1575 32.5259 13.4286 31.4393 12.7338C30.3528 12.039 28.2996 10.7314 26.8768 9.82817C25.454 8.9248 24.0781 8.04907 23.8194 7.88185C22.1298 6.79012 21.857 6.66652 21.4206 6.7952ZM15.9149 11.2869C12.7601 13.2922 10.0308 15.0265 9.84968 15.141L9.52042 15.3492L21.6977 15.3508L33.875 15.3524L33.4098 15.0558C33.1539 14.8926 32.5 14.478 31.9567 14.1345C31.4134 13.7909 28.9276 12.2105 26.4325 10.6224C23.9374 9.0344 21.8408 7.71389 21.7734 7.68804C21.706 7.66219 19.0696 9.28169 15.9149 11.2869ZM20.9032 9.47005C20.2818 9.74724 19.8156 10.5137 19.8285 11.2372C19.8411 11.9471 20.1099 12.4456 20.6928 12.8405C21.4035 13.3222 22.2716 13.2529 22.9256 12.6626C24.2278 11.4871 23.4352 9.33498 21.7028 9.34213C21.4182 9.34326 21.0584 9.40087 20.9032 9.47005ZM21.2721 10.3125C21.0976 10.3906 20.9155 10.5829 20.8144 10.796C20.5873 11.2741 20.7341 11.8031 21.167 12.0668C21.5476 12.2987 21.8578 12.2988 22.238 12.0672C22.7725 11.7416 22.8396 10.9695 22.3721 10.5221C22.0576 10.221 21.6499 10.1433 21.2721 10.3125ZM12.8826 20.8745L12.907 25.4567L13.542 25.4845L14.177 25.5122V20.9023V16.2923H13.5176H12.8582L12.8826 20.8745ZM15.1177 20.898V25.5037H16.2466H17.3755V20.898V16.2923H16.2466H15.1177V20.898ZM20.3891 22.1487C20.2014 22.2133 19.9707 22.3981 19.8454 22.5842L19.6279 22.9075L19.6541 27.3056L19.6803 31.7037L19.9878 32.0109L20.2953 32.3182L27.0208 32.3434C32.9193 32.3657 33.7807 32.3511 34.0258 32.2244C34.5935 31.9311 34.5907 31.9559 34.5907 27.1659C34.5907 22.8329 34.5893 22.8015 34.3868 22.5442C33.9706 22.0156 34.1108 22.0255 27.1385 22.0312C22.4187 22.0351 20.6286 22.0662 20.3891 22.1487ZM20.6373 23.0279C20.6024 23.0627 20.5739 23.2533 20.5739 23.4515V23.8118H27.1644H33.7549L33.7259 23.4123L33.6971 23.0129L27.1988 22.9887C23.6248 22.9754 20.6722 22.993 20.6373 23.0279ZM20.5739 25.4573V26.1629L27.1355 26.1388L33.6971 26.1146L33.7247 25.4332L33.7524 24.7517H27.1632H20.5739V25.4573ZM20.5739 29.264V31.4265L27.1355 31.4024L33.6971 31.3782L33.7224 29.2399L33.7477 27.1015H27.1608H20.5739V29.264ZM22.1261 27.7492C21.4341 28.0683 21.1384 28.5531 21.1384 29.3682C21.1384 30.9221 22.996 31.6282 24.0502 30.475C24.6283 29.8426 24.6226 28.8431 24.037 28.1768C23.514 27.5816 22.8242 27.4272 22.1261 27.7492ZM26.5979 28.0353C26.4488 28.3137 26.4804 28.4866 26.7096 28.6471C26.8873 28.7715 27.3348 28.7934 29.699 28.7934C32.0631 28.7934 32.5106 28.7715 32.6883 28.6471C32.9331 28.4758 32.9583 28.2097 32.7497 28.0012C32.6215 27.8732 32.2079 27.8535 29.6486 27.8535C26.825 27.8535 26.691 27.8615 26.5979 28.0353ZM22.2862 28.7021C22.0126 28.9567 21.9382 29.2994 22.0814 29.6448C22.4091 30.4354 23.5843 30.1739 23.5843 29.3104C23.5843 28.6306 22.7719 28.25 22.2862 28.7021ZM26.5979 29.7271C26.4488 30.0056 26.4804 30.1785 26.7096 30.3389C26.8873 30.4634 27.3348 30.4853 29.699 30.4853C32.0631 30.4853 32.5106 30.4634 32.6883 30.3389C32.9422 30.1613 32.9568 29.9102 32.7254 29.7009C32.5731 29.5632 32.2179 29.5454 29.6243 29.5454C26.8248 29.5454 26.691 29.5534 26.5979 29.7271ZM9.30406 33.6999C9.1589 33.8449 9.1589 34.1752 9.30406 34.3202C9.46652 34.4825 17.8527 34.4825 18.0152 34.3202C18.1603 34.1752 18.1603 33.8449 18.0152 33.6999C17.8527 33.5375 9.46652 33.5375 9.30406 33.6999Z" fill="white"/>
<path fill-rule="evenodd" clip-rule="evenodd" d="M7.09363 4.01949C6.54538 4.21697 6.02055 4.60046 5.70729 5.03245C5.11096 5.85508 5.1405 5.02014 5.16806 20.2459L5.19309 34.104L5.45555 34.6381C5.74012 35.217 6.14849 35.6272 6.77144 35.9598L7.16861 36.1719H13.6596H20.1506L20.668 35.8806C21.7485 35.2724 22.4922 33.6666 21.7957 33.4457C21.5117 33.3557 21.2752 33.5438 21.1507 33.9591C21.0875 34.1697 20.9104 34.4848 20.7573 34.6592C20.188 35.307 20.5077 35.2789 13.675 35.2789C9.54799 35.2789 7.42261 35.2459 7.24528 35.1789C6.88997 35.0448 6.48527 34.6506 6.26627 34.2253C6.09204 33.8868 6.08678 33.4709 6.08678 20.0521C6.08678 6.63325 6.09204 6.21733 6.26627 5.87886C6.48527 5.45354 6.88997 5.05934 7.24528 4.92521C7.3909 4.87022 7.92467 4.8252 8.43135 4.8252H9.3525L9.70311 5.67038C10.2593 7.01101 10.0357 6.94004 13.7066 6.94004C17.3776 6.94004 17.154 7.01101 17.7102 5.67038L18.0608 4.8252H18.9349C19.9882 4.8252 20.162 4.88441 20.7663 5.44922C21.1922 5.84728 21.2573 5.87802 21.4692 5.78148C22.0056 5.53729 21.5846 4.72585 20.6545 4.21105L20.1506 3.93227L13.8007 3.91159C8.62429 3.89467 7.38479 3.91469 7.09363 4.01949ZM10.5174 5.31847C10.6244 5.58974 10.756 5.86467 10.8097 5.92943C10.951 6.09937 16.4623 6.09965 16.603 5.92962C16.6566 5.86504 16.7847 5.59011 16.8877 5.31866L17.0752 4.8252H13.699H10.3228L10.5174 5.31847ZM21.4206 6.7952C21.1527 6.87406 9.05599 14.5304 8.76784 14.8034C8.63332 14.9309 8.5797 15.1037 8.5797 15.4101C8.5797 15.7631 8.62626 15.8787 8.84367 16.0655C9.09804 16.2842 9.16022 16.2923 10.5613 16.2923H12.0151L11.9908 20.8745L11.9663 25.4567L11.3678 25.485C10.2833 25.5361 10.0378 25.8877 10.0378 27.3898C10.0378 28.4877 10.1778 28.898 10.6385 29.15C10.9011 29.2937 11.3294 29.3104 14.7726 29.3104C18.4662 29.3104 18.6187 29.3034 18.7471 29.1279C18.9026 28.9155 18.9117 28.8002 18.7886 28.6054C18.7126 28.4851 18.1357 28.4576 14.8625 28.4174L11.0256 28.3705V27.3835V26.3966L14.8625 26.3496C18.1357 26.3095 18.7126 26.2819 18.7886 26.1616C18.955 25.8986 18.8485 25.6166 18.5386 25.4988L18.3162 25.4144V20.8534V16.2923H18.9747H19.6332V18.6746C19.6332 20.8631 19.6472 21.0695 19.8053 21.2124C20.0301 21.4157 20.1569 21.4087 20.3858 21.18C20.5639 21.0021 20.5739 20.8667 20.5739 18.6422V16.2923H21.7028H22.8317V18.6422C22.8317 20.8667 22.8417 21.0021 23.0198 21.18C23.1233 21.2834 23.2503 21.368 23.302 21.368C23.3538 21.368 23.4808 21.2834 23.5843 21.18C23.7623 21.0021 23.7724 20.8667 23.7724 18.6422V16.2923H24.4309H25.0894V18.6746C25.0894 20.9391 25.0987 21.0653 25.2779 21.2274C25.4337 21.3682 25.5073 21.3793 25.7013 21.2909L25.9361 21.184V18.7381V16.2923H27.112H28.2879V18.6422C28.2879 20.8667 28.298 21.0021 28.476 21.18C28.7118 21.4155 28.8047 21.4155 29.0405 21.18C29.2186 21.002 29.2286 20.8667 29.2286 18.6379V16.2838L29.8636 16.3115L30.4986 16.3393L30.5237 18.7624L30.5488 21.1854L30.782 21.2917C30.9741 21.3791 31.0484 21.3678 31.2038 21.2274C31.383 21.0653 31.3923 20.9391 31.3923 18.6746V16.2923H32.8377C34.151 16.2923 34.3055 16.2748 34.5275 16.1003C34.8443 15.8513 34.9371 15.373 34.7418 14.9956C34.6552 14.8283 34.3498 14.5624 34.0044 14.3536C33.6801 14.1575 32.5259 13.4286 31.4393 12.7338C30.3528 12.039 28.2996 10.7314 26.8768 9.82817C25.454 8.9248 24.0781 8.04907 23.8194 7.88185C22.1298 6.79012 21.857 6.66652 21.4206 6.7952ZM15.9149 11.2869C12.7601 13.2922 10.0308 15.0265 9.84968 15.141L9.52042 15.3492L21.6977 15.3508L33.875 15.3524L33.4098 15.0558C33.1539 14.8926 32.5 14.478 31.9567 14.1345C31.4134 13.7909 28.9276 12.2105 26.4325 10.6224C23.9374 9.0344 21.8408 7.71389 21.7734 7.68804C21.706 7.66219 19.0696 9.28169 15.9149 11.2869ZM20.9032 9.47005C20.2818 9.74724 19.8156 10.5137 19.8285 11.2372C19.8411 11.9471 20.1099 12.4456 20.6928 12.8405C21.4035 13.3222 22.2716 13.2529 22.9256 12.6626C24.2278 11.4871 23.4352 9.33498 21.7028 9.34213C21.4182 9.34326 21.0584 9.40087 20.9032 9.47005ZM21.2721 10.3125C21.0976 10.3906 20.9155 10.5829 20.8144 10.796C20.5873 11.2741 20.7341 11.8031 21.167 12.0668C21.5476 12.2987 21.8578 12.2988 22.238 12.0672C22.7725 11.7416 22.8396 10.9695 22.3721 10.5221C22.0576 10.221 21.6499 10.1433 21.2721 10.3125ZM12.8826 20.8745L12.907 25.4567L13.542 25.4845L14.177 25.5122V20.9023V16.2923H13.5176H12.8582L12.8826 20.8745ZM15.1177 20.898V25.5037H16.2466H17.3755V20.898V16.2923H16.2466H15.1177V20.898ZM20.3891 22.1487C20.2014 22.2133 19.9707 22.3981 19.8454 22.5842L19.6279 22.9075L19.6541 27.3056L19.6803 31.7037L19.9878 32.0109L20.2953 32.3182L27.0208 32.3434C32.9193 32.3657 33.7807 32.3511 34.0258 32.2244C34.5935 31.9311 34.5907 31.9559 34.5907 27.1659C34.5907 22.8329 34.5893 22.8015 34.3868 22.5442C33.9706 22.0156 34.1108 22.0255 27.1385 22.0312C22.4187 22.0351 20.6286 22.0662 20.3891 22.1487ZM20.6373 23.0279C20.6024 23.0627 20.5739 23.2533 20.5739 23.4515V23.8118H27.1644H33.7549L33.7259 23.4123L33.6971 23.0129L27.1988 22.9887C23.6248 22.9754 20.6722 22.993 20.6373 23.0279ZM20.5739 25.4573V26.1629L27.1355 26.1388L33.6971 26.1146L33.7247 25.4332L33.7524 24.7517H27.1632H20.5739V25.4573ZM20.5739 29.264V31.4265L27.1355 31.4024L33.6971 31.3782L33.7224 29.2399L33.7477 27.1015H27.1608H20.5739V29.264ZM22.1261 27.7492C21.4341 28.0683 21.1384 28.5531 21.1384 29.3682C21.1384 30.9221 22.996 31.6282 24.0502 30.475C24.6283 29.8426 24.6226 28.8431 24.037 28.1768C23.514 27.5816 22.8242 27.4272 22.1261 27.7492ZM26.5979 28.0353C26.4488 28.3137 26.4804 28.4866 26.7096 28.6471C26.8873 28.7715 27.3348 28.7934 29.699 28.7934C32.0631 28.7934 32.5106 28.7715 32.6883 28.6471C32.9331 28.4758 32.9583 28.2097 32.7497 28.0012C32.6215 27.8732 32.2079 27.8535 29.6486 27.8535C26.825 27.8535 26.691 27.8615 26.5979 28.0353ZM22.2862 28.7021C22.0126 28.9567 21.9382 29.2994 22.0814 29.6448C22.4091 30.4354 23.5843 30.1739 23.5843 29.3104C23.5843 28.6306 22.7719 28.25 22.2862 28.7021ZM26.5979 29.7271C26.4488 30.0056 26.4804 30.1785 26.7096 30.3389C26.8873 30.4634 27.3348 30.4853 29.699 30.4853C32.0631 30.4853 32.5106 30.4634 32.6883 30.3389C32.9422 30.1613 32.9568 29.9102 32.7254 29.7009C32.5731 29.5632 32.2179 29.5454 29.6243 29.5454C26.8248 29.5454 26.691 29.5534 26.5979 29.7271ZM9.30406 33.6999C9.1589 33.8449 9.1589 34.1752 9.30406 34.3202C9.46652 34.4825 17.8527 34.4825 18.0152 34.3202C18.1603 34.1752 18.1603 33.8449 18.0152 33.6999C17.8527 33.5375 9.46652 33.5375 9.30406 33.6999Z" stroke="white" stroke-width="0.1625" mask="url(#path-1-outside-1_177_8316)"/>
</g>
</g>
</svg>
