<svg width="41" height="40" viewBox="0 0 41 40" fill="none" xmlns="http://www.w3.org/2000/svg">
<g id="Traced" clip-path="url(#clip0_177_8342)">
<path id="Vector" fill-rule="evenodd" clip-rule="evenodd" d="M15.8585 0.816797C15.6667 1.00852 15.6667 1.00875 15.6667 2.6918V4.375H14.296C12.9447 4.375 12.9225 4.37773 12.7335 4.5668C12.5554 4.74477 12.5417 4.81453 12.5417 5.53805C12.5417 6.21305 12.5233 6.32297 12.405 6.35789C12.3297 6.38008 10.7214 6.66594 8.83075 6.9932C6.03739 7.47664 5.36395 7.61688 5.237 7.74156C5.0838 7.89188 5.07997 8.02469 5.04169 14.4856L5.00262 21.0764L4.50606 20.7761C3.73637 20.3107 3.09583 20.2943 2.45872 20.7237C1.59739 21.3041 1.41802 22.5625 2.08786 23.3254C2.21591 23.4713 3.21411 24.2609 4.30614 25.0801L6.29169 26.5697V29.343V32.1165L6.48348 32.3082C6.58895 32.4137 6.72958 32.5 6.79598 32.5C6.90262 32.5 6.91669 32.8278 6.91669 35.3125V38.125H4.10419H1.29169V38.75V39.375H20.6667H40.0417V38.75V38.125H37.2292H34.4167V35.3125C34.4167 32.8278 34.4308 32.5 34.5374 32.5C34.6038 32.5 34.7444 32.4137 34.8499 32.3082L35.0417 32.1165V29.3485V26.5805L36.9993 25.1138C38.0761 24.307 39.0753 23.5089 39.2198 23.3401C39.8152 22.6445 39.7413 21.5756 39.0528 20.9221C38.3972 20.2998 37.4167 20.3118 36.5065 20.953L36.2917 21.1044V14.6198C36.2917 10.7031 36.2622 8.05766 36.2173 7.93953C36.1764 7.83195 36.0677 7.70359 35.9757 7.65438C35.8837 7.60516 34.3088 7.30391 32.4759 6.98484C30.6429 6.66578 29.0642 6.38688 28.9675 6.365C28.7995 6.32695 28.7917 6.29031 28.7917 5.5418C28.7917 4.81437 28.778 4.74484 28.5999 4.5668C28.4109 4.37773 28.3886 4.375 27.0374 4.375H25.6667V2.6918C25.6667 1.00875 25.6667 1.00852 25.4749 0.816797L25.2832 0.625H20.6667H16.0502L15.8585 0.816797ZM16.9167 3.125V4.375H20.6667H24.4167V3.125V1.875H20.6667H16.9167V3.125ZM13.7917 10.4795V15.3341L14.0993 15.6678C15.389 17.067 15.3343 19.284 13.9748 20.7092C12.5203 22.2341 10.1303 22.2636 8.64169 20.775C7.51341 19.6467 7.21934 17.955 7.90106 16.5141C8.64317 14.9454 10.4954 14.0557 12.134 14.4808L12.5417 14.5865V11.1214C12.5417 7.87156 12.5332 7.65656 12.405 7.66102C12.3297 7.66359 10.9323 7.90258 9.2995 8.19211L6.33075 8.71844L6.31075 15.3334L6.29083 21.9484L6.70036 22.2242L7.10989 22.5H11.0604H15.0111L15.2803 22.2222C15.6528 21.8378 16.1745 21.521 16.677 21.3741C17.3093 21.1892 24.0241 21.1892 24.6564 21.3741C25.1589 21.521 25.6806 21.8378 26.0531 22.2222L26.3223 22.5H30.2729H34.2235L34.633 22.2242L35.0425 21.9484L35.0226 15.3297L35.0026 8.71094L32.0339 8.18867C30.4011 7.90148 29.0036 7.66414 28.9284 7.66133C28.8002 7.65656 28.7917 7.87141 28.7917 11.1214V14.5865L29.1993 14.4808C30.5953 14.1187 32.144 14.6921 33.0532 15.9077C33.5072 16.5148 33.7196 17.0908 33.7698 17.8516C33.8599 19.2166 33.3058 20.4104 32.2326 21.1631C31.5958 21.6099 31.0479 21.8066 30.3062 21.8546C29.2087 21.9258 28.2663 21.5797 27.458 20.8087C26.0133 19.4307 25.9119 17.1022 27.2341 15.6678L27.5417 15.3341V10.4795V5.625H20.6667H13.7917V10.4795ZM15.0417 7.5V8.125H15.6667H16.2917V7.5V6.875H15.6667H15.0417V7.5ZM17.5417 7.5V8.125H18.1667H18.7917V7.5V6.875H18.1667H17.5417V7.5ZM22.5417 7.5V8.125H23.1667H23.7917V7.5V6.875H23.1667H22.5417V7.5ZM25.0417 7.5V8.125H25.6667H26.2917V7.5V6.875H25.6667H25.0417V7.5ZM7.54169 10V10.625H8.16669H8.79169V10V9.375H8.16669H7.54169V10ZM10.0417 10V10.625H10.6667H11.2917V10V9.375H10.6667H10.0417V10ZM15.0417 10V10.625H15.6667H16.2917V10V9.375H15.6667H15.0417V10ZM17.5417 10V10.625H18.1667H18.7917V10V9.375H18.1667H17.5417V10ZM22.5417 10V10.625H23.1667H23.7917V10V9.375H23.1667H22.5417V10ZM25.0417 10V10.625H25.6667H26.2917V10V9.375H25.6667H25.0417V10ZM30.0417 10V10.625H30.6667H31.2917V10V9.375H30.6667H30.0417V10ZM32.5417 10V10.625H33.1667H33.7917V10V9.375H33.1667H32.5417V10ZM7.54169 12.5V13.125H8.16669H8.79169V12.5V11.875H8.16669H7.54169V12.5ZM10.0417 12.5V13.125H10.6667H11.2917V12.5V11.875H10.6667H10.0417V12.5ZM30.0417 12.5V13.125H30.6667H31.2917V12.5V11.875H30.6667H30.0417V12.5ZM32.5417 12.5V13.125H33.1667H33.7917V12.5V11.875H33.1667H32.5417V12.5ZM19.7292 13.238C19.1873 13.3905 18.8657 13.5475 18.4401 13.8674C16.9765 14.9677 16.5143 16.8427 17.2942 18.5156C17.5599 19.0856 18.4561 19.9818 19.0261 20.2475C20.4895 20.9298 22.0335 20.6879 23.2096 19.5923C24.4453 18.4412 24.7549 16.7655 24.0219 15.1953C23.7911 14.7007 22.8574 13.758 22.3654 13.5227C21.5514 13.1334 20.5029 13.0202 19.7292 13.238ZM19.9089 14.5157C19.0602 14.8189 18.5194 15.3892 18.2713 16.2426C17.945 17.3652 18.5384 18.6134 19.6443 19.1308C19.9932 19.2939 20.1983 19.3349 20.6667 19.3349C21.6779 19.3349 22.4929 18.8155 22.9225 17.8973C23.344 16.9962 23.1343 15.8321 22.4219 15.1198C21.7865 14.4844 20.7165 14.2271 19.9089 14.5157ZM10.5339 15.7657C9.6852 16.0689 9.14442 16.6392 8.8963 17.4926C8.66442 18.2902 8.92747 19.2712 9.53645 19.8802C10.4864 20.8301 12.097 20.8301 13.0469 19.8802C13.9968 18.9303 13.9968 17.3197 13.0469 16.3698C12.4115 15.7344 11.3415 15.4771 10.5339 15.7657ZM29.2839 15.7657C28.4352 16.0689 27.8944 16.6392 27.6463 17.4926C27.32 18.6152 27.9134 19.8634 29.0193 20.3808C29.3682 20.5439 29.5733 20.5849 30.0417 20.5849C31.0529 20.5849 31.8679 20.0655 32.2975 19.1473C32.719 18.2462 32.5093 17.0821 31.7969 16.3698C31.1615 15.7344 30.0915 15.4771 29.2839 15.7657ZM3.31466 21.733C3.0602 21.8197 2.91145 22.1225 3.00387 22.3656C3.04255 22.4673 4.01473 23.2577 5.25786 24.198C6.4602 25.1077 7.46591 25.9091 7.49278 25.9791C7.51966 26.0492 7.54169 27.2638 7.54169 28.6783V31.25L11.9362 31.2488L16.3307 31.2476L15.7839 30.9505C15.4071 30.7458 15.1454 30.5335 14.9424 30.2681C14.433 29.602 14.4099 29.4267 14.4342 26.4183L14.4557 23.7499L10.593 23.75H6.7302L5.24145 22.7472C4.42255 22.1956 3.69989 21.7262 3.63544 21.704C3.57098 21.6818 3.42669 21.6948 3.31466 21.733ZM36.1354 22.7344L34.612 23.7498L30.7448 23.7499L26.8776 23.7501V26.582V29.4141L26.6864 29.8027C26.4357 30.312 25.965 30.7734 25.4323 31.032L25.0026 31.2405L29.3972 31.2452L33.7917 31.25V28.6415C33.7917 26.2684 33.804 26.0189 33.9284 25.8778C34.0036 25.7925 35.0079 25.0117 36.1603 24.1429C37.3126 23.274 38.2837 22.4873 38.3182 22.3948C38.3868 22.2116 38.2901 21.8741 38.1422 21.7802C37.8916 21.6207 37.5935 21.7625 36.1354 22.7344ZM17.0725 22.573C16.5366 22.736 16.125 23.0802 15.8514 23.5938C15.7199 23.8407 15.7033 24.1058 15.6809 26.3281C15.6649 27.9176 15.6856 28.8891 15.7395 29.0715C15.8286 29.3733 16.0998 29.7656 16.2193 29.7656C16.2625 29.7656 16.2917 28.554 16.2917 26.7578V23.75H16.9167H17.5417V26.875V30H20.6667H23.7917V26.875V23.75H24.4167H25.0417V26.7578C25.0417 28.554 25.0709 29.7656 25.1141 29.7656C25.2336 29.7656 25.5047 29.3733 25.5939 29.0715C25.6478 28.8891 25.6685 27.9176 25.6525 26.3281C25.6254 23.6394 25.6239 23.6302 25.1304 23.0983C24.6965 22.6305 24.4075 22.5448 23.1623 22.5142L22.0251 22.4862L22.2963 24.4453L22.5675 26.4043L21.8132 27.5364C20.7147 29.1852 20.6185 29.185 19.5166 27.5311L18.7588 26.3937L19.0337 24.4469L19.3086 22.5L18.2885 22.5067C17.7273 22.5104 17.1801 22.5402 17.0725 22.573ZM20.5886 22.5365C20.5886 22.5565 20.4675 23.3658 20.3196 24.3348L20.0505 26.0967L20.3391 26.522C20.4978 26.7559 20.6452 26.9472 20.6667 26.9472C20.6882 26.9472 20.8356 26.7559 20.9943 26.522L21.2829 26.0967L21.0138 24.3348C20.8659 23.3658 20.7448 22.5565 20.7448 22.5365C20.7448 22.5164 20.7097 22.5 20.6667 22.5C20.6237 22.5 20.5886 22.5164 20.5886 22.5365ZM17.5417 34.6905V38.1311L18.2245 38.1085L18.9073 38.0859L19.4985 35.1172C19.8236 33.4844 20.1165 32.0902 20.1493 32.0189C20.2511 31.7984 20.6299 31.6845 20.8954 31.7945C21.0213 31.8466 21.1511 31.9476 21.184 32.0189C21.2168 32.0902 21.5098 33.4844 21.8349 35.1172L22.4261 38.0859L23.1089 38.1085L23.7917 38.1311V34.6905V31.25H20.6667H17.5417V34.6905ZM8.16669 35.3125V38.125H8.86005H9.55348L10.1124 35.89C10.4199 34.6608 10.7218 33.5576 10.7833 33.4385C10.9708 33.0759 11.395 33.0127 11.709 33.3008C11.8699 33.4484 11.9923 33.8488 12.4737 35.8008L13.0468 38.125H13.7318H14.4167V35.3125V32.5H11.2917H8.16669V35.3125ZM15.6667 35.3125V38.125H15.9792H16.2917V35.3125V32.5H15.9792H15.6667V35.3125ZM25.0417 35.3125V38.125H25.3542H25.6667V35.3125V32.5H25.3542H25.0417V35.3125ZM26.9167 35.3125V38.125H27.61H28.3035L28.8624 35.89C29.1699 34.6608 29.4718 33.5576 29.5333 33.4385C29.7208 33.0759 30.145 33.0127 30.459 33.3008C30.6199 33.4484 30.7423 33.8488 31.2237 35.8008L31.7968 38.125H32.4818H33.1667V35.3125V32.5H30.0417H26.9167V35.3125ZM20.4434 36.8555C20.3458 37.3603 20.2469 37.8525 20.2236 37.9492C20.1829 38.1172 20.2025 38.125 20.6667 38.125C21.1309 38.125 21.1505 38.1172 21.1098 37.9492C21.0865 37.8525 20.9875 37.3603 20.89 36.8555C20.7925 36.3506 20.6919 35.9375 20.6667 35.9375C20.6415 35.9375 20.5409 36.3506 20.4434 36.8555ZM11.0453 37.3047L10.8437 38.125H11.2917H11.7397L11.5381 37.3047C11.4272 36.8535 11.3164 36.4844 11.2917 36.4844C11.267 36.4844 11.1561 36.8535 11.0453 37.3047ZM29.7953 37.3047L29.5937 38.125H30.0417H30.4897L30.2881 37.3047C30.1772 36.8535 30.0664 36.4844 30.0417 36.4844C30.017 36.4844 29.9061 36.8535 29.7953 37.3047Z" fill="white"/>
</g>
<defs>
<clipPath id="clip0_177_8342">
<rect width="40" height="40" fill="white" transform="translate(0.666687)"/>
</clipPath>
</defs>
</svg>
