<svg width="40" height="40" viewBox="0 0 40 40" fill="none" xmlns="http://www.w3.org/2000/svg">
<g id="Traced" clip-path="url(#clip0_177_8329)">
<path id="Vector" fill-rule="evenodd" clip-rule="evenodd" d="M20.1172 0.0736745C19.8535 0.181174 19.5373 0.551409 19.4545 0.849456C19.4086 1.01516 19.3757 2.28492 19.3755 3.90641L19.375 6.68008L16.7959 8.11258C15.3775 8.90039 14.1822 9.60992 14.1397 9.68922C13.9258 10.0889 14.1802 10.5469 14.6161 10.5469C14.7825 10.5469 15.642 10.1117 17.3935 9.14063C18.7886 8.36719 19.9652 7.73438 20.0084 7.73438C20.0516 7.73438 22.3788 9.00883 25.1802 10.5664L30.2734 13.3984L34.5508 13.4199L38.8281 13.4414V14.8848V16.3281H20H1.17187V14.8848V13.4414L5.44921 13.4199L9.72656 13.3984L11.1196 12.6246C12.8011 11.6905 12.8385 11.6623 12.8385 11.328C12.8385 11.0477 12.53 10.7031 12.2791 10.7031C12.2055 10.7031 11.5307 11.0459 10.7796 11.4648L9.41406 12.2266L5.07812 12.2656L0.742182 12.3047L0.479448 12.4921C0.0373384 12.8074 -5.40467e-06 12.9983 0.000307095 14.9389C0.00054147 16.5381 0.0131977 16.7004 0.155854 16.9343C0.334057 17.2266 0.739213 17.4993 0.996088 17.4997L1.17187 17.5V26.9861V36.4723L0.912338 36.5579C0.607651 36.6584 0.20062 37.0562 0.0828852 37.3684C-0.0244585 37.6531 -0.0243023 38.8317 0.0831196 39.116C0.196166 39.4153 0.533276 39.7623 0.837338 39.8924C1.04851 39.9828 4.11453 40 19.9924 40C33.1587 40 38.9628 39.9748 39.116 39.9169C39.4201 39.802 39.7508 39.4722 39.9286 39.1064C40.0416 38.8741 40.0781 38.6292 40.0781 38.1057C40.0781 37.6636 40.0498 37.4302 40 37.4609C39.957 37.4875 39.9219 37.4545 39.9219 37.3877C39.9219 37.1918 39.388 36.657 39.0964 36.5608L38.8281 36.4723V26.9861V17.5L39.0039 17.4997C39.2752 17.4992 39.6613 17.2259 39.8801 16.8794C40.0769 16.5674 40.0781 16.5552 40.0781 14.8016C40.0781 13.7859 40.0485 13.0559 40.0084 13.0808C39.9699 13.1045 39.9169 13.0379 39.8905 12.9327C39.8641 12.8275 39.7137 12.6431 39.5563 12.523L39.2701 12.3047L34.9722 12.2832L30.6742 12.2617L25.6509 9.47071L20.6276 6.67969L20.6263 5.6836L20.625 4.6875H22.9712C25.5702 4.6875 25.6956 4.66781 26.0235 4.20805C26.2067 3.95125 26.2109 3.90891 26.2109 2.34375C26.2109 0.778596 26.2067 0.736253 26.0235 0.479456C25.6922 0.0148464 25.5873 -0.000544243 22.7955 0.00492451C21.4084 0.00765888 20.2031 0.0385964 20.1172 0.0736745ZM20.625 2.34375V3.51563H22.8516H25.0781V2.34375V1.17188H22.8516H20.625V2.34375ZM19.4333 10.0021C18.5875 10.2146 17.7964 10.9053 17.5042 11.6864C17.0256 12.9654 17.6376 14.4448 18.8975 15.0549C19.2691 15.2349 19.4371 15.2673 20 15.2673C20.5629 15.2673 20.7309 15.2349 21.1025 15.0549C22.7507 14.2567 23.1705 12.1673 21.9509 10.8327C21.3246 10.1475 20.2567 9.79524 19.4333 10.0021ZM19.2772 11.3335C18.3908 11.8015 18.2762 13.168 19.0727 13.7708C20.4165 14.7877 22.1487 13.1999 21.2225 11.8003C20.8262 11.2016 19.9331 10.9873 19.2772 11.3335ZM0.0335883 14.9219C0.0335883 15.9316 0.0447602 16.3448 0.058354 15.8398C0.0719477 15.3349 0.0719477 14.5088 0.058354 14.0039C0.0447602 13.499 0.0335883 13.9121 0.0335883 14.9219ZM2.34374 26.9922V36.4844H3.51562H4.68749V35.8645C4.68749 35.5235 4.72484 35.1455 4.77039 35.0246C4.88812 34.7125 5.29515 34.3147 5.59984 34.2141L5.85937 34.1285V26.9946V19.8607L5.66546 19.812C5.39163 19.7433 4.91796 19.3066 4.79304 19.0077C4.73414 18.8666 4.68749 18.4778 4.68749 18.1275V17.5H3.51562H2.34374V26.9922ZM5.87546 18.0664L5.89843 18.6328H8.43749H10.9766L10.9995 18.0664L11.0225 17.5H8.43749H5.85249L5.87546 18.0664ZM12.2637 17.9492C12.2596 18.9087 11.995 19.4611 11.414 19.723L11.0937 19.8675V26.9922V34.1169L11.414 34.2613C11.995 34.5233 12.2596 35.0757 12.2637 36.0352L12.2656 36.4844H13.8264H15.3873L15.4084 31.543C15.4324 25.9682 15.4052 26.215 16.0416 25.7938L16.3558 25.5859H20H23.6442L23.9584 25.7938C24.5947 26.2149 24.5675 25.9683 24.5921 31.543L24.6138 36.4844H26.1741H27.7344L27.7362 36.0352C27.7404 35.0782 28.0051 34.5233 28.5816 34.2633L28.8973 34.1209L28.9213 31.9453C28.9447 29.8255 28.9497 29.7653 29.1167 29.5984C29.363 29.3523 29.7418 29.3706 29.9733 29.6398C30.1555 29.8516 30.1562 29.8608 30.1562 31.9966V34.1406H31.5625H32.9687V26.9922V19.8438H31.5625H30.1562V23.6388V27.4339L29.9199 27.6702C29.7294 27.8608 29.6423 27.8965 29.4707 27.8546C29.3536 27.826 29.1875 27.7336 29.1016 27.6492C28.9502 27.5005 28.9446 27.3771 28.923 23.6804L28.9006 19.8649L28.5832 19.7218C28.0051 19.4611 27.7404 18.9071 27.7362 17.9492L27.7344 17.5H20H12.2656L12.2637 17.9492ZM29.0005 18.0664L29.0234 18.6328H31.5625H34.1016L34.1245 18.0664L34.1475 17.5H31.5625H28.9775L29.0005 18.0664ZM35.3125 18.1275C35.3125 18.4778 35.2659 18.8666 35.2069 19.0077C35.082 19.3066 34.6084 19.7433 34.3345 19.812L34.1406 19.8607V26.9946V34.1285L34.4002 34.2141C34.7048 34.3147 35.1119 34.7125 35.2296 35.0246C35.2752 35.1455 35.3125 35.5235 35.3125 35.8645V36.4844H36.4844H37.6562V26.9922V17.5H36.4844H35.3125V18.1275ZM14.4547 19.8244C14.3052 19.8995 14.1005 20.084 14.0001 20.2344C13.8266 20.4939 13.8186 20.5635 13.8423 21.6016C13.8639 22.55 13.888 22.723 14.0234 22.9036C14.3825 23.3821 14.0844 23.3594 20 23.3594C25.9155 23.3594 25.6175 23.3821 25.9766 22.9036C26.112 22.723 26.1361 22.55 26.1577 21.6016C26.1814 20.5635 26.1734 20.4939 25.9999 20.2344C25.6182 19.6631 25.888 19.6877 20 19.6877C15.1352 19.6877 14.7055 19.6984 14.4547 19.8244ZM7.03124 26.9922V34.1406H8.43749H9.84374V26.9922V19.8438H8.43749H7.03124V26.9922ZM15 21.5234V22.1875H20H25V21.5234V20.8594H20H15V21.5234ZM16.7383 26.7705C16.6616 26.8014 16.6406 27.8505 16.6406 31.6471V36.4844H20H23.3594V31.649C23.3594 27.3118 23.3466 26.8087 23.2358 26.7662C23.0883 26.7095 16.8791 26.7137 16.7383 26.7705ZM5.91249 35.3635C5.88328 35.3927 5.85937 35.6569 5.85937 35.9505V36.4844H8.44093H11.0225L10.9995 35.918L10.9766 35.3516L8.47109 35.3309C7.09312 35.3196 5.94171 35.3343 5.91249 35.3635ZM29.0375 35.3635C29.0083 35.3927 28.9844 35.6569 28.9844 35.9505V36.4844H31.5659H34.1475L34.1245 35.918L34.1016 35.3516L31.5961 35.3309C30.2181 35.3196 29.0667 35.3343 29.0375 35.3635ZM0.0285102 38.2422C0.0287446 38.6719 0.0418696 38.8377 0.0576508 38.6106C0.0735102 38.3837 0.073354 38.0321 0.0573383 37.8294C0.0412446 37.6267 0.028354 37.8125 0.0285102 38.2422ZM1.20429 37.7625C1.18179 37.8211 1.17414 38.0761 1.18718 38.3291L1.21093 38.7891H20H38.7891V38.2422V37.6953L20.0171 37.6756C4.2214 37.6591 1.23874 37.6728 1.20429 37.7625Z" fill="white"/>
</g>
<defs>
<clipPath id="clip0_177_8329">
<rect width="40" height="40" fill="white"/>
</clipPath>
</defs>
</svg>
