<svg width="40" height="40" viewBox="0 0 40 40" fill="none" xmlns="http://www.w3.org/2000/svg">
<g id="icon01">
<path id="Vector" fill-rule="evenodd" clip-rule="evenodd" d="M19.6553 3.60899C19.3896 3.87519 19.1723 4.15199 19.1723 4.224C19.1723 4.35953 19.5036 4.71531 19.6299 4.71531C19.6692 4.71531 19.7014 4.96711 19.7014 5.27484V5.83445H19.1844C18.3786 5.83445 17.8351 6.2884 17.6379 7.12614C17.5651 7.43546 17.7076 7.98041 17.938 8.27382C18.0349 8.39716 18.1141 8.6228 18.1141 8.7753C18.1141 8.95182 18.1927 9.13126 18.3306 9.26936C18.5452 9.48449 18.5606 9.48626 20.2305 9.48626C21.9003 9.48626 21.9157 9.48449 22.1304 9.26936C22.264 9.1355 22.3468 8.95112 22.3468 8.7874C22.3468 8.64153 22.446 8.37578 22.5673 8.19678C23.046 7.49006 22.7625 6.34963 22.0192 5.99092C21.8294 5.8993 21.4858 5.82906 21.2225 5.82792L20.7596 5.82597V5.32167C20.7596 4.87903 20.7919 4.78485 21.0241 4.55222C21.1696 4.40644 21.2887 4.24343 21.2887 4.19007C21.2887 4.06647 20.3533 3.125 20.2305 3.125C20.1798 3.125 19.921 3.34278 19.6553 3.60899ZM15.4278 7.00881C15.3417 7.10405 15.2514 7.35957 15.227 7.57664C15.1869 7.9334 15.1427 7.99613 14.7661 8.23062C14.0079 8.70285 13.7222 9.7521 14.1357 10.5467C14.2383 10.7439 14.3222 10.9389 14.3222 10.98C14.3222 11.0211 14.1065 11.0726 13.8429 11.0945C13.2704 11.1421 12.8245 11.4165 12.5633 11.8822C12.4066 12.1615 12.3822 12.3588 12.3822 13.3459C12.3822 14.5784 12.4225 14.699 12.8345 14.699C13.1169 14.699 13.3522 14.4934 13.3522 14.2469C13.3522 14.1509 13.4497 13.9749 13.5687 13.8556C13.7732 13.6507 13.8405 13.6387 14.793 13.6387H15.8008L16.1295 14.0034C16.3104 14.2038 16.582 14.6313 16.7331 14.9531C16.9762 15.4704 17.0119 15.6484 17.0417 16.4881L17.0754 17.4378H16.6261C16.0357 17.4378 15.6846 17.7337 15.5254 18.3655C15.4399 18.7051 15.3569 18.835 15.1667 18.9274C14.9466 19.0342 14.8937 19.0284 14.6869 18.8743C14.4044 18.6639 14.3497 18.383 14.5359 18.0984C14.8145 17.6724 14.7339 17.5242 13.3743 15.9628C12.6588 15.1413 11.181 13.4375 10.09 12.1764C7.1641 8.79482 7.14585 8.77804 6.75088 9.11077C6.39991 9.40648 6.28528 10.9709 6.5194 12.2693C6.58951 12.658 6.64771 12.9887 6.64859 13.0042C6.64956 13.0197 6.5351 12.9501 6.39427 12.8496C6.07311 12.6205 5.84031 12.6177 5.63899 12.8406C5.40257 13.1024 5.48961 14.8276 5.78978 15.8304C5.97637 16.4536 5.98801 16.5548 5.86694 16.5025C5.5158 16.3508 5.27656 16.3668 5.10831 16.5531C4.94208 16.7371 4.94146 16.7599 5.08785 17.3191C5.28979 18.0904 5.86421 19.2316 6.42258 19.9708C6.85979 20.5495 6.87196 20.5806 6.72028 20.7289C6.47152 20.9721 6.53184 21.2645 6.94762 21.8304C7.33747 22.361 7.8521 22.8313 8.41198 23.1686C8.68058 23.3304 8.71532 23.3915 8.69204 23.6619C8.66903 23.9294 8.70439 23.9941 8.95774 24.1485C9.58516 24.5308 11.4583 24.7572 12.4043 24.5651C12.6709 24.5109 12.7349 24.5239 12.7349 24.6324C12.7349 24.7064 12.8308 24.8298 12.9479 24.9066C13.1293 25.0257 13.2424 25.0317 13.7112 24.9465C14.2832 24.8426 15.1672 24.5466 15.3584 24.395C15.4435 24.3275 15.4681 24.4057 15.4662 24.7381C15.464 25.1459 15.445 25.1801 15.1035 25.3894C14.1823 25.954 13.5272 27.0295 13.4594 28.0888C13.4218 28.6755 13.4339 28.7322 13.6256 28.8667C13.764 28.9638 14.0153 29.0118 14.386 29.0118H14.9395V29.3957C14.9395 30.0504 14.8749 30.0723 12.9484 30.0697L11.2799 30.0674L9.30985 27.594C7.36816 25.1562 7.34118 25.1167 7.43597 24.8443C7.80122 23.7946 7.10696 22.7337 6.04948 22.7254C5.01695 22.7174 4.29703 23.5511 4.48221 24.5402C4.62542 25.3049 5.38379 25.8808 6.13854 25.7978L6.55265 25.7523L9.29962 29.1932C10.8105 31.0857 12.1121 32.6388 12.1924 32.6446C12.4685 32.6645 12.6029 32.6215 12.7129 32.4787C12.8939 32.2435 12.8406 32.0111 12.5145 31.6124C12.3447 31.4048 12.2059 31.2119 12.2059 31.1836C12.2059 31.1553 12.7042 31.1322 13.3132 31.1322C14.6358 31.1322 15.0914 31.0325 15.4735 30.6599C15.8332 30.309 15.9977 29.9211 15.9977 29.4237V29.0348L16.4112 28.9881C16.8589 28.9375 17.0559 28.7627 17.0559 28.4162C17.0559 28.0959 17.2955 27.704 17.5821 27.5555C17.9191 27.3809 18.8381 27.3809 19.1752 27.5555C19.7039 27.8295 19.8464 28.5291 19.4988 29.1441C19.3388 29.427 19.0241 29.6733 17.9177 30.381C16.3245 31.4002 15.9952 31.6907 15.7262 32.3145C15.4814 32.8821 15.3829 34.6557 15.5759 35.0196C15.7223 35.2956 16.1217 35.3596 16.3582 35.1451C16.5055 35.0115 16.527 34.8632 16.5282 33.9678C16.5301 32.6832 16.6492 32.4291 17.5367 31.8176C17.8711 31.5871 18.1604 31.4142 18.1794 31.4333C18.1986 31.4524 18.1158 31.6624 17.9957 31.9001C17.699 32.4864 17.585 33.1802 17.585 34.3977C17.585 35.5638 17.6787 35.8148 18.1141 35.8148C18.5652 35.8148 18.6432 35.578 18.6432 34.2081C18.6432 32.7925 18.7751 32.3157 19.3477 31.6623L19.6961 31.2647L19.6987 33.8735C19.7016 36.7533 19.723 36.875 20.2246 36.875C20.6989 36.875 20.7117 36.8056 20.7596 33.9712L20.8036 31.3593L21.0915 31.6654C21.6702 32.281 21.7689 32.6179 21.8177 34.1451C21.8669 35.6813 21.9219 35.8424 22.3814 35.7972C22.7704 35.7589 22.8734 35.4848 22.8729 34.4895C22.8723 33.3641 22.7407 32.519 22.4755 31.9388C22.3549 31.6747 22.2696 31.4451 22.2861 31.4286C22.3027 31.4121 22.5898 31.5871 22.9243 31.8176C23.8117 32.4291 23.9309 32.6832 23.9327 33.9678C23.934 34.8632 23.9554 35.0115 24.1027 35.1451C24.3403 35.3605 24.7399 35.2959 24.8787 35.0196C25.1309 34.5176 24.9533 32.6661 24.5938 32.0499C24.2998 31.5461 23.9898 31.295 22.5328 30.3812C21.154 29.5164 20.8477 29.2105 20.785 28.6358C20.6964 27.8222 21.127 27.4202 22.0823 27.4249C22.3975 27.4265 22.7472 27.4787 22.8592 27.541C23.1321 27.6927 23.4037 28.12 23.4044 28.3985C23.4054 28.763 23.5956 28.9368 24.0497 28.9881L24.4632 29.0348V29.4371C24.4632 30.0178 24.7525 30.5574 25.207 30.8242C25.5668 31.0355 25.6394 31.0438 27.1261 31.0438H28.6712L29.2067 31.3206C30.1398 31.8027 31.1201 31.6442 31.7683 30.9064C32.2758 30.3288 32.4262 29.6502 32.2154 28.8897C32.0965 28.4606 31.4236 27.7274 31.029 27.5969C30.7497 27.5045 30.7315 27.4734 30.7065 27.0435C30.6841 26.6571 30.6448 26.5682 30.4477 26.4577C30.2396 26.3411 30.1914 26.3433 29.9848 26.479C29.7893 26.6073 29.7542 26.6947 29.7542 27.0531C29.7542 27.4599 29.7411 27.4815 29.4089 27.6285C28.6535 27.9623 28.1721 28.7138 28.1688 29.564L28.1669 30.072H27.0402C25.6733 30.072 25.5214 30.0052 25.5214 29.4043V29.0118H26.0749C26.8511 29.0118 27.0205 28.877 27.0205 28.2591C27.0205 27.1726 26.2773 25.9351 25.2648 25.3359C25.0191 25.1905 24.9923 25.1319 24.9923 24.7411C24.9923 24.4065 25.0175 24.3275 25.1025 24.395C25.2937 24.5466 26.1778 24.8426 26.7497 24.9465C27.2185 25.0317 27.3316 25.0257 27.513 24.9066C27.6301 24.8298 27.726 24.7064 27.726 24.6324C27.726 24.5239 27.79 24.5109 28.0567 24.5651C29.0056 24.7578 30.876 24.5306 31.5073 24.1459C31.7738 23.9836 31.7988 23.9346 31.7544 23.6608C31.7112 23.3937 31.7352 23.3406 31.9496 23.2296C32.7312 22.8246 33.8988 21.5478 33.8988 21.0981C33.8988 20.9839 33.8182 20.8151 33.7196 20.7232L33.5405 20.5559L33.8473 20.2117C34.474 19.5088 35.2908 17.897 35.4453 17.0588C35.4929 16.8006 35.4712 16.6844 35.3506 16.5508C35.1862 16.3689 34.7413 16.3152 34.6483 16.466C34.5032 16.7012 34.4509 16.5116 34.5689 16.1788C34.8144 15.487 34.9569 14.6058 34.9569 13.7792C34.9569 13.0972 34.9299 12.9348 34.7957 12.8131C34.5758 12.6138 34.3226 12.6296 34.029 12.861L33.7827 13.055L33.8352 12.8389C33.9941 12.1837 34.0863 11.0397 34.0339 10.3746C33.9662 9.51762 33.8162 9.08629 33.5574 9.00395C33.216 8.89537 33.2563 8.85596 30.7549 11.7392C30.1225 12.4681 28.7458 14.0513 27.6956 15.2573C25.6983 17.5508 25.6342 17.6538 25.925 18.0984C26.1112 18.383 26.0565 18.6639 25.7741 18.8743C25.5673 19.0284 25.5144 19.0342 25.2943 18.9274C25.104 18.835 25.0211 18.7051 24.9355 18.3655C24.7764 17.7337 24.4252 17.4378 23.8348 17.4378H23.3855L23.4192 16.4881C23.449 15.6468 23.4842 15.4726 23.7266 14.964C23.8773 14.6482 24.1473 14.2207 24.3269 14.0142L24.6533 13.6387H25.6645C26.6206 13.6387 26.6876 13.6506 26.8922 13.8556C27.0113 13.9749 27.1087 14.1509 27.1087 14.2469C27.1087 14.6613 27.7984 14.882 27.9874 14.5281C28.0376 14.4341 28.0787 13.873 28.0787 13.2811C28.0787 12.3594 28.0527 12.1587 27.8977 11.8822C27.6364 11.4165 27.1905 11.1421 26.6181 11.0945C26.3544 11.0726 26.1387 11.0183 26.1387 10.9737C26.1387 10.9293 26.2223 10.7287 26.3244 10.5282C26.7321 9.72754 26.3834 8.55654 25.6214 8.16709C25.313 8.00947 25.2763 7.95302 25.2335 7.5724C25.1859 7.14973 24.9474 6.83573 24.6739 6.83573C24.421 6.83573 24.1987 7.17765 24.1987 7.56666C24.1987 7.90875 24.1692 7.96 23.8842 8.11373C23.0601 8.55849 22.6748 9.56127 23.0089 10.3919C23.0652 10.5315 23.002 10.5465 22.3563 10.5465C21.7589 10.5465 21.6124 10.5755 21.465 10.7232C21.368 10.8204 21.2887 10.9732 21.2887 11.0629C21.2887 11.2911 21.567 11.5183 21.8468 11.5183C21.9763 11.5183 22.0823 11.5433 22.0823 11.5738C22.0823 11.6044 21.8282 11.8992 21.5177 12.229C21.0068 12.7716 20.3186 13.7862 20.3186 13.9969C20.3186 14.0429 20.279 14.0805 20.2305 14.0805C20.182 14.0805 20.1423 14.0429 20.1423 13.9969C20.1423 13.7953 19.4897 12.8354 18.9582 12.2551C18.6394 11.9071 18.3786 11.599 18.3786 11.5704C18.3786 11.5417 18.4954 11.5183 18.6381 11.5183C18.8064 11.5183 18.946 11.4492 19.035 11.3219C19.2165 11.0624 19.2082 10.9358 18.9959 10.7232C18.8486 10.5755 18.702 10.5465 18.1046 10.5465C17.4879 10.5465 17.3972 10.5272 17.4435 10.4063C17.7645 9.56789 17.4072 8.59436 16.6113 8.139C16.2924 7.95664 16.2636 7.90893 16.263 7.56463C16.2618 6.94493 15.7769 6.62228 15.4278 7.00881ZM18.7891 6.99733C18.6018 7.20469 18.6018 7.57488 18.7891 7.73055C18.8694 7.79717 18.9889 7.98094 19.0548 8.13891L19.1747 8.42605H20.2209H21.2672L21.3742 8.16736C21.433 8.02511 21.5569 7.84002 21.6494 7.75608C21.8627 7.56277 21.8662 7.17217 21.6565 6.98195C21.4397 6.78537 21.0669 6.79712 20.872 7.00669C20.6055 7.2933 20.2623 7.38156 19.9396 7.24639C19.7843 7.18136 19.6028 7.06235 19.5363 6.98195C19.3754 6.78767 18.971 6.79598 18.7891 6.99733ZM15.1678 9.22801C14.8586 9.59617 14.8687 9.95893 15.1973 10.2882C15.7254 10.8173 16.5177 10.4811 16.524 9.72525C16.5301 8.98734 15.6431 8.66212 15.1678 9.22801ZM24.1506 9.17305C23.9106 9.41346 23.8564 9.95178 24.0472 10.2007C24.363 10.6129 24.901 10.6516 25.2637 10.2882C25.5922 9.95893 25.6024 9.59617 25.2931 9.22801C24.9927 8.87028 24.4774 8.84554 24.1506 9.17305ZM7.444 11.2403C7.444 11.8966 7.64726 12.856 7.94567 13.608C8.12873 14.0695 8.23702 14.205 8.66241 14.5054C10.07 15.4991 11.4651 16.5804 11.5345 16.7315C11.5888 16.8494 11.5679 16.9705 11.4664 17.1256C11.2006 17.532 10.9503 17.4347 9.48454 16.3555C7.24479 14.7064 6.51931 14.1863 6.49286 14.2107C6.43051 14.2684 6.77381 15.6682 6.96869 16.1512C7.44849 17.34 7.34241 17.2641 11.5768 19.4485C13.672 20.5293 15.4048 21.4136 15.4274 21.4136C15.4501 21.4136 15.4686 21.0853 15.4686 20.6841V19.9546L15.0872 19.985C14.5711 20.0261 14.2236 19.8632 13.2285 19.1138C12.5218 18.5816 12.3822 18.4368 12.3822 18.2359C12.3822 18.1036 12.4636 17.9215 12.563 17.8314C12.7488 17.6629 12.753 17.6635 13.382 17.9253C13.7776 18.09 13.4107 17.5449 12.1519 16.0981C11.419 15.2557 10.0955 13.7315 9.21064 12.7111C8.32591 11.6906 7.56648 10.818 7.52301 10.7718C7.47592 10.7218 7.444 10.9112 7.444 11.2403ZM32.3115 11.4889C31.9477 11.9101 30.9358 13.0749 30.0628 14.0774C27.1167 17.4606 26.9323 17.6814 26.9323 17.8248C26.9323 17.9035 26.965 17.9679 27.0048 17.9679C27.0448 17.9679 27.728 17.4908 28.5233 16.9077C29.3186 16.3246 30.0168 15.8475 30.0749 15.8475C30.4789 15.8475 30.7256 16.2716 30.5118 16.5985C30.3697 16.8158 26.6436 19.5862 26.1436 19.8463C25.9346 19.955 25.6904 20.0004 25.4111 19.9826L24.9922 19.9558V20.6847C24.9923 21.0856 25.022 21.4116 25.0585 21.4091C25.0949 21.4065 26.8309 20.5193 28.9164 19.4375L32.7083 17.4703L33.0612 16.9461C33.436 16.3892 33.7653 15.4986 33.8921 14.699C33.9345 14.4317 33.961 14.2041 33.951 14.1932C33.941 14.1825 33.5018 14.4905 32.9751 14.878C32.0003 15.5951 31.7315 15.6955 31.4752 15.4388C31.2253 15.1884 31.3468 14.8704 31.8408 14.4823C32.192 14.2065 32.346 14.0034 32.5142 13.5946C32.8203 12.8503 33.0316 11.82 32.9998 11.2268L32.9728 10.7233L32.3115 11.4889ZM15.2041 11.5801C15.2041 11.6141 15.6545 12.1011 16.205 12.6624C17.6633 14.1492 17.9972 14.8277 18.0884 16.4881L18.1405 17.4378H18.921H19.7014V16.6775C19.7014 15.7761 19.5345 15.0632 19.1202 14.1946C18.8828 13.6969 18.6027 13.335 17.838 12.5381L16.8596 11.5183H16.0318C15.5765 11.5183 15.2041 11.5462 15.2041 11.5801ZM22.8225 12.3356C21.8209 13.3594 21.5238 13.7486 21.2081 14.4504C20.8791 15.182 20.7596 15.7792 20.7596 16.6912V17.4378H21.54H22.3204L22.3726 16.4881C22.4641 14.8215 22.7924 14.1545 24.2559 12.6624C24.8064 12.1011 25.2569 11.6141 25.2569 11.5801C25.2569 11.5462 24.8891 11.5183 24.4394 11.5183H23.622L22.8225 12.3356ZM13.5687 12.2653C13.3214 12.513 13.2721 12.805 13.4917 12.7205C13.5684 12.691 13.8937 12.6669 14.2145 12.6669H14.7977L14.4986 12.3577C14.1438 11.9909 13.8697 11.9637 13.5687 12.2653ZM25.9671 12.3516L25.6632 12.6669H26.2464C26.5673 12.6669 26.8925 12.691 26.9692 12.7205C27.1591 12.7936 27.1505 12.5602 26.9544 12.3236C26.8695 12.2212 26.681 12.1146 26.5355 12.0869C26.3142 12.0445 26.2213 12.0878 25.9671 12.3516ZM6.6672 18.5187C7.01296 19.1714 7.96013 20.2097 8.42785 20.4488C8.71153 20.5938 8.95218 20.6185 10.0859 20.6185C10.8154 20.6185 11.4119 20.5886 11.4116 20.5522C11.4109 20.4875 6.56155 17.9679 6.43783 17.9679C6.40353 17.9679 6.50679 18.2158 6.6672 18.5187ZM32.576 18.6787C31.8243 19.0669 30.7231 19.6316 30.129 19.9336C29.5348 20.2355 29.0487 20.5132 29.0487 20.5505C29.0487 20.5879 29.6459 20.6185 30.3759 20.6185C31.8986 20.6185 31.9807 20.5927 32.736 19.8785C33.3019 19.3433 34.2248 17.9626 34.0113 17.9704C33.9736 17.9718 33.3278 18.2906 32.576 18.6787ZM16.5268 21.9923C16.5268 25.9231 16.5309 25.9568 17.053 26.2272C17.2219 26.3148 17.5655 26.362 18.0435 26.3634C18.9783 26.366 19.3765 26.4614 19.8497 26.7955L20.2305 27.0644L20.6112 26.7955C21.0844 26.4614 21.4827 26.366 22.4174 26.3634C22.8954 26.362 23.239 26.3148 23.4079 26.2272C23.93 25.9568 23.9341 25.9231 23.9341 21.9923V18.4097H20.2305H16.5268V21.9923ZM19.2784 19.8228C19.1958 19.9682 19.0795 20.0875 19.02 20.0878C18.9605 20.0881 18.8503 20.1824 18.7751 20.2973C18.6067 20.5549 18.7189 20.9279 18.9909 21.0144C19.1276 21.0579 19.1723 21.1469 19.1723 21.3754C19.1723 21.6416 19.1448 21.6787 18.9474 21.6787C18.4252 21.6787 17.8377 22.215 17.6679 22.8468C17.614 23.0475 17.5831 23.6255 17.5994 24.1311C17.6248 24.9188 17.6536 25.0685 17.8002 25.1758C18.0375 25.3495 18.2592 25.3323 18.4668 25.1243C18.6226 24.9682 18.6432 24.8299 18.6432 23.9366C18.6432 22.992 18.6561 22.9165 18.8392 22.7881C18.947 22.7125 19.066 22.6505 19.1038 22.6505C19.1414 22.6505 19.1723 23.1674 19.1723 23.7991C19.1723 24.8299 19.1903 24.9658 19.3486 25.1243C19.4456 25.2215 19.6044 25.301 19.7014 25.301C19.7984 25.301 19.9571 25.2215 20.0541 25.1243C20.2125 24.9657 20.2305 24.8299 20.2305 23.7918C20.2305 22.9162 20.2567 22.6446 20.3389 22.672C20.3986 22.692 20.6597 23.2522 20.9192 23.9169C21.2288 24.7102 21.4519 25.1584 21.5685 25.2208C21.8218 25.3567 22.1233 25.2541 22.2429 24.9913C22.332 24.7952 22.2935 24.636 21.9493 23.7781C21.7315 23.2351 21.5532 22.7592 21.5532 22.7206C21.5532 22.6821 21.6655 22.6505 21.8027 22.6505C22.0162 22.6505 22.0824 22.7151 22.2617 23.0989C22.3771 23.3455 22.5462 23.5875 22.6378 23.6365C22.8789 23.7659 23.1832 23.6602 23.2982 23.4072C23.3848 23.2169 23.3488 23.091 23.0267 22.4554L22.6555 21.7228L22.2366 21.6959L21.8177 21.6689V21.2429C21.8177 20.7694 21.8881 20.6789 22.3868 20.5113C22.778 20.3799 22.9116 20.1262 22.7542 19.814C22.6624 19.6321 22.585 19.6029 22.202 19.6054C21.39 19.611 20.8559 20.1743 20.7814 21.1039C20.7364 21.6667 20.7302 21.6787 20.4829 21.6787H20.2305V20.8149C20.2305 19.8134 20.1212 19.5582 19.6923 19.5582C19.4917 19.5582 19.3926 19.6215 19.2784 19.8228ZM8.36991 21.8994C8.7416 22.218 9.5468 22.6505 9.76831 22.6505C9.88709 22.6505 11.2517 21.8543 11.4519 21.6682C11.5005 21.6231 10.796 21.5917 9.77642 21.5937L8.01718 21.5969L8.36991 21.8994ZM11.9499 22.5606C10.8282 23.2688 10.456 23.5449 10.5665 23.5874C10.8488 23.6959 12.4109 23.5616 12.8591 23.3902C13.2723 23.2323 13.3061 23.1933 13.6038 22.5294C13.9046 21.8585 13.9097 21.8297 13.7493 21.7122C13.6579 21.6451 13.5609 21.5907 13.5338 21.5911C13.5066 21.5916 12.7939 22.0278 11.9499 22.5606ZM26.7339 21.6855C26.5187 21.8115 26.537 21.9263 26.8848 22.6314C27.1667 23.2029 27.2221 23.2616 27.6123 23.4012C28.1101 23.5794 29.789 23.6921 29.8747 23.553C29.922 23.4764 27.3415 21.7553 26.9965 21.6333C26.937 21.6123 26.8188 21.6357 26.7339 21.6855ZM28.9605 21.623C28.9605 21.7027 30.5422 22.6505 30.6752 22.6505C30.9117 22.6505 31.7067 22.2287 32.091 21.8994L32.4437 21.5969L30.7021 21.5937C29.7442 21.5918 28.9605 21.6051 28.9605 21.623ZM14.494 23.013C14.2964 23.4068 14.1538 23.7481 14.1771 23.7714C14.2452 23.8397 15.0513 23.4543 15.2691 23.2493C15.5541 22.981 15.5297 22.6364 15.2125 22.4487C15.0716 22.3653 14.9332 22.2971 14.9049 22.2971C14.8765 22.2971 14.6916 22.6193 14.494 23.013ZM25.2348 22.4524C24.8794 22.6732 24.8998 23.0728 25.2795 23.3309C25.5988 23.5482 26.2277 23.8277 26.2796 23.7757C26.3323 23.7228 25.6243 22.2969 25.5466 22.2995C25.5085 22.3007 25.3682 22.3696 25.2348 22.4524ZM5.59701 23.9455C5.29755 24.3269 5.53855 24.7709 6.04489 24.7709C6.30424 24.7709 6.56217 24.4968 6.56217 24.2211C6.56217 23.9957 6.24577 23.7107 5.99542 23.7107C5.8687 23.7107 5.7061 23.8066 5.59701 23.9455ZM15.3365 26.4614C14.9885 26.7674 14.5008 27.5457 14.4994 27.797C14.4987 27.9327 14.5943 27.9516 15.2797 27.9516H16.0608L16.2892 27.5104C16.5135 27.0775 16.5145 27.0676 16.3431 26.9758C16.2471 26.9243 16.0539 26.7237 15.9138 26.5298L15.6591 26.1776L15.3365 26.4614ZM24.552 26.511C24.4347 26.6824 24.251 26.8804 24.1436 26.9509L23.9483 27.0791L24.1742 27.5153L24.4001 27.9516H25.1812C26.0487 27.9516 26.0847 27.9202 25.8196 27.395C25.608 26.9756 25.2889 26.5729 25.0113 26.3748L24.7652 26.1992L24.552 26.511ZM29.5904 28.7055C29.0608 29.152 29.0401 29.8724 29.5434 30.3461C29.7228 30.515 29.8638 30.5579 30.2392 30.5579C30.7968 30.5579 31.1083 30.3267 31.2674 29.7947C31.5505 28.8475 30.3483 28.0666 29.5904 28.7055Z" fill="white"/>
</g>
</svg>
