<svg width="20" height="21" viewBox="0 0 20 21" fill="none" xmlns="http://www.w3.org/2000/svg">
<g id="map-pin" clip-path="url(#clip0_189_15443)">
<path id="Vector" d="M17.5 8.83325C17.5 14.6666 10 19.6666 10 19.6666C10 19.6666 2.5 14.6666 2.5 8.83325C2.5 6.84413 3.29018 4.93647 4.6967 3.52995C6.10322 2.12343 8.01088 1.33325 10 1.33325C11.9891 1.33325 13.8968 2.12343 15.3033 3.52995C16.7098 4.93647 17.5 6.84413 17.5 8.83325Z" stroke="white" stroke-width="1.66667" stroke-linecap="round" stroke-linejoin="round"/>
<path id="Vector_2" d="M10 11.3333C11.3807 11.3333 12.5 10.214 12.5 8.83325C12.5 7.45254 11.3807 6.33325 10 6.33325C8.61929 6.33325 7.5 7.45254 7.5 8.83325C7.5 10.214 8.61929 11.3333 10 11.3333Z" stroke="white" stroke-width="1.66667" stroke-linecap="round" stroke-linejoin="round"/>
</g>
<defs>
<clipPath id="clip0_189_15443">
<rect width="20" height="20" fill="white" transform="translate(0 0.5)"/>
</clipPath>
</defs>
</svg>
