<svg width="152" height="110" viewBox="0 0 152 110" fill="none" xmlns="http://www.w3.org/2000/svg">
<path fill-rule="evenodd" clip-rule="evenodd" d="M22.6616 1.64068C22.2072 2.1438 21.8703 3.32162 21.4769 5.7813C18.91 21.8279 12.015 35.8719 3.59875 42.1951C2.59906 42.9463 1.66375 43.6576 1.52 43.776C1.25969 43.9904 3.40281 47.5001 3.79437 47.5001C4.06844 47.5001 7.72187 44.5879 9.23406 43.1638C13.5269 39.1216 17.9716 32.1266 20.9741 24.6876L21.92 22.3438L21.9287 43.9722L21.9375 65.6004L11.8138 65.691C2.36813 65.7754 1.64562 65.8213 1.0325 66.3766C0.41375 66.9369 0.375 67.2826 0.375 72.236C0.375 77.0835 0.424375 77.5494 1 78.1251C1.59938 78.7244 2.04156 78.7501 11.7812 78.7501H21.9375V87.3116V95.8735L19.2537 95.9835C15.5438 96.136 15.375 96.3597 15.375 101.128V104.688H8.96875H2.5625V106.875V109.063H76H149.438V106.875V104.688H143.031H136.625V101.128C136.625 96.3597 136.456 96.136 132.746 95.9835L130.062 95.8735V87.3116V78.7501H140.219C149.958 78.7501 150.401 78.7244 151 78.1251C151.576 77.5494 151.625 77.0835 151.625 72.236C151.625 67.2826 151.586 66.9369 150.967 66.3766C150.354 65.8213 149.632 65.7754 140.186 65.691L130.062 65.6004L130.078 43.9722L130.093 22.3438L130.874 24.3751C133.122 30.2247 137.208 37.0726 140.922 41.2154C142.673 43.1676 147.696 47.5001 148.209 47.5001C148.321 47.5001 148.944 46.6985 149.594 45.7191L150.777 43.9379L150.037 43.4535C140.802 37.4038 133.129 22.5707 130.522 5.72724C129.737 0.649743 130.282 0.937554 121.449 0.937554C112.552 0.937554 113.056 0.702554 112.401 5.1563C110.459 18.3669 104.934 31.3051 98.1197 38.6016C94.0034 43.0091 88.9837 46.1172 83.6562 47.5566C80.0434 48.5329 71.9512 48.5366 68.4113 47.5638C57.3991 44.5372 49.0694 35.6344 43.6647 21.1141C42.1984 17.1751 40.2528 9.5638 39.6253 5.31255C38.9416 0.678179 39.4794 0.937554 30.5513 0.937554C23.4241 0.937554 23.2853 0.950054 22.6616 1.64068ZM26.3125 35.4688V65.6251H30.5312H34.75V35.4688V5.31255H30.5312H26.3125V35.4688ZM117.25 35.4688V65.6251H121.469H125.688V35.4688V5.31255H121.469H117.25V35.4688ZM39.4403 44.1407L39.4375 65.6251H43.6562H47.875V52.0172V38.4094L46.3641 36.1579C44.225 32.9707 42.7431 30.2238 40.9769 26.1738L39.4431 22.6563L39.4403 44.1407ZM111.338 25.3907C110.001 28.7251 107.622 33.226 105.671 36.1182L104.125 38.4094V52.0172V65.6251H108.344H112.562V44.2188C112.562 32.4454 112.52 22.8126 112.468 22.8126C112.416 22.8126 111.908 23.9729 111.338 25.3907ZM52.25 54.4701V65.6251H56.4688H60.6875V57.5297V49.4344L59.2031 48.5819C57.3403 47.5119 54.5938 45.5169 53.2656 44.2691L52.25 43.3151V54.4701ZM98.9512 44.0816C98.1822 44.9319 94.6641 47.5026 92.7969 48.5788L91.3125 49.4344V57.5297V65.6251H95.5312H99.75V54.5313C99.75 48.4297 99.7016 43.4376 99.6422 43.4376C99.5828 43.4376 99.2719 43.7276 98.9512 44.0816ZM65.375 58.4807V65.6251H69.5938H73.8125V59.2494V52.8738L71.8797 52.6497C70.8169 52.5263 68.9184 52.1801 67.6609 51.8807L65.375 51.336V58.4807ZM84.9062 51.7404C84.0469 51.9791 82.1837 52.3394 80.7656 52.541L78.1875 52.9072V59.2663V65.6251H82.4062H86.625V58.4376C86.625 54.4844 86.5897 51.2626 86.5469 51.2779C86.5041 51.2935 85.7656 51.5013 84.9062 51.7404ZM4.75 72.3438V74.3751H76H147.25V72.3438V70.3126H76H4.75V72.3438ZM26.3125 87.3438V95.9376H30.5312H34.75V87.3438V78.7501H30.5312H26.3125V87.3438ZM39.4375 87.3438V95.9376H41.7391C43.5944 95.9376 44.2003 96.0632 44.8641 96.5854C45.6716 97.2204 45.6875 97.3057 45.6875 100.96V104.688H76H106.312V100.96C106.312 97.3057 106.328 97.2204 107.136 96.5854C107.8 96.0632 108.406 95.9376 110.261 95.9376H112.562V87.3438V78.7501H76H39.4375V87.3438ZM117.25 87.3438V95.9376H121.469H125.688V87.3438V78.7501H121.469H117.25V87.3438ZM19.75 102.578V104.688H30.5312H41.3125V102.578V100.469H30.5312H19.75V102.578ZM110.688 102.578V104.688H121.469H132.25V102.578V100.469H121.469H110.688V102.578Z" fill="white"/>
</svg>
