<svg width="52" height="52" viewBox="0 0 52 52" fill="none" xmlns="http://www.w3.org/2000/svg">
<g id="Traced/sedan" clip-path="url(#clip0_270_5975)">
<path id="Vector" fill-rule="evenodd" clip-rule="evenodd" d="M16.3007 16.408C14.8299 16.6306 13.5581 17.1091 10.7602 18.4928C7.08059 20.3125 6.86112 20.3816 3.36483 20.8221C1.51984 21.0547 1.1594 21.1842 0.583031 21.8222C0.00950731 22.457 -0.0177115 22.6612 0.0183432 26.0508C0.0501323 29.0374 0.0556166 29.1075 0.296828 29.5976C0.575718 30.1644 1.14884 30.7787 1.64497 31.0428C1.82951 31.141 2.85844 31.4766 3.93155 31.7883L5.88266 32.3554L6.24077 33.0711C7.10324 34.7951 9.06401 35.8973 10.9324 35.7082C12.349 35.5647 13.5975 34.8741 14.389 33.7958L14.7438 33.3125H26.4062H38.0686L38.4234 33.7958C39.518 35.287 41.5138 36.0269 43.3059 35.6059C44.268 35.3798 45.0849 34.9192 45.738 34.2345C47.6109 32.271 47.5796 29.3794 45.6646 27.467C43.7792 25.584 40.7639 25.5787 38.9067 27.455C37.9026 28.4694 37.4765 29.4915 37.4765 30.8857V31.6875H26.4062H15.3359V30.8857C15.3359 29.4915 14.9098 28.4694 13.9057 27.455C11.2002 24.7215 6.55643 26.1902 5.76556 30.0296L5.63668 30.6551L4.06246 30.2023C3.19664 29.9534 2.37398 29.6688 2.23434 29.57C2.09469 29.4713 1.87765 29.1892 1.75191 28.9433C1.55163 28.5512 1.5234 28.342 1.5234 27.248V26H1.98551C2.8494 26 3.31059 25.5371 3.08512 24.8961C2.96427 24.5525 2.6025 24.3783 2.00582 24.3765L1.5234 24.375V23.8113C1.5234 23.1957 1.72368 22.6953 2.00602 22.6057C2.10515 22.5742 3.0769 22.4327 4.16534 22.2912C6.4376 21.9959 7.5943 21.7158 8.88556 21.1481L9.79861 20.7467L10.8125 21.7032C12.0612 22.8811 12.8527 23.3075 14.0962 23.4721C15.3007 23.6316 16.4764 23.5632 16.7474 23.3179C17.0678 23.028 17.0398 22.4205 16.6933 22.148C16.4616 21.9658 16.2842 21.9375 15.373 21.9375C14.794 21.9375 14.3203 21.8993 14.3203 21.8526C14.3203 21.6116 15.1171 18.3582 15.1945 18.2832C15.2444 18.2349 15.6374 18.1233 16.068 18.0353C16.6582 17.9144 17.4762 17.875 19.3941 17.875H21.9375V19.9062V21.9375H20.6093H19.2812L18.9843 22.2344C18.6233 22.5954 18.61 22.8517 18.9325 23.2267L19.1776 23.5117L29.8759 23.5715C41.1311 23.6345 41.0252 23.6303 43.9257 24.1215C45.9331 24.4613 48.468 25.22 49.2578 25.7172L49.6132 25.9411L49.0088 26.01C48.5606 26.0612 48.3572 26.1373 48.2217 26.3047C47.9844 26.5978 47.9892 27.033 48.233 27.3344C48.4098 27.5529 48.5188 27.5774 49.46 27.6094L50.493 27.6445L50.4594 29.4042C50.4273 31.085 50.4151 31.175 50.1886 31.4159C50.0582 31.5546 49.7929 31.6979 49.599 31.7342C48.861 31.8727 48.6084 32.5708 49.1136 33.0759C49.342 33.3044 49.433 33.3301 49.8248 33.2763C50.4387 33.1921 51.0056 32.8842 51.3779 32.4325C51.9874 31.6931 52.0051 31.5452 52.0403 26.9141C52.0597 24.3547 52.0481 23.5738 52.0107 24.9259C51.9538 26.9822 51.9392 27.1153 51.8194 26.6656C51.3524 24.9145 50.0111 24.0049 46.5664 23.1036C44.4231 22.5428 42.2879 22.2296 39.2705 22.0333L37.5607 21.922L34.294 19.8406C32.4973 18.6959 30.6561 17.5813 30.2024 17.3635C29.1597 16.863 27.9327 16.5061 26.7617 16.3626C25.409 16.1968 17.4684 16.2313 16.3007 16.408ZM23.5625 19.8949V21.9375H29.1146C32.1682 21.9375 34.6476 21.9211 34.6243 21.9011C34.601 21.8811 33.6451 21.2703 32.5 20.544C28.8596 18.2345 28.1535 17.9729 25.3652 17.8997L23.5625 17.8523V19.8949ZM12.3398 19.4714C11.8371 19.7235 11.4036 19.9504 11.3766 19.9757C11.3495 20.0009 11.6373 20.3224 12.0161 20.6903C12.4107 21.0735 12.7415 21.32 12.7904 21.2675C12.8836 21.1677 13.3479 19.102 13.2896 19.0467C13.2699 19.0281 12.8425 19.2193 12.3398 19.4714ZM0.0450541 25.7969C0.0450541 27.5006 0.0589682 28.1975 0.0759291 27.3457C0.0928901 26.4939 0.0928901 25.0998 0.0759291 24.248C0.0589682 23.3962 0.0450541 24.0932 0.0450541 25.7969ZM9.44527 27.7925C8.61409 28.0795 7.93463 28.7063 7.53742 29.5527C6.96867 30.7644 7.2695 32.277 8.27324 33.2525C8.94396 33.9044 9.67044 34.157 10.7148 34.1016C11.9906 34.0339 12.934 33.4236 13.4793 32.3132C13.7209 31.8215 13.7617 31.6135 13.7617 30.875C13.7617 29.8371 13.5225 29.2563 12.7952 28.5282C11.9706 27.7028 10.5859 27.3986 9.44527 27.7925ZM41.0376 27.8415C40.3708 28.1049 39.6479 28.7965 39.3003 29.5039C39.0946 29.9223 39.0507 30.1637 39.0507 30.875C39.0507 31.6135 39.0916 31.8215 39.3331 32.3132C39.8784 33.4236 40.8218 34.0339 42.0976 34.1016C43.142 34.157 43.8685 33.9044 44.5392 33.2525C45.8781 31.9513 45.898 29.855 44.5837 28.5678C43.941 27.9384 43.3704 27.7007 42.4023 27.6587C41.752 27.6305 41.4796 27.6669 41.0376 27.8415ZM17.5733 28.5674C17.4354 28.6373 17.2558 28.8131 17.1744 28.9582C16.9852 29.2953 17.1594 29.7783 17.5312 29.9477C17.8888 30.1107 34.9236 30.1107 35.2812 29.9477C35.6531 29.7783 35.8273 29.2953 35.638 28.9582C35.5566 28.8131 35.377 28.6373 35.2391 28.5674C34.8738 28.3825 17.9386 28.3825 17.5733 28.5674ZM10.1656 30.1209C9.40901 30.8214 9.10026 31.2956 9.19604 31.6098C9.31832 32.0109 9.55618 32.1953 9.95126 32.1953C10.2833 32.1953 10.4094 32.1077 11.1035 31.3945C11.9533 30.5213 12.038 30.2872 11.6722 29.8223C11.3129 29.3655 10.8913 29.4491 10.1656 30.1209ZM41.1402 29.8223C40.7745 30.2872 40.8592 30.5213 41.7089 31.3945C42.403 32.1077 42.5292 32.1953 42.8612 32.1953C43.4634 32.1953 43.807 31.6342 43.5314 31.1011C43.4483 30.9405 43.0786 30.5268 42.7099 30.1819C42.161 29.6684 41.977 29.5547 41.695 29.5547C41.444 29.5547 41.2936 29.6272 41.1402 29.8223Z" fill="white"/>
</g>
<defs>
<clipPath id="clip0_270_5975">
<rect width="52" height="52" fill="white"/>
</clipPath>
</defs>
</svg>
