<svg width="52" height="52" viewBox="0 0 52 52" fill="none" xmlns="http://www.w3.org/2000/svg">
<g id="Traced/train" clip-path="url(#clip0_270_5981)">
<path id="Vector" fill-rule="evenodd" clip-rule="evenodd" d="M1.52388 9.14889C0.960413 9.40391 0.557413 9.77685 0.270397 10.3086L0.0512256 10.7149L0.0240068 21.6774C-0.00585258 33.7331 -0.0331728 33.1605 0.610429 33.9413C0.777499 34.144 1.15176 34.4282 1.44212 34.5729C1.91155 34.8068 2.0908 34.836 3.06001 34.836H4.15008L4.30558 35.3692C4.39109 35.6624 4.59645 36.1156 4.762 36.3761L5.06293 36.8497L3.47114 36.8853C1.70873 36.9247 1.38891 37.0184 0.736061 37.686C0.144968 38.2907 0.0512256 38.6094 0.0512256 40.0157C0.0512256 41.1231 0.0792568 41.3371 0.270397 41.6914C0.557413 42.2232 0.960413 42.5962 1.52388 42.8512C1.97787 43.0566 2.09629 43.0581 19.2211 43.0603C36.3274 43.0625 36.463 43.0609 36.6645 42.8594C36.9212 42.6028 36.9252 42.1406 36.6734 41.8297L36.4794 41.5899L19.3086 41.5391L2.13783 41.4883L1.85823 41.2087C1.61417 40.9646 1.57385 40.8349 1.54115 40.1884C1.4928 39.2305 1.67907 38.7475 2.17713 38.5394C2.71501 38.3146 49.2859 38.3146 49.8238 38.5394C50.3218 38.7475 50.5081 39.2305 50.4597 40.1884C50.427 40.8348 50.3867 40.9647 50.1428 41.2087L49.8633 41.4883L45.1025 41.5391C40.603 41.5871 40.3301 41.6005 40.1282 41.7834C39.8493 42.0358 39.8439 42.5857 40.1176 42.8594C40.3151 43.0569 40.4555 43.0625 45.1704 43.0615L50.02 43.0605L50.5285 42.8238C51.1011 42.5571 51.5909 42.0542 51.7852 41.5336C51.857 41.3412 51.9577 41.1043 52.0089 41.0073C52.1293 40.7792 52.1316 38.7666 52.0113 38.841C51.9613 38.8719 51.8892 38.7717 51.851 38.6185C51.7799 38.3332 51.3703 37.7308 51.0905 37.4997C51.0044 37.4287 50.7512 37.2687 50.5278 37.1442C50.1322 36.924 50.0181 36.9167 46.1869 36.8672L42.2524 36.8164L42.5458 36.3734C42.7072 36.1297 42.9158 35.687 43.0093 35.3895L43.1794 34.8488L43.7559 34.7895C46.4496 34.5126 49.2155 33.3288 50.496 31.9046C51.0657 31.271 51.6342 30.1964 51.8131 29.4154C51.9472 28.8299 51.9507 28.8546 52.0038 30.7865C52.0336 31.8686 52.0568 27.818 52.0556 21.7852C52.0535 11.7402 52.0489 11.4408 52.0015 18.2305C51.9686 22.9363 51.9181 25.4224 51.8631 25.0362C51.6644 23.6387 50.9152 21.6574 50.1663 20.5489C49.4337 19.4642 48.648 18.6135 47.4713 17.6309C42.3394 13.3457 36.0339 10.4709 29.4028 9.39366C26.7385 8.9608 26.1445 8.94363 13.8129 8.94282C2.12574 8.94201 1.97533 8.94455 1.52388 9.14889ZM1.91144 10.7526L1.57466 11.0532L1.54074 12.2806L1.50692 13.5079H2.98801C4.33381 13.5079 4.48778 13.5264 4.67232 13.711C5.0024 14.0411 4.97802 14.4727 4.61067 14.8028C4.37261 15.0167 4.26566 15.0313 2.94007 15.0313H1.52388V17.5704V20.1094H7.10982H12.6958V17.5704V15.0313H10.4751C8.41723 15.0313 8.23574 15.0166 7.9993 14.8306C7.85894 14.7202 7.72163 14.5439 7.69421 14.4388C7.61621 14.1406 7.88078 13.6235 8.14444 13.5589C8.27362 13.5273 12.744 13.5141 18.0786 13.53L27.7778 13.5586L28.3107 13.8633C29.0663 14.2954 33.5724 18.5881 33.7788 19.0725C33.9723 19.5265 33.9136 20.2764 33.6497 20.7232C33.5506 20.8908 33.2898 21.1528 33.07 21.3051L32.6705 21.5821L28.5737 21.6118L24.477 21.6415V25.7V29.7587L37.289 29.7329L50.1011 29.7071L50.2571 29.3008C50.4941 28.6835 50.4799 25.806 50.2348 24.7405C50.0284 23.8442 49.6874 22.8874 49.3058 22.1343L49.0517 21.6329H46.6661C43.4086 21.6329 41.9713 21.4033 40.0328 20.5737C38.2901 19.8277 37.1236 18.9974 35.2208 17.1485C33.8376 15.8045 33.713 15.5868 33.8642 14.7803C33.935 14.4033 34.3139 13.8871 34.6696 13.6833C34.8004 13.6084 35.4745 13.5384 36.3598 13.5079L37.8325 13.4571L36.7596 13.0298C33.9249 11.901 31.1971 11.1961 27.727 10.6957C26.7038 10.5481 25.0524 10.5226 14.4036 10.4895L2.24823 10.4518L1.91144 10.7526ZM0.0493974 21.8868C0.0493974 27.9196 0.0616865 30.3726 0.0766162 27.3379C0.0915459 24.3033 0.0915459 19.3674 0.0766162 16.3692C0.0616865 13.371 0.0493974 15.8539 0.0493974 21.8868ZM14.3208 17.5704V20.1094H18.5864H22.852V17.5704V15.0313H18.5864H14.3208V17.5704ZM24.477 17.5704V20.1094H28.2662C31.3312 20.1094 32.0921 20.0826 32.2475 19.969C32.4194 19.8432 32.4241 19.8063 32.2922 19.6152C31.9836 19.1681 27.79 15.3095 27.4652 15.1738C27.2317 15.0763 26.7066 15.0313 25.8006 15.0313H24.477V17.5704ZM35.3612 15.1308C35.4214 15.3078 37.8138 17.4796 38.4487 17.9335C39.6676 18.8053 41.2776 19.5001 42.9115 19.8599C43.3542 19.9574 44.4243 20.0383 45.7543 20.075L47.8872 20.1337L47.4809 19.7086C46.546 18.7303 43.9987 16.8294 42.0247 15.6368L41.0222 15.0313H38.1747C36.3607 15.0313 35.3395 15.0674 35.3612 15.1308ZM1.52388 25.6954V29.7579H7.10982H12.6958V25.6954V21.6329H7.10982H1.52388V25.6954ZM14.3208 25.6954V29.7579H18.5864H22.852V25.6954V21.6329H18.5864H14.3208V25.6954ZM19.1034 23.1611C18.3099 23.4927 18.4752 24.4719 19.3525 24.6365C19.5508 24.6736 20.1237 24.6845 20.6257 24.6605C21.3866 24.6241 21.5741 24.5808 21.7549 24.4C22.0408 24.1141 22.0382 23.6177 21.7491 23.3283C21.5512 23.1302 21.406 23.103 20.4374 23.0821C19.8382 23.0693 19.238 23.1048 19.1034 23.1611ZM43.2511 23.2594C42.7964 23.4996 42.4003 24.2357 42.4885 24.6766C42.5205 24.8365 42.8103 25.5997 43.1323 26.3724C43.8312 28.0488 44.3008 28.6193 45.2017 28.887C45.8782 29.0878 47.089 29.0942 47.5554 28.8993C47.9679 28.727 48.5163 28.139 48.6091 27.77C48.9078 26.5799 47.6366 24.2378 46.3301 23.5713C45.3094 23.0506 43.9139 22.9092 43.2511 23.2594ZM44.1038 24.6911C44.69 26.1233 45.0433 26.8996 45.1798 27.0551C45.6319 27.57 47.1254 27.7212 47.1254 27.252C47.1254 27.1705 46.9716 26.7756 46.7836 26.3742C46.2603 25.2572 45.6648 24.7917 44.5447 24.6247C44.1396 24.5641 44.0569 24.5766 44.1038 24.6911ZM1.54115 31.9933C1.57578 32.6051 1.62057 32.7445 1.85955 32.9836L2.13773 33.2618L7.41674 33.2898L12.6958 33.3178V32.2996V31.2813H7.09834H1.50093L1.54115 31.9933ZM14.3208 32.2969V33.3125H18.5864H22.852V32.2969V31.2813H18.5864H14.3208V32.2969ZM24.477 32.2969V33.3125H33.8642C43.717 33.3125 44.1027 33.2973 45.6922 32.8468C46.5819 32.5945 48.1883 31.8566 48.6489 31.4887L48.9028 31.2858L36.6899 31.2835L24.477 31.2813V32.2969ZM5.78991 34.9629C5.79042 35.1255 6.153 35.7306 6.43494 36.0394C6.76755 36.4036 7.58442 36.7769 8.18435 36.8388C8.82044 36.9045 9.62593 36.6771 10.142 36.2862C10.4943 36.0194 11.0708 35.2014 11.0708 34.9684C11.0708 34.8629 10.5335 34.836 8.43013 34.836C6.38517 34.836 5.78961 34.8646 5.78991 34.9629ZM12.5547 35.3692C12.4692 35.6624 12.2613 36.1194 12.0927 36.3848L11.7862 36.8672H13.5083H15.2304L14.9238 36.3848C14.7552 36.1194 14.5473 35.6624 14.4618 35.3692L14.3063 34.836H13.5083H12.7102L12.5547 35.3692ZM15.9458 34.9684C15.9458 35.2014 16.5222 36.0194 16.8745 36.2862C17.3906 36.6771 18.1961 36.9045 18.8322 36.8388C19.4321 36.7769 20.249 36.4036 20.5816 36.0394C20.8635 35.7306 21.2261 35.1255 21.2266 34.9629C21.2269 34.8646 20.6313 34.836 18.5864 34.836C16.483 34.836 15.9458 34.8629 15.9458 34.9684ZM22.7109 35.3692C22.6254 35.6624 22.4175 36.1194 22.2489 36.3848L21.9424 36.8672H23.6645H25.3866L25.0801 36.3848C24.9115 36.1194 24.7036 35.6624 24.6181 35.3692L24.4626 34.836H23.6645H22.8664L22.7109 35.3692ZM26.102 34.9684C26.102 35.2014 26.6785 36.0194 27.0308 36.2862C28.4934 37.3941 30.8319 36.7294 31.3287 35.0645L31.397 34.836H28.7494C26.6405 34.836 26.102 34.8629 26.102 34.9684ZM32.8672 35.3692C32.7817 35.6624 32.5738 36.1194 32.4052 36.3848L32.0987 36.8672H33.8208H35.5429L35.2363 36.3848C35.0677 36.1194 34.8598 35.6624 34.7743 35.3692L34.6188 34.836H33.8208H33.0227L32.8672 35.3692ZM36.2583 34.9684C36.2583 35.2014 36.8347 36.0194 37.187 36.2862C38.6496 37.3941 40.9881 36.7294 41.485 35.0645L41.5532 34.836H38.9057C36.7967 34.836 36.2583 34.8629 36.2583 34.9684ZM0.0384287 39.9649C0.0386318 40.5793 0.0553896 40.8176 0.0756005 40.4943C0.0958115 40.1712 0.0956084 39.6684 0.0751943 39.3771C0.0547802 39.086 0.0382256 39.3504 0.0384287 39.9649Z" fill="white"/>
</g>
<defs>
<clipPath id="clip0_270_5981">
<rect width="52" height="52" fill="white"/>
</clipPath>
</defs>
</svg>
