<svg width="394" height="62" viewBox="0 0 394 62" fill="none" xmlns="http://www.w3.org/2000/svg">
<g clip-path="url(#clip0_177_8454)">
<path d="M98.1456 30.1836C86.0285 34.383 76.4485 45.9752 74.1884 60.4399C74.1155 60.9357 74.5092 61.3877 75.005 61.3877H84.7016C88.0261 61.3877 90.9278 59.1276 91.7444 55.8906L98.1602 30.1836H98.1456Z" fill="#A0A0A0"/>
<path d="M38.1605 60.2359C37.9272 60.7754 38.3355 61.3878 38.9187 61.3878H58.9973C59.5951 61.3878 60.12 60.9941 60.295 60.4109C65.3839 43.3507 78.4051 29.6879 98.3524 25.6197C98.9502 25.5031 99.4314 25.051 99.5772 24.4678L100.715 19.9038C75.1097 21.1286 49.5631 33.829 38.1605 60.2505V60.2359Z" fill="#A0A0A0"/>
<path d="M104.679 3.95204L105.685 0.000488281H20.1945C16.4471 0.000488281 13.1808 2.55223 12.2768 6.19757L8.63144 20.9248C8.38355 21.9455 9.40425 22.7912 10.352 22.3683C35.7382 11.1698 68.1672 5.27894 103.133 5.14771C103.862 5.14771 104.504 4.65195 104.679 3.95204Z" fill="#A0A0A0"/>
<path d="M3.32598 42.1261L0.161821 54.9286C-0.654735 58.2094 1.83868 61.3881 5.22156 61.3881H20.3133C20.9986 61.3881 21.6256 60.9944 21.9318 60.3674C34.6759 34.3105 61.0536 17.1191 100.715 15.2964C101.415 15.2672 102.013 14.786 102.188 14.1007L103.238 9.82837C61.1557 10.295 30.0828 20.3999 5.14865 39.3411C4.2446 40.0264 3.60302 41.0179 3.32598 42.1261Z" fill="#A0A0A0"/>
<path d="M122.092 52.8577C122.865 52.8577 123.127 52.9452 123.346 53.1785C123.696 53.5867 123.842 54.1846 123.142 56.9404C122.456 59.6963 122.019 60.2942 121.465 60.7024C121.144 60.9503 120.838 61.0232 120.065 61.0232H117.732C116.959 61.0232 116.682 60.9357 116.478 60.7024C116.128 60.2942 115.997 59.6963 116.682 56.9404C117.368 54.1846 117.79 53.5867 118.344 53.1785C118.665 52.9306 118.986 52.8577 119.759 52.8577H122.092ZM117.586 59.7692C117.659 59.8567 117.732 59.9005 118.14 59.9005H120.196C120.59 59.9005 120.692 59.8567 120.809 59.7692C120.969 59.6526 121.217 59.288 121.815 56.9404C122.398 54.5783 122.325 54.2283 122.223 54.1117C122.15 54.0242 122.077 53.9804 121.669 53.9804H119.613C119.219 53.9804 119.117 54.0242 119.001 54.1117C118.855 54.2283 118.592 54.5928 118.009 56.9404C117.411 59.3026 117.499 59.6526 117.586 59.7692Z" fill="#A0A0A0"/>
<path d="M129.994 60.688C129.673 60.9359 129.367 61.0088 128.594 61.0088H126.334C125.561 61.0088 125.284 60.9213 125.08 60.688C124.73 60.2798 124.598 59.6819 125.284 56.926C125.969 54.1702 126.392 53.5723 126.946 53.164C127.267 52.9162 127.588 52.8433 128.36 52.8433H130.621C131.393 52.8433 131.656 52.9307 131.875 53.164C132.224 53.5723 132.312 54.1118 131.977 55.5262H130.664C130.883 54.5055 130.854 54.2139 130.752 54.0973C130.679 54.0098 130.606 53.966 130.198 53.966H128.215C127.821 53.966 127.719 54.0098 127.602 54.0973C127.456 54.2139 127.194 54.5784 126.611 56.926C126.013 59.2882 126.1 59.6382 126.188 59.7548C126.261 59.8423 126.334 59.8861 126.742 59.8861H128.725C129.119 59.8861 129.221 59.8423 129.337 59.7548C129.498 59.6382 129.658 59.4049 130.008 58.1946H131.32C130.854 59.8132 130.548 60.2652 129.994 60.6735V60.688Z" fill="#A0A0A0"/>
<path d="M135.184 61.0231H133.74L135.315 58.5443L133.332 52.8575H134.703L136.19 57.2903L136.263 57.2465L139.048 52.8575H140.55L135.213 61.0231H135.184Z" fill="#A0A0A0"/>
<path d="M154.507 58.7194H151.401L150.118 61.0233H148.82L153.37 53.1348C153.516 52.8723 153.603 52.814 153.924 52.814H155.061C155.353 52.814 155.426 52.8577 155.44 53.1348L156.067 61.0233H154.653L154.507 58.7194ZM152.028 57.6258H154.449L154.245 53.9659H154.07L152.043 57.6258H152.028Z" fill="#A0A0A0"/>
<path d="M163.954 57.6989C163.633 57.9322 163.225 58.0051 162.627 58.0051H159.857L159.113 61.0088H157.801L159.828 52.8433H163.896C164.494 52.8433 164.887 52.9162 165.091 53.1495C165.354 53.4703 165.543 53.9952 165.179 55.4533C164.829 56.8531 164.377 57.3781 163.954 57.6989ZM162.583 56.8823C162.992 56.8823 163.138 56.8531 163.24 56.7802C163.385 56.6782 163.619 56.4011 163.867 55.4242C164.115 54.4326 164.012 54.1702 163.91 54.0681C163.837 53.9952 163.706 53.966 163.298 53.966H160.863L160.134 56.8823H162.569H162.583Z" fill="#A0A0A0"/>
<path d="M171.287 60.6879C170.966 60.9358 170.66 61.0087 169.887 61.0087H167.627C166.854 61.0087 166.577 60.9212 166.373 60.6879C166.023 60.2796 165.891 59.6818 166.577 56.9259C167.262 54.17 167.685 53.5722 168.239 53.1639C168.56 52.916 168.881 52.8431 169.653 52.8431H171.914C172.686 52.8431 172.949 52.9306 173.168 53.1639C173.518 53.5722 173.605 54.1117 173.27 55.5261H171.957C172.176 54.5054 172.147 54.2138 172.045 54.0971C171.972 54.0096 171.899 53.9659 171.491 53.9659H169.508C169.114 53.9659 169.012 54.0096 168.895 54.0971C168.749 54.2138 168.487 54.5783 167.904 56.9259C167.306 59.2881 167.393 59.6381 167.481 59.7547C167.554 59.8422 167.627 59.8859 168.035 59.8859H170.018C170.412 59.8859 170.514 59.8422 170.63 59.7547C170.791 59.6381 170.951 59.4048 171.301 58.1945H172.613C172.147 59.813 171.841 60.2651 171.287 60.6733V60.6879Z" fill="#A0A0A0"/>
<path d="M178.767 53.9659L177.018 61.0087H175.705L177.455 53.9659H174.889L175.166 52.8431H181.611L181.334 53.9659H178.767Z" fill="#A0A0A0"/>
<path d="M112.554 53.9659L110.805 61.0087H109.492L111.242 53.9659L111.504 52.8431H116.783L116.506 53.9659H112.54H112.554Z" fill="#A0A0A0"/>
<path d="M183.201 52.8578H187.458C188.056 52.8578 188.45 52.9453 188.654 53.1932C188.917 53.5139 188.975 53.9222 188.683 55.1033C188.406 56.2407 187.896 56.576 187.065 56.7656V56.7948C187.969 56.9406 188.202 57.378 187.896 58.632C187.56 59.9735 187.269 60.3526 186.846 60.6588C186.525 60.9067 186.029 61.0234 185.461 61.0234H181.174L183.201 52.8578ZM186.671 57.4363C186.671 57.4363 186.525 57.3489 186.146 57.3489H183.39L182.749 59.9152H185.504C185.869 59.9152 186 59.9152 186.102 59.8277C186.219 59.7402 186.365 59.5506 186.584 58.6612C186.817 57.7425 186.758 57.553 186.671 57.4509V57.4363ZM186.35 56.2407C186.715 56.2407 186.831 56.2115 186.933 56.1532C187.079 56.0511 187.196 55.8616 187.371 55.1033C187.56 54.3597 187.546 54.1847 187.458 54.0826C187.415 54.0097 187.283 53.9951 186.904 53.9951H184.221L183.667 56.2552H186.35V56.2407Z" fill="#A0A0A0"/>
<path d="M195.086 61.0234H189.516L191.542 52.8578H197.113L196.835 53.9806H192.563L192.009 56.2261H195.538L195.261 57.3489H191.732L191.09 59.9006H195.363L195.1 61.0234H195.086Z" fill="#A0A0A0"/>
<path d="M203.703 61.0234H202.391L203.295 57.3489H199.402L198.498 61.0234H197.186L199.212 52.8578H200.525L199.679 56.2261H203.572L204.418 52.8578H205.73L203.703 61.0234Z" fill="#A0A0A0"/>
<path d="M212.7 61.0234H211.387L212.291 57.3489H208.398L207.494 61.0234H206.182L208.208 52.8578H209.521L208.675 56.2261H212.568L213.414 52.8578H214.726L212.7 61.0234Z" fill="#A0A0A0"/>
<path d="M219.904 58.7194H216.798L215.515 61.0233H214.217L218.766 53.1348C218.912 52.8723 218.999 52.814 219.32 52.814H220.458C220.749 52.814 220.822 52.8577 220.837 53.1348L221.464 61.0233H220.049L219.904 58.7194ZM217.425 57.6258H219.845L219.641 53.9659H219.466L217.439 57.6258H217.425Z" fill="#A0A0A0"/>
<path d="M244.43 52.8577L240.318 56.7071L242.461 61.0232H240.916L239.137 57.3487H238.408L237.504 61.0232H236.191L238.218 52.8577H239.531L238.685 56.226H239.385L242.913 52.8577H244.43Z" fill="#A0A0A0"/>
<path d="M249.983 52.8575C250.755 52.8575 251.018 52.945 251.237 53.1783C251.586 53.5866 251.732 54.1844 251.032 56.9403C250.347 59.6962 249.91 60.294 249.356 60.7023C249.035 60.9502 248.729 61.0231 247.956 61.0231H245.623C244.85 61.0231 244.573 60.9356 244.369 60.7023C244.019 60.294 243.887 59.6962 244.573 56.9403C245.258 54.1844 245.681 53.5866 246.235 53.1783C246.556 52.9305 246.877 52.8575 247.649 52.8575H249.983ZM245.477 59.7691C245.55 59.8566 245.623 59.9003 246.031 59.9003H248.087C248.481 59.9003 248.583 59.8566 248.699 59.7691C248.86 59.6525 249.108 59.2879 249.705 56.9403C250.289 54.5781 250.216 54.2282 250.114 54.1115C250.041 54.0241 249.968 53.9803 249.56 53.9803H247.504C247.11 53.9803 247.008 54.0241 246.891 54.1115C246.745 54.2282 246.483 54.5927 245.9 56.9403C245.302 59.3025 245.389 59.6525 245.477 59.7691Z" fill="#A0A0A0"/>
<path d="M260.76 61.0231H259.433L261.153 54.0824H260.978L257.435 60.6586C257.275 60.9648 257.216 61.0231 256.896 61.0231H256.05C255.729 61.0231 255.685 60.9648 255.671 60.6586L255.437 53.9657H255.262L253.513 61.0231H252.244L254.271 52.8575H256.298C256.619 52.8575 256.706 52.9596 256.706 53.2658L256.852 59.3171H257.027L260.176 53.2658C260.337 52.9596 260.453 52.8575 260.789 52.8575H262.772L260.745 61.0231H260.76Z" fill="#A0A0A0"/>
<path d="M269.711 61.0235H268.399L270.149 53.9807H266.255L264.506 61.0235H263.193L265.22 52.8579H271.723L269.697 61.0235H269.711Z" fill="#A0A0A0"/>
<path d="M276.827 58.7194H273.722L272.438 61.0233H271.141L275.69 53.1348C275.836 52.8723 275.923 52.814 276.244 52.814H277.381C277.673 52.814 277.746 52.8577 277.761 53.1348L278.388 61.0233H276.973L276.827 58.7194ZM274.349 57.6258H276.769L276.565 53.9659H276.39L274.363 57.6258H274.349Z" fill="#A0A0A0"/>
<path d="M286.219 61.0234H284.907L285.811 57.3489H281.918L281.013 61.0234H279.701L281.728 52.8578H283.04L282.195 56.2261H286.088L286.934 52.8578H288.246L286.219 61.0234Z" fill="#A0A0A0"/>
<path d="M290.767 52.8577H292.036L290.519 59.0111H290.694L295.112 53.2368C295.331 52.916 295.462 52.8577 295.812 52.8577H297.256L295.229 61.0233H293.96L295.579 54.5783H295.404L290.767 60.6296C290.548 60.9504 290.402 61.0087 290.067 61.0087H288.74L290.767 52.8431V52.8577Z" fill="#A0A0A0"/>
<path d="M299.427 58.7633C299.179 59.6965 298.902 60.688 298.713 61.0088H297.4C297.561 60.5714 297.765 59.8715 298.1 58.7196C298.406 57.6843 298.756 57.2906 299.733 57.1593V57.1302C298.888 56.9115 298.596 56.3282 298.902 55.1617C299.223 53.9369 299.617 53.4848 300.083 53.1786C300.433 52.9453 300.958 52.8433 301.498 52.8433H305.566L303.539 61.0088H302.227L303.058 57.6405H300.798C299.879 57.6405 299.588 58.1071 299.413 58.7633H299.427ZM303.35 56.5761L303.991 53.9806H301.614C300.827 53.9806 300.462 54.2868 300.2 55.2638C299.967 56.0949 300.156 56.5761 300.871 56.5761H303.335H303.35Z" fill="#A0A0A0"/>
<path d="M224.525 58.7632C224.277 59.6964 224 60.6879 223.81 61.0087H222.498C222.658 60.5713 222.863 59.8714 223.198 58.7194C223.504 57.6842 223.854 57.2905 224.831 57.1592V57.1301C223.985 56.9113 223.694 56.3281 224 55.1616C224.321 53.9367 224.714 53.4847 225.181 53.1785C225.531 52.9452 226.056 52.8431 226.595 52.8431H230.664L228.637 61.0087H227.324L228.156 57.6404H225.896C224.977 57.6404 224.685 58.107 224.51 58.7632H224.525ZM228.447 56.576L229.089 53.9805H226.712C225.925 53.9805 225.56 54.2867 225.298 55.2636C225.064 56.0948 225.254 56.576 225.968 56.576H228.433H228.447Z" fill="#A0A0A0"/>
<path d="M148.306 52.8578H142.897C142.897 52.8578 142.095 55.5262 141.599 57.0281C141.118 58.5445 140.316 59.5506 139.63 59.9443C139.587 59.9735 139.63 60.0901 139.733 60.2214L139.543 61.0234H145.915L145.667 62.0003H146.979L147.504 59.9006H146.571L148.321 52.8578H148.306ZM141.351 59.9006C141.876 59.259 142.503 58.2966 142.94 56.9114C143.29 55.8324 143.626 54.7534 143.859 53.966H146.717L145.244 59.886H141.351V59.9006Z" fill="#A0A0A0"/>
<path d="M140.01 62.0003L140.535 59.9006H139.222L138.697 62.0003H140.01Z" fill="#A0A0A0"/>
<path d="M268.326 32.473C269.405 32.473 270.076 32.2543 270.805 31.7294C270.747 33.0854 269.77 33.9895 269.77 33.9895L268.326 32.473Z" fill="#A0A0A0"/>
<path d="M165.718 0.175659H188.392C191.672 0.175659 193.758 0.744333 194.837 2.1004C196.134 3.79184 196.47 6.4019 195.347 10.8055C193.932 16.4631 191.279 18.7815 186.861 19.8022L186.802 19.9188C191.162 20.8229 192.737 22.631 191.162 28.9155C189.864 34.1211 188.275 36.0458 186.19 37.6789C184.323 39.0933 181.786 39.7641 178.666 39.7641H155.875L165.718 0.175659ZM182.34 23.5788C182.005 23.2434 181.553 23.0684 180.08 23.0684H169.334L166.942 32.6192H177.601C179.016 32.6192 179.584 32.5609 180.095 32.1672C180.663 31.7152 181.232 31.2631 182.02 27.9823C182.865 24.5849 182.705 24.0745 182.355 23.5788H182.34ZM181.436 16.5651C182.909 16.5651 183.361 16.5068 183.813 16.1714C184.44 15.6611 185.052 14.5383 185.738 11.8116C186.365 9.21611 186.248 8.13709 185.913 7.68507C185.636 7.40802 185.184 7.23304 183.653 7.23304H173.242L170.996 16.5651H181.451H181.436Z" fill="#A0A0A0"/>
<path d="M221.055 7.52467L213.02 39.7495H203.805L211.839 7.52467H199.795L201.603 0.175659H234.309L232.501 7.52467H221.055Z" fill="#A0A0A0"/>
<path d="M260.976 0.175659C264.884 0.175659 266.576 0.744333 267.655 2.1004C269.346 4.18554 270.09 7.8163 267.086 19.9626C264.038 32.0651 261.487 35.6813 258.716 37.8248C256.966 39.1808 255.042 39.7495 251.134 39.7495H238.871C234.963 39.7495 233.272 39.1808 232.193 37.8248C230.443 35.6813 229.699 32.0505 232.761 19.9626C235.765 7.80172 238.302 4.18554 241.131 2.1004C242.881 0.744333 244.806 0.175659 248.713 0.175659H260.976ZM240.446 31.8901C240.781 32.2255 241.233 32.4005 243.041 32.4005H250.565C252.373 32.4588 252.942 32.2255 253.394 31.8901C254.021 31.3798 255.144 29.9654 257.637 19.9626C260.131 9.90143 259.722 8.48704 259.329 8.03502C259.052 7.64132 258.6 7.46634 256.791 7.46634H249.267C247.459 7.46634 246.891 7.64132 246.38 8.03502C245.753 8.48704 244.689 9.90143 242.196 19.9626C239.658 30.0237 240.052 31.3798 240.446 31.8901Z" fill="#A0A0A0"/>
<path d="M346.16 0.175659C350.068 0.175659 351.759 0.744333 352.838 2.1004C354.53 4.18554 355.273 7.8163 352.269 19.9626C349.222 32.0651 346.67 35.6813 343.9 37.8248C342.15 39.1808 340.225 39.7495 336.317 39.7495H324.055C320.147 39.7495 318.455 39.1808 317.376 37.8248C315.627 35.6813 314.883 32.0505 317.945 19.9626C320.949 7.80172 323.486 4.18554 326.315 2.1004C328.064 0.744333 329.989 0.175659 333.897 0.175659H346.16ZM325.629 31.8901C325.965 32.2255 326.417 32.4005 328.225 32.4005H335.749C337.557 32.4588 338.126 32.2255 338.578 31.8901C339.205 31.3798 340.327 29.9654 342.821 19.9626C345.314 9.90143 344.906 8.48704 344.512 8.03502C344.235 7.64132 343.783 7.46634 341.975 7.46634H334.451C332.643 7.46634 332.074 7.64132 331.564 8.03502C330.937 8.48704 329.873 9.90143 327.379 19.9626C324.842 30.0237 325.236 31.3798 325.629 31.8901Z" fill="#A0A0A0"/>
<path d="M386.45 24.6578C384.817 25.8389 382.542 26.2909 379.319 26.2909H367.246L363.907 39.7495H354.692L364.534 0.175659H385.823C389.045 0.175659 391.087 0.569356 392.151 1.76503C393.565 3.39814 394.528 5.94988 392.661 13.2989C390.912 20.4729 388.593 23.083 386.435 24.6578H386.45ZM377.511 19.0585C379.596 19.0585 380.223 18.9419 380.734 18.6065C381.463 18.0378 382.265 17.0171 383.227 13.1822C384.19 9.33276 383.854 8.37039 383.402 7.86004C383.125 7.52467 382.498 7.34969 380.398 7.34969H371.941L369.054 19.0585H377.511Z" fill="#A0A0A0"/>
<path d="M137.78 0.175659C127.121 0.175659 124.219 2.01291 121.245 13.6051C118.372 24.8036 114.537 39.7641 114.537 39.7641H123.913C123.913 39.7641 125.692 32.7504 127.544 25.5327H141.775L138.232 39.7641H147.593L157.45 0.175659H137.78ZM129.323 18.5773C130.387 14.3925 131.247 11.0242 131.466 10.2076C132.21 7.36427 134.368 7.23304 136.263 7.23304H146.558L143.51 18.5773H129.323Z" fill="#A0A0A0"/>
<path d="M272.715 44.9113L274.158 39.7495H300.405L299.238 44.9113H307.331L310.495 32.4588H306.281L314.33 0.175659H288.842C284.555 0.175659 283.899 1.96917 282.951 4.73963C281.624 8.60369 280.72 11.7095 279.889 14.4654C277.804 21.2895 276.171 27.5741 269.799 32.4588H267.495L264.418 44.9113H272.729H272.715ZM287.588 17.09C288.929 12.5844 289.586 10.6742 290.183 8.72034C290.46 7.83088 291.044 7.20388 292.196 7.20388H303.205L297.022 32.4442H280.326C283.563 29.3384 285.561 23.8558 287.588 17.09Z" fill="#A0A0A0"/>
</g>
<defs>
<clipPath id="clip0_177_8454">
<rect width="393.697" height="62" fill="white"/>
</clipPath>
</defs>
</svg>
