<svg width="293" height="62" viewBox="0 0 293 62" fill="none" xmlns="http://www.w3.org/2000/svg">
<g clip-path="url(#clip0_177_8384)">
<path d="M0 31.0043C0 48.0959 13.8412 62 30.8472 62C47.8531 62 61.6944 48.0959 61.6944 31.0043C61.6944 13.9127 47.8674 0 30.8472 0C13.827 0 0 13.9041 0 31.0043ZM1.06537 31.0043C1.06537 14.4925 14.4296 1.06537 30.8472 1.06537C47.2647 1.06537 60.6376 14.4896 60.6376 31.0043C60.6376 47.519 47.2847 60.9289 30.8472 60.9289C14.4096 60.9289 1.06537 47.5047 1.06537 31.0043ZM9.61118 22.5013C17.5001 17.3058 26.2201 14.2811 41.0039 16.8517C41.8208 16.3804 42.2664 15.932 42.4777 14.958C38.7846 13.6242 34.7859 13.1529 29.6076 13.2443C24.9548 13.3757 16.5832 15.1123 12.1104 17.7686L13.4728 16.0548C16.6004 14.2154 24.7492 11.7705 30.8529 11.642C35.1629 11.562 37.4022 11.8048 42.5177 13.19C42.0721 12.3046 41.0039 11.8676 39.4615 11.1678C34.5031 8.9314 25.2433 8.72576 17.66 12.0818C18.6523 11.4002 19.6972 10.7985 20.7847 10.2824C23.2839 9.13991 27.3769 8.02027 32.4952 8.10881C36.5825 8.17451 41.4352 9.60833 44.4114 12.5702C44.8369 13.067 45.1462 13.6525 45.3168 14.284C47.6732 15.4779 49.0299 16.6004 49.8068 17.9285C50.1403 18.6287 50.2461 19.4158 50.1095 20.1792C50.874 20.6054 51.5328 21.1979 52.0375 21.9129C52.3891 22.4257 52.6196 23.0117 52.7116 23.6267C52.8144 24.3721 52.8944 25.2033 52.1232 26.1801C52.9315 26.5714 53.5513 27.6911 53.6598 28.1795C54.0311 29.9646 52.8943 31.6983 51.3748 33.0351C49.6611 34.5631 45.8252 36.374 42.7148 37.1709C36.5339 38.7361 31.0785 39.3959 26.7342 40.1985C29.6449 40.9527 32.6418 41.3223 35.6485 41.2981C44.8655 41.2981 53.0172 36.9167 53.0172 36.9167C53.0172 36.9167 52.8315 37.4879 52.6516 37.9963C46.802 41.5494 37.4708 43.0547 33.5149 42.8719C29.8631 42.7339 26.2446 42.1233 22.7498 41.0553C21.7258 41.314 20.7247 41.6559 19.7565 42.0779C24.8206 44.3942 28.6422 44.9141 32.9751 45.2197C37.3851 45.5482 44.6856 44.4771 50.8664 42.2321C50.5808 42.5177 50.4409 42.969 50.1524 43.2318C46.9963 44.8884 40.3127 46.5678 36.9595 46.7078C33.6063 46.8477 29.5333 46.7078 26.0087 46.0451C22.9497 45.451 20.4734 44.4771 17.8714 43.3374C17.6567 43.4893 17.4752 43.6834 17.3382 43.9078C17.2012 44.1323 17.1114 44.3824 17.0745 44.6427C27.2255 49.9724 36.7453 50.0896 47.5646 46.7135L46.5735 47.6989C34.6602 52.5545 25.3404 50.6637 18.1341 47.1705C17.8818 47.07 17.6374 46.9506 17.403 46.8135C18.0656 47.9817 23.5781 52.0232 29.7275 52.5259C33.9776 52.8772 39.1531 52.1432 42.2292 50.9121L40.4327 51.8576C37.0188 53.4713 33.2445 54.171 29.4791 53.8883C22.1329 53.3913 17.997 50.1295 16.1405 48.4158C15.2836 47.6189 14.8752 46.6878 14.6181 45.5596C12.9558 44.6799 11.9104 43.7802 11.0479 42.4177C10.5337 41.6209 10.6366 40.7326 10.7622 39.9814C10.798 39.7518 10.8613 39.5274 10.9507 39.313C10.1539 38.7418 9.34841 38.1106 8.99995 37.4793C8.27447 36.1655 8.71433 35.0373 9.22559 34.1604C8.79645 33.7258 8.44997 33.2167 8.20306 32.658C8.02103 32.0689 7.96173 31.4487 8.02884 30.8358C8.21528 29.7114 8.73118 28.6677 9.51121 27.8367C11.1393 25.9916 13.647 24.5349 17.9942 23.0954C22.2185 21.6901 23.9266 21.4816 27.117 20.7333C30.83 19.8764 35.3029 19.5908 39.036 18.277C28.6365 16.4404 17.8342 18.1084 9.02851 24.2008L9.61118 22.5013ZM45.0283 16.0605C44.8998 16.5747 44.3457 17.1659 43.9658 17.5743C45.1084 17.8932 46.2326 18.2746 47.3333 18.7168C47.2048 17.7086 46.0308 16.7175 45.0283 16.072M12.9929 36.9367C12.4122 36.6234 11.8488 36.2792 11.3049 35.9056C10.9993 36.5653 11.5705 37.2937 12.1789 37.645C12.436 37.3851 12.733 37.1737 12.9929 36.9367ZM48.0473 23.2782C48.7673 23.593 49.4616 23.9635 50.1238 24.3864C50.5979 23.4867 50.3066 22.8955 49.3241 22.0643C48.9429 22.5132 48.5149 22.9201 48.0473 23.2782ZM45.8252 24.6492C44.3086 25.3547 42.1264 26.0773 39.0074 26.877C36.4568 27.5197 30.2188 28.4165 23.5238 29.8818C21.3931 30.3416 15.6635 31.7041 12.853 34.1147C13.6385 34.7488 14.124 34.9087 15.0037 35.3971C16.1776 34.6431 17.7543 33.9348 20.1135 33.3035C24.2265 32.2039 27.2883 31.724 30.9843 31.1357C34.6802 30.5473 41.5523 29.1106 45.3796 27.7339C46.5486 27.3319 47.6495 26.7541 48.6443 26.0202C48.3787 25.7346 45.9223 24.5321 45.8395 24.6435M16.8917 40.7183C17.5394 40.3365 18.2166 40.007 18.9167 39.7329C17.8457 39.2873 16.7489 38.8018 15.6321 38.2876C15.1621 38.573 14.7228 38.9061 14.3211 39.2816C15.178 39.7757 16.0348 40.2613 16.8917 40.7097M13.3585 41.061C13.3414 41.7494 13.7584 42.3663 14.6781 43.1204C14.7979 42.7539 14.9848 42.413 15.2294 42.115C14.5896 41.7922 13.9641 41.4323 13.3585 41.061ZM18.5483 28.3052C26.0773 26.0887 33.9719 25.4032 41.9693 23.2696C38.8446 22.4128 37.1337 22.0643 33.8262 22.4499C28.8912 23.0412 24.0127 24.0346 19.2395 25.4204C17.4715 25.9573 8.14309 28.6051 10.8336 32.321C10.8336 32.3724 12.4303 30.116 18.5454 28.3223M46.7763 20.5648C45.3555 19.94 43.8888 19.4253 42.3892 19.0253C41.55 19.6939 40.61 20.2251 39.6044 20.5991C41.6351 20.9618 43.1604 21.5245 44.8655 22.0272C45.174 22.1814 46.5593 20.8847 46.7763 20.5734M50.4894 27.8482C50.2581 28.0509 50.0096 28.2395 49.7297 28.4508C48.0159 29.7733 45.3339 30.8272 41.598 31.8269C33.8519 33.9205 28.2309 34.229 21.833 35.797C20.5538 36.1124 19.2994 36.521 18.0799 37.0195C19.2852 37.625 20.5705 38.1877 21.8872 38.6932C24.3799 37.9395 26.9225 37.3621 29.4962 36.9652C30.9243 36.7167 35.3429 35.9427 38.5361 35.2515C44.2971 34.0176 52.7344 31.3442 50.4894 27.8253" fill="#A0A0A0"/>
<path d="M91.2476 44.5342H97.6112L98.3824 39.8471H102.758L103.526 44.5342H109.887L104.518 17.4001H96.623L91.2476 44.5342ZM100.567 25.5946L101.753 33.8776H99.3964L100.567 25.5946ZM115.877 28.2166C116.891 28.2166 118.762 27.5597 118.762 25.5632C118.762 23.1982 116.608 23.0383 116.002 23.0383C114.81 23.0434 113.632 23.3045 112.549 23.8037L112.504 17.9342C114.281 17.4472 116.119 17.2107 117.962 17.2316C123.08 17.2316 125.388 20.839 125.388 24.3493C125.388 27.7767 123.389 29.8675 121.512 30.6644V30.93C123.326 31.5013 125.796 33.2807 125.796 37.4393C125.796 42.552 122.235 45.3825 117.693 45.3825C115.243 45.3825 113.663 45.0226 111.761 43.9715L111.867 38.3362C113.17 38.9256 114.592 39.207 116.022 39.1588C118.036 39.1588 118.844 37.6821 118.844 36.5882C118.844 35.063 117.882 34.0433 115.745 34.0433H113.175V28.2166H115.877ZM128.744 17.4001H145.841V44.5342H139.578V23.9351H135.008V44.5399H128.744V17.4001ZM149.42 44.5342H155.704V35.5914H157.806C164.018 35.5914 165.923 29.9875 165.923 26.4343C165.923 22.8812 163.727 17.4001 157.795 17.4229H149.42V44.5342ZM155.704 23.3782H157.195C158.623 23.3782 159.508 24.235 159.508 26.48C159.508 29.4191 158.003 29.6219 157.195 29.6219H155.692L155.704 23.3782ZM177.528 44.8684C184.954 44.8684 187.468 37.902 187.468 30.9386C187.468 23.9751 184.957 17.0088 177.528 17.0088C170.099 17.0088 167.597 23.9723 167.597 30.9386C167.597 37.9049 170.102 44.8684 177.528 44.8684ZM177.528 38.2991C175.329 38.2991 174.184 35.7085 174.184 30.93C174.184 26.1516 175.326 23.5581 177.528 23.5581C179.73 23.5581 180.876 26.1458 180.876 30.93C180.876 35.7142 179.733 38.2991 177.528 38.2991ZM214.759 44.5256H222.245C223.868 44.5256 230.643 43.8516 230.657 35.6428C230.657 28.7022 225.404 27.4997 222.005 27.4997H220.9V23.918H229.183V17.4001H214.748L214.759 44.5256ZM220.9 39.0988V32.9294H221.811C222.545 32.9294 224.525 32.9694 224.525 35.757C224.525 38.6132 222.545 39.0988 221.811 39.0988H220.9ZM253.212 17.3915H259.345V27.1712H263.723V17.4001H269.85V44.5342H263.718V33.6806H259.345V44.5342H253.201L253.212 17.3915ZM273.977 17.3915H280.112V27.1598H281.443L284.962 17.3915H291.62L286.819 30.2759L292.277 44.5285H285.068L281.546 33.6177H280.089V44.5285H273.966L273.977 17.3915ZM79.1172 17.4229H91.9702V24.195H85.5037V44.557H79.12L79.1172 17.4229ZM190.458 17.4229H195.782L200.481 23.8123L205.214 17.4229H210.523V44.557H204.262V27.991L200.484 32.7437L196.728 27.991V44.557H190.461L190.458 17.4229ZM231.874 44.5999H238.234L239.003 39.9071H243.378L244.152 44.5999H250.51L245.138 17.4658H237.24L231.874 44.5999ZM241.193 25.6574L242.379 33.9405H240.005L241.193 25.6574Z" fill="#A0A0A0"/>
</g>
<defs>
<clipPath id="clip0_177_8384">
<rect width="292.277" height="62" fill="white"/>
</clipPath>
</defs>
</svg>
