<svg width="233" height="62" viewBox="0 0 233 62" fill="none" xmlns="http://www.w3.org/2000/svg">
<g id="nsk_avtodor_ru" clip-path="url(#clip0_177_8378)">
<g id="Group">
<path id="Vector" d="M223.386 2.2388H221.413V20.0152H223.386V13.8166L225.46 11.2254L230.198 20.0152H232.496L226.646 9.66891L232.323 2.2388H229.855L223.386 11.3719V2.2388ZM218.3 7.57218C218.3 4.38589 216.597 1.89545 213.237 1.89545C208.375 1.89545 207.633 6.90837 207.633 10.905C207.633 15.103 208.054 20.441 213.287 20.441C217.064 20.441 218.076 17.6942 218.3 13.5968H216.327C216.13 16.5359 215.709 18.6601 213.141 18.6601C209.881 18.6601 209.684 14.4621 209.684 10.8592C209.684 8.51525 209.707 3.67629 213.141 3.67629C215.608 3.67629 216.327 5.42967 216.327 7.57676H218.3V7.57218ZM196.6 12.4844H199.191C202.401 12.4844 204.919 11.3994 204.919 7.25172C204.919 3.74496 202.794 2.2388 199.562 2.2388H194.623V20.0152H196.596V12.4844H196.6ZM196.6 4.01507H199.095C201.467 4.01507 202.872 4.72924 202.872 7.24714C202.872 10.2824 201.242 10.7035 198.528 10.7035H196.6V4.01507ZM179.836 2.2388V20.0152H182.701L188.255 6.01566C188.575 5.20077 188.772 4.18903 188.946 3.12693H188.996C188.973 4.01507 188.946 4.93067 188.946 5.84169V20.0152H190.919V2.2388H188.053L182.523 16.2887C182.129 17.2776 182.056 17.9185 181.809 18.7334H181.758C181.781 18.0924 181.809 17.4012 181.809 16.7603V2.2388H179.836ZM166.678 2.2388V20.0152H171.394C174.603 20.0152 176.727 18.5319 176.727 15.0023C176.727 10.8775 174.209 9.79252 171 9.79252H168.656V4.01507H175.519V2.2388H166.678ZM168.652 11.5734H170.332C173.074 11.5734 174.676 12.1639 174.676 15.0069C174.676 17.5248 173.271 18.2389 170.899 18.2389H168.652V11.5734ZM151.887 2.2388V20.0152H154.753L160.306 6.01566C160.626 5.20077 160.823 4.18903 160.997 3.12693H161.047C161.025 4.01507 160.997 4.93067 160.997 5.84169V20.0152H162.97V2.2388H160.104L154.574 16.2887C154.18 17.2776 154.107 17.9185 153.86 18.7334H153.81C153.833 18.0924 153.86 17.4012 153.86 16.7603V2.2388H151.887ZM148.778 7.57218C148.778 4.38589 147.075 1.89545 143.715 1.89545C138.853 1.89545 138.112 6.90837 138.112 10.905C138.112 15.103 138.533 20.441 143.765 20.441C147.542 20.441 148.554 17.6942 148.778 13.5968H146.805C146.608 16.5359 146.187 18.6601 143.619 18.6601C140.359 18.6601 140.163 14.4621 140.163 10.8592C140.163 8.51525 140.185 3.67629 143.619 3.67629C146.087 3.67629 146.805 5.42967 146.805 7.57676H148.778V7.57218ZM133.346 10.8043C133.346 15.9408 132.778 18.6555 129.519 18.6555C126.259 18.6555 125.714 15.9408 125.714 10.7814C125.714 6.80765 126.429 3.67172 129.468 3.67172C132.508 3.67172 133.346 6.83054 133.346 10.8088V10.8043ZM129.519 20.4364C134.706 20.4364 135.397 16.014 135.397 11.1018C135.397 7.0274 134.729 1.89087 129.519 1.89087C124.309 1.89087 123.668 7.0274 123.668 11.1018C123.668 16.014 124.336 20.4364 129.519 20.4364ZM111.001 20.0106H115.913C119.223 20.0106 121.049 18.2344 121.049 14.9245C121.049 12.4569 119.644 10.8271 117.964 10.6028V10.5525C119.644 10.1084 120.555 8.65259 120.555 6.67489C120.555 4.01049 118.998 2.22964 115.666 2.22964H111.001V20.0152V20.0106ZM112.974 11.5688H115.739C117.762 11.5688 118.998 12.5073 118.998 14.9016C118.998 17.2959 118.037 18.2344 115.913 18.2344H112.974V11.5688ZM112.974 4.01507H115.615C117.419 4.01507 118.504 4.77959 118.504 6.80308C118.504 9.07377 117.392 9.79252 115.418 9.79252H112.974V4.01507ZM105.741 10.8043C105.741 15.9408 105.173 18.6555 101.913 18.6555C98.6538 18.6555 98.109 15.9408 98.109 10.7814C98.109 6.80765 98.8232 3.67172 101.863 3.67172C104.903 3.67172 105.741 6.83054 105.741 10.8088V10.8043ZM101.913 20.4364C107.1 20.4364 107.791 16.014 107.791 11.1018C107.791 7.0274 107.123 1.89087 101.913 1.89087C96.7035 1.89087 96.0626 7.0274 96.0626 11.1018C96.0626 16.014 96.731 20.4364 101.913 20.4364ZM84.0911 2.2388H82.118V20.0152H84.0911V11.5688H90.8803V20.0106H92.8534V2.2388H90.8803V9.79252H84.0911V2.2388Z" fill="#A0A0A0"/>
<path id="Vector_2" d="M218.702 31.474H221.472C224.241 31.474 225.605 32.9985 225.605 35.7316C225.605 38.4647 224.241 40.067 221.472 40.067H218.702V31.474ZM218.702 44.3657H223.522C228.22 44.3657 231.232 40.4286 231.232 35.6538C231.232 30.8789 228.302 27.1799 223.605 27.1799H213.204V56.1724H218.706V44.3657H218.702ZM200.069 31.0757C202.436 31.0757 203.764 32.9253 203.764 36.0154V47.7809C203.764 50.8344 202.441 52.4367 200.069 52.4367C197.46 52.4367 196.256 50.7887 196.256 47.7809V35.933C196.256 32.8429 197.46 31.0757 200.069 31.0757ZM190.634 36.5785V47.0988C190.634 54.4053 194.571 56.8637 200.069 56.8637C205.568 56.8637 209.386 54.4877 209.386 47.0988V36.5785C209.386 29.1896 205.65 26.658 200.069 26.658C194.489 26.658 190.634 29.2674 190.634 36.5785ZM180.356 31.5976V51.7546H172.203C173.888 48.1426 174.812 44.8464 174.812 38.1808V31.5976H180.352H180.356ZM169.392 27.1799V36.2168C169.392 44.2055 168.669 47.5016 166.741 51.7592H165.015V62.0048H170.317V56.177H182.325V62.0048H187.626V51.7592H185.859V27.1753H169.397L169.392 27.1799ZM152.687 31.0757C155.054 31.0757 156.381 32.9253 156.381 36.0154V47.7809C156.381 50.8344 155.058 52.4367 152.687 52.4367C150.077 52.4367 148.873 50.7887 148.873 47.7809V35.933C148.873 32.8429 150.077 31.0757 152.687 31.0757ZM143.252 36.5785V47.0988C143.252 54.4053 147.189 56.8637 152.687 56.8637C158.185 56.8637 162.003 54.4877 162.003 47.0988V36.5785C162.003 29.1896 158.268 26.658 152.687 26.658C147.106 26.658 143.252 29.2674 143.252 36.5785ZM133.894 31.5976H140.72V27.1799H121.566V31.5976H128.391V56.1724H133.894V31.5976ZM101.688 56.1724H112.771C117.23 56.1724 119.396 52.597 119.396 47.5795C119.396 43.8026 117.949 41.7562 115.097 40.5934C117.505 40.1127 118.993 37.018 118.993 34.2483C118.993 30.5538 116.946 27.1799 111.846 27.1799H101.688V56.1724ZM107.191 43.0839H110.725C112.771 43.0839 113.778 44.6907 113.778 47.5428C113.778 50.7932 112.776 52.0385 110.725 52.0385H107.191V43.0839ZM107.191 31.3184H110.162C112.652 31.3184 113.495 32.5636 113.495 35.0128C113.495 37.4621 112.492 38.9499 110.079 38.9499H107.186V31.3184H107.191ZM86.553 44.3291L89.2037 30.8377L91.4102 44.3291H86.553ZM78.2393 56.177H84.1404L85.8663 48.6278H92.0924L93.4566 56.177H99.3989L92.9759 27.1844H85.587L78.2393 56.177Z" fill="#A0A0A0"/>
<path id="Vector_3" fill-rule="evenodd" clip-rule="evenodd" d="M59.1038 57.4818H50.1904C46.9996 52.478 42.2064 49.1543 35.8384 49.1406H35.8109C29.4429 49.1543 24.6497 52.4734 21.4588 57.4818H12.5455C16.3406 48.3669 25.3273 41.944 35.8109 41.9302H35.8246H35.8384C46.322 41.944 55.3086 48.3669 59.1038 57.4818ZM42.0919 0.000244141L71.6521 57.4772H64.8675L39.1345 7.70961H32.5102L6.78174 57.4818H-0.00286865L29.5528 0.000244141C33.7325 0.000244141 37.9122 0.000244141 42.0919 0.000244141ZM35.8246 26.2139L29.7542 37.984C26.7098 38.6158 23.8394 39.7145 21.2162 41.1978L35.8246 12.6859L50.4331 41.1978C47.8099 39.7145 44.9349 38.6158 41.8951 37.984L35.8246 26.2139Z" fill="#A0A0A0"/>
</g>
</g>
<defs>
<clipPath id="clip0_177_8378">
<rect width="232.499" height="62" fill="white" transform="translate(-0.000976562)"/>
</clipPath>
</defs>
</svg>
