<svg width="108" height="62" viewBox="0 0 108 62" fill="none" xmlns="http://www.w3.org/2000/svg">
<g id="portnews" clip-path="url(#clip0_177_8756)">
<g id="Layer 1">
<g id="Group">
<path id="Vector" fill-rule="evenodd" clip-rule="evenodd" d="M62.0319 8.22998L76.7831 17.6005L74.1432 23.1981L64.3876 19.1635L62.0319 8.22998Z" fill="#1E1E1E"/>
<path id="Vector_2" fill-rule="evenodd" clip-rule="evenodd" d="M75.9264 34.5541H79.602L81.6736 43.962L83.532 34.5541H87.0057L89.0286 43.962L91.0553 34.5541H94.6113L90.8646 47.6451H87.3348L85.252 38.1063L83.2029 47.6451H79.6469L75.9339 34.5541H75.9264ZM103.877 38.5139C103.813 38.0764 103.713 37.7511 103.574 37.5417C103.398 37.2725 103.163 37.0743 102.875 36.9547C102.497 36.7976 102.082 36.7266 101.622 36.7266C100.848 36.7266 100.299 36.85 99.9696 37.1005C99.648 37.3473 99.4872 37.6352 99.4872 37.953C99.4872 38.3344 99.6592 38.5924 100.029 38.8056C100.235 38.9252 100.616 39.0561 101.17 39.1982L103.563 39.789C104.363 39.9984 104.864 40.1367 105.066 40.2115C105.81 40.4621 106.599 40.8584 107.108 41.524C108.009 42.7205 107.807 44.4406 107.332 45.4726C106.764 46.7252 105.691 47.3983 104.326 47.7535C103.585 47.948 102.718 48.0452 101.727 48.0452C100.355 48.0452 98.444 47.8433 97.225 46.7776C96.7538 46.3625 96.4024 45.9026 96.1668 45.4016C95.935 44.8968 95.7704 44.2536 95.6695 43.4646H99.2105C99.2105 43.8834 99.2816 44.2162 99.4199 44.4668C99.9097 45.3417 101.002 45.4876 101.802 45.4876C102.77 45.4876 104.191 45.3043 104.187 44.1489C104.187 43.8685 104.079 43.6329 103.858 43.431C103.638 43.2291 103.088 43.0234 102.206 42.8178C100.257 42.3691 99.0049 42.0363 98.444 41.8082C96.8436 41.1538 96.1107 40.0657 96.1032 38.5139C96.1032 37.7137 96.3089 36.9734 96.7239 36.2928C97.7148 34.6887 99.663 34.1689 101.675 34.1689C102.755 34.1689 104.251 34.3409 105.287 34.9991C105.717 35.2683 106.072 35.5861 106.349 35.9413L106.625 36.2966L106.831 36.663L106.966 37.0369C107.097 37.4071 107.201 37.9007 107.272 38.5177H103.873L103.877 38.5139Z" fill="#A0A0A0"/>
<path id="Vector_3" fill-rule="evenodd" clip-rule="evenodd" d="M39.8094 37.067H37.9847L37.9772 34.6178H39.8019L39.7907 31.0843H43.2009L43.2121 34.6178H45.3285L45.336 37.067H43.2196L43.242 44.0968C43.242 44.5081 43.2719 44.7773 43.328 44.9082C43.3841 45.039 43.4963 45.1363 43.6645 45.2036C43.8328 45.2634 44.1768 45.297 44.6966 45.297C44.8798 45.297 45.1041 45.2858 45.3621 45.2597L45.3696 47.8173C44.6554 47.8659 44.1058 47.8921 43.7206 47.8921C42.6175 47.8921 41.8136 47.7986 41.3163 47.6191C40.1272 47.1779 39.8356 46.2842 39.8318 45.2372L39.8057 37.0708L39.8094 37.067ZM47.6505 47.7126L47.5982 30.0522H51.4645L58.5653 42.3543L58.5279 30.0522H61.9755L62.0278 47.7126H58.3297L51.057 35.1226L51.0944 47.7126H47.6468H47.6505Z" fill="#A0A0A0"/>
<path id="Vector_4" fill-rule="evenodd" clip-rule="evenodd" d="M36.5001 34.3111L36.5113 37.8073C35.4942 37.6689 34.3837 37.7474 33.6022 38.2261C33.0787 38.5514 32.7347 38.9328 32.5739 39.3815C32.4094 39.8302 32.3308 40.5145 32.3346 41.4343L32.3533 47.69H28.9431L28.902 34.599H32.1813L32.1888 36.865C32.372 36.4088 32.6487 35.9676 33.0263 35.5413C33.6844 34.7785 34.6454 34.2139 35.7859 34.2139C36.0252 34.2139 36.2645 34.2475 36.5038 34.3073L36.5001 34.3111Z" fill="#A0A0A0"/>
<path id="Vector_5" fill-rule="evenodd" clip-rule="evenodd" d="M0.468975 47.8884L0.416626 30.228H8.24655C9.27858 30.228 10.075 30.3103 10.6397 30.4748C11.2005 30.6393 11.6717 30.8637 12.0493 31.1441C12.7897 31.6901 13.3207 32.4304 13.5936 33.2493C13.8516 34.0159 13.9825 34.8534 13.9863 35.7583C13.9863 36.8577 13.8404 37.785 13.545 38.5366C13.2422 39.2956 12.8234 39.8902 12.2849 40.3202C11.7427 40.7539 11.0622 41.083 10.247 41.3073C9.6712 41.4681 8.8897 41.5466 7.90254 41.5466H4.13715L4.15585 47.8884H0.468975ZM4.11098 33.2718L4.12593 38.4954H7.6221C8.70648 38.4954 9.62632 38.1552 10.0339 37.2129C10.2096 36.8016 10.2919 36.3454 10.2919 35.8294C10.2919 35.0329 10.0563 34.4122 9.59641 33.956C9.13275 33.4961 8.47091 33.2718 7.60715 33.2718H4.11098ZM14.0723 41.341C14.0685 40.0285 14.3452 38.8245 14.8986 37.7214C15.452 36.6184 16.256 35.7957 17.3067 35.2423C18.3574 34.6889 19.5091 34.4122 20.7692 34.4122C23.08 34.4122 25.518 35.3844 26.6622 37.785C27.1857 38.8768 27.4512 40.0622 27.4549 41.341C27.4587 42.6871 27.1894 43.9061 26.636 44.9979C26.0864 46.0935 25.2899 46.9124 24.2467 47.4621C23.2034 48.0118 22.0592 48.2847 20.8103 48.2847C19.5614 48.2847 18.3985 48.0043 17.3441 47.4471C16.2896 46.89 15.4819 46.0636 14.9211 44.968C14.3602 43.8724 14.076 42.6647 14.0723 41.341ZM17.6133 41.341C17.6133 42.5114 17.8825 43.4723 18.406 44.2314C18.9295 44.9867 19.7334 45.3681 20.8253 45.3681C21.7676 45.3681 22.5229 45.0428 23.0875 44.3997C23.6521 43.7565 23.9326 42.7058 23.9251 41.2587C23.9251 40.0996 23.6671 39.1498 23.1698 38.4169C22.6725 37.684 21.8797 37.3176 20.7991 37.3176C19.7185 37.3176 18.9071 37.6952 18.3873 38.4543C17.8676 39.2096 17.6096 40.1744 17.6133 41.341Z" fill="#A0A0A0"/>
<path id="Vector_6" fill-rule="evenodd" clip-rule="evenodd" d="M83.3489 18.9205C80.5258 14.3773 76.7529 10.5035 72.5201 7.03722C72.6211 5.96033 72.9576 4.98439 73.4961 4.21411C78.0392 8.44691 81.5017 13.3004 83.3527 18.9205H83.3489Z" fill="#A0A0A0"/>
<path id="Vector_7" fill-rule="evenodd" clip-rule="evenodd" d="M71.11 2.69978V0.209457C76.6291 -1.30493 75.7803 5.8295 75.4475 5.62385C75.1147 3.57102 73.7274 0.979737 71.11 2.69978Z" fill="#A0A0A0"/>
<path id="Vector_8" fill-rule="evenodd" clip-rule="evenodd" d="M1.64313 61.0278H0.308228V52.5398H1.64313V56.178H3.15751V52.5398H4.51485V61.0278H3.15751V57.3895H1.64313V61.0278ZM9.57775 61.0278H8.23163L7.9998 59.4872H6.36202L6.13019 61.0278H4.90373L6.26107 52.5398H8.21294L9.57027 61.0278H9.57775ZM6.53403 58.3356H7.82032L7.17717 54.0429L6.53403 58.3356ZM12.7112 61.0278H11.7428V52.5398H12.9318V57.6214L15.0071 52.5398H15.9793V61.0278H14.779V56.2154L12.7187 61.0278H12.7112ZM17.8302 61.0278H16.4953V52.5398H17.8302V56.178H19.3446V52.5398H20.7019V61.0278H19.3446V57.3895H17.8302V61.0278ZM23.7644 60.4221H23.1324C22.4631 60.4221 21.962 60.2426 21.6367 59.8873C21.3077 59.5321 21.1469 59.0086 21.1469 58.3243V55.2432C21.1469 54.5552 21.3114 54.0355 21.6367 53.6802C21.962 53.325 22.4631 53.1455 23.1324 53.1455H23.7644V52.5398H25.0993V53.1455H25.7312C26.4005 53.1455 26.9016 53.325 27.2269 53.6802C27.5559 54.0355 27.7167 54.559 27.7167 55.2432V58.3243C27.7167 59.0124 27.5522 59.5321 27.2269 59.8873C26.9016 60.2426 26.4005 60.4221 25.7312 60.4221H25.0993V61.0278H23.7644V60.4221ZM25.0993 54.3608V59.2105H25.7312C25.9406 59.2105 26.1014 59.1545 26.2173 59.0423C26.3295 58.9301 26.3855 58.717 26.3855 58.4104V55.161C26.3855 54.8544 26.3295 54.645 26.2173 54.529C26.1051 54.4169 25.9406 54.3608 25.7312 54.3608H25.0993ZM23.1362 54.3608C22.9268 54.3608 22.766 54.4169 22.6501 54.529C22.5379 54.6412 22.4818 54.8506 22.4818 55.161V58.4104C22.4818 58.717 22.5379 58.9264 22.6501 59.0423C22.7622 59.1545 22.9268 59.2105 23.1362 59.2105H23.7681V54.3608H23.1362ZM29.4442 59.0759C29.4442 59.3826 29.5078 59.5994 29.6312 59.7266C29.7583 59.8499 29.9228 59.9135 30.136 59.9135C30.3491 59.9135 30.5136 59.8499 30.6408 59.7266C30.7679 59.5994 30.8277 59.3863 30.8277 59.0759V54.4916C30.8277 54.185 30.7642 53.9682 30.6408 53.841C30.5174 53.7176 30.3491 53.6541 30.136 53.6541C29.9228 53.6541 29.7583 53.7176 29.6312 53.841C29.5078 53.9682 29.4442 54.1813 29.4442 54.4916V59.0759ZM28.1093 54.5777C28.1093 53.8896 28.2851 53.3624 28.6291 52.996C28.9768 52.6295 29.4779 52.4426 30.1322 52.4426C30.7866 52.4426 31.2877 52.6258 31.6354 52.996C31.9832 53.3624 32.1552 53.8896 32.1552 54.5777V58.9899C32.1552 59.6779 31.9794 60.2052 31.6354 60.5716C31.2877 60.9381 30.7866 61.125 30.1322 61.125C29.4779 61.125 28.9768 60.9418 28.6291 60.5716C28.2813 60.2052 28.1093 59.6779 28.1093 58.9899V54.5777ZM34.6118 52.5398C35.2811 52.5398 35.7822 52.7193 36.1113 53.0745C36.4403 53.4297 36.6011 53.9532 36.6011 54.6375V55.7406C36.6011 56.4286 36.4366 56.9483 36.1113 57.3035C35.7822 57.6588 35.2849 57.8382 34.6118 57.8382H33.9799V61.0278H32.645V52.5398H34.6081H34.6118ZM33.9799 53.7513V56.6267H34.6118C34.8212 56.6267 34.982 56.5707 35.0979 56.4585C35.2101 56.3463 35.2662 56.1332 35.2662 55.8266V54.5515C35.2662 54.2449 35.2101 54.0355 35.0979 53.9195C34.9858 53.8074 34.8212 53.7513 34.6118 53.7513H33.9799ZM39.742 58.5637L40.6507 52.536H42.5053V61.0241H41.2452V54.9366L40.3254 61.0241H39.0652L38.0706 55.0226V61.0241H36.9077V52.536H38.7624L39.7458 58.5637H39.742ZM47.5533 61.0241H46.2071L45.9753 59.4835H44.3375L44.1057 61.0241H42.8792L44.2366 52.536H46.1884L47.5458 61.0241H47.5533ZM44.5095 58.3318H45.7958L45.1527 54.0392L44.5095 58.3318ZM52.6498 59.8126V61.9963H51.5355C51.5355 61.8018 51.5355 61.641 51.5281 61.5176C51.5243 61.3905 51.5168 61.2933 51.5019 61.2185C51.4907 61.1475 51.4645 61.0951 51.4308 61.0652C51.3934 61.0353 51.3486 61.0241 51.2925 61.0241H47.8861V52.536H49.221V59.8126H50.7353V52.536H52.0927V59.8126H52.6498ZM54.0819 61.0241H53.1135V52.536H54.3026V57.6176L56.3778 52.536H57.35V61.0241H56.1497V56.2117L54.0894 61.0241H54.0819ZM59.1673 59.0722C59.1673 59.3788 59.2309 59.5957 59.3542 59.7228C59.4814 59.8462 59.6459 59.9098 59.859 59.9098C60.0722 59.9098 60.2367 59.8462 60.3638 59.7228C60.491 59.5957 60.5508 59.3825 60.5508 59.0722V54.4879C60.5508 54.1813 60.4872 53.9644 60.3638 53.8373C60.2404 53.7139 60.0722 53.6503 59.859 53.6503C59.6459 53.6503 59.4814 53.7139 59.3542 53.8373C59.2309 53.9644 59.1673 54.1776 59.1673 54.4879V59.0722ZM57.8324 54.5739C57.8324 53.8859 58.0081 53.3587 58.3521 52.9922C58.6999 52.6258 59.2009 52.4388 59.8553 52.4388C60.5097 52.4388 61.0107 52.622 61.3585 52.9922C61.7062 53.3587 61.8782 53.8859 61.8782 54.5739V58.9862C61.8782 59.6742 61.7025 60.2014 61.3585 60.5679C61.0107 60.9343 60.5097 61.1213 59.8553 61.1213C59.2009 61.1213 58.6999 60.9381 58.3521 60.5679C58.0044 60.2014 57.8324 59.6742 57.8324 58.9862V54.5739ZM63.703 61.0241H62.3681V52.536H63.703V56.1743H65.2173V52.536H66.5747V61.0241H65.2173V57.3858H63.703V61.0241ZM68.4368 61.0241H67.1019V52.536H68.4368V56.1743H69.9512V52.536H71.3085V61.0241H69.9512V57.3858H68.4368V61.0241ZM73.1333 59.0722C73.1333 59.3788 73.1968 59.5957 73.3202 59.7228C73.4474 59.8462 73.6119 59.9098 73.825 59.9098C74.0382 59.9098 74.2027 59.8462 74.3298 59.7228C74.457 59.5957 74.5168 59.3825 74.5168 59.0722V54.4879C74.5168 54.1813 74.4532 53.9644 74.3298 53.8373C74.2064 53.7139 74.0382 53.6503 73.825 53.6503C73.6119 53.6503 73.4474 53.7139 73.3202 53.8373C73.1968 53.9644 73.1333 54.1776 73.1333 54.4879V59.0722ZM71.7984 54.5739C71.7984 53.8859 71.9741 53.3587 72.3181 52.9922C72.6659 52.6258 73.1669 52.4388 73.8213 52.4388C74.4756 52.4388 74.9767 52.622 75.3244 52.9922C75.6722 53.3587 75.8442 53.8859 75.8442 54.5739V58.9862C75.8442 59.6742 75.6685 60.2014 75.3244 60.5679C74.9767 60.9343 74.4756 61.1213 73.8213 61.1213C73.1669 61.1213 72.6659 60.9381 72.3181 60.5679C71.9704 60.2014 71.7984 59.6742 71.7984 58.9862V54.5739ZM77.2688 61.0241H76.3004V52.536H77.4895V57.6176L79.5647 52.536H80.5332V61.0241H79.3329V56.2117L77.2726 61.0241H77.2688ZM78.4317 51.2984C78.585 51.2984 78.7159 51.2572 78.8206 51.1787C78.9253 51.0964 78.9814 50.9543 78.9889 50.7412H79.9573C79.9424 51.2273 79.8003 51.5975 79.5386 51.8555C79.2768 52.1135 78.9066 52.2444 78.428 52.2444C77.9494 52.2444 77.5717 52.1135 77.3137 51.8555C77.0557 51.5975 76.9099 51.2236 76.8762 50.7412H77.8596C77.8746 50.9506 77.9344 51.0964 78.0354 51.1787C78.1363 51.261 78.2672 51.2984 78.428 51.2984H78.4317ZM84.8034 52.536C85.4989 52.536 85.9999 52.6968 86.314 53.0221C86.6244 53.3474 86.7814 53.8335 86.7814 54.4879V54.7908C86.7814 55.2283 86.7141 55.5872 86.5758 55.8714C86.4374 56.1556 86.2205 56.365 85.9214 56.5033C86.2841 56.6417 86.5421 56.8661 86.6917 57.1764C86.8412 57.4868 86.916 57.8682 86.916 58.3206V59.0124C86.916 59.6667 86.7478 60.1678 86.4075 60.5118C86.0672 60.8558 85.5624 61.0278 84.8931 61.0278H82.7954V52.5398H84.8071L84.8034 52.536ZM84.1228 57.2063V59.8126H84.8856C85.11 59.8126 85.282 59.7527 85.4016 59.6293C85.5176 59.5097 85.5774 59.2891 85.5774 58.975V58.2346C85.5774 57.8383 85.5101 57.569 85.3792 57.4232C85.2446 57.2774 85.024 57.2063 84.7174 57.2063H84.1228ZM84.1228 53.7513V55.9948H84.6426C84.8931 55.9948 85.0913 55.9312 85.2296 55.8004C85.3717 55.6695 85.4428 55.4377 85.4428 55.0974V54.6263C85.4428 54.3196 85.3867 54.0953 85.2783 53.9607C85.1698 53.8223 84.9978 53.755 84.7622 53.755H84.1191L84.1228 53.7513ZM88.7221 59.0759C88.7221 59.3826 88.7856 59.5994 88.909 59.7266C89.0362 59.8499 89.2007 59.9135 89.4138 59.9135C89.627 59.9135 89.7915 59.8499 89.9186 59.7266C90.0458 59.5994 90.1056 59.3863 90.1056 59.0759V54.4916C90.1056 54.185 90.042 53.9682 89.9186 53.841C89.7952 53.7176 89.627 53.6541 89.4138 53.6541C89.2007 53.6541 89.0362 53.7176 88.909 53.841C88.7856 53.9682 88.7221 54.1813 88.7221 54.4916V59.0759ZM87.3872 54.5777C87.3872 53.8896 87.5629 53.3624 87.9069 52.996C88.2547 52.6295 88.7557 52.4426 89.4101 52.4426C90.0645 52.4426 90.5655 52.6258 90.9133 52.996C91.261 53.3624 91.433 53.8896 91.433 54.5777V58.9899C91.433 59.6779 91.2573 60.2052 90.9133 60.5716C90.5655 60.9381 90.0645 61.125 89.4101 61.125C88.7557 61.125 88.2547 60.9418 87.9069 60.5716C87.5592 60.2052 87.3872 59.6779 87.3872 58.9899V54.5777ZM94.3384 57.0867C94.3384 57.7672 94.3047 58.3543 94.2412 58.8516C94.1776 59.3489 94.0542 59.7602 93.8785 60.0818C93.699 60.4071 93.4559 60.6427 93.1456 60.796C92.8352 60.9493 92.4351 61.0278 91.9528 61.0278H91.8069V59.8163H91.964C92.207 59.8163 92.4015 59.7527 92.551 59.6219C92.7006 59.491 92.8165 59.3078 92.895 59.0685C92.9773 58.8291 93.0297 58.5412 93.0521 58.201C93.0745 57.8607 93.0895 57.483 93.0895 57.0605V52.536H96.7988V61.0241H95.4639V53.7475H94.3346V57.0829L94.3384 57.0867ZM98.646 61.0278H97.3111V52.5398H98.646V56.178H100.16V52.5398H101.518V61.0278H100.16V57.3895H98.646V61.0278ZM103.38 56.1182H105.212V57.3297H103.38V59.8163H105.683V61.0278H102.045V52.5398H105.683V53.7513H103.38V56.1145V56.1182ZM106.353 59.1507L106.184 56.0846V52.5435H107.519V56.0846L107.351 59.1507H106.356H106.353ZM107.493 59.7453V61.0315H106.207V59.7453H107.493Z" fill="#A0A0A0"/>
<path id="Vector_9" fill-rule="evenodd" clip-rule="evenodd" d="M53.8837 6.0127C63.0485 16.5573 65.9688 28.8107 65.5575 29.4651C62.712 22.1138 57.8397 15.4355 52.2945 11.715C51.5242 8.45441 52.5749 7.11577 53.8874 6.0127H53.8837Z" fill="#A0A0A0"/>
<path id="Subtract" fill-rule="evenodd" clip-rule="evenodd" d="M71.1169 0.220932V2.71125C73.7343 0.991211 75.1216 3.58249 75.4544 5.63532C75.7872 5.84098 76.636 -1.29345 71.1169 0.220932ZM66.2283 36.1147C67.2633 34.8658 68.7724 34.2368 70.7468 34.2368C72.2089 34.2368 73.8653 34.536 75.1068 35.7063C76.9801 37.4712 76.9764 40.1373 76.9689 42.1827H68.0546L68.0583 42.1864C68.0882 43.1586 68.3724 43.9177 68.9146 44.4748C69.4605 45.0282 70.1598 45.3049 71.0086 45.3049C72.1378 45.3049 72.9904 44.7739 73.3194 43.7756H76.8231C76.6511 44.6281 76.337 45.3573 75.8733 45.9742C75.4134 46.5875 74.7291 47.0848 73.8093 47.4662C73.6634 47.5267 73.516 47.5824 73.3671 47.6335C75.3219 47.6441 77.3757 47.669 79.0029 47.7202L79.1184 47.3097C81.2025 39.9018 83.6382 31.2439 84.9782 23.9089C78.9206 13.1063 62.8009 0.220932 53.8193 5.30253C52.2039 6.27847 51.228 9.43437 51.9983 12.0256C60.4639 18.6665 64.4087 26.3506 66.3643 34.6704C66.316 35.132 66.2698 35.6171 66.2283 36.1147ZM68.9631 14.2879C68.9631 14.7216 69.1949 15.1591 69.5016 15.1591C69.8343 15.1591 70.04 14.7254 70.04 14.2879C70.04 13.7494 69.8343 13.4166 69.5016 13.4166C69.1949 13.4166 68.9631 13.7494 68.9631 14.2879ZM54.1798 6.02606C54.1793 6.02544 54.1787 6.02482 54.1782 6.0242H54.182C54.1812 6.02482 54.1805 6.02544 54.1798 6.02606ZM65.7287 29.5588C64.1359 22.7055 60.1318 13.2388 54.1798 6.02606C52.8721 7.12912 51.8192 8.77062 52.5891 12.0294C58.3624 15.6751 62.7523 22.6301 65.6763 29.5588C65.7025 29.6112 65.7287 29.585 65.7287 29.5588ZM73.7343 17.2157C73.7343 17.6532 73.94 17.9598 74.2728 17.9598C74.5794 17.9598 74.8112 17.6532 74.8112 17.2157C74.8112 16.6772 74.5794 16.2397 74.2728 16.2397C73.94 16.2397 73.7343 16.6772 73.7343 17.2157ZM72.3247 16.2397C72.3247 16.6735 72.5303 17.111 72.8631 17.111C73.0688 17.111 73.4016 16.6772 73.4016 16.2397C73.4016 15.7013 73.0688 15.2638 72.8631 15.2638C72.5303 15.2638 72.3247 15.7013 72.3247 16.2397ZM70.7093 15.1629C70.7093 15.7013 70.915 16.0341 71.2478 16.0341C71.5544 16.0341 71.7862 15.7013 71.7862 15.1629C71.7862 14.6244 71.5544 14.2916 71.2478 14.2916C70.915 14.2916 70.7093 14.6244 70.7093 15.1629ZM73.5063 4.22938C78.0494 8.46591 81.5157 13.3157 83.3628 18.9357H83.3591C80.536 14.3926 76.7631 10.5187 72.5303 7.05249C72.635 5.97559 72.9678 4.99965 73.5063 4.22938ZM72.9044 37.9087C73.2072 38.35 73.3905 39.0268 73.4465 39.9391H68.1219C68.1668 39.367 68.264 38.9034 68.4136 38.5519C68.8623 37.5236 69.6699 36.9777 70.9039 36.9777C71.805 36.9777 72.4706 37.288 72.9044 37.9087Z" fill="#A0A0A0"/>
</g>
</g>
</g>
<defs>
<clipPath id="clip0_177_8756">
<rect width="107.435" height="62" fill="white" transform="translate(0.308228)"/>
</clipPath>
</defs>
</svg>
