<svg width="63" height="62" viewBox="0 0 63 62" fill="none" xmlns="http://www.w3.org/2000/svg">
<g id="rmrs" clip-path="url(#clip0_177_8373)">
<g id="&#208;&#161;&#208;&#187;&#208;&#190;&#208;&#185; 2">
<g id="&#208;&#161;&#208;&#187;&#208;&#190;&#208;&#185; 1">
<path id="Vector" fill-rule="evenodd" clip-rule="evenodd" d="M26.6935 0.932497C27.352 0.0257094 28.4776 0.156301 29.4047 0.564632C30.1404 -0.285137 31.244 -0.0423457 32.1214 0.452433C32.9343 -0.33112 34.0122 0.00915539 34.8491 0.599579C35.7191 -0.0920075 36.7693 0.321841 37.5584 0.972962C38.4891 0.347591 39.4915 0.875478 40.2144 1.58178C41.2076 1.06125 42.153 1.65535 42.8097 2.44074C43.8489 1.99931 44.7354 2.68905 45.3204 3.53147C46.4037 3.17648 47.2185 3.92324 47.7336 4.83003C48.8188 4.58356 49.5729 5.40574 49.9959 6.32724C51.1234 6.18377 51.8021 7.06297 52.1535 8.03965C53.2736 7.99183 53.8787 8.95932 54.1307 9.93968C55.2472 9.99854 55.742 11.0157 55.9038 12.0144C57.0221 12.1634 57.4489 13.1806 57.5353 14.2216C58.615 14.4736 58.9166 15.5643 58.9056 16.5613C59.9779 16.9291 60.1931 17.9904 60.092 19.0259C61.1367 19.4766 61.2563 20.5839 61.0484 21.601C62.0453 22.1381 62.0711 23.2564 61.7842 24.2441C62.7332 24.8529 62.6358 25.9657 62.2569 26.9111C63.1545 27.6193 62.9742 28.7284 62.4997 29.6573C63.3163 30.4261 63.0331 31.5297 62.4997 32.396C63.2354 33.2366 62.8675 34.2924 62.2458 35.0998C62.9061 36.0011 62.439 37.0238 61.7658 37.7797C62.3451 38.7527 61.8062 39.7128 61.0411 40.4155C61.545 41.4363 60.9178 42.3523 60.0993 42.9905C60.4801 44.0389 59.7646 44.8942 58.9056 45.4405C59.2036 46.5128 58.4127 47.3111 57.5224 47.7875C57.7284 48.904 56.8805 49.6066 55.9185 49.9947C56.0124 51.1277 55.1074 51.7715 54.1123 52.0805C54.1123 53.2025 53.1393 53.7524 52.1424 53.9658C52.0394 55.0823 51.0094 55.5458 49.9978 55.669C49.801 56.7726 48.7452 57.1405 47.7207 57.1681C47.4282 58.2716 46.3614 58.5494 45.3148 58.4869C44.9286 59.5481 43.825 59.721 42.8097 59.561C42.3259 60.5874 41.1966 60.6646 40.1942 60.4237C39.624 61.3801 38.4854 61.3433 37.5363 61.0196C36.876 61.9393 35.7651 61.8326 34.8178 61.4095C34.095 62.2575 33.0079 62.0331 32.125 61.5456C31.3084 62.331 30.2213 62.0018 29.366 61.4279C28.5071 62.125 27.4458 61.702 26.6714 61.0729C25.7279 61.6983 24.7291 61.1962 23.9952 60.4696C23.0167 61.0214 22.0566 60.3942 21.3999 59.6309C20.3681 60.076 19.4742 59.3992 18.8782 58.5678C17.8077 58.9356 16.9874 58.1999 16.4632 57.306C15.3596 57.558 14.5963 56.7193 14.1603 55.7922C13.0457 55.9504 12.3762 55.0565 12.0322 54.1001C10.9029 54.1626 10.3106 53.2209 10.0531 52.2258C8.91642 52.1798 8.39773 51.2178 8.2138 50.1897C7.09733 50.0407 6.66325 48.9904 6.57496 47.9696C5.49344 47.7341 5.1642 46.6103 5.16604 45.6244C4.09739 45.3007 3.87851 44.1916 3.97415 43.1929C2.92574 42.7551 2.79883 41.646 2.99747 40.6307C1.99872 40.1138 1.96929 38.9753 2.24335 37.9949C1.28874 37.3879 1.36047 36.2751 1.73753 35.3187C0.863855 34.6198 1.03123 33.5162 1.47635 32.5983C0.65969 31.8295 0.924553 30.7388 1.4598 29.8706C0.724066 29.0374 1.09193 27.9743 1.67868 27.1558C1.00364 26.2361 1.45612 25.2263 2.15506 24.4483C1.54624 23.49 2.10908 22.4968 2.85584 21.796C2.36291 20.7917 3.01954 19.8555 3.80862 19.2209C3.39109 18.1596 4.11026 17.2896 4.98027 16.7378C4.66206 15.6545 5.4824 14.8488 6.37815 14.3725C6.16111 13.2689 7.04031 12.5331 7.98572 12.145C7.86249 10.9642 8.93114 10.2708 9.93173 9.93784C9.93173 8.74228 10.9709 8.16657 12.0322 7.91458C12.1389 6.77604 13.1358 6.3254 14.1824 6.20401C14.3958 5.10041 15.4589 4.73254 16.4871 4.70495C16.7869 3.62527 17.8647 3.36409 18.8782 3.42662C19.2865 2.37453 20.3791 2.20531 21.3999 2.35797C21.8984 1.34818 23.0222 1.28013 24.0136 1.5358C24.5948 0.562793 25.7187 0.601418 26.6898 0.936176M10.947 8.80481C11.36 8.5366 11.8241 8.35686 12.31 8.27693L14.6459 8.43511C14.4485 8.77325 14.1831 9.0668 13.8665 9.29727C13.5499 9.52773 13.189 9.6901 12.8066 9.77414L10.3364 9.86794C10.3364 9.39892 10.5773 9.08071 10.9452 8.80481M17.5668 57.9755C16.5294 57.1607 16.4485 55.8676 16.1376 54.65C17.8887 54.9222 18.1774 56.7689 18.7127 58.187C18.5207 58.2524 18.3151 58.2672 18.1157 58.2302C17.9164 58.1931 17.7298 58.1054 17.5741 57.9755M5.56333 15.5441C6.39655 14.4552 7.74845 14.4203 9.01575 14.1444C8.66627 15.9248 6.85822 16.1088 5.3702 16.5888C5.25065 16.1842 5.34997 15.8936 5.57069 15.5441M2.38314 23.1368C2.88711 21.8659 4.20959 21.4686 5.34997 20.8726C5.4824 22.6513 3.76079 23.3502 2.48614 24.2036C2.25622 23.8358 2.26542 23.5415 2.38314 23.1368ZM1.80007 25.8131C2.20288 24.5163 3.47018 24.0013 4.54618 23.3061C4.59729 23.6654 4.5691 24.0316 4.46361 24.3789C4.35811 24.7262 4.17787 25.0462 3.93553 25.3164L1.97297 26.8633C1.72282 26.523 1.71546 26.2177 1.80007 25.8131ZM1.46899 28.5389C1.74489 27.1889 2.94045 26.5966 3.97415 25.8002C4.41927 27.5108 2.82825 28.5242 1.74305 29.5708C1.46164 29.2563 1.42301 28.951 1.46899 28.5389ZM1.36599 31.2685C1.52233 29.9203 2.68479 29.1919 3.621 28.3256C3.73627 28.6696 3.77572 29.0344 3.73667 29.3951C3.69762 29.7558 3.58098 30.1037 3.39477 30.4151L1.73937 32.293C1.42485 31.995 1.35496 31.6989 1.37151 31.2722M1.52417 33.9043C1.62718 32.5818 2.65536 31.8056 3.50145 30.862C4.23718 32.4806 2.8632 33.7479 1.96929 34.9803C1.811 34.8525 1.6873 34.687 1.60953 34.499C1.53177 34.311 1.50242 34.1065 1.52417 33.9043ZM1.89204 36.6209C1.881 35.3058 2.85033 34.4137 3.60077 33.4168C3.77334 33.7332 3.87477 34.0834 3.89796 34.4431C3.92115 34.8027 3.86555 35.163 3.73504 35.499L2.42728 37.6252C2.25579 37.5181 2.11488 37.3686 2.0182 37.191C1.92153 37.0134 1.87237 36.8139 1.87548 36.6117M2.51005 39.2788C2.36658 37.9526 3.24578 37.0127 3.92817 35.9367C4.93428 37.3971 3.81413 38.8796 3.15749 40.2518C2.97599 40.1577 2.82135 40.0191 2.7081 39.8489C2.59486 39.6787 2.52671 39.4825 2.51005 39.2788ZM3.36534 41.8833C3.12071 40.5847 3.91714 39.551 4.46893 38.4235C5.6038 39.7975 4.61608 41.3664 4.07164 42.7919C3.8854 42.7134 3.72219 42.5888 3.59735 42.4298C3.47251 42.2709 3.39014 42.0828 3.35798 41.8833M4.44686 44.3829C4.079 43.1174 4.77794 42.023 5.23961 40.8587C6.49587 42.126 5.66817 43.7336 5.258 45.2235C5.06135 45.1661 4.88307 45.0583 4.74081 44.9109C4.59855 44.7635 4.49723 44.5815 4.44686 44.3829ZM5.80612 46.8862C5.2249 45.6281 5.85211 44.4583 6.23101 43.2076C6.50403 43.4454 6.72319 43.7387 6.87385 44.0679C7.02451 44.3971 7.10321 44.7547 7.10469 45.1168L6.66693 47.5649C6.24756 47.4748 6.0342 47.2522 5.82268 46.8862M7.29414 49.0769C6.69268 47.8813 7.18746 46.6986 7.4468 45.4479C8.91826 46.4724 8.38302 48.2289 8.24139 49.774C8.03807 49.7454 7.84504 49.6668 7.67969 49.5451C7.51433 49.4234 7.38183 49.2625 7.29414 49.0769ZM9.07277 51.284C8.29657 50.1584 8.7049 48.8635 8.84285 47.5796C10.3934 48.4533 10.0163 50.2816 10.0163 51.8101C9.58962 51.7935 9.34131 51.6115 9.07277 51.2896M10.9949 53.2613C10.1414 52.2184 10.41 50.8555 10.421 49.5827C12.0359 50.3184 11.8318 52.1577 11.9715 53.6825C11.5485 53.7064 11.2892 53.5519 10.9949 53.2558M13.0604 55.0381C12.1132 54.0761 12.264 52.7132 12.1757 51.4459C13.866 52.0327 13.8035 53.8701 14.0702 55.3857C13.6527 55.4446 13.3805 55.3103 13.0659 55.0418M15.2198 56.585C14.2449 55.6653 14.2854 54.3907 14.0812 53.1326C15.8157 53.5887 15.9335 55.4097 16.3436 56.9069C16.1443 56.9516 15.937 56.9456 15.7406 56.8894C15.5443 56.8331 15.3652 56.7285 15.2198 56.585ZM20.0554 59.1472C18.9518 58.4317 18.7421 57.1533 18.3154 55.9706C18.6762 56.002 19.0258 56.1114 19.3402 56.2911C19.6546 56.4709 19.9262 56.7167 20.1363 57.0117L21.2105 59.2612C21.024 59.3412 20.8202 59.3727 20.6183 59.3527C20.4163 59.3328 20.2227 59.2621 20.0554 59.1472ZM22.6304 60.1055C21.4569 59.4838 21.159 58.2404 20.6237 57.0871C20.986 57.0886 21.3437 57.1681 21.6725 57.3201C22.0013 57.4721 22.2935 57.6931 22.5293 57.9682L23.7892 60.1147C23.6114 60.2123 23.4115 60.2628 23.2086 60.2612C23.0058 60.2596 22.8067 60.2059 22.6304 60.1055ZM25.3453 60.8817C24.0578 60.4218 23.6273 59.1233 22.9965 58.0049C24.7493 57.821 25.5292 59.5334 26.4121 60.7492C26.0571 60.9847 25.7499 60.9847 25.3453 60.8817ZM28.0509 61.3452C26.7248 61.0159 26.1711 59.767 25.4317 58.7131C27.1772 58.3452 28.0859 59.9601 29.0993 61.1042C28.7683 61.3728 28.4648 61.4003 28.0509 61.3378M30.6793 61.564C29.3918 61.2789 28.7444 60.157 27.9203 59.1895C29.6438 58.6597 30.6904 60.1864 31.805 61.2624C31.6568 61.404 31.4752 61.5058 31.2772 61.5586C31.0791 61.6113 30.8709 61.6132 30.672 61.564M33.396 61.5548C32.0938 61.3838 31.3727 60.3133 30.4825 59.4304C32.1232 58.7719 33.2985 60.2029 34.4757 61.1539C34.3454 61.3079 34.1775 61.4257 33.9884 61.4959C33.7993 61.5662 33.5953 61.5865 33.396 61.5548ZM36.1145 61.3084C34.7921 61.2642 33.9644 60.2508 32.9987 59.4451C33.3273 59.2863 33.6866 59.2008 34.0516 59.1948C34.4165 59.1888 34.7784 59.2623 35.1121 59.4102L37.1777 60.7934C37.059 60.9605 36.9 61.0949 36.7153 61.184C36.5307 61.2731 36.3266 61.314 36.1219 61.3029M38.9269 60.7878C37.5805 60.9295 36.6167 59.9638 35.5591 59.2465C37.0507 58.29 38.502 59.4985 39.8263 60.214C39.6111 60.5818 39.3333 60.7051 38.9269 60.7878ZM41.467 60.0797C40.1445 60.2636 39.1605 59.4396 38.0477 58.8143C38.3413 58.5966 38.6792 58.4463 39.0374 58.3738C39.3957 58.3013 39.7654 58.3085 40.1206 58.3949L42.4161 59.4065C42.2321 59.813 41.901 59.9933 41.467 60.0797ZM44.042 59.1177C42.7637 59.412 41.6601 58.6579 40.5179 58.1558C41.8551 56.9473 43.4406 57.867 44.9212 58.3563C44.8527 58.5482 44.7357 58.7191 44.5817 58.8525C44.4277 58.986 44.2418 59.0773 44.042 59.1177ZM46.503 57.9387C45.2449 58.3544 44.1119 57.7033 42.9255 57.2876C44.1469 55.9762 45.7986 56.7505 47.305 57.1037C47.2535 57.2988 47.1527 57.4774 47.0122 57.6224C46.8718 57.7673 46.6965 57.8737 46.503 57.9314M48.8574 56.5114C47.6508 57.0301 46.4663 56.4912 45.2431 56.195C45.4651 55.9117 45.7464 55.6803 46.0673 55.5173C46.3883 55.3543 46.7411 55.2636 47.1008 55.2515L49.5821 55.6193C49.5463 55.8167 49.4611 56.0017 49.3344 56.1571C49.2076 56.3124 49.0435 56.4331 48.8574 56.5077M51.0646 54.9038C49.9039 55.5347 48.6734 55.1007 47.4282 54.9038C48.3994 53.3882 50.1615 53.8554 51.723 53.9327C51.7033 54.136 51.6325 54.331 51.5175 54.4998C51.4024 54.6686 51.2466 54.8056 51.0646 54.8983M53.132 53.105C52.0284 53.8407 50.7592 53.506 49.4993 53.4213C49.6744 53.1033 49.9163 52.8269 50.2084 52.6113C50.5006 52.3957 50.8359 52.246 51.1915 52.1724L53.693 52.0897C53.6926 52.2925 53.641 52.4919 53.5429 52.6694C53.4449 52.8469 53.3035 52.9968 53.132 53.105ZM55.032 51.1332C53.9983 51.9683 52.7236 51.7457 51.4563 51.7678C52.1295 50.1124 53.9965 50.254 55.5029 50.0535C55.5211 50.2585 55.4875 50.4648 55.4052 50.6535C55.323 50.8421 55.1946 51.0071 55.032 51.1332ZM56.7518 48.9831C55.7953 49.8898 54.482 49.7997 53.2331 49.9487C53.3494 49.6022 53.5395 49.285 53.7904 49.0192C54.0413 48.7534 54.347 48.5453 54.6862 48.4092L57.1251 47.8923C57.1623 48.0904 57.148 48.2947 57.0836 48.4857C57.0192 48.6767 56.9068 48.8479 56.7573 48.9831M58.3133 46.6103C57.4765 47.7047 56.1503 47.7029 54.8701 47.9585C55.2251 46.2351 57.0939 46.0199 58.5212 45.5564C58.6334 45.9647 58.5341 46.2572 58.3133 46.6103ZM59.5494 44.2909C58.7769 45.3541 57.504 45.4883 56.303 45.8544C56.4979 44.0794 58.3152 43.7318 59.7296 43.1469C59.7968 43.3378 59.8151 43.5425 59.783 43.7423C59.7509 43.9421 59.6693 44.1307 59.5457 44.2909M60.6327 41.7784C59.9614 42.9206 58.7051 43.1671 57.528 43.6416C57.5611 41.8593 59.3323 41.3406 60.6953 40.6233C60.7841 40.8052 60.825 41.0068 60.8141 41.209C60.8031 41.4111 60.7407 41.6071 60.6327 41.7784ZM61.5524 38.9771C61.0503 40.2978 59.7499 40.6785 58.5617 41.2947C58.4292 39.5326 60.1747 38.8373 61.442 38.0096C61.5302 38.1529 61.5858 38.3139 61.6049 38.4811C61.624 38.6483 61.6061 38.8176 61.5524 38.9771ZM62.1042 36.4021C61.7014 37.7006 60.4488 38.1991 59.3581 38.8888C59.0859 37.1378 60.7486 36.2954 61.9331 35.3518C62.1814 35.6921 62.1888 35.9974 62.1042 36.4021ZM62.4721 33.7001C62.1888 35.0115 60.9546 35.6406 59.9559 36.4113C59.5383 34.6896 61.1018 33.7148 62.2017 32.6664C62.4813 32.9846 62.5217 33.2862 62.4721 33.7001ZM62.5935 30.9577C62.439 32.3132 61.2765 33.0269 60.3274 33.9006C60.2131 33.5572 60.1757 33.1929 60.2176 32.8335C60.2596 32.474 60.3799 32.1281 60.5702 31.8203L62.2256 29.9626C62.5346 30.2532 62.5935 30.5493 62.5935 30.9669M62.4721 28.3256C62.3544 29.637 61.3078 30.4187 60.458 31.3421C60.3236 31.011 60.2611 30.6551 60.2748 30.298C60.2884 29.941 60.3778 29.5909 60.5371 29.271L62.0251 27.2477C62.1855 27.3742 62.3108 27.5397 62.389 27.7284C62.4673 27.9171 62.4958 28.1227 62.4721 28.3256ZM62.1042 25.5114C62.1667 26.8596 61.1404 27.7959 60.3752 28.8093C60.2075 28.4863 60.1116 28.1309 60.0942 27.7674C60.0767 27.4039 60.1381 27.0409 60.2741 26.7033L61.5763 24.5973C61.9331 24.8253 62.0453 25.1012 62.1042 25.5169M61.5101 22.9566C61.6315 24.2717 60.7505 25.2061 60.0736 26.2674C59.062 24.7959 60.1931 23.352 60.881 21.9762C61.06 22.073 61.2115 22.2134 61.3215 22.3845C61.4315 22.5556 61.4964 22.7518 61.5101 22.9547M60.6493 20.2325C60.9601 21.5532 60.1269 22.6365 59.5457 23.7806C58.4072 22.4085 59.4077 20.8487 59.9632 19.4122C60.3513 19.5796 60.515 19.8408 60.6456 20.2325M59.5659 17.7219C59.9908 19.0094 59.2643 20.17 58.7971 21.3656C57.5445 20.0928 58.4053 18.4226 58.8192 16.9622C58.9942 17.0219 59.1529 17.1216 59.2826 17.2535C59.4123 17.3854 59.5093 17.5458 59.5659 17.7219ZM58.3078 15.3951C58.764 16.6293 58.1809 17.7862 57.8278 18.9965C56.4538 17.8488 57.1619 16.1253 57.4599 14.6116C57.6568 14.6593 57.8384 14.7562 57.9877 14.8932C58.137 15.0303 58.249 15.203 58.3133 15.3951M56.8713 13.2118C57.0382 13.6023 57.1276 14.0215 57.1343 14.446L56.6377 16.725C55.181 15.6986 55.7309 13.9476 55.8836 12.4228C56.3821 12.489 56.6414 12.7778 56.8713 13.2118ZM55.0504 10.8777C55.8027 12.0108 55.4035 13.3093 55.2619 14.5858C54.9533 14.4037 54.6882 14.1562 54.4855 13.8606C54.2828 13.5651 54.1472 13.2288 54.0884 12.8752L54.1289 10.3554C54.5501 10.3774 54.791 10.5669 55.0485 10.8869M53.235 8.97587C54.0204 10.0464 53.7408 11.332 53.7095 12.5938C53.3822 12.4328 53.0939 12.2025 52.8645 11.9189C52.6352 11.6352 52.4704 11.3051 52.3815 10.9513L52.1737 8.4535C52.3802 8.44424 52.5858 8.48725 52.7713 8.57856C52.9568 8.66988 53.1163 8.80653 53.235 8.97587ZM51.1768 7.16597C52.0486 8.16105 51.8941 9.45593 51.9806 10.7159C51.6357 10.589 51.3235 10.3867 51.0668 10.1239C50.81 9.86109 50.6151 9.54428 50.4962 9.19659L50.0824 6.72086C50.2879 6.69347 50.497 6.71877 50.69 6.79438C50.8831 6.86999 51.0537 6.99342 51.186 7.1531M48.8868 5.47195C49.9168 6.34931 49.8764 7.73984 50.0805 8.99426C48.3534 8.54363 48.2412 6.7043 47.8421 5.21813C48.2578 5.12432 48.5429 5.231 48.8868 5.47195ZM46.6263 4.12005C47.6581 4.94775 47.7299 6.24815 48.0426 7.4713C46.2768 7.17333 46.0064 5.334 45.4896 3.90117C45.6811 3.83848 45.8856 3.82603 46.0833 3.865C46.281 3.90397 46.4655 3.99305 46.6189 4.12373M44.1524 2.92817C45.2449 3.6639 45.4399 4.95142 45.863 6.13043C45.5052 6.09215 45.1596 5.97802 44.8495 5.79565C44.5393 5.61327 44.2715 5.36685 44.0641 5.07282L42.9899 2.80125C43.1785 2.72197 43.3842 2.69201 43.5876 2.71422C43.791 2.73642 43.9853 2.81005 44.1524 2.92817ZM41.5001 1.9055C42.7306 2.48673 43.0525 3.8276 43.5822 4.99373C41.798 4.99373 41.2039 3.25557 40.4204 1.92757C40.7975 1.73076 41.1046 1.76203 41.5001 1.9055ZM38.857 1.16977C40.1629 1.64616 40.5712 2.91897 41.2168 4.06303C39.4492 4.24696 38.6822 2.52903 37.7994 1.30404C38.1507 1.06861 38.4542 1.07413 38.857 1.17897M36.2709 0.709939C37.5235 1.10723 38.0495 2.3028 38.7613 3.33282C37.0029 3.70068 36.12 2.08392 35.1139 0.914104C35.2736 0.784632 35.4636 0.697949 35.666 0.662229C35.8684 0.626509 36.0766 0.642928 36.2709 0.709939ZM33.5376 0.437718C34.8252 0.73385 35.4597 1.88711 36.2617 2.8454C34.5401 3.34937 33.5119 1.81353 32.4212 0.735689C32.5662 0.594712 32.7452 0.493552 32.9408 0.441997C33.1364 0.390441 33.3419 0.390235 33.5376 0.441397M30.7124 0.419325C32.0772 0.529685 32.8221 1.65535 33.7252 2.57502C32.0809 3.2151 30.8945 1.76203 29.7284 0.809262C30.0043 0.48922 30.2967 0.411968 30.7124 0.408289M28.0896 0.658437C29.4175 0.709939 30.236 1.71605 31.2164 2.52719C29.6015 3.34569 28.3379 2.03057 27.043 1.15138C27.1629 0.987031 27.3223 0.855662 27.5066 0.769479C27.6909 0.683297 27.8939 0.645099 28.0969 0.658437M25.3949 1.12931C26.7211 1.07596 27.615 1.99011 28.6505 2.71296C28.3419 2.8993 27.9959 3.0152 27.6372 3.0524C27.2786 3.0896 26.9161 3.04718 26.5758 2.92817L24.3852 1.70869C24.4904 1.53431 24.6383 1.38961 24.815 1.28824C24.9917 1.18688 25.1913 1.13218 25.3949 1.12931ZM22.636 1.86504C23.975 1.61489 25.0271 2.51616 26.1307 3.15256C24.6997 4.18443 23.162 3.12129 21.7715 2.52167C21.9554 2.13726 22.2258 1.98091 22.6304 1.86504M20.1639 2.7847C21.4514 2.49408 22.5017 3.23533 23.6586 3.76138C23.3873 3.99927 23.0674 4.17517 22.7211 4.27682C22.3749 4.37847 22.0106 4.40343 21.6538 4.34997L19.2792 3.52411C19.3542 3.3365 19.4753 3.17079 19.6312 3.04222C19.7871 2.91365 19.9728 2.82636 20.1713 2.78838M17.5962 3.99681C18.8653 3.51491 20.048 4.20098 21.2565 4.62402C20.0443 5.92259 18.3595 5.13352 16.8789 4.77853C16.9911 4.37388 17.2265 4.17891 17.5962 3.99681ZM15.3357 5.34688C16.5551 4.82819 17.7176 5.36895 18.9444 5.68164C17.8408 7.09976 16.1229 6.46335 14.5889 6.23343C14.6293 6.03498 14.7188 5.84983 14.8492 5.69494C14.9797 5.54005 15.147 5.42038 15.3357 5.34688ZM13.1046 6.93606C14.2744 6.31988 15.4957 6.75212 16.7354 6.96181C15.7587 8.45534 13.9764 7.98263 12.4424 7.89435C12.4619 7.69141 12.533 7.49683 12.6489 7.32911C12.7648 7.16138 12.9216 7.02608 13.1046 6.93606ZM8.87412 10.955C9.25677 10.6422 9.70022 10.4124 10.1764 10.28L12.5546 10.1825C12.3937 10.5439 12.1604 10.8686 11.869 11.1362C11.5776 11.4039 11.2344 11.6089 10.8606 11.7385L8.3867 12.0696C8.33887 11.6043 8.5412 11.2658 8.8778 10.955M7.06422 13.2321C7.98388 12.2278 9.35602 12.3253 10.6288 12.1726C10.123 13.8703 8.25243 13.92 6.76625 14.2695C6.68532 13.8501 6.80304 13.5668 7.05686 13.2321M4.32547 17.8874C5.08695 16.804 6.39655 16.6624 7.60131 16.2927C7.55256 16.6531 7.42659 16.9988 7.232 17.3061C7.03741 17.6134 6.77879 17.875 6.4738 18.0732L4.17464 19.0425C4.09955 18.853 4.07399 18.6475 4.10038 18.4454C4.12677 18.2433 4.20424 18.0513 4.32547 17.8874ZM3.22187 20.5176C3.85092 19.2908 5.15868 19.0462 6.36896 18.5496C6.31746 20.33 4.56274 20.8598 3.20716 21.5863C3.02322 21.2074 3.06737 20.9021 3.22187 20.5176ZM31.965 51.6022C36.0401 51.6055 40.0246 50.4001 43.4145 48.1385C46.8044 45.8769 49.4474 42.6607 51.0091 38.8967C52.5709 35.1328 52.9812 30.9902 52.1882 26.993C51.3952 22.9958 49.4345 19.3236 46.5541 16.4409C43.6738 13.5583 40.0032 11.5946 36.0066 10.7984C32.0101 10.0022 27.8671 10.4092 24.1019 11.9679C20.3367 13.5266 17.1184 16.167 14.8541 19.5551C12.5897 22.9432 11.3811 26.9267 11.3811 31.0018C11.3811 42.5472 20.8481 51.6022 31.965 51.6022ZM31.954 11.3394L35.3512 21.1872C37.2432 21.8941 38.8718 23.1663 40.0157 24.8309L50.6231 24.8805L41.6858 31.4524C41.5227 33.0089 40.9892 34.5037 40.1298 35.8116L43.4939 46.8274L33.7804 40.0697C33.1647 40.1899 32.539 40.2515 31.9117 40.2536C31.3095 40.2537 30.7085 40.1983 30.1165 40.0881L20.4398 46.8347L23.7138 35.8153C22.8384 34.4823 22.3023 32.9555 22.1522 31.3678L13.3326 24.8879L23.8297 24.8382C24.9657 23.1797 26.5818 21.9083 28.4611 21.1945L31.954 11.3394ZM31.9724 39.6411C33.7979 39.6422 35.5828 39.1019 37.1013 38.0886C38.6197 37.0752 39.8036 35.6343 40.5031 33.9481C41.2026 32.2619 41.3864 30.4061 41.0312 28.6155C40.676 26.8248 39.7978 25.1797 38.5075 23.8882C37.2173 22.5967 35.5731 21.7168 33.7828 21.3598C31.9925 21.0028 30.1365 21.1848 28.4496 21.8826C26.7627 22.5805 25.3207 23.7629 24.3058 25.2804C23.291 26.7978 22.7489 28.5821 22.7482 30.4077C22.7474 31.6197 22.9855 32.8199 23.4486 33.9399C23.9118 35.0599 24.5911 36.0776 25.4477 36.9351C26.3043 37.7925 27.3213 38.4728 28.4409 38.9371C29.5604 39.4014 30.7604 39.6406 31.9724 39.6411ZM31.9724 38.2984V38.3205C33.0907 38.0575 35.3291 35.7454 36.602 35.1403L36.7767 36.4554L39.0795 33.2311L36.1624 33.7148L36.3592 34.3935C35.6584 34.8552 34.781 35.4033 33.946 35.5339C33.3555 35.6222 32.434 35.2267 32.412 33.6946V27.5641L34.7589 27.542V26.6003H32.4285V25.7505C33.0208 25.7505 33.613 25.6861 33.9202 24.7646C34.1391 23.4035 33.4144 22.6586 31.9669 22.6586C30.5193 22.6586 29.8185 23.3943 30.0374 24.7646C30.3446 25.6641 30.9368 25.7303 31.5089 25.7303V26.6076H29.2042V27.5494L31.5291 27.5715V33.6927C31.507 35.2267 30.6094 35.6222 29.9933 35.5321C29.1821 35.4015 28.3048 34.8533 27.6021 34.3917L27.7989 33.713L24.8818 33.2292L27.1846 36.4186L27.3685 35.1311C28.6413 35.7454 30.878 38.0483 31.9669 38.2892M31.9669 23.33C33.2544 23.33 33.3059 24.1632 33.2838 24.4483C33.1955 24.8161 32.9766 25.0185 32.7578 25.0185C32.4727 25.0185 32.4065 24.7775 31.9669 24.7554C31.5273 24.7334 31.4629 25.0185 31.1999 25.0185C30.981 25.0185 30.7603 24.7996 30.6738 24.4262C30.6517 24.1632 30.6959 23.3226 31.9613 23.3226M24.8928 27.737H26.3091C26.94 27.737 26.9786 28.2263 26.9786 28.5408V29.9056C26.9786 30.2219 26.94 30.7112 26.3091 30.7112H25.7941V32.2433H24.8928V27.737ZM25.91 30.2146C26.0074 30.2146 26.0773 30.1318 26.0773 29.9902V28.458C26.0773 28.3164 26.0074 28.2318 25.91 28.2318H25.7941V30.2146H25.91ZM39.1181 31.4524C39.1181 31.767 39.0795 32.2562 38.4486 32.2562H37.7019C37.0691 32.2562 37.0324 31.767 37.0324 31.4524V28.5518C37.0324 28.2373 37.0691 27.748 37.7019 27.748H38.4486C39.0795 27.748 39.1181 28.2373 39.1181 28.5518V29.1901H38.2169V28.3918C38.2174 28.3727 38.2141 28.3537 38.2072 28.3359C38.2004 28.3181 38.1901 28.3018 38.1769 28.288C38.1638 28.2741 38.148 28.263 38.1306 28.2553C38.1131 28.2475 38.0943 28.2433 38.0752 28.2428C38.0559 28.2425 38.0368 28.2462 38.019 28.2537C38.0012 28.2612 37.9851 28.2723 37.9718 28.2863C37.9585 28.3003 37.9482 28.3169 37.9417 28.335C37.9351 28.3532 37.9323 28.3725 37.9336 28.3918V31.6106C37.9323 31.6298 37.9351 31.649 37.9417 31.6671C37.9482 31.6852 37.9585 31.7017 37.9719 31.7155C37.9852 31.7294 38.0013 31.7403 38.0191 31.7476C38.0369 31.7549 38.056 31.7583 38.0752 31.7578C38.0942 31.7575 38.113 31.7535 38.1304 31.746C38.1479 31.7384 38.1637 31.7275 38.1768 31.7138C38.19 31.7001 38.2003 31.6839 38.2072 31.6662C38.2141 31.6485 38.2174 31.6296 38.2169 31.6106V30.6762H39.1181V31.4524ZM9.093 43.9599L8.52832 42.8857C8.27818 42.4056 8.63317 42.1831 8.87228 42.058L9.90966 41.5154C10.1488 41.3903 10.5369 41.2248 10.787 41.6993L10.993 42.0911L12.1555 41.4823L12.5233 42.1665L9.093 43.9599ZM10.5645 42.2033C10.5258 42.1297 10.4339 42.1095 10.3272 42.1665L9.16289 42.7735C9.05437 42.8305 9.01942 42.917 9.05805 42.9905L9.10403 43.0788L10.6104 42.2916L10.5645 42.2033ZM8.42716 41.0813C8.17517 41.1788 7.77052 41.2983 7.57555 40.7944L7.3438 40.1984C7.14883 39.6945 7.52773 39.5124 7.77972 39.4149L10.0954 38.5173C10.3474 38.4198 10.7502 38.2984 10.9452 38.8042L11.177 39.4002C11.3719 39.9041 10.993 40.0862 10.741 40.1837L8.42716 41.0813ZM7.94526 40.1837C7.92966 40.189 7.91531 40.1975 7.90307 40.2085C7.89084 40.2195 7.88098 40.2329 7.87409 40.2479C7.86721 40.2629 7.86345 40.2791 7.86303 40.2956C7.86262 40.3121 7.86556 40.3284 7.87169 40.3437C7.87726 40.3592 7.88604 40.3734 7.89745 40.3853C7.90885 40.3972 7.92263 40.4066 7.93789 40.4128C7.95315 40.4191 7.96954 40.4221 7.98602 40.4216C8.0025 40.4211 8.01869 40.4171 8.03355 40.41L10.6086 39.4149C10.6245 39.41 10.6393 39.4018 10.6518 39.3909C10.6644 39.38 10.6746 39.3666 10.6817 39.3515C10.6888 39.3365 10.6927 39.3201 10.6931 39.3034C10.6935 39.2868 10.6904 39.2702 10.684 39.2549C10.6778 39.2398 10.6686 39.2262 10.6571 39.2147C10.6456 39.2033 10.6319 39.1942 10.6169 39.1881C10.6018 39.1819 10.5857 39.1788 10.5695 39.1789C10.5532 39.179 10.5371 39.1823 10.5222 39.1886L7.94526 40.1837ZM9.40568 36.0121C9.66687 35.9441 10.0807 35.8687 10.2187 36.3929L10.3805 37.0127C10.5166 37.5351 10.1212 37.673 9.85816 37.7484L7.44864 38.3738C7.18746 38.4419 6.77361 38.5173 6.63566 37.9949L6.4738 37.3751C6.33585 36.8527 6.73314 36.7129 6.99433 36.6393L7.52405 36.4995L7.71902 37.2463L7.0587 37.421C7.04285 37.4247 7.02787 37.4315 7.01465 37.441C7.00142 37.4505 6.99021 37.4625 6.98166 37.4764C6.97311 37.4902 6.96739 37.5056 6.96483 37.5217C6.96227 37.5378 6.96292 37.5542 6.96674 37.57C6.97027 37.5862 6.97717 37.6015 6.98699 37.6148C6.99681 37.6281 7.00934 37.6392 7.02375 37.6474C7.03815 37.6555 7.05412 37.6606 7.0706 37.6621C7.08709 37.6637 7.10371 37.6618 7.1194 37.6565L9.78458 36.9594C9.80083 36.9564 9.81628 36.9501 9.82992 36.9408C9.84356 36.9315 9.8551 36.9194 9.86377 36.9054C9.87244 36.8913 9.87806 36.8756 9.88026 36.8592C9.88247 36.8429 9.8812 36.8262 9.87655 36.8104C9.87232 36.7947 9.86498 36.7799 9.85495 36.7671C9.84491 36.7543 9.8324 36.7436 9.81816 36.7357C9.80392 36.7278 9.78823 36.7229 9.77203 36.7212C9.75584 36.7195 9.73946 36.721 9.72389 36.7258L8.94953 36.9281L8.75456 36.1813L9.40568 36.0121ZM8.98816 33.4481C9.2567 33.4095 9.67606 33.3819 9.75332 33.9171L9.84528 34.5499C9.92253 35.0851 9.51236 35.1789 9.24382 35.2175L6.78648 35.5744C6.51794 35.613 6.09858 35.6406 6.02132 35.1053L5.92936 34.4726C5.85211 33.9374 6.26411 33.8436 6.53082 33.8049L7.07158 33.7258L7.18194 34.491L6.50507 34.5903C6.48874 34.5919 6.4729 34.5968 6.4585 34.6046C6.44411 34.6125 6.43146 34.6232 6.42132 34.6361C6.41118 34.649 6.40375 34.6638 6.39949 34.6797C6.39524 34.6955 6.39423 34.712 6.39655 34.7283C6.39845 34.7447 6.40381 34.7606 6.41227 34.7749C6.42073 34.7891 6.4321 34.8014 6.44565 34.811C6.45919 34.8205 6.4746 34.8271 6.49086 34.8303C6.50712 34.8335 6.52387 34.8332 6.54001 34.8294L9.26957 34.4321C9.28611 34.4311 9.30224 34.4266 9.3169 34.4189C9.33157 34.4112 9.34445 34.4005 9.35469 34.3874C9.36493 34.3744 9.37231 34.3594 9.37634 34.3433C9.38038 34.3272 9.38097 34.3105 9.37809 34.2942C9.37589 34.278 9.37042 34.2625 9.36199 34.2486C9.35357 34.2346 9.34239 34.2225 9.32912 34.213C9.31586 34.2036 9.30079 34.1969 9.28486 34.1935C9.26893 34.19 9.25246 34.1899 9.23647 34.193L8.44372 34.3071L8.33336 33.5437L8.98816 33.4481ZM5.73807 32.74L5.71416 31.9674L7.63993 31.9104V31.8828L5.7068 31.6217L5.68473 30.8491L9.54731 30.7333L9.57122 31.5058L7.64545 31.5628V31.5904L9.57858 31.8516L9.60249 32.6241L5.73807 32.74ZM5.01337 28.7946L5.1458 28.8056C5.16384 28.8074 5.18204 28.8056 5.19935 28.8002C5.21665 28.7948 5.23272 28.7861 5.24659 28.7744C5.26047 28.7628 5.27188 28.7485 5.28016 28.7324C5.28843 28.7162 5.29341 28.6986 5.29479 28.6806C5.29709 28.6624 5.29562 28.644 5.29047 28.6265C5.28532 28.609 5.27659 28.5927 5.26484 28.5787C5.2531 28.5647 5.23858 28.5533 5.22221 28.5452C5.20584 28.5371 5.18797 28.5325 5.16972 28.5316L5.03728 28.5187L5.09246 27.8768L5.2249 27.8878C5.3886 27.9025 5.66817 27.954 5.62771 28.4102L5.57621 29.0098C5.53758 29.4604 5.24881 29.4623 5.08879 29.4494L4.95819 29.4365L5.01337 28.7946ZM5.71416 29.6646L5.78037 28.8939L7.69879 29.0613V29.0337L5.80796 28.5463L5.87418 27.7756L9.72389 28.1122L9.65767 28.8774L7.73741 28.71V28.7357L9.62824 29.2232L9.56203 29.992L5.71416 29.6646ZM9.50869 25.5004C9.77355 25.5537 10.1782 25.6696 10.0715 26.1993L9.94277 26.8265C9.83609 27.3581 9.41856 27.3066 9.1537 27.2514L6.72027 26.7548C6.4554 26.7015 6.05259 26.5856 6.15927 26.0559L6.28619 25.4286C6.39471 24.8971 6.81223 24.9486 7.0771 25.0038L7.61234 25.1123L7.45784 25.8701L6.78832 25.7321C6.75614 25.725 6.72243 25.7308 6.69453 25.7484C6.66663 25.7659 6.64679 25.7938 6.63934 25.8259C6.63561 25.8422 6.63532 25.859 6.63849 25.8754C6.64166 25.8918 6.64822 25.9073 6.65775 25.921C6.66727 25.9347 6.67956 25.9462 6.69381 25.9549C6.70806 25.9635 6.72396 25.9691 6.7405 25.9712L9.44247 26.523C9.45843 26.5271 9.47505 26.5279 9.49132 26.5253C9.50759 26.5227 9.52317 26.5169 9.5371 26.5081C9.55104 26.4994 9.56305 26.4878 9.57239 26.4743C9.58173 26.4607 9.58822 26.4454 9.59146 26.4292C9.59437 26.413 9.59406 26.3964 9.59056 26.3804C9.58705 26.3643 9.58041 26.3491 9.57101 26.3356C9.56161 26.3221 9.54965 26.3106 9.5358 26.3017C9.52195 26.2929 9.50648 26.2868 9.49029 26.2839L8.70674 26.1184L8.86124 25.3624L9.50869 25.5004ZM6.69636 23.7365L6.93547 23.0007L8.51545 23.5121V23.4863L7.0256 22.734L7.26471 21.9983L8.90723 22.9419L10.9618 23.1258L10.7245 23.8615L8.93114 23.6279V23.6555L10.6196 24.2073L10.3824 24.9431L6.69636 23.7365ZM7.70247 20.869L8.02435 20.1682L9.77355 20.9683L9.78642 20.9425L8.1715 19.8389L8.49706 19.151L12.0065 20.7659L11.6828 21.4667L9.93357 20.6611L9.92253 20.6869L11.5375 21.7905L11.2137 22.4912L7.70247 20.869ZM8.80606 17.0064L8.9201 17.0744C8.95072 17.0922 8.98705 17.0973 9.02139 17.0887C9.05573 17.0801 9.08537 17.0585 9.10403 17.0284C9.12227 16.9979 9.12767 16.9614 9.11905 16.927C9.11043 16.8925 9.0885 16.8628 9.05805 16.8445L8.94401 16.7765L9.28245 16.2247L9.39465 16.2945C9.53628 16.381 9.76251 16.5502 9.5234 16.942L9.23279 17.4552C8.99551 17.8414 8.73617 17.7145 8.60006 17.6391L8.48786 17.5692L8.80606 17.0064ZM9.04885 18.1008L9.45167 17.4423L11.096 18.4466L11.1107 18.4226L9.63928 17.1462L10.0421 16.4877L13.34 18.4999L12.9353 19.1602L11.2928 18.1559L11.2781 18.1799L12.7496 19.4563L12.3596 20.1148L9.04885 18.1008ZM13.3326 12.4688L14.0279 11.7441L16.82 14.4129L16.2848 14.9647L14.5337 13.2891L14.5153 13.3093L15.9868 15.2719L15.5582 15.717L13.5386 14.3467L13.5203 14.3669L15.2713 16.0407L14.736 16.5925L11.9458 13.92L12.6392 13.1953L14.9476 14.7146L13.3326 12.4688ZM15.4148 11.47C15.2455 11.2566 15.0119 10.9072 15.4368 10.5724L15.939 10.1751C16.362 9.84035 16.6489 10.1494 16.8163 10.359L18.3558 12.3087C18.5232 12.5221 18.7568 12.8716 18.3338 13.2063L17.8316 13.611C17.4067 13.9457 17.1217 13.6367 16.9543 13.427L15.4148 11.47ZM16.1247 10.7343C16.1148 10.7199 16.1019 10.7078 16.087 10.6987C16.0721 10.6896 16.0554 10.6838 16.0381 10.6815C16.0207 10.6792 16.0031 10.6807 15.9864 10.6856C15.9696 10.6906 15.9541 10.699 15.9408 10.7104C15.9278 10.7205 15.9171 10.7332 15.9093 10.7477C15.9014 10.7622 15.8967 10.7781 15.8953 10.7945C15.8939 10.8109 15.8959 10.8274 15.9012 10.843C15.9065 10.8586 15.915 10.8729 15.9261 10.8851L17.6367 13.05C17.6458 13.0637 17.6577 13.0754 17.6716 13.0842C17.6855 13.093 17.7011 13.0989 17.7174 13.1013C17.7337 13.1037 17.7503 13.1027 17.7662 13.0983C17.7821 13.0939 17.7968 13.0862 17.8096 13.0757C17.8222 13.0654 17.8327 13.0527 17.8404 13.0383C17.8481 13.0239 17.8529 13.0081 17.8544 12.9918C17.8559 12.9756 17.8542 12.9592 17.8494 12.9436C17.8445 12.928 17.8366 12.9135 17.8261 12.901L16.1247 10.7343ZM17.3424 9.15428L18.3724 8.51236C18.8304 8.22542 19.0805 8.56386 19.224 8.79378L19.842 9.78701C19.9836 10.0169 20.1786 10.3903 19.7188 10.6754L19.3509 10.909L20.0443 12.0236L19.3895 12.432L17.3424 9.15428ZM19.2038 10.4841C19.2755 10.4418 19.2884 10.348 19.224 10.245L18.5306 9.13037C18.4662 9.02737 18.3761 8.99794 18.3062 9.04209L18.2216 9.09543L19.121 10.5375L19.2038 10.4841ZM22.8438 9.74839C22.9597 9.99302 23.1105 10.3848 22.6231 10.6184L22.0455 10.8924C21.5563 11.126 21.3466 10.7619 21.2307 10.5246L20.1676 8.27693C20.0499 8.03413 19.9009 7.64052 20.3883 7.40692L20.9658 7.13286C21.4551 6.89927 21.6648 7.26346 21.7807 7.50073L22.0161 7.99367L21.319 8.32659L21.0247 7.70857C21.0179 7.69359 21.0083 7.68009 20.9963 7.66884C20.9843 7.65759 20.9703 7.64881 20.9549 7.643C20.9395 7.63719 20.9232 7.63447 20.9067 7.63499C20.8903 7.63551 20.8741 7.63927 20.8592 7.64604C20.8442 7.65302 20.8309 7.66303 20.82 7.67542C20.8091 7.68781 20.8009 7.70233 20.7959 7.71805C20.7908 7.73377 20.7891 7.75036 20.7909 7.76678C20.7926 7.78319 20.7977 7.79907 20.8058 7.81342L21.9903 10.3002C21.9965 10.3154 22.0057 10.3293 22.0175 10.3408C22.0292 10.3523 22.0432 10.3613 22.0586 10.3672C22.0739 10.373 22.0903 10.3757 22.1068 10.3749C22.1232 10.3741 22.1393 10.37 22.154 10.3627C22.169 10.3557 22.1823 10.3457 22.1932 10.3334C22.2042 10.321 22.2125 10.3066 22.2176 10.2909C22.2228 10.2752 22.2247 10.2587 22.2233 10.2423C22.2218 10.2258 22.217 10.2099 22.2092 10.1953L21.8653 9.47433L22.5642 9.14141L22.8438 9.74839ZM22.5679 6.4376L23.3036 6.18561L23.8444 7.7564L23.8701 7.7472L23.5685 6.09181L24.3042 5.84166L24.5268 7.72513L25.6304 9.47249L24.8946 9.72264L24.0026 8.15185H23.9768L24.5544 9.833L23.8186 10.085L22.5679 6.4376ZM25.5494 6.20584C25.4906 5.94282 25.4317 5.52529 25.9615 5.40942L26.585 5.27147C27.1129 5.15375 27.2379 5.55656 27.2968 5.82327L27.8357 8.2475C27.8946 8.51052 27.9534 8.92805 27.4237 9.04392L26.8002 9.18371C26.2723 9.29959 26.1472 8.89862 26.0884 8.63192L25.5494 6.20584ZM26.5114 5.85269C26.5083 5.83672 26.5021 5.82152 26.4931 5.80796C26.4841 5.7944 26.4726 5.78275 26.4591 5.77369C26.4456 5.76463 26.4304 5.75833 26.4144 5.75516C26.3985 5.75198 26.382 5.752 26.3661 5.75521C26.3499 5.75815 26.3344 5.76448 26.3208 5.77379C26.3071 5.78309 26.2956 5.79516 26.2869 5.80921C26.2782 5.82326 26.2726 5.83898 26.2704 5.85534C26.2682 5.87171 26.2695 5.88835 26.2741 5.90419L26.8738 8.59697C26.8761 8.61334 26.8819 8.62904 26.8906 8.64308C26.8994 8.65712 26.911 8.66919 26.9246 8.67852C26.9383 8.68786 26.9537 8.69426 26.97 8.69732C26.9862 8.70037 27.0029 8.70003 27.0191 8.69629C27.0512 8.68845 27.079 8.66817 27.0962 8.63989C27.1135 8.61162 27.1188 8.57766 27.111 8.54547L26.5114 5.85269ZM28.3103 4.9551L29.0791 4.87601L29.2814 6.79075H29.309L29.4267 4.8429L30.1956 4.76381L30.5965 8.60433L29.8332 8.68158L29.6327 6.76684H29.6052L29.4874 8.71469L28.7186 8.79562L28.3103 4.9551ZM29.0313 4.10533L29.046 4.23593C29.0474 4.2541 29.0524 4.2718 29.0608 4.28797C29.0692 4.30413 29.0808 4.31841 29.0949 4.32994C29.1091 4.34147 29.1254 4.35 29.1429 4.35503C29.1604 4.36005 29.1787 4.36146 29.1968 4.35916C29.2151 4.35807 29.2329 4.35321 29.2492 4.34488C29.2655 4.33655 29.2799 4.32493 29.2915 4.31076C29.3031 4.29659 29.3116 4.28017 29.3165 4.26254C29.3214 4.24491 29.3226 4.22646 29.3201 4.20834L29.3072 4.07591L29.9491 4.00969L29.962 4.14212C29.9804 4.30582 29.9822 4.58908 29.5261 4.6369L28.9283 4.6976C28.4776 4.74542 28.4206 4.46216 28.4041 4.30214L28.3894 4.17155L29.0313 4.10533ZM33.3096 4.73622L34.5198 4.83739C35.0588 4.88337 35.0569 5.30274 35.033 5.57312L34.9355 6.73741C34.9134 7.00779 34.8454 7.42348 34.3065 7.3775L33.8669 7.34071L33.7565 8.65031L32.9858 8.58593L33.3096 4.73622ZM34.0011 6.92686C34.0839 6.92686 34.1501 6.86616 34.1593 6.74293L34.2697 5.43517C34.2807 5.31377 34.2255 5.23836 34.1428 5.231L34.0434 5.22181L33.9018 6.91582L34.0011 6.92686ZM36.2083 5.04707L37.7478 5.34136L37.6669 5.75889L36.887 5.6099L36.6608 6.78523L37.4407 6.93422L37.3745 7.35726L36.5946 7.20828L36.3316 8.57306L37.1446 8.7294L37.0636 9.14693L35.4928 8.84528L36.2083 5.04707ZM38.8294 5.61358L40.2401 6.03295L40.1335 6.4376L39.4621 6.23711L38.4781 9.53502L37.7423 9.31431L38.8294 5.61358ZM41.2849 6.39713L41.9967 6.69694L41.261 8.47189L41.2849 8.48293L42.3278 6.82754L43.0396 7.12735L41.5424 10.6883L40.8306 10.3903L41.5773 8.61352L41.5516 8.60249L40.5105 10.2579L39.7969 9.95991L41.2849 6.39713ZM44.0862 11.2953C43.9519 11.5307 43.7183 11.8802 43.2474 11.6135L42.6956 11.3008C42.2248 11.0341 42.4013 10.6533 42.5338 10.4179L43.7514 8.25485C43.8838 8.01942 44.1193 7.66995 44.5883 7.93481L45.1401 8.24934C45.611 8.5142 45.4344 8.89678 45.3001 9.13221L45.0334 9.60676L44.3639 9.22786L44.6987 8.63192C44.7073 8.6181 44.713 8.6027 44.7155 8.58662C44.718 8.57055 44.7173 8.55413 44.7134 8.53834C44.7094 8.52256 44.7023 8.50773 44.6925 8.49473C44.6827 8.48174 44.6704 8.47084 44.6564 8.4627C44.6422 8.45411 44.6263 8.44858 44.6099 8.44644C44.5934 8.4443 44.5767 8.44561 44.5608 8.45028C44.5449 8.45495 44.5301 8.46288 44.5174 8.47357C44.5048 8.48426 44.4944 8.49747 44.4871 8.51236L43.1352 10.9164C43.1261 10.9303 43.12 10.9459 43.1173 10.9623C43.1147 10.9787 43.1154 10.9955 43.1196 11.0116C43.1237 11.0277 43.1312 11.0428 43.1415 11.0558C43.1518 11.0689 43.1647 11.0796 43.1794 11.0874C43.1937 11.0951 43.2095 11.0999 43.2257 11.1014C43.2419 11.103 43.2582 11.1014 43.2738 11.0966C43.2894 11.0918 43.3038 11.084 43.3164 11.0735C43.3289 11.0631 43.3392 11.0503 43.3468 11.0359L43.7385 10.3388L44.4117 10.7177L44.0862 11.2953ZM46.7054 9.74839L46.3375 9.47801L46.5711 9.12486L47.9579 10.1163L47.7096 10.4602L47.3418 10.1917L45.3406 12.9874L44.7134 12.5368L46.7054 9.74839ZM48.8206 10.8115L49.7255 11.619C50.1302 11.9868 49.8745 12.3142 49.6943 12.5166L48.9162 13.3884C48.7323 13.5907 48.4325 13.8814 48.0278 13.5208L47.6986 13.2284L46.8249 14.2069L46.2492 13.6937L48.8206 10.8115ZM48.0573 12.9764C48.118 13.0316 48.2118 13.0187 48.2927 12.9286L49.1664 11.9482C49.2473 11.8581 49.2492 11.7643 49.1885 11.7091L49.113 11.6429L47.9819 12.9102L48.0573 12.9764ZM50.831 17.6115C50.6176 17.777 50.2645 18.0051 49.9352 17.5784L49.5434 17.0707C49.2124 16.6422 49.5251 16.3608 49.7384 16.1952L51.7065 14.6796C51.9199 14.5141 52.273 14.2842 52.6022 14.7127L52.994 15.2204C53.3233 15.6489 53.0124 15.9304 52.7972 16.0959L52.365 16.4288L51.8923 15.8182L52.4349 15.3988C52.4482 15.3893 52.4594 15.3773 52.4679 15.3634C52.4764 15.3494 52.4821 15.334 52.4845 15.3178C52.4869 15.3017 52.486 15.2852 52.4819 15.2694C52.4778 15.2536 52.4706 15.2388 52.4606 15.2259C52.4507 15.2127 52.4383 15.2016 52.4239 15.1935C52.4096 15.1853 52.3937 15.1802 52.3773 15.1784C52.3609 15.1767 52.3443 15.1784 52.3285 15.1834C52.3128 15.1884 52.2983 15.1966 52.2859 15.2075L50.1026 16.8831C50.0889 16.8925 50.0773 16.9045 50.0684 16.9185C50.0595 16.9325 50.0536 16.9482 50.051 16.9645C50.0484 16.9809 50.0492 16.9976 50.0534 17.0137C50.0575 17.0297 50.0648 17.0448 50.075 17.0579C50.0852 17.0707 50.0978 17.0813 50.1122 17.0892C50.1265 17.097 50.1423 17.102 50.1585 17.1037C50.1748 17.1054 50.1912 17.1038 50.2069 17.0991C50.2225 17.0944 50.2371 17.0867 50.2497 17.0763L50.8843 16.587L51.3533 17.1995L50.831 17.6115ZM51.1363 18.5312L51.2025 18.6397C51.3515 18.8843 51.4803 18.8236 51.5943 18.7758L51.7893 18.6838L53.9542 16.5539L54.3754 17.2528L52.8726 18.4558L52.8873 18.4797L54.6071 17.6354L55.0136 18.3068L51.975 19.4563C51.3681 19.6881 51.186 19.4416 51.0186 19.1639L50.7721 18.7574L51.1363 18.5312ZM53.1798 22.425L53.2423 22.5667L52.2233 23.0283L51.9346 22.3956L52.5691 22.1087L52.2325 21.3729L51.5998 21.6617L51.3129 21.0271L52.3319 20.5655L52.3484 20.6004C52.4349 20.7843 52.6611 20.7016 52.7917 20.6427L55.5709 19.3809L56.3066 21.0087L53.1798 22.425ZM53.04 21.3729C52.9918 21.402 52.9378 21.4201 52.8819 21.4258C52.8259 21.4315 52.7693 21.4248 52.7163 21.406L52.8597 21.7224L55.604 20.4772L55.5029 20.2565L53.04 21.3729ZM56.1117 22.4177C56.3692 22.3367 56.7775 22.2337 56.9412 22.7561L57.1343 23.3668C57.298 23.8818 56.9081 24.0399 56.6506 24.1227L54.2834 24.8713C54.0259 24.9541 53.6157 25.0553 53.452 24.5329L53.2589 23.9241C53.097 23.4072 53.487 23.249 53.7445 23.1681L56.1117 22.4177ZM56.5494 23.3373C56.5651 23.3327 56.5796 23.325 56.5923 23.3147C56.6049 23.3044 56.6154 23.2917 56.6231 23.2774C56.6308 23.263 56.6355 23.2472 56.6371 23.231C56.6387 23.2148 56.637 23.1984 56.6322 23.1828C56.628 23.1669 56.6203 23.152 56.6099 23.1392C56.5994 23.1264 56.5864 23.116 56.5716 23.1087C56.5568 23.1014 56.5406 23.0974 56.5241 23.0968C56.5075 23.0963 56.4911 23.0993 56.4759 23.1056L53.8456 23.9388C53.8295 23.9427 53.8145 23.95 53.8013 23.9601C53.7882 23.9702 53.7773 23.9829 53.7694 23.9974C53.7614 24.012 53.7566 24.028 53.7551 24.0445C53.7537 24.061 53.7557 24.0776 53.761 24.0933C53.7662 24.1088 53.7744 24.1232 53.7852 24.1356C53.796 24.1479 53.8091 24.158 53.8239 24.1651C53.8386 24.1723 53.8546 24.1765 53.871 24.1775C53.8874 24.1784 53.9038 24.176 53.9192 24.1705L56.5494 23.3373ZM55.799 25.7045L57.5831 24.9688L57.734 25.7376L56.4464 26.1644V26.192L57.8057 26.1L57.9565 26.8688H56.0271L54.1712 27.6377L54.0185 26.8633L55.3465 26.4127V26.3851L53.945 26.4697L53.7941 25.6953L55.799 25.7045ZM57.4231 28.0221C57.6917 28 58.1129 27.9982 58.1588 28.5371L58.2103 29.1753C58.2545 29.7143 57.8425 29.7823 57.5703 29.8044L55.0945 30.0067C54.8241 30.0288 54.4029 30.0288 54.3588 29.4899L54.3073 28.8516C54.2632 28.3127 54.6752 28.2465 54.9492 28.2244L57.4231 28.0221ZM57.642 29.0227C57.6745 29.0203 57.7048 29.0053 57.7265 28.981C57.7481 28.9566 57.7594 28.9247 57.7579 28.8921C57.757 28.8755 57.7527 28.8593 57.7453 28.8445C57.7378 28.8297 57.7273 28.8166 57.7145 28.806C57.7017 28.7955 57.6869 28.7877 57.6709 28.7832C57.6549 28.7787 57.6382 28.7776 57.6218 28.7799L54.8628 29.0043C54.8462 29.0047 54.8298 29.0086 54.8148 29.0156C54.7997 29.0226 54.7862 29.0326 54.7752 29.045C54.7642 29.0574 54.7558 29.072 54.7506 29.0877C54.7454 29.1035 54.7435 29.1202 54.7451 29.1367C54.7467 29.1529 54.7515 29.1687 54.7592 29.183C54.7669 29.1974 54.7774 29.21 54.7901 29.2203C54.8027 29.2306 54.8173 29.2382 54.8329 29.2428C54.8486 29.2474 54.865 29.2489 54.8812 29.2471L57.642 29.0227ZM54.7726 32.7951V32.9496L53.6525 32.9092L53.6782 32.2139L54.3735 32.2397L54.4029 31.4285L53.7077 31.4028L53.7334 30.7075L54.8536 30.7498V30.7884C54.8536 30.9981 55.0872 31.0184 55.2306 31.0239L58.2802 31.1361L58.2159 32.9239L54.7726 32.7951ZM55.1184 31.7927C55.0621 31.7971 55.0056 31.789 54.9528 31.769C54.9 31.749 54.8523 31.7175 54.8131 31.6768L54.8002 32.0245L57.8112 32.1348L57.8204 31.8939L55.1184 31.7927ZM54.6715 35.4714C54.4048 35.4291 53.9965 35.3316 54.0792 34.7963L54.1785 34.1636C54.2613 33.6302 54.6807 33.6615 54.9474 33.7038L57.401 34.09C57.6677 34.1323 58.0761 34.2317 57.9933 34.7651L57.894 35.3978C57.8112 35.933 57.3918 35.8999 57.1251 35.8576L56.5844 35.773L56.7039 35.0097L57.3808 35.1164C57.4132 35.1217 57.4464 35.1141 57.4733 35.0952C57.5001 35.0763 57.5184 35.0475 57.5243 35.0152C57.5271 34.9989 57.5266 34.9822 57.5227 34.9662C57.5188 34.9501 57.5116 34.9351 57.5016 34.9219C57.4916 34.9088 57.4789 34.8979 57.4645 34.8899C57.45 34.8819 57.4341 34.8769 57.4176 34.8754L54.6917 34.4469C54.6757 34.4431 54.6591 34.4428 54.6429 34.4459C54.6268 34.4489 54.6115 34.4554 54.598 34.4647C54.5844 34.4741 54.573 34.4861 54.5645 34.5002C54.5559 34.5142 54.5504 34.5299 54.5482 34.5462C54.5459 34.5624 54.5469 34.5789 54.551 34.5947C54.5551 34.6106 54.5623 34.6254 54.5723 34.6385C54.5822 34.6515 54.5946 34.6624 54.6088 34.6705C54.623 34.6787 54.6387 34.6839 54.6549 34.686L55.4458 34.811L55.3263 35.5744L54.6715 35.4714ZM57.0424 37.3824L57.1638 36.9336L57.5739 37.0458L57.1307 38.6865L56.7205 38.5743L56.8419 38.1273L53.5311 37.2298L53.7334 36.483L57.0424 37.3824ZM56.7849 39.7386L56.3434 40.8698C56.1466 41.3719 55.7438 41.2505 55.4918 41.153L54.9161 40.9268C54.8473 40.9084 54.7836 40.8748 54.7295 40.8285C54.6755 40.7822 54.6326 40.7243 54.604 40.6591C54.5754 40.5939 54.5618 40.5231 54.5642 40.452C54.5667 40.3808 54.5851 40.3111 54.6181 40.2481L54.5832 40.2334C54.5672 40.3039 54.5349 40.3696 54.4889 40.4253C54.4428 40.481 54.3843 40.5252 54.3181 40.5541C54.2519 40.5831 54.1798 40.5962 54.1077 40.5922C54.0355 40.5883 53.9653 40.5674 53.9026 40.5313L53.178 40.2481C52.9278 40.1488 52.5489 39.9667 52.7457 39.4627L53.189 38.3315L56.7849 39.7386ZM53.2662 39.299C53.2368 39.3763 53.281 39.459 53.3932 39.5032L54.2926 39.8545C54.4066 39.8986 54.4949 39.8674 54.5262 39.7901L54.5611 39.6981L53.303 39.2052L53.2662 39.299ZM54.9216 39.9446C54.8904 40.0219 54.9345 40.1046 55.0485 40.1488L55.8395 40.4596C55.9535 40.5038 56.0418 40.4725 56.0712 40.3952L56.108 40.3033L54.9566 39.8526L54.9216 39.9446ZM55.4937 42.7606L54.9253 43.8329L51.3221 42.3817L51.6771 41.7122L52.617 42.1297L52.788 41.8078L51.9143 41.256L52.2675 40.5865L55.4937 42.7606ZM53.0087 42.3045L54.7837 43.0935L54.8039 43.0549L53.1485 42.0322L53.0087 42.3045ZM27.9019 54.0191C27.7788 54.0792 27.6435 54.11 27.5065 54.1093L27.6003 53.5446C27.7244 53.5491 27.8464 53.5115 27.9465 53.4381C28.0466 53.3647 28.1191 53.2596 28.1521 53.1399L28.805 53.2466L28.1778 57.0614L27.4145 56.9363L27.9019 54.0191ZM30.4016 56.0424L30.363 56.7266C30.3602 56.7435 30.361 56.7607 30.3653 56.7772C30.3696 56.7938 30.3774 56.8092 30.3881 56.8225C30.3987 56.8358 30.4121 56.8467 30.4273 56.8545C30.4425 56.8623 30.4592 56.8668 30.4762 56.8677C30.4933 56.8686 30.5103 56.8659 30.5263 56.8598C30.5422 56.8537 30.5567 56.8442 30.5687 56.8321C30.5808 56.82 30.5901 56.8055 30.5962 56.7896C30.6023 56.7736 30.6049 56.7565 30.6039 56.7395L30.6756 55.5163C30.5026 55.6486 30.2901 55.7186 30.0723 55.715C30.0121 55.7137 29.9528 55.6992 29.8986 55.6726C29.8445 55.646 29.7969 55.6079 29.759 55.5609C29.7212 55.514 29.6941 55.4593 29.6796 55.4008C29.665 55.3422 29.6635 55.2812 29.675 55.222L29.7431 54.0651C29.7597 53.7947 29.8167 53.379 30.3556 53.4085L30.9957 53.4453C31.5346 53.4765 31.5475 53.8977 31.5273 54.1663L31.3801 56.6512C31.3654 56.9216 31.3065 57.3391 30.7676 57.3078L30.1275 57.2711C29.5886 57.2398 29.5757 56.8204 29.596 56.55L29.6272 55.9982L30.4016 56.0424ZM30.4549 55.1448C30.4521 55.1616 30.4528 55.1788 30.457 55.1953C30.4613 55.2118 30.4689 55.2272 30.4795 55.2406C30.4901 55.2539 30.5034 55.2649 30.5185 55.2728C30.5336 55.2806 30.5502 55.2852 30.5672 55.2863C30.5842 55.2873 30.6012 55.2848 30.6172 55.2788C30.6332 55.2728 30.6477 55.2635 30.6598 55.2516C30.6719 55.2396 30.6814 55.2252 30.6876 55.2094C30.6939 55.1935 30.6967 55.1765 30.6959 55.1595L30.7639 53.986C30.7663 53.9697 30.7651 53.953 30.7606 53.9372C30.7561 53.9213 30.7483 53.9066 30.7377 53.8939C30.7271 53.8812 30.714 53.8709 30.6992 53.8637C30.6844 53.8564 30.6682 53.8524 30.6517 53.8517C30.6353 53.8505 30.6187 53.8526 30.6032 53.8581C30.5876 53.8635 30.5733 53.8721 30.5612 53.8833C30.5491 53.8946 30.5394 53.9082 30.5329 53.9233C30.5263 53.9385 30.5229 53.9548 30.523 53.9713L30.4549 55.1448ZM32.9362 54.3576C32.828 54.4419 32.7023 54.501 32.5683 54.5305L32.5389 53.9566C32.6627 53.9358 32.7757 53.8735 32.8593 53.7799C32.9429 53.6863 32.9921 53.5669 32.9987 53.4416L33.6609 53.4085L33.8577 57.2711L33.0852 57.3097L32.9362 54.3576ZM35.8184 55.8014L35.9269 56.4765C35.9281 56.4932 35.9327 56.5096 35.9405 56.5245C35.9483 56.5394 35.9591 56.5525 35.9722 56.563C35.9853 56.5735 36.0005 56.5811 36.0167 56.5855C36.0329 56.5898 36.0499 56.5907 36.0665 56.5882C36.0831 56.5856 36.099 56.5797 36.1132 56.5706C36.1274 56.5616 36.1395 56.5498 36.1489 56.5358C36.1582 56.5218 36.1646 56.5061 36.1675 56.4895C36.1705 56.473 36.17 56.456 36.166 56.4397L36.006 55.4409C35.9876 55.3214 35.9453 55.1945 35.6621 55.2386L35.548 55.257L35.48 54.8376L35.605 54.8174C35.8993 54.7714 35.8773 54.6335 35.8552 54.4882L35.7191 53.7083C35.7179 53.6915 35.7133 53.6752 35.7055 53.6603C35.6977 53.6454 35.6869 53.6323 35.6738 53.6218C35.6607 53.6113 35.6455 53.6036 35.6293 53.5993C35.6131 53.5949 35.5961 53.594 35.5795 53.5966C35.5629 53.5991 35.547 53.6051 35.5328 53.6141C35.5186 53.6231 35.5065 53.635 35.4971 53.649C35.4878 53.6629 35.4814 53.6787 35.4785 53.6952C35.4755 53.7118 35.476 53.7287 35.48 53.7451L35.5756 54.3447L34.8123 54.4661L34.7387 54.0026C34.6964 53.7359 34.6633 53.3165 35.1967 53.2319L35.8294 53.1326C36.3628 53.048 36.4622 53.4563 36.5045 53.723L36.5964 54.2969C36.6164 54.3656 36.6204 54.4379 36.608 54.5084C36.5957 54.5789 36.5675 54.6456 36.5254 54.7035C36.4833 54.7613 36.4286 54.8088 36.3653 54.8423C36.3021 54.8757 36.232 54.8943 36.1605 54.8965V54.9333C36.2293 54.9113 36.3022 54.9059 36.3735 54.9174C36.4448 54.9289 36.5123 54.957 36.5707 54.9994C36.6291 55.0419 36.6767 55.0974 36.7096 55.1617C36.7425 55.2259 36.7598 55.297 36.7601 55.3692L36.8889 56.1767C36.9312 56.4434 36.9643 56.8627 36.4309 56.9473L35.7982 57.0467C35.2648 57.1313 35.1654 56.7229 35.1231 56.4562L35.0367 55.9155L35.8184 55.8014Z" fill="#A0A0A0"/>
</g>
</g>
</g>
<defs>
<clipPath id="clip0_177_8373">
<rect width="62.0441" height="62" fill="white" transform="translate(0.954956)"/>
</clipPath>
</defs>
</svg>
