<svg width="338" height="62" viewBox="0 0 338 62" fill="none" xmlns="http://www.w3.org/2000/svg">
<g clip-path="url(#clip0_177_8359)">
<path d="M89.4945 30.4976C89.4945 35.9328 85.3082 40.3189 79.9529 40.3189H75.0023V50.2201H69.4473V20.7213H79.9579C85.3132 20.7213 89.4995 25.1024 89.4995 30.4976H89.4945ZM83.9394 30.4976C83.9394 28.0548 82.2059 26.1565 79.9529 26.1565H75.0023V34.8787H79.9529C82.2059 34.8787 83.9394 32.9405 83.9394 30.4976Z" fill="#A0A0A0"/>
<path d="M91.5469 35.4685C91.5469 26.8311 98.0311 20.1271 106.164 20.1271C114.297 20.1271 120.821 26.8261 120.821 35.4685C120.821 44.1108 114.297 50.8098 106.164 50.8098C98.0311 50.8098 91.5469 44.0658 91.5469 35.4685ZM115.266 35.4685C115.266 29.7785 111.279 25.7771 106.164 25.7771C101.048 25.7771 97.062 29.7835 97.062 35.4685C97.062 41.1534 101.048 45.1199 106.164 45.1199C111.279 45.1199 115.266 41.1134 115.266 35.4685Z" fill="#A0A0A0"/>
<path d="M123.039 35.4685C123.039 26.8311 129.159 20.1271 137.696 20.1271C144.38 20.1271 150.06 24.718 151.389 31.2522H145.549C144.54 27.9202 141.403 25.7721 137.696 25.7721C132.181 25.7721 128.554 29.7785 128.554 35.4635C128.554 41.1484 132.181 45.1149 137.696 45.1149C141.403 45.1149 144.54 43.0068 145.549 39.6797H151.389C150.06 46.169 144.42 50.8048 137.696 50.8048C129.159 50.8048 123.039 44.0608 123.039 35.4635V35.4685Z" fill="#A0A0A0"/>
<path d="M181.792 50.2201H176.277V30.4127L170.038 45.4993H166.011L159.772 30.4127V50.2201H154.217V20.7213H160.541L168.03 38.7603L175.478 20.7213H181.802V50.2201H181.792Z" fill="#A0A0A0"/>
<path d="M185.336 35.4685C185.336 26.8311 191.82 20.1271 199.953 20.1271C208.086 20.1271 214.61 26.8261 214.61 35.4685C214.61 44.1108 208.086 50.8098 199.953 50.8098C191.82 50.8098 185.336 44.0658 185.336 35.4685ZM209.055 35.4685C209.055 29.7785 205.068 25.7771 199.953 25.7771C194.838 25.7771 190.851 29.7835 190.851 35.4685C190.851 41.1534 194.838 45.1199 199.953 45.1199C205.068 45.1199 209.055 41.1134 209.055 35.4685Z" fill="#A0A0A0"/>
<path d="M238.168 30.4976C238.168 35.9328 233.982 40.3189 228.627 40.3189H223.676V50.2201H218.121V20.7213H228.632C233.987 20.7213 238.173 25.1024 238.173 30.4976H238.168ZM232.613 30.4976C232.613 28.0548 230.88 26.1565 228.627 26.1565H223.676V34.8787H228.627C230.88 34.8787 232.613 32.9405 232.613 30.4976Z" fill="#A0A0A0"/>
<path d="M261.846 50.2201H256.291V26.2814H246.95V50.2151H241.395V20.7213H261.851V50.2201H261.846Z" fill="#A0A0A0"/>
<path d="M265.389 35.4685C265.389 26.8311 271.873 20.1271 280.006 20.1271C288.138 20.1271 294.663 26.8261 294.663 35.4685C294.663 44.1108 288.138 50.8098 280.006 50.8098C271.873 50.8098 265.389 44.0658 265.389 35.4685ZM289.108 35.4685C289.108 29.7785 285.121 25.7771 280.006 25.7771C274.89 25.7771 270.904 29.7835 270.904 35.4685C270.904 41.1534 274.89 45.1199 280.006 45.1199C285.121 45.1199 289.108 41.1134 289.108 35.4685Z" fill="#A0A0A0"/>
<path d="M318.221 30.4976C318.221 35.9328 314.035 40.3189 308.679 40.3189H303.729V50.2201H298.174V20.7213H308.684C314.04 20.7213 318.226 25.1024 318.226 30.4976H318.221ZM312.666 30.4976C312.666 28.0548 310.932 26.1565 308.679 26.1565H303.729V34.8787H308.679C310.932 34.8787 312.666 32.9405 312.666 30.4976Z" fill="#A0A0A0"/>
<path d="M337.955 26.2815H331.151V50.2152H325.596V26.2815H318.832V20.7164H337.955V26.2815Z" fill="#A0A0A0"/>
<path d="M44.6004 44.1358C41.0935 48.417 36.1329 51.3494 30.5229 52.0838V40.6539H24.9778V52.0838C19.3728 51.3494 14.4172 48.427 10.9103 44.1558L13.4281 40.6539H2.31295C5.99468 49.4711 13.7378 56.0003 23.0695 57.6588L27.7454 62L32.4212 57.6588C41.7529 56.0003 49.496 49.4661 53.1778 40.6539H42.0926L44.5954 44.1358H44.6004ZM27.7454 0C12.424 0 0 13.0035 0 29.0392C0 31.0275 0.199823 32.9707 0.564499 34.8491H54.9312C55.2959 32.9707 55.4957 31.0325 55.4957 29.0392C55.4957 13.0035 43.0718 0 27.7454 0ZM27.5955 5.80984H27.8752C28.6895 6.68407 32.0116 10.4907 34.3195 16.5803C32.1664 16.7901 29.9634 16.9 27.7404 16.9C25.5173 16.9 23.3243 16.7901 21.1762 16.5803C23.4792 10.5157 26.7812 6.69406 27.6005 5.80984H27.5955ZM13.3132 29.0392H5.55007C5.55007 25.7072 6.23446 22.54 7.44339 19.6725C9.52155 20.3569 11.7296 20.9314 14.0325 21.391C13.5829 23.7589 13.3132 26.3116 13.3132 29.0392ZM10.4257 14.5471C12.7687 11.4898 15.8259 9.06196 19.3428 7.5483C18.009 9.75134 16.6252 12.5139 15.5162 15.776C13.7528 15.4363 12.0493 15.0267 10.4257 14.5471ZM18.8632 29.0392C18.8632 26.6164 19.123 24.3484 19.5426 22.2453C22.2153 22.55 24.9678 22.7098 27.7354 22.7098C30.5029 22.7098 33.2605 22.55 35.9381 22.2453C36.3527 24.3434 36.6075 26.6114 36.6125 29.0392H18.8632ZM36.1279 7.53831C39.6498 9.04697 42.7221 11.4748 45.07 14.5421C43.4414 15.0267 41.7329 15.4363 39.9595 15.776C38.8505 12.5089 37.4567 9.74135 36.1229 7.53831H36.1279ZM42.1626 29.0392C42.1626 26.3116 41.8878 23.7589 41.4432 21.391C43.7512 20.9314 45.9642 20.3519 48.0473 19.6675C49.2613 22.535 49.9457 25.7022 49.9457 29.0392H42.1626Z" fill="#A0A0A0"/>
</g>
<defs>
<clipPath id="clip0_177_8359">
<rect width="337.955" height="62" fill="white"/>
</clipPath>
</defs>
</svg>
