<svg width="378" height="62" viewBox="0 0 378 62" fill="none" xmlns="http://www.w3.org/2000/svg">
<g clip-path="url(#clip0_177_8513)">
<path d="M50.7341 8.26166H9.0315L12.0357 0H53.7383L50.7341 8.26166ZM49.232 12.3925H7.5106L4.50636 20.6541H46.209L49.2132 12.3925H49.232ZM44.7256 24.785H3.00424L0 33.0466H41.7026L44.7068 24.785H44.7256Z" fill="#A0A0A0"/>
<path d="M150.1 53.6819H157.573C160.409 53.6819 162.117 52.9871 163.319 51.4475C163.92 50.6776 164.784 49.3069 164.784 46.7346C164.784 44.1622 163.92 42.3596 162.211 41.0641C161.179 40.2942 159.808 39.8624 157.498 39.8624H150.119V53.6819H150.1ZM140.224 61.9999V12.4111H172.501L169.666 20.7291H150.1V31.7134H158.08C164.521 31.7134 167.863 33.253 170.172 35.2246C171.975 36.7643 175.073 40.2004 175.073 46.9787C175.073 53.757 171.9 57.3621 169.234 59.2585C166.136 61.399 162.887 61.9999 156.278 61.9999H140.224ZM111.646 61.9999V20.7291H97.3197V12.4111H137.145L134.309 20.7291H121.616V62.0186H111.665L111.646 61.9999ZM71.9151 32.2203H77.4917C79.2003 32.2203 80.0641 32.2203 80.9278 31.9575C83.2373 31.2627 84.7019 29.2161 84.7019 26.3808C84.7019 23.0386 83.1622 21.5741 80.9278 20.8793C79.9889 20.6165 79.0313 20.5414 77.1537 20.5414H71.9151V32.2203ZM72.0089 40.8012V53.8509H78.8811C80.9465 53.8509 82.8242 53.6819 84.1949 52.3863C85.5656 51.0907 86.1664 49.4759 86.1664 47.3166C86.1664 45.6831 85.7346 44.1434 84.8708 43.0168C83.4063 41.2143 81.6037 40.7824 78.5244 40.7824H72.0089V40.8012ZM87.8939 35.5626V35.7315C89.7903 36.4263 91.5928 37.628 92.5317 38.3978C95.442 40.8012 96.7376 43.9744 96.7376 48.1053C96.7376 54.8836 93.1325 59.7842 87.2179 61.3239C85.4154 61.8309 83.5189 62.0186 80.0077 62.0186H62.0762V12.4111H77.9611C81.2282 12.4111 83.4626 12.5801 85.4341 13.1059C91.1797 14.6455 94.9538 18.6074 94.9538 24.86C94.9538 28.2022 93.7521 31.0374 91.7806 32.9338C90.9169 33.7976 89.7152 34.8303 87.9126 35.6001L87.8939 35.5626Z" fill="#A0A0A0"/>
<path d="M192.16 12.3179V18.7394L192.103 21.7812H192.16L193.061 19.9599L197.436 12.3179H200.478V24.8042H197.943V18.3639L197.999 15.3409H197.943L197.079 17.2373L192.667 24.8042H189.625V12.3179H192.16Z" fill="#A0A0A0"/>
<path d="M205.472 12.3179V17.35H210.542V12.3179H213.077V24.8042H210.542V19.3966H205.472V24.8042H202.938V12.3179H205.472Z" fill="#A0A0A0"/>
<path d="M221.094 23.3964H220.305C217.264 23.3964 215.123 21.2559 215.123 18.4019C215.123 15.5478 217.264 13.4073 220.305 13.4073H221.094V11.8301H223.629V13.4073H224.417C227.459 13.4073 229.6 15.5478 229.6 18.4019C229.6 21.2559 227.459 23.3964 224.417 23.3964H223.629V24.9736H221.094V23.3964ZM220.493 21.4249H221.094V15.3601H220.493C218.878 15.3601 217.808 16.4115 217.808 18.4019C217.808 20.3922 218.878 21.4436 220.493 21.4436V21.4249ZM224.248 15.3601H223.648V21.4249H224.248C225.863 21.4249 226.933 20.3546 226.933 18.3831C226.933 16.4115 225.863 15.3413 224.248 15.3413V15.3601Z" fill="#A0A0A0"/>
<path d="M235.307 12.3181C238.518 12.3181 240.133 13.9329 240.133 16.3363C240.133 18.9274 238.706 20.3545 235.307 20.3545H234.162V24.8233H231.627V12.3181H235.307ZM235.307 18.3829C236.734 18.3829 237.448 17.6694 237.448 16.3363C237.448 15.0032 236.734 14.2896 235.307 14.2896H234.162V18.4017H235.307V18.3829Z" fill="#A0A0A0"/>
<path d="M244.377 12.3181H247.231L252.057 24.8045H249.203L248.245 21.988H243.213L242.255 24.8045H239.57L244.396 12.3181H244.377ZM247.532 19.9414L245.729 14.6276H245.691L243.889 19.9414H247.532Z" fill="#A0A0A0"/>
<path d="M252.245 18.6459C252.245 14.3461 255.287 12.1868 259.211 12.1868C260.188 12.1868 261.033 12.3182 261.972 12.6186V14.7967C261.239 14.5151 260.432 14.2897 259.38 14.2897C256.583 14.2897 254.912 16.0547 254.912 18.6083C254.912 21.6313 256.939 22.8518 259.193 22.8518C260.451 22.8518 261.333 22.5138 261.953 22.2322V24.429C260.845 24.8046 259.718 24.9736 258.723 24.9736C255.625 24.9736 252.227 23.2086 252.227 18.6459H252.245Z" fill="#A0A0A0"/>
<path d="M272.69 12.3179V14.5335H269.085V24.823H266.55V14.5335H262.945V12.3179H272.69Z" fill="#A0A0A0"/>
<path d="M277.872 12.3179C281.082 12.3179 282.697 13.9326 282.697 16.336C282.697 18.9272 281.27 20.3542 277.872 20.3542H276.726V24.823H274.191V12.3179H277.872ZM277.872 18.3827C279.299 18.3827 280.012 17.6692 280.012 16.336C280.012 15.0029 279.299 14.2894 277.872 14.2894H276.726V18.4015H277.872V18.3827Z" fill="#A0A0A0"/>
<path d="M284.465 24.6357V22.6642C284.822 22.8332 285.273 22.9271 285.686 22.9271C286.474 22.9271 286.85 22.683 287.094 22.0821L287.451 21.2372L282.869 12.2996H285.704L288.183 17.6133L288.727 18.9277H288.784L289.328 17.5945L291.694 12.2996H294.191L289.197 22.9271C288.502 24.4104 287.563 24.9361 286.23 24.9361C285.648 24.9361 285.104 24.861 284.484 24.6169L284.465 24.6357Z" fill="#A0A0A0"/>
<path d="M297.945 12.3179V17.6504H298.001L302.508 12.3179H305.531L300.311 17.9696L305.85 24.8042H302.639L298.001 18.5892H297.945V24.8042H295.41V12.3179H297.945Z" fill="#A0A0A0"/>
<path d="M315.315 12.3179V14.5335H311.71V24.823H309.175V14.5335H305.57V12.3179H315.315Z" fill="#A0A0A0"/>
<path d="M317.155 24.6357V22.6642C317.511 22.8332 317.962 22.9271 318.375 22.9271C319.164 22.9271 319.539 22.683 319.783 22.0821L320.14 21.2372L315.559 12.2996H318.394L320.872 17.6133L321.417 18.9277H321.473L322.018 17.5945L324.384 12.2996H326.881L321.886 22.9271C321.192 24.4104 320.253 24.9361 318.92 24.9361C318.338 24.9361 317.793 24.861 317.173 24.6169L317.155 24.6357Z" fill="#A0A0A0"/>
<path d="M331.782 12.3179C334.993 12.3179 336.607 13.9326 336.607 16.336C336.607 18.9272 335.18 20.3542 331.782 20.3542H330.636V24.823H328.102V12.3179H331.782ZM331.782 18.3827C333.209 18.3827 333.922 17.6692 333.922 16.336C333.922 15.0029 333.209 14.2894 331.782 14.2894H330.636V18.4015H331.782V18.3827Z" fill="#A0A0A0"/>
<path d="M341.095 12.3179V17.35H346.165V12.3179H348.7V24.8042H346.165V19.3966H341.095V24.8042H338.561V12.3179H341.095Z" fill="#A0A0A0"/>
<path d="M351.195 12.3179H353.73V16.7867H355.27C358.668 16.7867 360.095 18.2137 360.095 20.8048C360.095 23.2082 358.481 24.823 355.27 24.823H351.195V12.3179ZM355.27 18.7394H353.73V22.8515H355.27C356.697 22.8515 357.41 22.138 357.41 20.8048C357.41 19.4717 356.697 18.7582 355.27 18.7582V18.7394ZM361.879 12.3179H364.414V24.8042H361.879V12.3179Z" fill="#A0A0A0"/>
<path d="M369.429 12.3181V18.7397L369.373 21.7815H369.429L370.331 19.9601L374.706 12.3181H377.747V24.8045H375.213V18.3641L375.269 15.3411H375.213L374.349 17.2376L369.936 24.8045H366.895V12.3181H369.429ZM369.429 8.9759L370.95 8.82568C371.044 9.6894 371.382 10.1588 372.283 10.1588C373.185 10.1588 373.541 9.67063 373.617 8.82568L375.137 8.9759C375.044 10.7409 373.786 11.5107 372.283 11.5107C370.781 11.5107 369.523 10.7409 369.429 8.9759Z" fill="#A0A0A0"/>
<path d="M191.839 32.9722L193.83 36.4458L194.393 37.4973H194.449L195.012 36.4458L197.059 32.9722H199.819L196.026 38.9243L200.195 45.4585H197.19L194.806 41.4967L194.261 40.5391H194.205L193.661 41.4967L191.182 45.4585H188.422L192.59 38.9243L188.797 32.9722H191.802H191.839Z" fill="#A0A0A0"/>
<path d="M212.305 39.2248C212.305 43.75 209.263 45.6088 206.184 45.6088C203.104 45.6088 200.062 43.75 200.062 39.2248C200.062 34.6997 203.104 32.8408 206.184 32.8408C209.263 32.8408 212.305 34.6997 212.305 39.2248ZM202.729 39.2248C202.729 43.4495 205.226 43.8251 206.165 43.8251C207.104 43.8251 209.601 43.4495 209.601 39.2248C209.601 35.0001 207.104 34.6246 206.165 34.6246C205.226 34.6246 202.729 35.0001 202.729 39.2248Z" fill="#A0A0A0"/>
<path d="M212.626 45.4771V43.4868C212.927 43.5619 213.171 43.5806 213.434 43.5806C214.485 43.5806 215.105 42.9422 215.105 36.5395V32.9719H223.31V45.4583H220.775V35.1688H217.471V36.5207C217.471 44.3317 216.213 45.5897 213.678 45.5897C213.358 45.5897 212.964 45.5334 212.607 45.4395L212.626 45.4771Z" fill="#A0A0A0"/>
<path d="M226.349 43.2614C227.607 41.1209 227.87 39.2621 227.87 36.9713V32.9719H236V43.2614H237.427V48.1058H234.93V45.4771H227.419V48.1058H224.922V43.2614H226.349ZM230.273 35.1876V36.9713C230.273 39.431 230.123 41.2336 228.996 43.2614H233.484V35.1876H230.292H230.273Z" fill="#A0A0A0"/>
<path d="M241.558 32.9719V39.3935L241.502 42.4353H241.558L242.46 40.614L246.834 32.9719H249.876V45.4583H247.341V39.018L247.398 35.9949H247.341L246.478 37.8914L242.065 45.4583H239.023V32.9719H241.558Z" fill="#A0A0A0"/>
<path d="M254.892 32.9719V38.004H259.962V32.9719H262.497V45.4583H259.962V40.0507H254.892V45.4583H252.357V32.9719H254.892Z" fill="#A0A0A0"/>
<path d="M272.652 32.9719V35.1876H267.507V45.4771H264.973V32.9907H272.652V32.9719Z" fill="#A0A0A0"/>
</g>
<defs>
<clipPath id="clip0_177_8513">
<rect width="377.727" height="62" fill="white"/>
</clipPath>
</defs>
</svg>
